<?xml version="1.0" encoding="UTF-8"?>
<!DOCTYPE svg PUBLIC "-//W3C//DTD SVG 1.1//EN" "http://www.w3.org/Graphics/SVG/1.1/DTD/svg11.dtd">
<!-- Creator: CorelDRAW 2019 (64-Bit) -->
<svg xmlns="http://www.w3.org/2000/svg" xml:space="preserve" width="109.939mm" height="31.3375mm" version="1.1" style="shape-rendering:geometricPrecision; text-rendering:geometricPrecision; image-rendering:optimizeQuality; fill-rule:evenodd; clip-rule:evenodd"
viewBox="0 0 3832.38 1092.4"
 xmlns:xlink="http://www.w3.org/1999/xlink">
 <defs>
  <style type="text/css">
   <![CDATA[
    .fil2 {fill:black}
    .fil6 {fill:#1A1A1A}
    .fil1 {fill:#333333}
    .fil3 {fill:#4D4D4D}
    .fil4 {fill:#666666}
    .fil5 {fill:#FF6600}
    .fil0 {fill:black;fill-rule:nonzero}
   ]]>
  </style>
 </defs>
 <g id="Слой_x0020_1">
  <metadata id="CorelCorpID_0Corel-Layer"/>
  <path class="fil0" d="M1317.84 714.37c0,0 64.97,-151.46 194.91,-454.29 0,0 17.01,0 51.03,0 0,0 65.18,151.46 195.43,454.29 0,0 -16.6,0 -49.81,0 0,0 -21.93,-51.03 -65.79,-153.1 0,0 -70.5,0 -211.62,0 0,0 -22.14,51.03 -66.41,153.1 0,0 -15.88,0 -47.75,0zm131.58 -194.3c0,0 58.82,0 176.47,0 0,0 -29.11,-69.38 -87.32,-208.34 0,0 -29.72,69.48 -89.16,208.34zm355.09 194.3c0,0 0,-112.11 0,-336.23 0,0 15.16,0 45.6,0 0,0 0,14.45 0,43.55 27.67,-34.43 63.64,-51.65 108.12,-51.65 23.77,0 45.5,4.41 65.18,13.32 19.57,8.92 35.97,21.83 49.19,38.84 10.86,14.45 18.45,30.23 22.85,47.45 4.41,17.22 6.56,39.97 6.56,68.15l0 176.57 -45.3 0c0,0 0,-58.82 0,-176.57 0,-22.55 -1.84,-40.89 -5.53,-54.73 -3.69,-13.94 -9.94,-26.23 -18.55,-36.79 -18.96,-23.06 -45.6,-34.53 -79.83,-34.53 -18.35,0 -35.25,3.79 -50.52,11.37 -15.37,7.59 -27.36,18.24 -36.17,31.87 -5.84,9.22 -9.94,19.37 -12.4,30.44 -2.36,11.07 -3.59,25.83 -3.59,43.96l0 184.98 -45.6 0zm406.84 117.95c0,0 18.34,-43.04 54.93,-129.02 0,0 -43.55,-108.42 -130.56,-325.17 0,0 16.6,0 49.81,0 0,0 35.56,89.36 106.58,268.08 0,0 37.92,-89.36 113.85,-268.08 0,0 16.09,0 48.27,0 0,0 -64.77,151.36 -194.2,454.19 0,0 -16.29,0 -48.68,0zm295.14 -117.95c0,0 0,-151.46 0,-454.29 0,0 41.71,0 125.23,0 29.41,0 53.49,1.84 72.14,5.43 18.75,3.59 35.15,9.74 49.09,18.34 17.21,10.15 30.54,25.11 39.97,44.89 9.43,19.67 14.14,42.63 14.14,68.86 0,22.85 -3.89,43.25 -11.79,61.28 -7.79,18.04 -18.96,32.38 -33.61,43.25 -13.73,10.15 -30.02,17.52 -48.57,21.93 -18.65,4.41 -43.25,6.56 -73.89,6.56l-87.42 0 0 183.75 -45.3 0zm45.3 -225.15l84.44 0c40.79,0 69.89,-5.12 87.31,-15.37 11.99,-6.35 21.32,-16.3 27.77,-29.72 6.56,-13.42 9.74,-29.1 9.74,-47.14 0,-22.14 -4.41,-40.79 -13.12,-55.65 -8.81,-14.96 -21.42,-25 -37.92,-30.23 -19.57,-6.56 -50.83,-9.84 -93.67,-9.84l-64.56 0 0 187.95zm643.16 -111.09c0,0 0,112.01 0,336.23 0,0 -15.27,0 -45.71,0 0,0 0,-19.67 0,-59.13 -17.73,23.98 -36.69,41.2 -56.57,51.65 -19.88,10.35 -44.07,15.58 -72.45,15.58 -34.23,0 -65.18,-7.58 -92.64,-22.65 -27.57,-15.16 -49.09,-36.07 -64.66,-62.72 -15.68,-26.75 -23.47,-56.78 -23.47,-89.98 0,-33.2 7.69,-63.33 23.16,-90.39 15.37,-26.95 36.58,-48.16 63.64,-63.64 26.95,-15.37 57.08,-23.06 90.28,-23.06 29.52,0 54.73,5.33 75.84,15.99 21.11,10.76 40.07,27.88 56.88,51.55l0 -59.44 45.71 0zm-178.93 33.61c-36.07,0 -66.81,13.02 -92.23,39.05 -25.42,26.03 -38.12,57.49 -38.12,94.59 0,37.82 13.01,69.79 39.05,95.92 26.03,26.13 57.7,39.15 94.89,39.15 36.58,0 67.33,-13.01 92.33,-38.84 24.9,-25.92 37.3,-58 37.3,-96.23 0,-38.32 -12.71,-70.09 -38.12,-95.51 -25.42,-25.41 -57.08,-38.12 -95.1,-38.12zm539.56 203.52c0,0 17.22,0 51.55,0 -9.53,18.24 -18.34,32.49 -26.34,42.83 -7.99,10.25 -17.63,19.68 -28.9,28.08 -30.75,24.18 -67.33,36.27 -109.55,36.27 -34.02,0 -65.07,-7.79 -93.05,-23.26 -28.08,-15.47 -50.01,-36.79 -66.1,-63.95 -15.99,-27.16 -23.98,-57.08 -23.98,-89.88 0,-32.28 7.99,-61.79 23.88,-88.64 15.89,-26.75 37.71,-47.96 65.28,-63.43 27.67,-15.58 58,-23.26 91,-23.26 38.02,0 71.94,9.84 101.87,29.72 29.92,19.78 51.75,46.63 65.38,80.44l-51.03 0c-13.02,-22.03 -29.62,-38.94 -49.6,-50.73 -19.98,-11.89 -42.43,-17.73 -67.23,-17.73 -37.4,0 -68.97,13.02 -94.69,39.05 -25.72,26.03 -38.63,57.9 -38.63,95.72 0,37.51 13.12,69.17 39.15,95.1 26.13,25.83 58.11,38.84 96.02,38.84 23.98,0 44.78,-5.02 62.21,-15.06 17.52,-9.94 35.15,-26.65 52.78,-50.11zm155.46 99.1c0,0 0,-98.38 0,-295.14 0,0 -24.08,0 -72.35,0 0,0 0,-13.73 0,-41.09 0,0 24.19,0 72.35,0 0,0 0,-39.35 0,-118.06 0,0 15.27,0 45.71,0 0,0 0,39.35 0,118.06 0,0 25.21,0 75.63,0 0,0 0,13.73 0,41.09 0,0 -25.21,0 -75.63,0 0,0 0,98.38 0,295.14 0,0 -15.27,0 -45.71,0z"/>
  <g id="_2110978466272">
   <path class="fil1" d="M47.81 452.57l160.84 0c0,-80.56 32.65,-153.49 85.45,-206.29l-113.72 -113.73c-81.9,81.9 -132.56,195.05 -132.56,320.02z"/>
   <path class="fil2" d="M180.37 132.55l113.72 113.73c52.8,-52.8 125.73,-85.45 206.29,-85.45l0 -160.84c-124.97,0 -238.11,50.65 -320.01,132.55z"/>
   <path class="fil3" d="M293.82 658.58c-52.64,-52.77 -85.17,-125.59 -85.17,-206.01l-160.84 0c0,124.83 50.55,237.87 132.29,319.75l113.72 -113.73z"/>
   <path class="fil4" d="M293.82 658.58l-113.72 113.73c0.48,0.48 0.97,0.96 1.45,1.44l0.82 0.82 317.84 317.82 0.17 -0.17 0 -187.09 0 -160.83c-80.7,0 -153.75,-32.76 -206.56,-85.72z"/>
   <path class="fil4" d="M500.37 744.3l0 160.83 0 187.09 309.07 -309.05 10.95 -10.59 -113.73 -113.72c-52.8,52.8 -125.73,85.45 -206.29,85.45z"/>
   <path class="fil2" d="M820.39 132.55l-113.72 113.73c-52.8,-52.8 -125.73,-85.45 -206.29,-85.45l0 -160.84c124.97,0 238.11,50.65 320.01,132.55z"/>
   <polygon class="fil5" points="496.46,441.64 496.46,323.18 249.27,76 -0,75.55 366.08,441.64 "/>
   <path class="fil6" d="M952.95 452.57l-160.84 0c0,-80.56 -32.65,-153.49 -85.45,-206.29l113.72 -113.73c81.9,81.9 132.56,195.05 132.56,320.02z"/>
   <path class="fil1" d="M706.94 658.58c52.64,-52.77 85.17,-125.59 85.17,-206.01l160.84 0c0,124.83 -50.55,237.87 -132.29,319.75l-113.72 -113.73z"/>
   <polygon class="fil5" points="573.21,406.93 573.21,525.4 820.4,772.58 1069.67,773.02 703.59,406.93 "/>
  </g>
 </g>
</svg>
