<svg width="49" height="43" viewBox="0 0 49 43" fill="none" xmlns="http://www.w3.org/2000/svg">

    <path
        d="M16.5646 43C18.5362 43 20.1345 41.3957 20.1345 39.4167C20.1345 37.4376 18.5362 35.8333 16.5646 35.8333C14.593 35.8333 12.9947 37.4376 12.9947 39.4167C12.9947 41.3957 14.593 43 16.5646 43Z"
        fill="#FF6600" />
    <path
        d="M41.554 43C43.5257 43 45.124 41.3957 45.124 39.4167C45.124 37.4376 43.5257 35.8333 41.554 35.8333C39.5824 35.8333 37.9841 37.4376 37.9841 39.4167C37.9841 41.3957 39.5824 43 41.554 43Z"
        fill="#FF6600" />
    <path
        d="M47.8906 6.35818C47.6399 6.05029 47.324 5.80231 46.9658 5.63225C46.6077 5.46219 46.2163 5.37432 45.8201 5.375H11.8668L11.183 1.48036C11.1101 1.06551 10.8938 0.689719 10.5723 0.41899C10.2508 0.148261 9.84447 -8.851e-05 9.42479 3.96185e-08H2.28496C1.81156 3.96185e-08 1.35755 0.188765 1.0228 0.524767C0.688058 0.86077 0.5 1.31649 0.5 1.79167C0.5 2.26685 0.688058 2.72256 1.0228 3.05857C1.35755 3.39457 1.81156 3.58333 2.28496 3.58333H7.92766L13.0215 32.5613C13.0944 32.9762 13.3106 33.3519 13.6322 33.6227C13.9537 33.8934 14.36 34.0418 14.7797 34.0417H43.339C43.8124 34.0417 44.2664 33.8529 44.6012 33.5169C44.9359 33.1809 45.124 32.7252 45.124 32.25C45.124 31.7748 44.9359 31.3191 44.6012 30.9831C44.2664 30.6471 43.8124 30.4583 43.339 30.4583H16.2768L15.6476 26.875H42.6072C43.2262 26.8742 43.8259 26.6588 44.3049 26.2651C44.7838 25.8715 45.1126 25.3239 45.2355 24.7149L48.4484 8.58992C48.5259 8.19968 48.516 7.79705 48.4195 7.4111C48.3231 7.02515 48.1424 6.66552 47.8906 6.35818Z"
        fill="#FF6600" />


</svg>