<svg width="48" height="40" viewBox="0 0 48 40" fill="none" xmlns="http://www.w3.org/2000/svg">

    <path fill-rule="evenodd" clip-rule="evenodd"
        d="M28.7226 21.014L16.7226 21.0399V17.2479V8.71591C16.7226 7.93714 16.2559 7.23757 15.5459 6.95199C14.8359 6.66641 14.0269 6.85291 13.5062 7.42224L0.499719 21.6422C-0.150948 22.3536 -0.168227 23.4521 0.45973 24.1844L13.4662 39.3524C13.9759 39.9469 14.7935 40.1566 15.5181 39.8788C16.2427 39.6009 16.7226 38.8938 16.7226 38.1039V28.6239L26.8645 28.598C27.8907 28.598 28.7226 27.7491 28.7226 26.702V21.014Z"
        fill="#FF6600" />
    <path fill-rule="evenodd" clip-rule="evenodd"
        d="M19.2774 18.986L31.2774 18.9601V22.7521V31.2841C31.2774 32.0629 31.7441 32.7624 32.4541 33.048C33.1641 33.3336 33.9731 33.1471 34.4938 32.5778L47.5003 18.3578C48.1509 17.6464 48.1682 16.5479 47.5403 15.8156L34.5338 0.647558C34.0241 0.0531058 33.2065 -0.15659 32.4819 0.121235C31.7573 0.399059 31.2774 1.1062 31.2774 1.89609V11.3761L21.1355 11.402C20.1093 11.402 19.2774 12.2509 19.2774 13.298V18.986Z"
        fill="#FF6600" />


</svg>