<svg width="209" height="174" viewBox="0 0 209 174" fill="none" xmlns="http://www.w3.org/2000/svg">
<path d="M50.7293 29.3187L32.2552 58H46.2701V157.429H54.5516L55.188 58H69.2035L50.7293 29.3187Z" fill="currentColor"/>
<path fill-rule="evenodd" clip-rule="evenodd" d="M30.3439 165.077V79.6705C30.5563 77.546 29.7323 72.6595 24.6106 72.6595H4.22527C1.04007 72.6595 -1.5081 69.7275 1.04007 65.6484C3.58823 61.5692 30.556 24.0073 43.7213 5.73626C45.5583 3.18681 47.9587 3.36061e-05 50.7293 2.42e-10C53.5 -3.36056e-05 55.5 3.5 57 5.73626L100.418 65.6484C103.604 69.4725 101.693 72.6595 97.2327 72.6595H76.8474C74.9363 72.8721 71.114 72.6595 71.114 79.6705V165.077C71.114 168.901 71.114 174 66.0177 174H34.8027C29.7064 174 30.3439 170.176 30.3439 165.077ZM10.5958 62.4615L46.5 12C46.5 12 48.9587 8.5 50.7293 8.5C52.5 8.5 54.5 12 54.5 12C67 28.8022 89.7702 60.154 91.4999 62.4615C93.4111 65.011 92.4465 66.9231 87.6777 66.9231H73.5C66.3651 66.9231 65 70.7473 65 75.2088V166.989H36.7144V75.2088C36.7144 69.6 32.8921 67.348 30.3439 66.9231H13.781C11.2328 66.9231 8.68466 65.011 10.5958 62.4615Z" fill="currentColor"/>
<path d="M157.311 144.681L138.837 116H152.852V16.5714H161.134L161.77 116H175.786L157.311 144.681Z" fill="currentColor"/>
<path fill-rule="evenodd" clip-rule="evenodd" d="M136.926 8.92288V94.3295C137.138 96.454 136.314 101.34 131.193 101.34H110.807C107.622 101.34 105.074 104.273 107.622 108.352C110.17 112.431 137.138 149.993 150.303 168.264C152.14 170.813 154.541 174 157.311 174C160.082 174 162.082 170.5 163.582 168.264L207 108.352C210.186 104.527 208.275 101.34 203.815 101.34H183.43C181.518 101.128 177.696 101.34 177.696 94.3295V8.92288C177.696 5.0989 177.696 0 172.6 0H141.385C136.288 0 136.926 3.82418 136.926 8.92288ZM117.178 111.538L153.082 162C153.082 162 155.541 165.5 157.311 165.5C159.082 165.5 161.082 162 161.082 162C173.582 145.198 196.352 113.846 198.082 111.538C199.993 108.989 199.029 107.077 194.26 107.077H180.082C172.947 107.077 171.582 103.253 171.582 98.7912V7.01099H143.297V98.7912C143.297 104.4 139.474 106.652 136.926 107.077H120.363C117.815 107.077 115.267 108.989 117.178 111.538Z" fill="currentColor"/>
</svg>
