<svg width="171" height="191" viewBox="0 0 171 191" fill="none" xmlns="http://www.w3.org/2000/svg">
<path fill-rule="evenodd" clip-rule="evenodd" d="M78 51C47 51 15 75.9994 15 113.999C15 157.499 51 175 78 175C112 175 139.5 150.499 139.5 113.999C139.5 74.9995 107.5 51 78 51ZM22 113.999C22 75.9994 54.5039 58.4994 78 58.4994C101.496 58.4994 133 78.9994 133 113.999C133 144.499 107.496 168 78 168C60.4961 168 22 155.499 22 113.999Z" fill="currentColor"/>
<path fill-rule="evenodd" clip-rule="evenodd" d="M78 58.4994C54.5039 58.4994 22 75.9994 22 113.999C22 155.499 60.4961 168 78 168C107.496 168 133 144.499 133 113.999C133 78.9994 101.496 58.4994 78 58.4994ZM78 51C47 51 15 75.9994 15 113.999C15 157.499 51 175 78 175C112 175 139.5 150.499 139.5 113.999C139.5 74.9995 107.5 51 78 51Z" fill="currentColor"/>
<path d="M78 130.999C68.0589 130.999 60 122.941 60 112.999C60 104.08 66.4869 96.6765 75 95.2483V78.5H81V95.2483C88.5377 96.5129 94.4869 102.462 95.7512 110H110V116L95.7512 115.999C94.3232 124.512 86.9192 130.999 78 130.999Z" fill="currentColor"/>
<path fill-rule="evenodd" clip-rule="evenodd" d="M15 113.999C15 75.9994 47 51 78 51C107.5 51 139.5 74.9995 139.5 113.999C139.5 150.499 112 175 78 175C51 175 15 157.499 15 113.999ZM22 113.999C22 75.9994 54.5039 58.4994 78 58.4994C101.496 58.4994 133 78.9994 133 113.999C133 144.499 107.496 168 78 168C60.4961 168 22 155.499 22 113.999ZM78 130.999C68.0589 130.999 60 122.941 60 112.999C60 104.08 66.4869 96.6765 75 95.2483V78.5H81V95.2483C88.5377 96.5129 94.4869 102.462 95.7512 110H110V116L95.7512 115.999C94.3232 124.512 86.9192 130.999 78 130.999Z" fill="currentColor"/>
<path fill-rule="evenodd" clip-rule="evenodd" d="M0 113.999C0 158 32.0001 191 78 191C120.824 191 150.214 160.233 154.069 122.5H165C170 122.5 171 121 171 116V106.5C171 102 170 100 165 100H160.621H153.241C149.262 78.008 136.106 58.4931 117.5 46.837L111 43.1997C106.571 41.0032 99.8908 38.7881 95 37.5C95 37.5 90.6027 36.4919 87.5 36.0978C85.6413 35.8617 83.7585 35.6939 81.8537 35.5974V29.5C88.27 27.7986 92.9987 21.9515 92.9987 15C92.9987 6.71573 86.283 0 77.9987 0C69.7144 0 62.9987 6.71573 62.9987 15C62.9987 21.9515 67.7274 27.7986 74.1437 29.5V35.5909C71.3867 35.7212 68.6698 35.9907 66 36.3926C62.0935 36.9808 59.5 37.6525 59.5 37.6525C54.6325 38.8109 49.9509 40.419 45.5 42.4325C41.0491 44.4461 39 45.7528 39 45.7528C15.5794 59.1539 0 84.4313 0 113.999ZM7 113.999C7 75.9994 40.4987 43 77.9987 43C115.499 43 147 72.4988 147 113.999C147 155.5 112 183.5 77.9987 183.5C43.9974 183.5 7 158 7 113.999ZM154.14 106.5C154.378 108.978 154.5 111.481 154.5 113.999C154.5 114.668 154.492 115.335 154.476 116H165V106.5H154.14ZM78 23C82.4183 23 86 19.4183 86 15C86 10.5817 82.4183 7 78 7C73.5818 7 70 10.5817 70 15C70 19.4183 73.5818 23 78 23Z" fill="currentColor"/>
<path fill-rule="evenodd" clip-rule="evenodd" d="M78 51C47 51 15 75.9994 15 113.999C15 157.499 51 175 78 175C112 175 139.5 150.499 139.5 113.999C139.5 74.9995 107.5 51 78 51ZM78 58.4994C54.5039 58.4994 22 75.9994 22 113.999C22 155.499 60.4961 168 78 168C107.496 168 133 144.499 133 113.999C133 78.9994 101.496 58.4994 78 58.4994ZM60 112.999C60 122.941 68.0589 130.999 78 130.999C86.9192 130.999 94.3232 124.512 95.7512 115.999L110 116V110H95.7512C94.4869 102.462 88.5377 96.5129 81 95.2483V78.5H75V95.2483C66.4869 96.6765 60 104.08 60 112.999Z" fill="currentColor"/>
</svg>
