<?xml version="1.0" standalone="no"?>
<!DOCTYPE svg PUBLIC "-//W3C//DTD SVG 20010904//EN"
 "http://www.w3.org/TR/2001/REC-SVG-20010904/DTD/svg10.dtd">
<svg version="1.0" xmlns="http://www.w3.org/2000/svg"
 width="100.000000pt" height="100.000000pt" viewBox="0 0 100.000000 100.000000"
 preserveAspectRatio="xMidYMid meet">

<g transform="translate(0.000000,100.000000) scale(0.100000,-0.100000)"
fill="currentColor" stroke="none">
<path d="M52 888 c-17 -17 -17 -539 0 -556 7 -7 39 -12 75 -12 l63 0 0 -30 c0
-17 -7 -44 -15 -59 -8 -16 -12 -31 -9 -34 15 -14 102 30 147 75 46 46 51 48
102 48 l55 0 0 -43 c0 -23 7 -53 16 -65 14 -20 23 -22 119 -22 l103 0 21 -32
c22 -36 49 -56 94 -69 l29 -8 -7 42 c-4 23 -8 46 -9 52 0 5 22 12 49 15 28 3
56 9 63 13 17 11 17 388 0 405 -7 7 -43 12 -90 12 l-78 0 0 124 c0 100 -3 128
-16 140 -13 14 -60 16 -358 16 -253 0 -345 -3 -354 -12z m698 -138 l0 -130
-124 0 c-159 0 -156 3 -156 -162 l0 -118 -64 0 c-62 0 -66 -2 -83 -30 -17 -29
-68 -69 -105 -83 -21 -7 -21 -4 -8 43 18 62 8 70 -76 70 l-74 0 0 270 0 270
345 0 345 0 0 -130z m188 -342 l-3 -193 -55 -3 c-30 -2 -58 -9 -62 -15 -4 -7
-5 -29 -1 -49 4 -27 2 -38 -7 -38 -17 0 -80 65 -80 84 0 13 -18 16 -112 18
l-113 3 -3 193 -2 192 220 0 220 0 -2 -192z"/>
<path d="M344 798 c-23 -11 -49 -57 -38 -67 4 -3 9 0 12 8 10 30 43 51 78 51
56 0 74 -15 74 -60 0 -32 -5 -43 -27 -57 -16 -9 -36 -26 -45 -37 -19 -22 -25
-96 -8 -96 6 0 10 13 10 29 0 43 9 60 42 77 34 17 57 64 50 100 -10 53 -90 81
-148 52z"/>
<path d="M370 471 c0 -26 17 -36 35 -21 18 15 8 40 -16 40 -12 0 -19 -7 -19
-19z"/>
<path d="M632 497 c-18 -18 -32 -37 -32 -43 0 -15 69 -79 77 -71 3 4 -4 18
-17 32 l-23 25 47 0 c61 0 82 -12 96 -56 8 -23 16 -32 22 -26 13 13 -14 65
-44 86 -13 9 -43 16 -70 16 -52 0 -58 7 -28 35 21 19 26 35 12 35 -4 0 -22
-15 -40 -33z"/>
<path d="M557 303 c-11 -10 -8 -43 3 -43 6 0 10 11 10 25 0 26 -2 29 -13 18z"/>
<path d="M790 286 c0 -14 5 -26 10 -26 6 0 10 9 10 19 0 11 -4 23 -10 26 -6 4
-10 -5 -10 -19z"/>
<path d="M864 296 c-4 -10 -2 -22 4 -28 8 -8 13 -7 18 6 4 10 2 22 -4 28 -8 8
-13 7 -18 -6z"/>
<path d="M630 280 c0 -11 5 -20 10 -20 6 0 10 9 10 20 0 11 -4 20 -10 20 -5 0
-10 -9 -10 -20z"/>
<path d="M710 280 c0 -11 5 -20 10 -20 6 0 10 9 10 20 0 11 -4 20 -10 20 -5 0
-10 -9 -10 -20z"/>
</g>
</svg>
