<svg width="188" height="182" viewBox="0 0 188 182" fill="none" xmlns="http://www.w3.org/2000/svg">
<path d="M48.5 39.4999V47.9999H139.5V39.4999H48.5Z" fill="currentColor"/>
<path d="M48.5 52.5V61H139.5V52.5H48.5Z" fill="currentColor"/>
<path d="M48.5 67.9999V76.4999H90.5V67.9999H48.5Z" fill="currentColor"/>
<path d="M97.5 67.9999V76.4999H139.5V67.9999H97.5Z" fill="currentColor"/>
<path d="M47.5 160L94 117.5L141 160H47.5Z" fill="currentColor"/>
<path fill-rule="evenodd" clip-rule="evenodd" d="M2.5 71C4.50012 68.9999 13 61 13 61V22.5C13 17.4999 16 16 19 16H23V5.5C23 0 28 0 29.5 0H159.5C163.5 0 165 3.66667 165 5.5V16H168C173.2 16 174.833 20.3333 175 22.5V61C175 61 183.5 68.9999 185.5 71C186.5 71.9999 188 74 188 78V171C188 178.2 184.5 181.5 177.5 181.5H9.5C3 181.5 -2.23272e-07 177.5 0 171V78C0 74 1.50002 71.9999 2.5 71ZM9.5 78V166L60 117.5L9.5 78ZM65.5 111.5L22 78V22.5H165V78L122 111.5L103.5 94.4999C103.312 94.3748 103.092 94.2183 102.841 94.0402C101.086 92.7959 97.8492 90.4999 94 90.4999C89.6 90.4999 85.8333 93.3333 84.5 94.4999L65.5 111.5ZM13 173L86.5 104.5C87.5 103.167 90.4 100.5 94 100.5C97.6 100.5 100.5 103.167 101.5 104.5L173 173H13ZM29 6.5V16H158.5V6.5H29ZM177.5 166V78L127.5 117.5L177.5 166Z" fill="currentColor"/>
</svg>
