<svg width="30" height="30" viewBox="0 0 30 30" fill="none" xmlns="http://www.w3.org/2000/svg">
    <path d="M1.61548 3.46155H28.3847" stroke="white" stroke-linecap="round" />
    <path d="M1.61548 15H28.3847" stroke="white" stroke-linecap="round" />
    <path d="M1.61548 26.5385H28.3847" stroke="white" stroke-linecap="round" />
    <path
        d="M23.923 0H21.6922C20.4602 0 19.4614 1.03319 19.4614 2.30769V4.61538C19.4614 5.88989 20.4602 6.92308 21.6922 6.92308H23.923C25.155 6.92308 26.1537 5.88989 26.1537 4.61538V2.30769C26.1537 1.03319 25.155 0 23.923 0Z"
        fill="white" />
    <path
        d="M16.1153 11.5385H13.8846C12.6526 11.5385 11.6538 12.5716 11.6538 13.8461V16.1538C11.6538 17.4283 12.6526 18.4615 13.8846 18.4615H16.1153C17.3474 18.4615 18.3461 17.4283 18.3461 16.1538V13.8461C18.3461 12.5716 17.3474 11.5385 16.1153 11.5385Z"
        fill="white" />
    <path
        d="M23.923 23.0769H21.6922C20.4602 23.0769 19.4614 24.1101 19.4614 25.3846V27.6923C19.4614 28.9668 20.4602 30 21.6922 30H23.923C25.155 30 26.1537 28.9668 26.1537 27.6923V25.3846C26.1537 24.1101 25.155 23.0769 23.923 23.0769Z"
        fill="white" />
</svg>