<?xml version="1.0" encoding="UTF-8"?>
<!DOCTYPE svg PUBLIC "-//W3C//DTD SVG 1.1//EN" "http://www.w3.org/Graphics/SVG/1.1/DTD/svg11.dtd">
<svg xmlns="http://www.w3.org/2000/svg" version="1.1" width="28px" height="28px" style="shape-rendering:geometricPrecision; text-rendering:geometricPrecision; image-rendering:optimizeQuality; fill-rule:evenodd; clip-rule:evenodd" xmlns:xlink="http://www.w3.org/1999/xlink">
<g><path style="opacity:0.579" fill="currentColor" d="M 10.5,-0.5 C 12.5,-0.5 14.5,-0.5 16.5,-0.5C 16.5,0.833333 16.5,2.16667 16.5,3.5C 18.6498,3.09477 20.6498,2.59477 22.5,2C 24.9938,4.24357 24.9938,6.5769 22.5,9C 23.9047,10.2692 25.5714,10.7692 27.5,10.5C 27.5,12.5 27.5,14.5 27.5,16.5C 22.7345,16.057 21.7345,17.557 24.5,21C 22.8359,24.7205 20.1692,25.5539 16.5,23.5C 16.5,24.8333 16.5,26.1667 16.5,27.5C 14.5,27.5 12.5,27.5 10.5,27.5C 10.5,26.1667 10.5,24.8333 10.5,23.5C 8.13053,23.8511 5.7972,24.0178 3.5,24C 2.64332,23.3109 1.97665,22.4776 1.5,21.5C 2.95012,20.1502 3.61679,18.4835 3.5,16.5C 2.16667,16.5 0.833333,16.5 -0.5,16.5C -0.5,14.5 -0.5,12.5 -0.5,10.5C 3.78947,10.2558 4.45614,8.58913 1.5,5.5C 2.31277,4.18614 3.31277,3.01948 4.5,2C 6.35017,2.59477 8.35017,3.09477 10.5,3.5C 10.5,2.16667 10.5,0.833333 10.5,-0.5 Z M 12.5,1.5 C 14.1765,2.18342 14.8432,3.51676 14.5,5.5C 15.9305,5.42082 17.2638,5.75415 18.5,6.5C 19.6199,5.1666 20.9532,4.6666 22.5,5C 19.4025,9.20619 20.4025,12.0395 25.5,13.5C 20.6315,14.7122 19.6315,17.2122 22.5,21C 22,21.5 21.5,22 21,22.5C 17.2122,19.6315 14.7122,20.6315 13.5,25.5C 12.8333,24.1667 12.1667,22.8333 11.5,21.5C 9.20721,20.7643 6.87387,20.5976 4.5,21C 7.3478,17.2694 6.3478,14.7694 1.5,13.5C 5.99087,11.8867 6.99087,9.22006 4.5,5.5C 4.83333,5.16667 5.16667,4.83333 5.5,4.5C 9.2858,7.10999 11.6191,6.10999 12.5,1.5 Z M 11.5,10.5 C 17.1755,10.8597 17.8421,12.8597 13.5,16.5C 10.5313,15.2351 9.8646,13.2351 11.5,10.5 Z"/></g>
<g><path style="opacity:0.606" fill="currentColor" d="M 10.5,8.5 C 17.4883,7.64781 19.8216,10.4811 17.5,17C 8.83766,19.5009 6.50432,16.6675 10.5,8.5 Z M 11.5,10.5 C 9.8646,13.2351 10.5313,15.2351 13.5,16.5C 17.8421,12.8597 17.1755,10.8597 11.5,10.5 Z"/></g>
</svg>
