<?xml version="1.0" standalone="no"?>
<!DOCTYPE svg PUBLIC "-//W3C//DTD SVG 20010904//EN"
 "http://www.w3.org/TR/2001/REC-SVG-20010904/DTD/svg10.dtd">
<svg version="1.0" xmlns="http://www.w3.org/2000/svg"
 width="27.000000pt" height="29.000000pt" viewBox="0 0 27.000000 29.000000"
 preserveAspectRatio="xMidYMid meet">

<g transform="translate(0.000000,29.000000) scale(0.100000,-0.100000)"
fill="currentColor" stroke="none">
<path d="M76 259 c-14 -17 -26 -41 -26 -53 0 -28 67 -166 81 -166 14 0 61 80
75 128 15 50 7 82 -28 106 -36 25 -73 20 -102 -15z m99 -1 c24 -19 27 -26 22
-64 -5 -48 -53 -138 -68 -129 -5 4 -21 28 -34 55 -44 87 -27 154 41 159 6 1
24 -9 39 -21z"/>
<path d="M99 224 c-14 -18 -5 -40 25 -58 25 -16 60 27 46 55 -13 23 -53 25
-71 3z m56 -19 c0 -13 -8 -21 -22 -23 -17 -3 -23 2 -23 16 0 10 3 22 7 26 13
13 38 1 38 -19z"/>
<path d="M22 79 c-17 -6 -22 -15 -20 -31 9 -62 268 -60 268 2 0 18 -39 40 -68
39 -9 0 0 -7 21 -16 20 -8 37 -18 37 -22 0 -17 -58 -32 -125 -32 -116 0 -160
30 -84 57 21 8 26 13 14 13 -11 0 -30 -4 -43 -10z"/>
</g>
</svg>
