<svg width="44" height="48" viewBox="0 0 44 48" fill="none" xmlns="http://www.w3.org/2000/svg">

    <path
        d="M20.7219 24.5222L20.7219 12.4882L16.6892 12.4882C12.9997 12.4882 11.0542 10.0587 11.0542 7.69726C11.0542 5.24498 12.8432 3.79181 15.2358 3.79181C17.9862 3.79181 20.7219 5.9489 20.7219 9.55906L20.7219 12.4882L23.5 12.5L23.5 9.5C23.5 5.88984 26.0137 3.79181 28.764 3.79181C31.1567 3.79181 32.9679 5.24498 32.9679 7.69726C32.9679 10.0587 30.9554 12.4882 27.3106 12.4882L23.5 12.5L23.5 24.5L39.7433 24.5222C42.1807 24.5222 43.5 23.5686 43.5 21.139V15.8713C43.5 13.4645 42.1807 12.4882 39.7433 12.4882H34.5331C35.9195 11.2166 36.747 9.49095 36.747 7.53828C36.747 3.1561 33.3257 0 28.9877 0C25.7678 0 23.1516 1.81637 22.0111 5.04066C20.8707 1.81637 18.2321 0 15.0122 0C10.6965 0 7.25295 3.1561 7.25295 7.53828C7.25295 9.49095 8.0579 11.2166 9.46667 12.4882H4.25662C1.95342 12.4882 0.5 13.4645 0.5 15.8713V21.139C0.5 23.5686 1.8416 24.5222 4.25662 24.5222L20.7219 24.5222ZM20.7219 48L20.7219 26.9517L3.69754 26.9517V42.2327C3.69754 46.0247 5.88893 48 9.62313 48L20.7219 48ZM23.5 26.9517V48L34.3767 48C38.1109 48 40.3023 46.0247 40.3023 42.2327V26.9517L23.5 26.9517Z"
        fill="#FF6600" />


</svg>