<svg width="48" height="44" viewBox="0 0 48 44" fill="none" xmlns="http://www.w3.org/2000/svg">

    <path
        d="M30.2984 30.2187C30.4176 30.2095 30.5442 30.1995 30.6768 30.1886C32.0724 29.9559 32.4227 28.4235 32.4227 27.2636C32.4227 26.0053 31.3842 24.6421 30.2984 24.6135H18.5166C15.571 24.6135 12.7389 25.8718 10.813 28.1597L7.64085 31.8203V42.8019H13.6451C14.2115 42.8019 14.778 42.8019 15.2312 42.6875L31.2049 40.8573C33.8106 40.5141 36.303 39.5989 38.4554 37.9974L48 30.9337C45.923 27.7879 42.9871 28.0452 41.4011 28.9603L36.5297 31.2482C34.8303 32.0489 33.0177 32.5065 31.0918 32.5065H20.1027C19.4231 32.5065 18.9699 32.049 18.9699 31.3626C18.9699 30.6764 19.423 30.2187 20.1027 30.2187H30.2984Z"
        fill="#FF6600" />
    <path
        d="M0 31.4168C0 30.8377 0.464944 30.3682 1.03848 30.3682H4.15393C4.72747 30.3682 5.19241 30.8377 5.19241 31.4168V42.9514C5.19241 43.5305 4.72747 44 4.15393 44H1.03848C0.464944 44 0 43.5305 0 42.9514V31.4168Z"
        fill="#FF6600" />
    <path
        d="M20.9523 10.486C17.7802 10.486 15.2878 13.0026 15.2878 16.2057C15.2878 19.4087 17.7802 21.9253 20.9523 21.9253C24.1244 21.9253 26.6167 19.4087 26.6167 16.2057C26.6167 13.0026 24.1244 10.486 20.9523 10.486Z"
        fill="#FF6600" />
    <path
        d="M37.568 10.486C34.3959 10.486 31.9035 13.0026 31.9035 16.2057C31.9035 19.4087 34.3959 21.9253 37.568 21.9253C40.7401 21.9253 43.2325 19.4087 43.2325 16.2057C43.2325 13.0026 40.7401 10.486 37.568 10.486Z"
        fill="#FF6600" />
    <path
        d="M29.1657 0C26.6733 0 24.6342 2.05903 24.6342 4.57567C24.6342 7.09231 26.6733 9.15134 29.1657 9.15134C31.658 9.15134 33.6972 7.09231 33.6972 4.57567C33.6972 2.05903 31.658 0 29.1657 0Z"
        fill="#FF6600" />


</svg>