<svg width="48" height="43" viewBox="0 0 48 43" fill="none" xmlns="http://www.w3.org/2000/svg">
    
        <path d="M20.6897 43H27.3104L27.3104 28.7188H20.6897L20.6897 43Z" fill="#FF6600" />
        <path fill-rule="evenodd" clip-rule="evenodd"
            d="M0.810187 19.7145C-0.838896 21.1739 0.197951 23.8889 2.40433 23.8889H4.80385V40.6111C4.80385 41.9305 5.87816 43 7.20337 43H18.2069L18.2069 29.5457C18.2069 27.4784 18.2069 26.2778 19.8621 26.2778H28.1379C29.7931 26.2778 29.7931 27.4784 29.7931 29.5457L29.7931 43H40.7966C42.1219 43 43.1962 41.9305 43.1962 40.6111V23.8889H45.5957C47.802 23.8889 48.8389 21.1739 47.1899 19.7145L25.5942 0.603385C24.6851 -0.201161 23.3149 -0.201161 22.4058 0.603385L0.810187 19.7145Z"
            fill="#FF6600" />
 

</svg>