<svg width="199" height="198" viewBox="0 0 199 198" fill="none" xmlns="http://www.w3.org/2000/svg">
<path fill-rule="evenodd" clip-rule="evenodd" d="M127.499 45.4965C127.499 53.2285 121.231 59.4965 113.499 59.4965C105.767 59.4965 99.499 53.2285 99.499 45.4965C99.499 37.7645 105.767 31.4965 113.499 31.4965C121.231 31.4965 127.499 37.7645 127.499 45.4965ZM113.498 53.4965C117.916 53.4965 121.498 49.9148 121.498 45.4965C121.498 41.0783 117.916 37.4965 113.498 37.4965C109.08 37.4965 105.498 41.0783 105.498 45.4965C105.498 49.9148 109.08 53.4965 113.498 53.4965Z" fill="currentColor"/>
<path fill-rule="evenodd" clip-rule="evenodd" d="M82.5007 45.5009C82.5007 28.38 96.3798 14.5009 113.501 14.5009C130.621 14.5009 144.501 28.38 144.501 45.5009C144.501 58.1744 136.895 69.0717 126 73.8778V87.5H132.5V95.5H126V103.5H141.499V110.5H110C103.2 110.5 101.5 107.5 101.5 103V73.8778C89.8095 69.4395 82.5007 58.7477 82.5007 45.5009ZM113.497 69.4967C126.751 69.4967 137.497 58.7516 137.497 45.4967C137.497 32.2419 126.751 21.4967 113.497 21.4967C100.242 21.4967 89.4966 32.2419 89.4966 45.4967C89.4966 58.7516 100.242 69.4967 113.497 69.4967ZM109.5 76.1767C111.042 76.4672 112.078 76.5008 113.501 76.5008C115.029 76.5008 116.531 76.3903 118 76.1767V103.5H109.5V76.1767Z" fill="currentColor"/>
<path fill-rule="evenodd" clip-rule="evenodd" d="M113.499 59.4965C121.231 59.4965 127.499 53.2285 127.499 45.4965C127.499 37.7645 121.231 31.4965 113.499 31.4965C105.767 31.4965 99.499 37.7645 99.499 45.4965C99.499 53.2285 105.767 59.4965 113.499 59.4965ZM113.498 53.4965C117.916 53.4965 121.498 49.9148 121.498 45.4965C121.498 41.0783 117.916 37.4965 113.498 37.4965C109.08 37.4965 105.498 41.0783 105.498 45.4965C105.498 49.9148 109.08 53.4965 113.498 53.4965Z" fill="currentColor"/>
<path fill-rule="evenodd" clip-rule="evenodd" d="M10 87.5C4.50022 87.5 2.43018e-08 90 2.43018e-08 97.5V165.5C-0.000220479 170 1.5 174.5 9.49985 174.5H29.0003C35.5 174.5 38.0002 173.5 38.0002 165.5V161.5C38.6669 161.167 40.4002 160.7 42.0002 161.5C43.6002 162.3 72.8333 183.333 87.5 194C88.5 195 92.0002 197.5 96.0002 197.5H113C114.167 197.333 117.401 196.233 120 194.5C123 192.5 162.5 170.5 191.5 149.5C194.76 147.139 197.6 143.9 198 141.5C198.75 137 198 129 194 126.5C190 124 187.5 123 182 123C176.5 123 129.5 139 125.5 139H120C120 139 120.485 135.351 120.5 133C120.516 130.454 120 126.5 120 126.5C119.5 123.667 116.8 118.3 110 117.5H73C72.3333 117.333 69.8604 115.79 68 113C64.9998 108.5 63.5 106.5 61.5 103.5C60.7546 102.382 60 100.5 58.0002 100.5H38.0002V97.5C38.0002 93 35.8004 87.5 29.0003 87.5H10ZM9.49985 168.5C7 168.5 6.49682 167 6.49609 165.5L6.49985 97.5C6.49985 95 7.49971 94 10 94H29.0003C31.5 94 32.5003 95.5 32.5003 97.5L32.5 165.5C32.5 168 31.5 168.5 29.0003 168.5H22.5003V152.5H16.0003V168.5H9.49985ZM38.0002 152.5V109.5H57C59.5 112.5 61.6992 115.766 63 117.5C64.5 119.5 66 121 67.5 122.5C69 124 71.5 124.5 73 124.5H107C111 124.5 112.5 127.7 112.5 132.5C112.5 136.5 111 140 107 140H68V149.5H119.5C123.5 149.5 134.833 145.833 140 144C155 138.667 180 129.5 186.5 130.5C193 131.5 191.5 139 190 141C188.918 142.442 185 144.5 183.5 146C163.333 158.5 122.3 184 119.5 186C116.7 188 112 188.833 110 189H96.0002C95.5001 189.167 93.6 188.9 90 186.5C86.4 184.1 56.5001 162.833 42.0002 152.5H38.0002Z" fill="currentColor"/>
<path d="M74.4995 45.5002C74.4995 23.9611 91.9604 6.50018 113.5 6.50018C135.039 6.50018 152.5 23.9611 152.5 45.5002C152.5 55.0133 149.094 63.7309 143.434 70.5C142.816 71.2399 142.17 71.9565 141.499 72.6483L147.368 77.1281C154.901 68.9368 159.5 58.0055 159.5 46C159.5 20.5949 138.905 0 113.5 0C88.0949 0 67.5 20.5949 67.5 46C67.5 58.0041 72.0981 68.9343 79.6291 77.1253L85.4998 72.6483C84.8289 71.9565 84.1834 71.2399 83.5649 70.5C77.9056 63.7309 74.4995 55.0133 74.4995 45.5002Z" fill="currentColor"/>
</svg>
