<svg width="195" height="159" viewBox="0 0 195 159" fill="none" xmlns="http://www.w3.org/2000/svg">
<path d="M123.999 78.5H168.499C165.499 83.6667 161.499 92.5 146.499 92.5C131.999 92.5 127.165 83.6667 123.999 78.5Z" fill="currentColor"/>
<path d="M123.999 129.5H168.499C165.499 124.333 161.499 115.5 146.499 115.5C131.999 115.5 127.165 124.333 123.999 129.5Z" fill="currentColor"/>
<path fill-rule="evenodd" clip-rule="evenodd" d="M186.999 139.499C183.832 127.666 173.999 108 161.999 104C173.999 100 183.832 80.3331 186.999 68.5H191C193 68.5 194.5 67 194.5 65V52C194.5 49.6 193 48.5 191 48.5H165V6C165 1.6 160.666 0.166667 158.499 0H6.99865C3 0 0 1 0 6C0 10.4 0.5 108.5 0.5 108.5C0.5 114 3 116 6.99865 116H115.5C114 118.5 112.5 121 111.465 123.5H6.99865V129.5H108.563C107.004 133.078 105.792 136.535 104.999 139.499H100.499C98 139.5 97.4986 141.5 97.4986 143V155.5C97.5 158 99 158.5 100.499 158.5H191C193 158.5 194.5 157.5 194.5 155.5V142.5C194.5 140 192.5 139.499 191 139.499H186.999ZM178.999 139H112.999C115.165 127.833 124.499 107 145.999 107C167.499 107 177.499 128.167 178.999 139ZM112.999 68.5C115.165 79.6667 124.499 101 145.999 101C167.499 101 177.499 79.3333 178.999 68.5H112.999ZM100.499 68.5L104.999 68.5008C105.792 71.4654 107.004 74.9216 108.563 78.5L39.9986 79C39.9986 75.5 39.0611 71 35.9986 67.5C32.9361 64 26.4986 61.5 22.4986 61.5V36.5C25.9986 36.5 32.4986 34.1111 35.9986 31C39.4986 27.8889 41.4986 23 41.4986 20H122.999C123.499 23.5 124.499 27.875 129.999 32C135.345 36.0097 139.746 36.0037 142.284 36.0002L142.499 36V48.5H103.499C103.499 34 91.5 26 81 26C70.5 26 58.5 34.5 58.5 48.5C58.5 63 71 71 81 71C89 71 94.5 67 97.5 64C97.5 66.8 99.332 68.3333 100.499 68.5ZM148.999 29.5V48.5H158.499V6H6.99865V94H117.574C115.349 91.1914 113.437 88.1934 111.999 85.5H32.4986C32.4986 84.8943 32.5183 84.2772 32.5383 83.6503C32.6501 80.1372 32.7717 76.3186 29.4986 72.5C25.6415 68 20.9986 67.5 16.4986 67.5V29.5C18.9986 29.5 26.5486 29.5 31.4986 25C35.0313 21.7885 35.444 18.0098 35.8367 14.4153C35.8886 13.9397 35.9402 13.4674 35.9986 13H129.499C129.499 13 130.256 23.1361 134.499 26.5C138.731 29.8552 148.999 29.5 148.999 29.5ZM129.999 104C127.769 103.257 125.576 101.901 123.499 100.178H6.99865V106C6.83198 107.167 7.19865 109.5 9.99865 109.5H121.547C124.186 106.943 127.026 104.991 129.999 104ZM103.5 152.5V146H188V152.5H103.5ZM103.5 62V55H188V62H103.5ZM66 48.5C66 39 74 33 81 33C91.5 33 97 41.2979 97 48.5C97 57.5 89.5 64 81 64C74.5 64 66 58.5 66 48.5Z" fill="currentColor"/>
</svg>
