<svg width="198" height="172" viewBox="0 0 198 172" fill="none" xmlns="http://www.w3.org/2000/svg">
<path fill-rule="evenodd" clip-rule="evenodd" d="M7 161H0V171.5H197.5V161H190.5V62.0001C190.5 58.5 189.8 55.9001 185 55.5001H168.5V43.75V30C168.5 25 167 23.4999 162.5 23.4999H137V9C137 5.5 134.5 3 131.5 3C124 3 123.5 15.5 118 15.5C112.5 15.5 110.5 4.68394e-06 102.5 0C94 -4.97668e-06 92.5 15 87.5 15C82.5 15 79.5 0 72.5 0C64.5 0 62 15 57.5 15C52.5 15 50.5 3 45 3C42 3 39.5 5.5 39.5 9V23.4999H13.5C11.3333 23.3333 7 24.5 7 30.5V161ZM15 31.5H39.5V39H28.5C25 39 23 41 23 45V58C23 62 26.3333 64 28.5 64C66.6667 64 144.9 64.5 148.5 64.5C151 64.5 152.5 63 152.5 60V44C152.5 41 151.5 39 148.5 39H137V31.5H160V161H152.5V149C152.5 146.5 151 145.5 148 145.5H118.5C116 145.5 114 146.5 114 149V161H107V149C107 147 105 145.5 102.5 145.5H73C69.5 145.5 68.5 147 68.5 149V161H61.5V149C61.5 146.2 59.5 145.5 56.5 145.5H29.5C25.5 145.5 23.5 146.5 23.5 149V161H15V31.5ZM29.5 45H39.5V58H29.5V45ZM146 45H137V58H146V45ZM45.5 58V9L48 13.5C49.3333 16.5 53 21 57.5 21C66 21 67 7 72.5 7C78 7 79 21 87.5 21C96.5 21 96.5 7 102.5 7C108.5 7 109 21 118 21C122 21 125.5 17.5 127.5 13.5L130.5 9V58H45.5ZM181.5 64.5H168.5V161H181.5V64.5ZM29.5 161V152H55.5V161H29.5ZM75 161V152H101V161H75ZM120 161V152H146.5V161H120Z" fill="currentColor"/>
<path fill-rule="evenodd" clip-rule="evenodd" d="M29.5 71C27 71 23.5 72 23.5 76.5V103.5C23.5 107.5 25.5 110 29.5 110H146.5C149.5 110 152.5 108.5 152.5 103.5V76.5C152.5 74 151.5 71 146.5 71H29.5ZM29.5 103.5V77.5H146L146.5 103.5H29.5Z" fill="currentColor"/>
<path d="M36 85.5V94H61.5V85.5H36Z" fill="currentColor"/>
<path d="M68.5 85.5V94H107V85.5H68.5Z" fill="currentColor"/>
<path d="M114 85.5V94H139.5V85.5H114Z" fill="currentColor"/>
<path d="M61.5 39V46H114V39H61.5Z" fill="currentColor"/>
<path d="M61.5 28.5V35.5H114V28.5H61.5Z" fill="currentColor"/>
<path d="M29.5 123V130H146.5V123H29.5Z" fill="currentColor"/>
</svg>
