<svg width="104" height="189" viewBox="0 0 104 189" fill="none" xmlns="http://www.w3.org/2000/svg">
<path d="M59.5391 91.0918C59.5391 95.5101 55.9573 99.0918 51.5391 99.0918C47.1208 99.0918 43.5391 95.5101 43.5391 91.0918C43.5391 86.6735 47.1208 83.0918 51.5391 83.0918C55.9573 83.0918 59.5391 86.6735 59.5391 91.0918Z" fill="currentColor"/>
<path fill-rule="evenodd" clip-rule="evenodd" d="M76.0391 91.0918C76.0391 104.347 65.2939 115.092 52.0391 115.092C38.7842 115.092 28.0391 104.347 28.0391 91.0918C28.0391 77.837 38.7842 67.0918 52.0391 67.0918C65.2939 67.0918 76.0391 77.837 76.0391 91.0918ZM52.0391 109.092C61.9802 109.092 70.0391 101.033 70.0391 91.0918C70.0391 81.1507 61.9802 73.0918 52.0391 73.0918C42.0979 73.0918 34.0391 81.1507 34.0391 91.0918C34.0391 101.033 42.0979 109.092 52.0391 109.092Z" fill="currentColor"/>
<path fill-rule="evenodd" clip-rule="evenodd" d="M90.0391 91.0918C90.0391 112.079 73.0259 129.092 52.0391 129.092C31.0522 129.092 14.0391 112.079 14.0391 91.0918C14.0391 70.105 31.0522 53.0918 52.0391 53.0918C73.0259 53.0918 90.0391 70.105 90.0391 91.0918ZM52.0391 123.092C69.7122 123.092 84.0391 108.765 84.0391 91.0918C84.0391 73.4187 69.7122 59.0918 52.0391 59.0918C34.366 59.0918 20.0391 73.4187 20.0391 91.0918C20.0391 108.765 34.366 123.092 52.0391 123.092Z" fill="currentColor"/>
<path fill-rule="evenodd" clip-rule="evenodd" d="M0.0394647 10.0918V179.092C-0.293869 182.258 1.33947 188.592 10.5395 188.592H93.5391C96.8724 188.592 103.539 186.692 103.539 179.092V10.0918C103.539 6.75848 101.539 0.0918162 93.5391 0.0918162H10.5395C7.03946 -0.408184 0.0394647 0.891816 0.0394647 10.0918ZM7.53906 181.092V156.092H96.0391V181.092H7.53906ZM96.0391 149.092H7.53906V29.5918H96.0391V149.092ZM96.0391 22.0918H7.53906V7.5918H96.0391V22.0918Z" fill="currentColor"/>
<path d="M48.5391 10.0918V16.5918H55.0391V10.0918H48.5391Z" fill="currentColor"/>
<path d="M32.5391 162.592C30.5391 162.592 28.5391 164.092 28.5391 167.592C28.5391 171.092 31.0391 172.092 32.5391 172.092H71.0391C73.0391 172.092 75.0391 170.092 75.0391 167.592C75.0391 165.092 73.5391 162.592 71.0391 162.592H32.5391Z" fill="currentColor"/>
</svg>
