<svg width="46" height="46" viewBox="0 0 46 46" fill="none" xmlns="http://www.w3.org/2000/svg">
<circle cx="23" cy="23" r="23" fill="#FF6600"/>
<path d="M24.1852 16.6387L24.0218 25.4988H22.8605L22.7057 16.6387H24.1852ZM23.4626 29.1289C23.1988 29.1289 22.9723 29.0371 22.7831 28.8536C22.5996 28.6701 22.5078 28.4464 22.5078 28.1826C22.5078 27.9188 22.5996 27.6952 22.7831 27.5117C22.9723 27.3224 23.1988 27.2278 23.4626 27.2278C23.7207 27.2278 23.9444 27.3224 24.1336 27.5117C24.3228 27.6952 24.4175 27.9188 24.4175 28.1826C24.4175 28.4464 24.3228 28.6701 24.1336 28.8536C23.9444 29.0371 23.7207 29.1289 23.4626 29.1289Z" fill="white"/>
</svg>
