<svg width="48" height="40" viewBox="0 0 48 40" fill="none" xmlns="http://www.w3.org/2000/svg">

    <path d="M20.3515 22.8369V20.6165H27.6484V22.8369V25.0572H20.3515V22.8369Z" fill="#FF6600" />
    <path
        d="M0 37.3295C0 38.8019 1.20606 40 2.68834 40H45.3117C46.7939 40 48 38.8019 48 37.3295V23.9814H45.6957H29.9527V26.2017C29.9527 26.834 29.437 27.3463 28.8005 27.3463H19.1993C18.563 27.3463 18.0472 26.834 18.0472 26.2017V23.9814H2.30429H0V37.3295Z"
        fill="#FF6600" />
    <path fill-rule="evenodd" clip-rule="evenodd"
        d="M45.3117 5.67374H34.835V1.14451C34.835 0.512437 34.3191 0 33.6828 0H14.3172C13.6809 0 13.165 0.512437 13.165 1.14451V5.67374H2.68834C1.20606 5.67374 0 6.87181 0 8.34427V18.3275C0 21.1726 1.96721 21.6924 3.93443 21.6924H18.0472V19.472C18.0472 18.8398 18.563 18.3275 19.1993 18.3275H28.8005C29.437 18.3275 29.9527 18.8398 29.9527 19.472V21.6924H45.3117C47.2131 21.6924 48 21.1726 48 18.3275V8.34427C48 6.87181 46.7939 5.67374 45.3117 5.67374ZM32.5307 2.28903H15.4693V5.67359H32.5307V2.28903Z"
        fill="#FF6600" />


</svg>