<svg width="48" height="48" viewBox="0 0 48 48" fill="none" xmlns="http://www.w3.org/2000/svg">

    <path fill-rule="evenodd" clip-rule="evenodd"
        d="M22.561 2.30052C25.1442 0.802043 28.0757 0.00872246 31.062 4.89075e-05C33.2884 -0.00531397 35.4938 0.430417 37.5509 1.28208C39.608 2.13375 41.476 3.38448 43.047 4.96205C44.8814 6.80872 46.2684 9.05111 47.1015 11.5171C47.9346 13.9831 48.1917 16.6102 47.853 19.191C47.4979 21.7704 46.5567 24.2341 45.1016 26.3933C43.6466 28.5524 41.7164 30.3496 39.459 31.647C37.4064 32.8172 35.1323 33.5465 32.782 33.7882C30.4317 34.03 28.0568 33.7789 25.809 33.051L23.895 34.962C23.292 35.592 22.458 35.943 21.594 35.943H19.566V37.611C19.548 38.52 19.188 39.3661 18.576 40.014L18.552 40.038C17.877 40.734 16.953 41.1031 16.023 41.1031H14.379V43.023C14.3906 43.4578 14.3139 43.8904 14.1535 44.2947C13.9932 44.6989 13.7525 45.0665 13.446 45.375L11.481 47.34C11.0594 47.7621 10.4875 47.9995 9.891 48H2.25C1.008 48 0 46.9921 0 45.75V38.076C0.000525156 37.4795 0.237923 36.9076 0.66 36.486L14.946 22.203C14.218 19.953 13.9664 17.576 14.2071 15.2234C14.4477 12.8708 15.1755 10.5941 16.344 8.53805C17.834 5.95002 19.9779 3.799 22.561 2.30052ZM29.6706 9.50723C28.8508 9.84554 28.1063 10.3431 27.48 10.971H27.486C26.5396 11.9128 25.8947 13.1149 25.6335 14.4242C25.3722 15.7336 25.5064 17.0911 26.019 18.324L26.022 18.33C26.4901 19.4575 27.2555 20.4367 28.2365 21.1633C29.2175 21.89 30.3773 22.3367 31.5923 22.4558C32.8072 22.5749 34.0318 22.3621 35.1352 21.8399C36.2387 21.3177 37.1797 20.5058 37.858 19.4907C38.5362 18.4757 38.9262 17.2955 38.9863 16.0762C39.0464 14.8569 38.7745 13.6442 38.1995 12.5673C37.6244 11.4904 36.7679 10.5898 35.7211 9.96159C34.6744 9.33334 33.4768 9.001 32.256 9C31.3691 8.99651 30.4904 9.16891 29.6706 9.50723Z"
        fill="#FF6600" />


</svg>