<svg width="189" height="54" viewBox="0 0 189 54" fill="none" xmlns="http://www.w3.org/2000/svg">
<g clip-path="url(#clip0_4_28)">
<path d="M64.9912 35.313C64.9912 35.313 68.1953 27.826 74.6035 12.8563C74.6035 12.8563 75.4424 12.8563 77.1201 12.8563C77.1201 12.8563 80.3346 20.3434 86.7581 35.313C86.7581 35.313 85.9394 35.313 84.3016 35.313C84.3016 35.313 83.2201 32.7905 81.0571 27.7449C81.0571 27.7449 77.5803 27.7449 70.6207 27.7449C70.6207 27.7449 69.5288 30.2674 67.3456 35.313C67.3456 35.313 66.5624 35.313 64.9907 35.313H64.9912ZM71.4803 25.7083C71.4803 25.7083 74.3811 25.7083 80.1832 25.7083C80.1832 25.7083 78.7476 22.2786 75.8769 15.4095C75.8769 15.4095 74.4112 18.8441 71.4798 25.7083H71.4803ZM88.9921 35.313C88.9921 35.313 88.9921 29.7711 88.9921 18.6923C88.9921 18.6923 89.7397 18.6923 91.2409 18.6923C91.2409 18.6923 91.2409 19.4066 91.2409 20.8451C92.6055 19.1431 94.3794 18.2919 96.573 18.2919C97.7453 18.2919 98.8169 18.5099 99.7875 18.9504C100.753 19.3913 101.561 20.0295 102.213 20.8703C102.749 21.5846 103.123 22.3647 103.34 23.2159C103.558 24.0671 103.664 25.1917 103.664 26.5847V35.313H101.43C101.43 35.313 101.43 32.4054 101.43 26.5847C101.43 25.47 101.339 24.5634 101.157 23.8793C100.975 23.1902 100.667 22.5827 100.242 22.0606C99.3072 20.9207 97.9934 20.3537 96.3053 20.3537C95.4003 20.3537 94.5668 20.5411 93.8138 20.9158C93.0558 21.291 92.4645 21.8174 92.03 22.4912C91.742 22.947 91.5398 23.4487 91.4185 23.9959C91.3021 24.5431 91.2414 25.2728 91.2414 26.169V35.313H88.9926H88.9921ZM109.056 41.1435C109.056 41.1435 109.961 39.016 111.765 34.7658C111.765 34.7658 109.617 29.4063 105.326 18.6918C105.326 18.6918 106.145 18.6918 107.783 18.6918C107.783 18.6918 109.536 23.1091 113.039 31.9437C113.039 31.9437 114.909 27.5264 118.654 18.6918C118.654 18.6918 119.447 18.6918 121.034 18.6918C121.034 18.6918 117.84 26.1739 111.457 41.1435C111.457 41.1435 110.653 41.1435 109.056 41.1435ZM123.611 35.313C123.611 35.313 123.611 27.826 123.611 12.8563C123.611 12.8563 125.668 12.8563 129.787 12.8563C131.238 12.8563 132.425 12.9473 133.345 13.1247C134.27 13.3022 135.078 13.6062 135.766 14.0313C136.615 14.5331 137.272 15.2726 137.737 16.2504C138.202 17.2227 138.434 18.3577 138.434 19.6543C138.434 20.7838 138.243 21.7922 137.853 22.6835C137.469 23.5753 136.918 24.2841 136.195 24.8215C135.518 25.3232 134.715 25.6875 133.8 25.9055C132.88 26.1235 131.667 26.2298 130.156 26.2298H125.845V35.313H123.611H123.611ZM125.845 24.1833H130.01C132.021 24.1833 133.456 23.9302 134.315 23.4235C134.907 23.1096 135.367 22.6178 135.685 21.9544C136.009 21.291 136.165 20.5159 136.165 19.6241C136.165 18.5297 135.948 17.6078 135.518 16.8732C135.084 16.1337 134.462 15.6374 133.648 15.3789C132.683 15.0546 131.141 14.8925 129.029 14.8925H125.845V24.1833H125.845ZM157.564 18.6918C157.564 18.6918 157.564 24.2288 157.564 35.3125C157.564 35.3125 156.811 35.3125 155.31 35.3125C155.31 35.3125 155.31 34.3402 155.31 32.3896C154.435 33.5749 153.5 34.4262 152.52 34.9427C151.539 35.4544 150.346 35.7129 148.947 35.7129C147.259 35.7129 145.732 35.3382 144.378 34.5933C143.018 33.8439 141.957 32.8102 141.189 31.4929C140.416 30.1705 140.032 28.6861 140.032 27.0449C140.032 25.4038 140.411 23.9144 141.174 22.5767C141.932 21.2445 142.978 20.1961 144.312 19.4308C145.642 18.6711 147.127 18.2909 148.765 18.2909C150.221 18.2909 151.464 18.5544 152.505 19.0814C153.546 19.6132 154.481 20.4595 155.31 21.6296V18.6913H157.564L157.564 18.6918ZM148.74 20.3533C146.961 20.3533 145.445 20.9969 144.191 22.2836C142.938 23.5703 142.311 25.1255 142.311 26.9594C142.311 28.8289 142.953 30.4093 144.237 31.701C145.521 32.9926 147.083 33.6362 148.917 33.6362C150.721 33.6362 152.237 32.9931 153.47 31.7163C154.698 30.435 155.31 28.8492 155.31 26.9594C155.31 25.0652 154.683 23.4947 153.43 22.2381C152.176 20.982 150.615 20.3537 148.74 20.3537V20.3533ZM175.349 30.4137C175.349 30.4137 176.198 30.4137 177.891 30.4137C177.421 31.3154 176.987 32.0198 176.592 32.5309C176.198 33.0376 175.723 33.5038 175.167 33.919C173.65 35.1143 171.846 35.7119 169.764 35.7119C168.086 35.7119 166.555 35.3268 165.175 34.5621C163.791 33.7974 162.709 32.7435 161.915 31.4009C161.127 30.0583 160.733 28.5793 160.733 26.9579C160.733 25.3622 161.127 23.9035 161.911 22.5762C162.694 21.2539 163.77 20.2054 165.13 19.4407C166.495 18.6706 167.99 18.2909 169.618 18.2909C171.493 18.2909 173.166 18.7773 174.642 19.7601C176.117 20.7378 177.194 22.0651 177.866 23.7364H175.349C174.707 22.6474 173.889 21.8115 172.903 21.2287C171.918 20.641 170.811 20.3523 169.588 20.3523C167.743 20.3523 166.186 20.9959 164.918 22.2826C163.649 23.5693 163.013 25.1447 163.013 27.0143C163.013 28.8685 163.66 30.4335 164.944 31.7153C166.232 32.9921 167.809 33.6353 169.679 33.6353C170.862 33.6353 171.887 33.3871 172.747 32.8908C173.611 32.3994 174.48 31.5734 175.35 30.4137H175.349ZM183.016 35.3125C183.016 35.3125 183.016 30.4493 183.016 20.723C183.016 20.723 181.828 20.723 179.448 20.723C179.448 20.723 179.448 20.0443 179.448 18.6918C179.448 18.6918 180.64 18.6918 183.016 18.6918C183.016 18.6918 183.016 16.7467 183.016 12.8558C183.016 12.8558 183.769 12.8558 185.27 12.8558C185.27 12.8558 185.27 14.801 185.27 18.6918C185.27 18.6918 186.513 18.6918 189 18.6918C189 18.6918 189 19.3705 189 20.723C189 20.723 187.756 20.723 185.27 20.723C185.27 20.723 185.27 25.5862 185.27 35.3125C185.27 35.3125 184.517 35.3125 183.016 35.3125Z" fill="black"/>
<path fill-rule="evenodd" clip-rule="evenodd" d="M2.35791 22.3716H10.29C10.29 18.3893 11.9002 14.7842 14.5041 12.1742L8.89581 6.55225C4.85678 10.6008 2.3584 16.194 2.3584 22.3716H2.35791Z" fill="#333333"/>
<path fill-rule="evenodd" clip-rule="evenodd" d="M8.89502 6.55228L14.5033 12.1742C17.1072 9.56419 20.7039 7.95023 24.6768 7.95023V-0.000488281C18.5137 -0.000488281 12.934 2.50326 8.89502 6.55178V6.55228Z" fill="black"/>
<path fill-rule="evenodd" clip-rule="evenodd" d="M14.4903 32.5552C11.8943 29.9466 10.29 26.3469 10.29 22.3716H2.35791C2.35791 28.5422 4.85086 34.1301 8.882 38.1776L14.4903 32.5557V32.5552Z" fill="#4D4D4D"/>
<path fill-rule="evenodd" clip-rule="evenodd" d="M14.4901 32.5552L8.88184 38.1771C8.90551 38.2009 8.92967 38.2246 8.95334 38.2483L8.99378 38.2888L24.6686 53.9995L24.6769 53.9911V44.7427V36.7925C20.6971 36.7925 17.0945 35.1731 14.4901 32.5552V32.5552Z" fill="#666666"/>
<path fill-rule="evenodd" clip-rule="evenodd" d="M24.6763 36.7926V44.7428V53.9911L39.9185 38.714L40.4585 38.1906L34.8498 32.5691C32.2459 35.1791 28.6492 36.7931 24.6763 36.7931V36.7926Z" fill="#666666"/>
<path fill-rule="evenodd" clip-rule="evenodd" d="M40.4585 6.55228L34.8503 12.1742C32.2464 9.56419 28.6497 7.95023 24.6768 7.95023V-0.000488281C30.8398 -0.000488281 36.4195 2.50326 40.4585 6.55178V6.55228Z" fill="black"/>
<path fill-rule="evenodd" clip-rule="evenodd" d="M24.4837 21.8313V15.9756L12.2931 3.75686L0 3.73462L18.0538 21.8313H24.4837Z" fill="#FF6600"/>
<path fill-rule="evenodd" clip-rule="evenodd" d="M46.9963 22.3716H39.0642C39.0642 18.3893 37.454 14.7842 34.8501 12.1742L40.4584 6.55225C44.4974 10.6008 46.9958 16.194 46.9958 22.3716H46.9963Z" fill="#1A1A1A"/>
<path fill-rule="evenodd" clip-rule="evenodd" d="M34.8638 32.5552C37.4598 29.9466 39.0641 26.3469 39.0641 22.3716H46.9961C46.9961 28.5422 44.5032 34.1301 40.472 38.1776L34.8638 32.5557V32.5552Z" fill="#333333"/>
<path fill-rule="evenodd" clip-rule="evenodd" d="M28.2686 20.1155V25.9717L40.4591 38.1905L52.7522 38.2122L34.6984 20.1155H28.2686Z" fill="#FF6600"/>
</g>
<defs>
<clipPath id="clip0_4_28">
<rect width="189" height="54" fill="white"/>
</clipPath>
</defs>
</svg>
