<svg width="42" height="46" viewBox="0 0 42 46" fill="none" xmlns="http://www.w3.org/2000/svg">
<path fill-rule="evenodd" clip-rule="evenodd" d="M1.87134 19.0192H8.16664C8.16664 15.6338 9.44457 12.569 11.5112 10.3502L7.06015 5.5708C3.85457 9.01254 1.87173 13.7675 1.87173 19.0192H1.87134Z" fill="#333333"/>
<path fill-rule="evenodd" clip-rule="evenodd" d="M7.05957 5.57064L11.5106 10.35C13.5772 8.13114 16.4317 6.75907 19.5848 6.75907V0C14.6935 0 10.2652 2.12891 7.05957 5.57064Z" fill="black"/>
<path fill-rule="evenodd" clip-rule="evenodd" d="M11.5002 27.6763C9.43988 25.4587 8.16665 22.3986 8.16665 19.019H1.87134C1.87134 24.2648 3.84988 29.0151 7.04919 32.456L11.5002 27.6767V27.6763Z" fill="#4D4D4D"/>
<path fill-rule="evenodd" clip-rule="evenodd" d="M11.5001 27.6763L7.04907 32.4556C7.06786 32.4758 7.08704 32.496 7.10583 32.5161L7.13792 32.5506L19.5782 45.9065L19.5849 45.8994V38.0372V31.2785C16.4263 31.2785 13.5671 29.9018 11.5001 27.6763V27.6763Z" fill="#666666"/>
<path fill-rule="evenodd" clip-rule="evenodd" d="M19.5845 31.2785V38.0371V45.8993L31.6815 32.9119L32.1101 32.4669L27.6587 27.688C25.5921 29.9068 22.7376 31.2789 19.5845 31.2789V31.2785Z" fill="#666666"/>
<path fill-rule="evenodd" clip-rule="evenodd" d="M32.1102 5.57064L27.6592 10.35C25.5926 8.13114 22.7381 6.75907 19.585 6.75907V0C24.4763 0 28.9046 2.12849 32.1102 5.57022V5.57064Z" fill="black"/>
<path fill-rule="evenodd" clip-rule="evenodd" d="M19.4315 18.5597V13.5816L9.75647 3.1942L0 3.17529L14.3284 18.5597H19.4315Z" fill="#FF6600"/>
<path fill-rule="evenodd" clip-rule="evenodd" d="M37.2985 19.0192H31.0032C31.0032 15.6338 29.7253 12.569 27.6587 10.3502L32.1097 5.5708C35.3153 9.01254 37.2981 13.7675 37.2981 19.0192H37.2985Z" fill="#1A1A1A"/>
<path fill-rule="evenodd" clip-rule="evenodd" d="M27.6697 27.6763C29.73 25.4587 31.0032 22.3986 31.0032 19.019H37.2986C37.2986 24.2648 35.32 29.0151 32.1207 32.456L27.6697 27.6767V27.6763Z" fill="#333333"/>
<path fill-rule="evenodd" clip-rule="evenodd" d="M22.4355 17.1011V22.0796L32.1106 32.467L41.8671 32.4855L27.5386 17.1011H22.4355Z" fill="#FF6600"/>
</svg>
