<svg width="32" height="32" viewBox="10 8 45 45" fill="none" xmlns="http://www.w3.org/2000/svg">
<path fill-rule="evenodd" clip-rule="evenodd" d="M15.027 40C15.1412 38.944 15.6867 38.2318 17.9073 37.1688C19.5849 35.7636 19.7902 31.8076 19.9715 28.3144C20.0499 26.8037 20.1238 25.3796 20.3103 24.2857C20.7069 19.8571 23.6 11 32 11C40.4 11 43.2931 19.8571 43.6896 24.2857C43.8762 25.3796 43.9501 26.8037 44.0285 28.3144C44.2098 31.8076 44.4151 35.7636 46.0926 37.1688C48.3133 38.2318 48.8587 38.944 48.973 40C48.9741 40.0105 48.9752 40.0211 48.9762 40.0317C49.0106 40.3769 49.0008 40.7591 48.9894 41.2021C48.9831 41.448 48.9762 41.7126 48.9762 42H15.0237C15.0237 41.7126 15.0169 41.448 15.0106 41.2021C14.9992 40.7591 14.9894 40.3769 15.0237 40.0317C15.0248 40.0211 15.0259 40.0105 15.027 40ZM47.2628 35.5142C48.826 36.2903 50.0577 37.1421 50.6358 38.4981C50.9346 39.199 50.9893 39.8774 50.9985 40.4184C51.0031 40.6882 50.9961 40.9665 50.9897 41.2162L50.9889 41.2468C50.9825 41.4972 50.9762 41.7388 50.9762 42V44H13.0237V42C13.0237 41.739 13.0175 41.4974 13.0111 41.2471L13.0103 41.2162C13.0039 40.9665 12.9969 40.6882 13.0015 40.4184C13.0107 39.8774 13.0653 39.199 13.3642 38.4981C13.9423 37.1421 15.174 36.2903 16.7372 35.5142C16.8865 35.3249 17.092 34.9513 17.2859 34.2694C17.5241 33.4311 17.6783 32.3701 17.7861 31.1545C17.8709 30.1977 17.9219 29.2169 17.9731 28.2302C17.9869 27.9655 18.0006 27.7005 18.0151 27.4354C18.0794 26.2561 18.1583 25.0471 18.3256 24.0287C18.5574 21.5744 19.4576 17.9584 21.4836 14.8821C23.5739 11.7081 26.9601 9 32 9C37.0399 9 40.4261 11.7081 42.5164 14.8821C44.5424 17.9584 45.4426 21.5744 45.6744 24.0287C45.8417 25.0471 45.9206 26.2561 45.9849 27.4354C45.9993 27.7005 46.0131 27.9656 46.0269 28.2302C46.0781 29.2169 46.1291 30.1977 46.2139 31.1545C46.3217 32.3701 46.4758 33.4311 46.7141 34.2694C46.9079 34.9513 47.1135 35.3249 47.2628 35.5142Z" fill="currentColor"/>
<path fill-rule="evenodd" clip-rule="evenodd" d="M27.3892 15.616C25.8294 16.9626 24.8746 18.7982 24.4797 20.1411C24.4018 20.406 24.1238 20.5576 23.8589 20.4797C23.594 20.4018 23.4424 20.1238 23.5203 19.8589C23.9587 18.3685 25.0039 16.3541 26.7358 14.859C28.4853 13.3486 30.9307 12.3762 34.098 13.0097C34.3688 13.0639 34.5444 13.3273 34.4903 13.5981C34.4361 13.8688 34.1727 14.0444 33.9019 13.9903C31.0693 13.4238 28.9313 14.2847 27.3892 15.616Z" fill="currentColor"/>
<path fill-rule="evenodd" clip-rule="evenodd" d="M26.674 46.0546C27.1961 45.8746 27.7653 46.1519 27.9454 46.674C29.2744 50.5284 34.7255 50.5284 36.0546 46.674C36.2347 46.1519 36.8039 45.8746 37.326 46.0546C37.8481 46.2347 38.1254 46.8039 37.9454 47.326C35.9965 52.9777 28.0035 52.9777 26.0546 47.326C25.8746 46.8039 26.1519 46.2347 26.674 46.0546Z" fill="currentColor"/>
</svg>
