<svg width="10" height="16" viewBox="0 0 10 16" fill="none" xmlns="http://www.w3.org/2000/svg">
<path d="M5.00171 2.52111C6.01931 2.52111 6.84701 3.28239 6.84701 4.21833C6.84701 5.15098 6.01931 5.91226 5.00171 5.91226C3.98411 5.91226 3.15642 5.15098 3.15642 4.21833C3.15642 3.28239 3.98411 2.52111 5.00171 2.52111ZM5.00171 8.43337C7.53138 8.43337 9.58449 6.545 9.58449 4.21833C9.58449 1.89166 7.53138 0 5.00171 0C2.47205 0 0.415352 1.89166 0.415352 4.21833C0.415352 6.54171 2.47205 8.43337 5.00171 8.43337ZM6.80401 11.6564C7.71053 11.4686 8.58481 11.139 9.391 10.6711C10.0001 10.3184 10.1829 9.57693 9.79947 9.01668C9.41608 8.45644 8.60989 8.28507 8.00076 8.64099C6.17338 9.69557 3.82646 9.69557 2.00266 8.64099C1.38995 8.28507 0.583758 8.45644 0.200367 9.01668C-0.183025 9.57693 -0.000286326 10.3184 0.612423 10.6711C1.41504 11.139 2.29289 11.4686 3.19942 11.6564L0.705582 13.9502C0.196784 14.4181 0.196784 15.1794 0.709166 15.6474C0.963565 15.8814 1.29679 16 1.63002 16C1.96325 16 2.30006 15.8814 2.55446 15.6474L5.00171 13.3965L7.45255 15.6474C7.96135 16.1153 8.78546 16.1153 9.29784 15.6474C9.80664 15.1794 9.80664 14.4181 9.29784 13.9502L6.80401 11.6564Z" fill="currentColor"/>
</svg>
