<svg width="46" height="48" viewBox="0 0 46 48" fill="none" xmlns="http://www.w3.org/2000/svg">
   
        <path
            d="M27.5687 21.8293C26.2201 21.8293 25.0962 20.711 25.0962 19.3691V3.82454C25.0962 2.48257 26.2201 1.36426 27.5687 1.36426H43.5275C44.8761 1.36426 46 2.48257 46 3.82454V19.3691C46 20.711 44.8761 21.8293 43.5275 21.8293H27.5687Z"
            fill="#FF6600" />
        <path
            d="M34.0533 25.4661L24.8377 35.4191C24.2758 35.9783 24.2758 36.8729 24.8377 37.5439L34.0533 47.4968C34.6153 48.1678 35.7391 48.1678 36.3011 47.4968L45.5167 37.5439C46.0786 36.9847 46.0786 36.0901 45.5167 35.4191L36.3011 25.4661C35.7391 24.7951 34.7277 24.7951 34.0533 25.4661Z"
            fill="#FF6600" />
        <path
            d="M10.4519 46.8538C16.2243 46.8538 20.9038 42.1974 20.9038 36.4535C20.9038 30.7096 16.2243 26.0532 10.4519 26.0532C4.67947 26.0532 0 30.7096 0 36.4535C0 42.1974 4.67947 46.8538 10.4519 46.8538Z"
            fill="#FF6600" />
        <path
            d="M1.23624 4.92057L9.32802 0.335493C10.1147 -0.111831 11.0138 -0.111831 11.6881 0.335493L19.6675 4.92057C20.4542 5.36789 20.9038 6.15071 20.9038 7.04536V16.2155C20.9038 17.1101 20.4542 17.893 19.6675 18.3403L11.6881 22.9254C10.9014 23.3727 10.0023 23.3727 9.32802 22.9254L1.23624 18.3403C0.449543 17.893 0 17.1101 0 16.2155V7.04536C0 6.15071 0.449543 5.36789 1.23624 4.92057Z"
            fill="#FF6600" />


</svg>