<svg width="191" height="190" viewBox="0 0 191 190" fill="none" xmlns="http://www.w3.org/2000/svg">
<path d="M13.043 90.2558H21.5V161.256H13.043V90.2558Z" fill="currentColor"/>
<path fill-rule="evenodd" clip-rule="evenodd" d="M0.0413467 138.689V138.688C0.0413434 137.227 0.0413401 135.758 0.0413367 134.286C0.0413401 135.759 0.0413434 137.229 0.0413467 138.689Z" fill="currentColor"/>
<path fill-rule="evenodd" clip-rule="evenodd" d="M10.0414 73.7558C5.04297 73.7558 0.0416082 75.7558 0.0413952 83.7558C0.0412454 89.3815 0.0412872 112.199 0.0413367 134.286L0.0413467 138.688V138.689L0.0413952 167.756C-0.291938 171.589 1.24139 179.256 10.0414 179.256H26.0414C31.2304 179.256 35.1219 175.697 35.543 169C36.7081 171.167 39 174 43.5 175L51 175.5C51.1667 178.833 51.865 182.331 54 185C56.135 187.669 59.5 189.5 63 189.5C66.5 189.5 70 188.5 72 184.5H76.5C78 187 81.5 190 86 190C91.5 190 95 188 97 185H102C103.5 187.5 107 190 111 190C116 190 118 188 120 185.5H125.5C125.5 185.5 127.5 190 133 190C138.5 190 140.5 187.213 141.5 185.5C142.5 183.787 143 182 143.543 179.447H163.5C174 178.5 178.043 171 178.043 166C178.043 161 174.876 155.667 172.543 155C175.543 154.5 181.543 150 181.543 141.756C181.543 135.256 178.543 133 175.543 130.5C180.5 128.744 183 125 183 120C183 115 180 112.5 178 110.5C179.957 109.744 188.5 107.556 188.5 96.7558C188.5 85.9559 179.71 83.5891 175.543 83.7557V72.2557C175.543 69.7557 176.043 67.2557 174.043 65.2557C178.043 66.9473 181.457 65.9473 183.5 60.9473L189.5 45.2557C191 41.0641 189.5 37.4473 187.043 36.2557C187.043 36.2557 100.873 1.06452 98.043 0.255848C98.043 0.255848 91.543 -1.55275 89 4.4473L80.543 23.2556C78.2355 30.9472 84.543 33.7558 84.543 33.7558C80.943 33.3558 77.3763 38.5891 76.043 41.2558L65.043 67.2558H47.543C40.343 67.2558 35.0521 73.5891 33.3066 76.7558C31.4438 74.6972 28.4635 73.7558 24.5414 73.7558H10.0414ZM28.5414 167.756V84.9473L28.5416 84.8813L28.5418 84.8356C28.5477 83.6993 28.5657 80.2558 24.5414 80.2558H11C7.5 80.2558 6.5 83.7806 6.5 84.9473C6.5 105.229 6.52365 140.56 6.5352 157.812C6.53893 163.385 6.5414 167.072 6.5414 167.756C6.5414 170.556 8.5 171.947 10.0414 171.947H24.5C27.2548 171.947 28.5414 169.947 28.5414 167.756ZM48.5 74.5C42.5 74.5 36.8763 85 35.543 89.5V155C35.543 157.5 39 162.744 43 165.5C45.8336 167.452 51.5 167 51.5 167C51.8477 165.004 53.1357 160.422 55.5 157.756C57.5 155.5 60.5 154.5 63 154.5C66.5 154.5 70 155.5 72 158.5H76.5C77.5 156 81 151 87 151C93 151 96 154 98 158.5H102C103.5 156 106.998 154.5 110.5 154.5C116.5 154.5 121 158.5 122 163.5H125.5C126.195 162.5 129.034 160.5 133 160.5C137.5 160.5 140 162.756 141.5 164.756C142.666 166.311 143.543 169.744 143.543 172.5H158.5C165.5 172.5 170.5 171.012 170.5 164.756C170.5 158.5 163.5 157.756 154.5 157.756H129.543V150H167.5C172.543 150 175.543 147 175.543 141.756C175.543 136.512 170.043 134.5 165.043 134.5H129.543V127.256H165.043C172.543 127.256 177 125.256 177 120C177 114.744 172.5 112.5 165.5 112.5H129.543V105.5H172.543C175.71 105.5 181.543 103.5 181.543 97.5C181.543 91.5 175.376 90.2558 172.543 90.2558H94.043C89.7096 101.089 80.043 121.756 76.043 127.256C71.8806 132.979 64.043 133.256 58.043 131.756C53.043 130.506 48.2573 125.756 47.543 120.756C46.8833 116.138 48.1312 110.756 49.543 106.756C52.543 98.2558 58.843 85.0557 60.043 82.2557C61.243 79.4557 63 75.5 62.5 74.5H48.5ZM59.043 125.256C54.5859 123.256 54.043 118.256 55.543 113.256L82.543 45.2557C83.7096 42.089 89.843 35.9557 97.043 38.7557C104.243 41.5557 143.376 56.9224 162.043 64.2557C164.21 65.089 168.543 67.4556 168.543 70.2557V83.7557H89.543L71.543 120.756C68.543 126.256 63.5 127.256 59.043 125.256ZM89 20.4473L93 11.9473C94.5 8.94727 96 7.44727 100 8.44727L179 40.4473C182.5 41.9473 182 44.4473 181 46.9473L178.543 53.0056L176.543 57.2557C175 60.4473 172.5 60.4473 168.543 58.9473L93 28.4473C89.5 27.4928 87.5 23.9473 89 20.4473ZM79.5 174.5V167.5C79.5 163.5 81 157.756 87 157.756C93 157.756 95 162.5 95 167.5V174.5C94.5 179.5 93 183.5 87 183.5C81 183.5 79.5 178.5 79.5 174.5ZM58.043 174.5V169C58.043 165 60 161.256 63 161.256C66 161.256 69.5 163 69 169V175C69 180 68 182.5 63 182.5C60 182.5 58.043 179 58.043 174.5ZM105 175.5V169C105 165 107 161.5 111 161.5C115 161.5 117 164.053 117 168.5V175.5C117 181 114.5 183.5 111 183.5C107.5 183.5 105 180 105 175.5ZM127.5 178.5V173.5C127.5 169.5 129.5 167.5 133 167.5C136.5 167.5 138 170.5 138 173.5V178.5C138 182 136 184 133 184C130 184 127.5 181.553 127.5 178.5Z" fill="currentColor"/>
<path fill-rule="evenodd" clip-rule="evenodd" d="M13.043 90.2558H21.5V161.256H13.043V90.2558Z" fill="currentColor"/>
</svg>
