<svg width="155" height="214" viewBox="0 0 155 214" fill="none" xmlns="http://www.w3.org/2000/svg">
<path fill-rule="evenodd" clip-rule="evenodd" d="M0 136.999C0 181 32.0001 214 78 214C124 214 154.5 178.5 154.5 136.999C154.5 109.468 139.977 83.9182 117.5 69.837V52C117.5 49.6 115.5 49 114.5 49H107V22.5C107.333 15.3333 99.5 8.84064e-05 78 8.32395e-10C56 -9.0461e-05 48.3334 14.6667 48.5 22.5V49H42C39.2 49 38.8333 51 39 52V68.7528C15.5794 82.1539 0 107.431 0 136.999ZM7 136.999C7 98.9994 40.4987 66 77.9987 66C115.499 66 147 95.4988 147 136.999C147 178.5 112 206.5 77.9987 206.5C43.9974 206.5 7 181 7 136.999ZM59.5 55V60.6525C54.6325 61.8109 49.9509 63.419 45.5 65.4325V55H59.5ZM95 55V60.5C99.8908 61.7881 106.571 64.0032 111 66.1997V55H95ZM66 59.3926C69.9065 58.8045 73.9136 58.5 78 58.5C81.2276 58.5 84.3973 58.7037 87.5 59.0978V52C87.5 49.6 89.8333 49 91 49H99.5V22.5C99.1667 18 94.3987 7.49991 77.9987 7.49991C61.5987 7.49991 56.5 18 56 22.5V49H63C65 49 65.8333 51 66 52V59.3926Z" fill="currentColor"/>
<path fill-rule="evenodd" clip-rule="evenodd" d="M78 74C47 74 15 98.9994 15 136.999C15 180.499 51 198 78 198C112 198 139.5 173.499 139.5 136.999C139.5 97.9995 107.5 74 78 74ZM22 136.999C22 98.9994 54.5039 81.4994 78 81.4994C101.496 81.4994 133 101.999 133 136.999C133 167.499 107.496 191 78 191C60.4961 191 22 178.499 22 136.999Z" fill="currentColor"/>
<path fill-rule="evenodd" clip-rule="evenodd" d="M77.9987 107.999C64.5 107.999 56 116.999 56 128.499C56 136.649 60.7714 143.795 68 147.266V161.999C68 168.499 73 171.499 77.9987 171.499C83.5 171.499 87.5 167.999 87.5 161.999V147.266C94 143.5 99 136.462 99 128.499C99 114.999 88 107.999 77.9987 107.999ZM62.4987 128.499C62.4987 119.499 69.8424 113.999 77.9987 113.999C86.155 113.999 92.4987 120.999 92.4987 128.499C92.4987 135.999 87.155 143.499 77.9987 143.499C68.8424 143.499 62.4987 137.499 62.4987 128.499ZM73.5 149.076C74.9452 149.353 76.4489 149.499 77.9987 149.499C79.3063 149.499 81.1518 149.31 82.5 148.999V159.499C82.5 162.499 81 164.499 77.9987 164.499C74.5 164.499 73.5 161.999 73.5 159.499V149.076Z" fill="currentColor"/>
</svg>
