<svg width="175" height="176" viewBox="0 0 175 176" fill="none" xmlns="http://www.w3.org/2000/svg">
<path d="M58.5156 104.026V97.0256H87.0156V104.026H58.5156Z" fill="currentColor"/>
<path d="M58.5156 120.026V113.026H87.0156V120.026H58.5156Z" fill="currentColor"/>
<path d="M22.5156 133.526V126.526H87.0156V133.526H22.5156Z" fill="currentColor"/>
<path d="M22.5156 148.526V141.526H87.0156V148.526H22.5156Z" fill="currentColor"/>
<path d="M22.5156 97.0256V120.026H51.0156V97.0256H22.5156Z" fill="currentColor"/>
<path d="M58.5156 82.5256V89.5256H87.0156V82.5256H58.5156Z" fill="currentColor"/>
<path d="M22.5156 82.5256V89.5256H51.0156V82.5256H22.5156Z" fill="currentColor"/>
<path fill-rule="evenodd" clip-rule="evenodd" d="M103.516 32.5257H6.51599C4.34932 32.5257 0.0159913 34.4257 0.0159913 42.0257V168.526C-0.150675 170.359 0.915991 174.026 6.51599 174.026C12.116 174.026 116.849 174.692 168.516 175.026C170.516 174.859 174.516 173.226 174.516 168.026V39.0257C174.516 36.859 173.016 32.5257 167.016 32.5257H152.016V4.02571C151.682 2.69237 149.916 0.025707 145.516 0.025707H110.016C107.849 -0.14096 103.516 0.425707 103.516 4.02571V32.5257ZM6.51599 41.0257V53.5257C6.51599 55.0257 8.01599 55.0257 8.51599 55.0257H103.516V39.0257H8.51599C7.51599 39.0257 6.51599 39.5257 6.51599 41.0257ZM145.516 6.52563H110.016V113.526C112.016 112.192 118.316 109.526 127.516 109.526C136.716 109.526 143.349 112.192 145.516 113.526V6.52563ZM127.516 116.026C120.016 116.026 113.182 118.526 110.016 120.026L120.016 132.526H136.016L145.516 120.026C142.182 118.859 136.016 116.026 127.516 116.026ZM132.516 145.526L152.016 123.026V61.5256H167.016C168.216 61.5256 168.516 62.859 168.516 63.5256V165.026C168.516 167.426 166.516 168.026 165.516 168.026C114.182 168.192 11.0156 168.526 9.01562 168.526C7.01562 168.526 6.51587 166.859 6.51599 166.026V63.5256C6.51599 61.9256 7.84932 61.5256 8.51599 61.5256L103.516 62.0256V123.026L123.016 145.526C123.516 146.692 125.116 149.026 127.516 149.026C129.916 149.026 131.849 146.692 132.516 145.526ZM152.016 55.0257V39.0257H167.016C168.216 39.0257 168.516 40.0257 168.516 40.5256V53.0256C168.516 54.2256 167.516 54.859 167.016 55.0257H152.016Z" fill="currentColor"/>
</svg>
