<svg width="27" height="16" viewBox="0 0 27 16" fill="none" xmlns="http://www.w3.org/2000/svg">
<path d="M22.1274 8.92025C21.6963 8.37579 21.8196 8.13356 22.1274 7.64688C22.133 7.64133 25.692 2.72341 26.0586 1.05559L26.0609 1.05447C26.2431 0.446679 26.0609 0 25.1797 0H22.2641C21.5219 0 21.1796 0.383344 20.9963 0.812245C20.9963 0.812245 19.5118 4.36568 17.4117 6.66908C16.7339 7.33465 16.4206 7.54799 16.0506 7.54799C15.8684 7.54799 15.585 7.33465 15.585 6.72686V1.05447C15.585 0.325565 15.3772 0 14.7628 0H10.1782C9.71263 0 9.43596 0.34001 9.43596 0.656685C9.43596 1.34782 10.486 1.50671 10.5949 3.45121V7.67022C10.5949 8.59469 10.4271 8.76469 10.0549 8.76469C9.06372 8.76469 6.6581 5.19681 5.2325 1.11336C4.94472 0.32112 4.6636 0.00111106 3.9158 0.00111106H0.999052C0.166806 0.00111106 -0.000976562 0.384455 -0.000976562 0.813356C-0.000976562 1.57116 0.990162 5.33904 4.60804 10.317C7.01922 13.7148 10.4149 15.556 13.5038 15.556C15.3606 15.556 15.5872 15.1471 15.5872 14.4437C15.5872 11.197 15.4195 10.8903 16.3495 10.8903C16.7806 10.8903 17.5229 11.1037 19.2562 12.7426C21.2374 14.686 21.563 15.556 22.6719 15.556H25.5875C26.4187 15.556 26.8398 15.1471 26.5976 14.3404C26.0431 12.6437 22.2963 9.15359 22.1274 8.92025Z" fill="currentColor"/>
</svg>
