<svg width="15" height="24" viewBox="0 0 15 24" fill="none" xmlns="http://www.w3.org/2000/svg">
<path d="M0.220975 12.8811C-0.392021 14.0861 0.303974 14.6621 1.89196 15.6461C3.24196 16.4801 5.10694 16.785 6.30494 16.907C5.81394 17.379 8.06393 15.2151 1.58397 21.448C0.209975 22.765 2.42196 24.878 3.79495 23.589L7.51193 20.004C8.93492 21.373 10.2989 22.685 11.2289 23.594C12.6029 24.888 14.8139 22.793 13.4549 21.453C13.3529 21.356 8.41792 16.6221 8.71892 16.912C9.93191 16.7901 11.7689 16.4671 13.1029 15.6511L13.1019 15.6501C14.6899 14.6611 15.3859 14.0861 14.7819 12.8811C14.4169 12.1971 13.4329 11.6251 12.1229 12.6141C12.1229 12.6141 10.3539 13.9691 7.50093 13.9691C4.64695 13.9691 2.87896 12.6141 2.87896 12.6141C1.56997 11.6201 0.581973 12.1971 0.220975 12.8811Z" fill="currentColor"/>
<path d="M7.49865 12.1419C10.9766 12.1419 13.8166 9.42394 13.8166 6.07796C13.8166 2.71798 10.9766 0 7.49865 0C4.01967 0 1.17969 2.71798 1.17969 6.07796C1.17969 9.42394 4.01967 12.1419 7.49865 12.1419ZM7.49865 3.07898C9.20764 3.07898 10.6016 4.41997 10.6016 6.07796C10.6016 7.72195 9.20764 9.06294 7.49865 9.06294C5.78966 9.06294 4.39567 7.72195 4.39567 6.07796C4.39467 4.41897 5.78866 3.07898 7.49865 3.07898Z" fill="currentColor"/>
</svg>
