<svg width="25" height="25" viewBox="0 0 25 25" fill="none" xmlns="http://www.w3.org/2000/svg">
<path d="M23.8147 7.81577C23.7602 6.58169 23.5607 5.73327 23.2748 4.99811C22.9799 4.21775 22.5262 3.51909 21.9317 2.9383C21.3509 2.34846 20.6477 1.89013 19.8763 1.59983C19.1369 1.31395 18.2929 1.11438 17.0589 1.05997C15.8156 1.00095 15.4209 0.987305 12.2675 0.987305C9.11419 0.987305 8.71949 1.00095 7.4808 1.05536C6.24672 1.10977 5.39831 1.30952 4.66332 1.59522C3.88278 1.89013 3.18413 2.34385 2.60333 2.9383C2.0135 3.51909 1.55535 4.22236 1.26486 4.99368C0.978985 5.73327 0.77942 6.57709 0.72501 7.81117C0.665991 9.05446 0.652344 9.44916 0.652344 12.6025C0.652344 15.7559 0.665991 16.1506 0.720401 17.3892C0.774812 18.6233 0.974555 19.4717 1.26043 20.2069C1.55535 20.9873 2.0135 21.6859 2.60333 22.2667C3.18413 22.8566 3.88739 23.3149 4.65871 23.6052C5.39831 23.8911 6.24212 24.0906 7.47637 24.145C8.71488 24.1996 9.10976 24.2131 12.2631 24.2131C15.4164 24.2131 15.8111 24.1996 17.0498 24.145C18.2839 24.0906 19.1323 23.8911 19.8673 23.6052C21.4282 23.0017 22.6623 21.7676 23.2658 20.2069C23.5515 19.4673 23.7512 18.6233 23.8056 17.3892C23.86 16.1506 23.8737 15.7559 23.8737 12.6025C23.8737 9.44916 23.8691 9.05446 23.8147 7.81577ZM21.7231 17.2985C21.6731 18.4328 21.4826 19.0453 21.3238 19.4537C20.9335 20.4655 20.1305 21.2685 19.1187 21.6588C18.7103 21.8176 18.0934 22.0081 16.9635 22.0579C15.7385 22.1125 15.3711 22.126 12.2721 22.126C9.17321 22.126 8.80119 22.1125 7.58058 22.0579C6.44629 22.0081 5.83377 21.8176 5.42542 21.6588C4.9219 21.4727 4.46358 21.1778 4.09156 20.7921C3.7059 20.4155 3.41099 19.9618 3.22489 19.4583C3.06609 19.0499 2.87556 18.4328 2.82576 17.3031C2.77117 16.0781 2.7577 15.7105 2.7577 12.6115C2.7577 9.51261 2.77117 9.1406 2.82576 7.92016C2.87556 6.78587 3.06609 6.17335 3.22489 5.765C3.41099 5.2613 3.7059 4.80315 4.09617 4.43096C4.47261 4.0453 4.92633 3.75038 5.43003 3.56446C5.83838 3.40566 6.4555 3.21514 7.58519 3.16516C8.81023 3.11074 9.17781 3.0971 12.2766 3.0971C15.3801 3.0971 15.7475 3.11074 16.9681 3.16516C18.1024 3.21514 18.7149 3.40566 19.1233 3.56446C19.6268 3.75038 20.0851 4.0453 20.4571 4.43096C20.8428 4.80758 21.1377 5.2613 21.3238 5.765C21.4826 6.17335 21.6731 6.7903 21.7231 7.92016C21.7775 9.14521 21.7912 9.51261 21.7912 12.6115C21.7912 15.7105 21.7775 16.0735 21.7231 17.2985Z" fill="currentColor"/>
<path fill-rule="evenodd" clip-rule="evenodd" d="M24.2013 7.79868C24.2561 9.04692 24.2607 9.44948 24.2607 12.6024C24.2607 15.7578 24.247 16.159 24.1922 17.4061C24.1361 18.6784 23.9289 19.5642 23.6267 20.3463C22.984 22.0086 21.6696 23.3232 20.0071 23.966C19.2288 24.2687 18.3383 24.4756 17.0668 24.5317C15.8196 24.5866 15.4183 24.6001 12.263 24.6001C9.10768 24.6001 8.70619 24.5866 7.45922 24.5317C6.18775 24.4756 5.30251 24.2688 4.52072 23.9668C3.69804 23.6569 2.94859 23.1685 2.3295 22.5403C1.70172 21.9216 1.21345 21.177 0.898868 20.3454C0.596497 19.5672 0.389604 18.6771 0.33357 17.4062C0.27879 16.1591 0.265137 15.7578 0.265137 12.6024C0.265137 9.44768 0.278777 9.04536 0.338207 7.79335C0.394304 6.52234 0.601124 5.63724 0.90309 4.85556C1.21305 4.03323 1.70108 3.284 2.32896 2.66499C2.94893 2.03124 3.69409 1.54775 4.52467 1.23365C5.30259 0.931462 6.19275 0.724565 7.46364 0.668531C8.71073 0.613751 9.11205 0.600098 12.2674 0.600098C15.4221 0.600098 15.8245 0.613738 17.0765 0.673169C18.3474 0.729264 19.2327 0.936065 20.0142 1.23803C20.8366 1.54784 21.5859 2.0361 22.2048 2.66396C22.8386 3.28391 23.322 4.02906 23.6361 4.85943C23.9385 5.63759 24.1452 6.52784 24.2013 7.79868ZM21.3363 17.2812C21.3903 16.0646 21.404 15.7082 21.404 12.6114C21.404 9.51469 21.3903 9.15386 21.3363 7.93723C21.2882 6.85066 21.1068 6.2752 20.9629 5.9052L20.9605 5.89907C20.7945 5.44956 20.5314 5.04452 20.1866 4.7078L20.1783 4.69972C19.848 4.35735 19.4397 4.09389 18.9891 3.92749L18.9828 3.92519C18.6127 3.78123 18.0417 3.59984 16.951 3.55177C15.7388 3.49774 15.3778 3.48409 12.2765 3.48409C9.17989 3.48409 8.81889 3.49773 7.60226 3.55177C6.51586 3.59983 5.94022 3.78125 5.57023 3.92514L5.56399 3.92756C5.11456 4.09345 4.70958 4.3565 4.37308 4.70124L4.36824 4.7062L4.36322 4.71099C4.0174 5.04079 3.7544 5.44836 3.58789 5.89905L3.58561 5.90522C3.44166 6.27539 3.26027 6.8463 3.21238 7.93704C3.15817 9.14894 3.1447 9.5146 3.1447 12.6114C3.1447 15.7082 3.15816 16.0692 3.21237 17.2858C3.26026 18.3721 3.44168 18.9479 3.58556 19.3179L3.58793 19.3239C3.75401 19.7733 4.01711 20.1784 4.36191 20.5151L4.37019 20.5232C4.70044 20.8655 5.10879 21.129 5.55951 21.2956L5.56564 21.2979C5.93581 21.4418 6.50672 21.6232 7.59746 21.6711C8.80953 21.7253 9.17519 21.7388 12.272 21.7388C15.3688 21.7388 15.7296 21.7253 16.9462 21.6711C18.0327 21.6232 18.6083 21.4418 18.9783 21.2979L18.9793 21.2975C19.8891 20.9466 20.6116 20.2241 20.9625 19.3143L20.9629 19.3133C21.1069 18.9431 21.2882 18.372 21.3363 17.2812Z" fill="currentColor"/>
<path d="M12.2662 6.63623C8.97232 6.63623 6.2998 9.30856 6.2998 12.6026C6.2998 15.8967 8.97232 18.569 12.2662 18.569C15.5603 18.569 18.2326 15.8967 18.2326 12.6026C18.2326 9.30856 15.5603 6.63623 12.2662 6.63623ZM12.2662 16.4729C10.1293 16.4729 8.39595 14.7397 8.39595 12.6026C8.39595 10.4655 10.1293 8.73238 12.2662 8.73238C14.4033 8.73238 16.1365 10.4655 16.1365 12.6026C16.1365 14.7397 14.4033 16.4729 12.2662 16.4729Z" fill="currentColor"/>
<path fill-rule="evenodd" clip-rule="evenodd" d="M5.91309 12.6025C5.91309 9.09466 8.75891 6.24902 12.2666 6.24902C15.7745 6.24902 18.6201 9.09467 18.6201 12.6025C18.6201 16.1104 15.7745 18.956 12.2666 18.956C8.75891 18.956 5.91309 16.1104 5.91309 12.6025ZM8.78343 12.6025C8.78343 14.5258 10.3435 16.0857 12.2666 16.0857C14.1899 16.0857 15.7497 14.5258 15.7497 12.6025C15.7497 10.6792 14.1899 9.11937 12.2666 9.11937C10.3435 9.11937 8.78343 10.6792 8.78343 12.6025Z" fill="currentColor"/>
<path d="M19.8621 6.39997C19.8621 7.16916 19.2384 7.79285 18.4691 7.79285C17.6999 7.79285 17.0762 7.16916 17.0762 6.39997C17.0762 5.63059 17.6999 5.00708 18.4691 5.00708C19.2384 5.00708 19.8621 5.63059 19.8621 6.39997Z" fill="currentColor"/>
</svg>
