<svg width="16" height="14" viewBox="0 0 16 14" fill="none" xmlns="http://www.w3.org/2000/svg">
<path d="M1.53117 6.09647C5.5577 4.26188 8.24267 3.05241 9.58611 2.46805C13.4219 0.799594 14.2189 0.509765 14.7384 0.500093C14.8527 0.49809 15.1082 0.527703 15.2737 0.66813C15.4134 0.786703 15.4518 0.94688 15.4702 1.0593C15.4886 1.17172 15.5115 1.42782 15.4933 1.62793C15.2855 3.91192 14.3861 9.45456 13.9285 12.0127C13.7349 13.0951 13.3536 13.458 12.9845 13.4936C12.1824 13.5707 11.5734 12.9392 10.7965 12.4067C9.58085 11.5733 8.89409 11.0545 7.71409 10.2414C6.3504 9.30157 7.23442 8.78505 8.01159 7.94091C8.21497 7.71999 11.749 4.35836 11.8174 4.05341C11.826 4.01527 11.8339 3.87311 11.7532 3.79804C11.6724 3.72297 11.5532 3.74864 11.4672 3.76906C11.3453 3.79799 9.40325 5.14035 5.64115 7.79611C5.08991 8.19195 4.59062 8.38482 4.14327 8.37472C3.65011 8.36357 2.70146 8.08311 1.99623 7.84338C1.13124 7.54933 0.44377 7.39387 0.503634 6.8945C0.534815 6.63439 0.877327 6.36838 1.53117 6.09647Z" fill="currentColor"/>
</svg>
