<svg width="195" height="180" viewBox="0 0 195 180" fill="none" xmlns="http://www.w3.org/2000/svg">
<path fill-rule="evenodd" clip-rule="evenodd" d="M145.056 0.985064C128.355 5.5106 116.151 19.6519 114.24 36.6926C111.942 57.1834 124.782 75.941 144.927 81.5238C153.634 83.9365 166.446 82.7986 174.07 78.9351C178.249 76.8175 183.966 72.379 186.505 69.2809L188.687 66.6177L183.622 62.6629C180.837 60.4881 178.461 58.7087 178.343 58.7087C178.225 58.7087 176.755 59.9979 175.076 61.5737C161.207 74.5958 139.774 71.0309 131.924 54.3964C126.169 42.2015 128.638 28.3828 138.163 19.4735C141.571 16.2853 144.709 14.5821 149.446 13.3481C155.748 11.7069 164.471 12.6008 170.082 15.4634L172.467 16.68V23.5761V30.4729H179.376H186.284V20.6041V10.7354L184.031 8.85264C181.182 6.47122 173.262 2.61974 168.562 1.3293C166.444 0.747761 161.737 0.233511 157.147 0.0821191C150.733 -0.129349 148.573 0.0322549 145.056 0.985064ZM22.2763 8.23266V14.8531L23.9284 14.8957C24.8367 14.9185 27.608 14.9143 30.0862 14.8849C32.5643 14.8555 34.9818 15.0874 35.4582 15.3998C35.9346 15.7121 41.6376 30.7889 48.1313 48.903L59.9374 81.838H66.4449H72.9517L85.4037 48.4957L97.8551 15.1534L104.522 14.9834L111.189 14.8134V8.22485V1.63629L99.324 1.6465L87.4589 1.65611L77.5632 30.5299C72.1209 46.4105 67.501 59.5059 67.298 59.6321C67.0943 59.7576 62.4588 46.8274 56.9961 30.8988L47.0649 1.93667L34.6706 1.77447L22.2763 1.61166V8.23266ZM27.8123 105.106L27.9835 111.275L34.4417 111.446L40.8999 111.617V138.33V165.044H34.2711H27.6423L27.8129 171.502L27.9835 177.96L58.4722 178.116L88.9608 178.271V171.657V165.044H71.8391H54.7174V149.25C54.7174 131.764 55.0863 129.152 58.4469 122.847C60.4283 119.129 64.3771 115.194 67.9342 113.391C69.8104 112.439 75.3404 110.975 77.0556 110.975C77.4995 110.975 77.6149 112.888 77.4178 116.983L77.1282 122.99H83.9457H90.7631V110.975V98.9597L83.1034 98.967C74.4591 98.9748 71.0347 99.6795 65.626 102.563C62.2035 104.386 56.8327 109.375 54.6291 112.777C53.6745 114.251 53.6487 114.194 53.2768 109.773C53.0683 107.295 52.834 103.916 52.7565 102.264L52.6147 99.2601L40.1279 99.0979L27.6411 98.9351L27.8123 105.106ZM105.782 105.869V112.777H111.79H117.797V133.978C117.797 156.748 118.004 158.722 121.097 165.496C122.891 169.424 127.685 174.564 131.458 176.606C136.502 179.336 140.721 180.219 147.463 179.956C152.506 179.759 154.15 179.437 157.105 178.072C161.796 175.904 165.122 173.111 168.007 168.916L170.364 165.489L171.383 171.724C171.944 175.154 172.416 178.034 172.434 178.124C172.452 178.214 177.266 178.214 183.13 178.124L193.794 177.96L193.964 171.502L194.135 165.044H188.803H183.471L183.077 152.878C182.86 146.187 182.682 131.319 182.682 119.836L182.68 98.9597H168.862H155.045V105.869V112.777H161.953H168.862V129.217C168.862 138.257 168.588 147.111 168.253 148.891C166.931 155.913 162.331 162.21 156.16 165.444C153.369 166.906 152.265 167.129 147.836 167.131C141.708 167.132 138.606 165.79 135.806 161.925C132.082 156.784 131.998 156.04 131.757 126.144L131.538 98.9597H118.66H105.782V105.869ZM0.460783 164.874C0.305186 165.132 0.138172 168.25 0.0889098 171.802L0 178.26H7.253H14.506L14.336 171.502L14.166 164.743L7.45485 164.574C3.76377 164.481 0.616381 164.616 0.460783 164.874Z" fill="#2C353D"/>
</svg>
