<svg width="18" height="16" viewBox="0 0 18 16" fill="none" xmlns="http://www.w3.org/2000/svg">
<path d="M16 7.97784C16 6.24931 15.3207 4.78286 13.962 3.5785C12.604 2.37474 10.95 1.77285 9 1.77285V0C10.25 0 11.421 0.210379 12.513 0.631136C13.6043 1.05248 14.5543 1.62157 15.363 2.33839C16.171 3.05463 16.8127 3.89673 17.288 4.86471C17.7627 5.8321 18 6.86981 18 7.97784H16ZM12 7.97784C12 7.23915 11.7083 6.61127 11.125 6.09418C10.5417 5.5771 9.83333 5.31856 9 5.31856V3.54571C10.3833 3.54571 11.5627 3.97769 12.538 4.84166C13.5127 5.70622 14 6.75162 14 7.97784H12ZM16.95 16C14.8 16 12.7043 15.5751 10.663 14.7253C8.621 13.8761 6.81267 12.7533 5.238 11.3569C3.66267 9.96107 2.396 8.35812 1.438 6.54803C0.479334 4.73854 0 2.88089 0 0.975069C0 0.709141 0.0999999 0.487535 0.3 0.310249C0.5 0.132964 0.75 0.0443213 1.05 0.0443213H5.1C5.33333 0.0443213 5.54167 0.110803 5.725 0.243767C5.90833 0.376731 6.01667 0.54663 6.05 0.753463L6.7 3.85596C6.73333 4.06279 6.72933 4.25101 6.688 4.42061C6.646 4.5908 6.55 4.74238 6.4 4.87535L4 7.04709C4.7 8.1108 5.575 9.10803 6.625 10.0388C7.675 10.9695 8.83333 11.7747 10.1 12.4543L12.45 10.3712C12.6 10.2382 12.796 10.1384 13.038 10.0716C13.2793 10.0054 13.5167 9.98707 13.75 10.0166L17.2 10.6371C17.4333 10.6814 17.625 10.781 17.775 10.9358C17.925 11.0913 18 11.2724 18 11.4792V15.0693C18 15.3352 17.9 15.5568 17.7 15.7341C17.5 15.9114 17.25 16 16.95 16Z" fill="currentColor"/>
</svg>
