<svg width="18" height="18" viewBox="0 0 18 18" fill="none" xmlns="http://www.w3.org/2000/svg">
<path fill-rule="evenodd" clip-rule="evenodd" d="M15.3 2.94375C13.6125 1.35 11.3625 0.5 9 0.5C4.05 0.5 0 4.325 0 9C0 10.4875 0.450007 11.975 1.23751 13.25L0 17.5L4.72501 16.3312C6.07501 16.9687 7.5375 17.3937 9 17.3937C13.95 17.3937 18 13.5687 18 8.89375C18 6.6625 16.9875 4.5375 15.3 2.94375ZM9 16.0125C7.65 16.0125 6.30001 15.6938 5.17501 15.0563L4.94999 14.95L2.13749 15.6937L2.92501 13.1437L2.69999 12.825C1.91249 11.6563 1.57499 10.3813 1.57499 9.10625C1.57499 5.28125 4.95 2.09375 9 2.09375C11.025 2.09375 12.825 2.8375 14.2875 4.1125C15.75 5.49375 16.425 7.19375 16.425 9.10625C16.425 12.825 13.1625 16.0125 9 16.0125ZM13.05 10.7C12.825 10.5938 11.7 10.0625 11.475 10.0625C11.25 9.95625 11.1375 9.95625 11.025 10.1688C10.9125 10.3813 10.4625 10.8062 10.35 11.0187C10.2375 11.125 10.125 11.125 9.89999 11.125C9.67499 11.0187 9.00001 10.8062 8.10001 10.0625C7.42501 9.53125 6.97501 8.7875 6.86251 8.575C6.75001 8.3625 6.86251 8.25625 6.97501 8.15C7.08751 8.04375 7.2 7.9375 7.3125 7.83125C7.425 7.725 7.42501 7.61875 7.53751 7.5125C7.65001 7.40625 7.53751 7.3 7.53751 7.19375C7.53751 7.0875 7.08751 6.025 6.86251 5.6C6.75001 5.28125 6.52501 5.28125 6.41251 5.28125C6.30001 5.28125 6.18749 5.28125 5.96249 5.28125C5.84999 5.28125 5.62499 5.28125 5.39999 5.49375C5.17499 5.70625 4.61251 6.2375 4.61251 7.3C4.61251 8.3625 5.39999 9.31875 5.51249 9.53125C5.62499 9.6375 7.08749 11.8687 9.33749 12.7188C11.25 13.4625 11.5875 13.25 12.0375 13.25C12.4875 13.25 13.3875 12.7188 13.5 12.2938C13.725 11.7625 13.725 11.3375 13.6125 11.3375C13.5 10.8063 13.275 10.8063 13.05 10.7Z" fill="currentColor"/>
</svg>
