<svg width="46" height="48" viewBox="0 0 46 48" fill="none" xmlns="http://www.w3.org/2000/svg">
    
        <path
            d="M8.97037 13.1826L16.8123 21.082C18.1584 19.7841 19.3255 18.6586 20.2009 17.8129L12.2901 9.84572L11.3223 5.53504L4.26352 1.22446L0.389434 5.1182L4.6799 12.2103L8.97037 13.1826Z"
            fill="#FF6600" />
        <path
            d="M32.8009 26.0513L44.3966 37.6647C46.5345 39.8113 46.5345 43.2925 44.3966 45.4404C42.2587 47.587 38.7952 47.587 36.6574 45.4404L25.0618 33.827L32.8009 26.0513Z"
            fill="#FF6600" />
        <path
            d="M43.6781 6.70735L39.3569 12.6994C39.2279 12.8777 39.0196 12.9793 38.8012 12.972L37.1237 13.0958C36.98 13.0913 36.8407 13.0398 36.7278 12.9484L33.4872 10.189C33.3553 10.0814 33.2687 9.92822 33.2467 9.75879L33.0458 8.23248C33.0223 8.06456 33.0648 7.89362 33.1646 7.75511L37.4916 1.84892C37.6882 1.57785 37.6501 1.20221 37.4066 0.973847L36.3567 0.148841C36.1514 -0.042655 35.9183 -0.0161605 35.6 0.0456913C32.6117 0.637904 27.5089 3.54607 26.2141 7.56503C25.0733 11.1023 25.4707 13.5964 25.4707 13.5964C25.4707 15.5897 24.8182 17.5108 24.0161 18.3167L1.67309 40.7319C1.47018 40.9048 1.51269 40.862 1.47018 40.9048C-0.392064 42.7758 -0.518205 45.0957 1.28098 46.9034C3.08016 48.711 5.31635 48.1344 7.1786 46.2633C7.26513 46.1764 7.60142 45.8533 7.67913 45.7605L29.9988 23.0047C30.6424 22.0662 32.4047 21.0736 34.3559 20.7126C34.3559 20.7126 36.8692 20.6536 40.1251 18.8858C43.8246 16.8787 45.7472 11.31 45.7858 8.24991C45.7887 7.92427 45.7724 7.68913 45.5478 7.52092L44.5501 6.63289C44.2825 6.43371 43.9079 6.46409 43.6781 6.70735Z"
            fill="#FF6600" />
    
    
</svg>