<svg width="46" height="46" viewBox="0 0 46 46" fill="none" xmlns="http://www.w3.org/2000/svg">
<g clip-path="url(#clip0)">
<path d="M44.8176 14.9446L31.0556 1.18253C29.4791 -0.393931 26.914 -0.393752 25.3377 1.18253L8.06893 18.4514H4.04313C1.81375 18.4514 0 20.2651 0 22.4945V41.957C0 44.1864 1.81375 46.0001 4.04313 46.0001H35.0064C37.2357 46.0001 39.0495 44.1864 39.0495 41.957V26.4305L44.8176 20.6624C46.3941 19.086 46.3941 16.521 44.8176 14.9446V14.9446ZM27.2437 3.08847C27.5065 2.82575 27.8516 2.69431 28.1967 2.69431C28.5418 2.69431 28.8869 2.82575 29.1497 3.08847L36.2409 10.1797L27.9691 18.4514H11.8807L27.2437 3.08847ZM36.3541 41.957C36.3541 42.7001 35.7495 43.3047 35.0064 43.3047H4.04313C3.30001 43.3047 2.69542 42.7001 2.69542 41.957V22.4945C2.69542 21.7514 3.30001 21.1468 4.04313 21.1468H35.0064C35.7495 21.1468 36.3541 21.7514 36.3541 22.4945V41.957ZM35.5548 18.4896C35.3753 18.4651 35.1924 18.4514 35.0064 18.4514H31.781L38.1468 12.0855L40.0528 13.9915L35.5548 18.4896ZM42.9117 18.7565L39.0495 22.6187V22.4945C39.0495 21.4701 38.6658 20.534 38.0355 19.8208L41.9588 15.8975L42.9117 16.8504C43.4372 17.3759 43.4372 18.231 42.9117 18.7565V18.7565Z" fill="#000000"/>
<path d="M5.39062 36.5296H10.4058V39.2251H5.39062V36.5296Z" fill="#000000"/>
<path d="M13.1406 36.5296H18.1558V39.2251H13.1406V36.5296Z" fill="#000000"/>
<path d="M20.8926 36.5296H25.9079V39.2251H20.8926V36.5296Z" fill="#000000"/>
<path d="M28.6426 36.5296H33.6578V39.2251H28.6426V36.5296Z" fill="#000000"/>
<path d="M14.4892 25.2261H5.39062V33.3124H14.4892V25.2261ZM11.7938 30.617H8.08605V27.9215H11.7938V30.617Z" fill="#000000"/>
</g>
<defs>
<clipPath id="clip0">
<rect width="46" height="46" fill="white"/>
</clipPath>
</defs>
</svg>
