<svg width="20" height="20" viewBox="0 0 20 20" fill="none" xmlns="http://www.w3.org/2000/svg">
<path d="M18.6805 2.08691H1.31948C0.591954 2.08691 0 2.67887 0 3.40639V16.5938C0 17.3214 0.591954 17.9133 1.31948 17.9133H18.6805C19.408 17.9133 20 17.3214 20 16.5938V3.40639C20 2.67887 19.4081 2.08691 18.6805 2.08691ZM1.31948 3.21789H18.6805C18.7827 3.21789 18.869 3.30422 18.869 3.40639V12.1884L15.8449 8.3073C15.6206 8.01935 15.2921 7.84676 14.9438 7.83395C14.5955 7.8209 14.2552 7.96898 14.0102 8.23974L10.0865 12.5761C9.99205 12.6804 9.78244 12.7092 9.66323 12.6343L6.43708 10.6026C5.88426 10.2543 5.07515 10.2902 4.55528 10.6859L1.13098 13.292V3.40639C1.13098 3.30422 1.21731 3.21789 1.31948 3.21789ZM18.6805 16.7823H1.31948C1.21731 16.7823 1.13098 16.696 1.13098 16.5938V14.7132L5.24028 11.5859C5.38301 11.4773 5.68287 11.464 5.83449 11.5595L9.06065 13.5912C9.64378 13.9585 10.4628 13.8459 10.9252 13.3349L14.8488 8.99855C14.8724 8.97254 14.8892 8.96462 14.9022 8.96409C14.9121 8.96447 14.9313 8.97473 14.9528 9.0024L18.869 14.0283V16.5938C18.869 16.696 18.7827 16.7823 18.6805 16.7823Z" fill="#999999"/>
<path d="M8.35754 9.74337C9.46205 9.74337 10.3606 8.84485 10.3606 7.74034C10.3606 6.63583 9.46198 5.7373 8.35754 5.7373C7.25302 5.7373 6.35449 6.6359 6.35449 7.74034C6.35449 8.84478 7.25302 9.74337 8.35754 9.74337ZM8.35754 6.86821C8.83843 6.86821 9.2296 7.25937 9.2296 7.74026C9.2296 8.22116 8.83843 8.61232 8.35754 8.61232C7.87664 8.61232 7.48547 8.22116 7.48547 7.74026C7.48547 7.25945 7.87664 6.86821 8.35754 6.86821Z" fill="#999999"/>
</svg>
