<svg width="16" height="16" viewBox="0 0 16 16" fill="none" xmlns="http://www.w3.org/2000/svg">
<path d="M11.4286 2.85713H1.71428C0.767511 2.85713 0 3.62464 0 4.57142V14.2857C0 15.2325 0.767511 16 1.71428 16H11.4286C12.3753 16 13.1428 15.2325 13.1428 14.2857V4.57142C13.1428 3.62464 12.3753 2.85713 11.4286 2.85713ZM12 14.2857C12 14.6013 11.7442 14.8572 11.4286 14.8572H1.71428C1.39868 14.8572 1.14285 14.6013 1.14285 14.2857V4.57142C1.14285 4.25582 1.39868 3.99998 1.71428 3.99998H11.4286C11.7442 3.99998 12 4.25582 12 4.57142V14.2857Z" fill="#999999"/>
<path d="M14.2851 0H3.99944C3.05267 0 2.28516 0.767511 2.28516 1.71428C2.28516 2.02989 2.54099 2.28572 2.8566 2.28572C3.1722 2.28572 3.428 2.02989 3.428 1.71428C3.428 1.39868 3.68384 1.14285 3.99944 1.14285H14.2851C14.6007 1.14285 14.8566 1.39868 14.8566 1.71428V12C14.8566 12.3156 14.6007 12.5714 14.2851 12.5714C13.9695 12.5714 13.7137 12.8273 13.7137 13.1429C13.7137 13.4585 13.9695 13.7143 14.2851 13.7143C15.2319 13.7143 15.9994 12.9468 15.9994 12V1.71428C15.9994 0.767511 15.2319 0 14.2851 0Z" fill="#999999"/>
</svg>
