<svg width="21" height="21" viewBox="0 0 21 21" fill="none" xmlns="http://www.w3.org/2000/svg">
<path d="M21 19.7089L14.8332 13.548C16.031 12.1139 16.7514 10.2812 16.7514 8.27956C16.7514 3.71302 12.9975 0 8.38004 0C3.76255 0 0 3.71735 0 8.28389C0 12.8504 3.75387 16.5634 8.37136 16.5634C10.3329 16.5634 12.1382 15.8919 13.5704 14.7698L19.8109 21L21 19.7089ZM1.77929 8.28389C1.77929 4.69651 4.73899 1.78069 8.37136 1.78069C12.0037 1.78069 14.9634 4.69651 14.9634 8.28389C14.9634 11.8713 12.0037 14.7871 8.37136 14.7871C4.73899 14.7871 1.77929 11.8669 1.77929 8.28389Z" fill="white"/>
</svg>
