<svg width="20" height="20" viewBox="0 0 20 20" fill="none" xmlns="http://www.w3.org/2000/svg">
<path d="M17.1468 0.760742H2.85324C1.27992 0.760742 0 2.0407 0 3.61398V13.2609C0 14.8342 1.27992 16.1141 2.85324 16.1141H3.97289L3.9948 18.633C3.99676 18.8652 4.13008 19.0761 4.33891 19.1776C4.42379 19.2189 4.51516 19.2391 4.60609 19.2391C4.73887 19.2391 4.87066 19.1959 4.97973 19.1117L8.86352 16.1141H17.1468C18.7201 16.1141 20 14.8342 20 13.2609V3.61398C20 2.0407 18.7201 0.760742 17.1468 0.760742ZM18.7772 13.2609C18.7772 14.16 18.0458 14.8914 17.1468 14.8914H8.65504C8.51988 14.8914 8.38852 14.9362 8.28148 15.0187L5.20684 17.3918L5.19035 15.4975C5.18746 15.1619 4.91457 14.8914 4.57898 14.8914H2.85324C1.95422 14.8914 1.22281 14.16 1.22281 13.2609V3.61398C1.22281 2.71496 1.95422 1.98355 2.85324 1.98355H17.1468C18.0458 1.98355 18.7772 2.71496 18.7772 3.61398V13.2609H18.7772Z" fill="#FF6600"/>
</svg>
