<svg width="46" height="46" viewBox="0 0 46 46" fill="none" xmlns="http://www.w3.org/2000/svg">
<path d="M37.2254 41.5V4.5C37.2254 2.01897 35.2069 0 32.7254 0H13.2754C10.7944 0 8.77539 2.01897 8.77539 4.5V41.5C8.77539 43.9815 10.7944 46 13.2754 46H32.7754C33.9779 46 35.1474 45.5055 35.9839 44.6435C36.8198 43.7815 37.2604 42.649 37.2254 41.5ZM33.8304 42.554C33.5519 42.8421 33.1774 43 32.7754 43H13.2754C12.4484 43 11.7754 42.327 11.7754 41.5V4.5C11.7754 3.67299 12.4484 2.99997 13.2754 2.99997H32.7254C33.5524 2.99997 34.2254 3.67299 34.2254 4.5L34.226 41.545C34.2374 41.921 34.0969 42.2795 33.8304 42.554Z" fill="#000000"/>
<path d="M35.7754 5.84999H10.2754V8.84996H35.7754V5.84999Z" fill="#000000"/>
<path d="M35.7754 34.8H10.2754V37.8H35.7754V34.8Z" fill="#000000"/>
<path d="M24.2754 38.85H21.7754C20.9469 38.85 20.2754 39.5215 20.2754 40.35C20.2754 41.1785 20.9469 41.85 21.7754 41.85H24.2754C25.104 41.85 25.7754 41.1785 25.7754 40.35C25.7754 39.5215 25.1039 38.85 24.2754 38.85Z" fill="#000000"/>
</svg>
