<svg width="46" height="46" viewBox="0 0 46 46" fill="none" xmlns="http://www.w3.org/2000/svg">
<path d="M15.5016 35.2101C15.4899 35.1526 15.4728 35.096 15.4504 35.0412C15.4279 34.9873 15.4 34.9352 15.3677 34.8867C15.3354 34.8372 15.2976 34.7914 15.2563 34.7501C15.215 34.7088 15.1691 34.671 15.1197 34.6387C15.0712 34.6063 15.0191 34.5785 14.9643 34.556C14.9104 34.5336 14.8538 34.5156 14.7963 34.5048C14.6804 34.4815 14.5609 34.4815 14.4459 34.5048C14.3884 34.5156 14.3318 34.5336 14.277 34.556C14.2231 34.5785 14.171 34.6063 14.1225 34.6387C14.073 34.671 14.0272 34.7088 13.9859 34.7501C13.9446 34.7914 13.9068 34.8372 13.8745 34.8867C13.8413 34.9352 13.8143 34.9873 13.7918 35.0412C13.7694 35.096 13.7514 35.1526 13.7406 35.2101C13.7289 35.2676 13.7227 35.3269 13.7227 35.3853C13.7227 35.4437 13.7289 35.503 13.7406 35.5605C13.7514 35.618 13.7694 35.6746 13.7918 35.7285C13.8143 35.7833 13.8413 35.8354 13.8745 35.8839C13.9068 35.9333 13.9446 35.9791 13.9859 36.0205C14.0272 36.0618 14.073 36.0995 14.1225 36.1319C14.171 36.1643 14.2231 36.1922 14.277 36.2146C14.3318 36.2371 14.3884 36.2551 14.4459 36.2658C14.5034 36.2775 14.5627 36.2838 14.6211 36.2838C14.6795 36.2838 14.7388 36.2775 14.7963 36.2658C14.8538 36.2551 14.9104 36.2371 14.9643 36.2146C15.0191 36.1922 15.0712 36.1642 15.1197 36.1319C15.1691 36.0995 15.215 36.0618 15.2563 36.0205C15.2976 35.9791 15.3354 35.9333 15.3677 35.8839C15.4 35.8354 15.4279 35.7833 15.4504 35.7285C15.4728 35.6746 15.4899 35.618 15.5016 35.5605C15.5132 35.503 15.5195 35.4437 15.5195 35.3853C15.5195 35.3269 15.5132 35.2676 15.5016 35.2101Z" fill="white"/>
<path d="M41.3275 35.4867C41.324 35.4777 41.3204 35.4688 41.3166 35.46C40.4897 33.5251 38.5503 32.8099 36.2552 33.5938L29.996 35.3247C29.6341 34.2288 28.7314 33.2962 27.4551 32.8226C27.4472 32.8197 27.4393 32.8168 27.4313 32.8141L20.5509 30.4789C19.9783 29.7387 18.1845 27.8446 14.8258 27.8446C12.4787 27.8446 10.4023 29.4548 9.21437 31.2099H0.898438C0.402231 31.2099 0 31.6121 0 32.1083V43.4356C0 43.9318 0.402231 44.334 0.898438 44.334H6.24028C6.73648 44.334 7.13871 43.9318 7.13871 43.4356V42.6598H9.64383C10.14 42.6598 10.5423 42.2576 10.5423 41.7614V41.5028C12.0026 41.6302 12.4829 41.9072 13.8241 42.6806C14.8555 43.2754 16.4144 44.1742 19.2216 45.4365C19.2346 45.4423 19.2479 45.4479 19.2611 45.4531C19.7999 45.665 20.8531 45.998 22.1516 45.998C23.0554 45.998 24.0783 45.8365 25.1282 45.3606L38.9633 40.407C38.988 40.3982 39.0122 40.3883 39.0359 40.3774C40.3582 39.769 42.3285 38.0545 41.3275 35.4867ZM5.34184 42.537H1.79688V33.0067H5.34184V42.537ZM8.74539 40.8629H7.13871V33.0067H8.74539V40.8629ZM38.318 38.7294L24.4891 43.6807C24.4769 43.685 24.4605 43.6915 24.4485 43.6964C24.4364 43.7013 24.4243 43.7065 24.4123 43.712C22.4864 44.5971 20.6556 44.0672 19.9381 43.7883C17.2265 42.5681 15.7792 41.7336 14.7217 41.1238C13.2515 40.276 12.5431 39.8674 10.5423 39.7022V32.466C11.3939 31.0702 13.0454 29.6414 14.8259 29.6414C17.8794 29.6414 19.1732 31.6274 19.224 31.7075C19.3337 31.886 19.5024 32.0205 19.7007 32.0877L26.841 34.5112C27.9814 34.9392 28.5841 35.9158 28.3071 36.8897C28.1792 37.3395 27.8838 37.7125 27.4754 37.9401C27.0705 38.1657 26.6024 38.2215 26.1562 38.098L18.1068 35.5472C17.6335 35.3972 17.1288 35.6592 16.9789 36.1322C16.829 36.6053 17.091 37.1102 17.564 37.2601L25.6274 39.8154C25.6359 39.8181 25.6445 39.8207 25.6531 39.8231C25.975 39.9147 26.3027 39.9599 26.6285 39.9599C27.2249 39.9599 27.8147 39.808 28.35 39.5097C29.1777 39.0486 29.7763 38.2926 30.0354 37.3812C30.0561 37.3084 30.0744 37.2356 30.0903 37.1628L36.836 35.2941C37.8103 34.9613 39.0892 34.8414 39.6586 36.1528C40.248 37.6925 38.7162 38.5394 38.318 38.7294Z" fill="white"/>
<path d="M32.2603 11.8183C32.2486 11.7608 32.2315 11.7042 32.2082 11.6493C32.1857 11.5954 32.1587 11.5433 32.1255 11.4948C32.0932 11.4454 32.0554 11.3996 32.0141 11.3583C31.9728 11.3169 31.927 11.2792 31.8775 11.2468C31.829 11.2145 31.7769 11.1867 31.723 11.1642C31.6682 11.1417 31.6116 11.1238 31.555 11.113C31.4391 11.0896 31.3196 11.0896 31.2037 11.113C31.1462 11.1238 31.0896 11.1417 31.0357 11.1642C30.9809 11.1867 30.9288 11.2145 30.8803 11.2468C30.8309 11.2792 30.785 11.3169 30.7437 11.3583C30.7024 11.3996 30.6646 11.4454 30.6323 11.4948C30.6 11.5433 30.5721 11.5954 30.5496 11.6493C30.5272 11.7042 30.5092 11.7608 30.4984 11.8183C30.4868 11.8758 30.4805 11.935 30.4805 11.9934C30.4805 12.0518 30.4868 12.1111 30.4984 12.1686C30.5092 12.2261 30.5272 12.2827 30.5496 12.3367C30.5721 12.3915 30.6 12.4436 30.6323 12.4921C30.6646 12.5415 30.7024 12.5873 30.7437 12.6286C30.785 12.67 30.8309 12.7077 30.8803 12.74C30.9288 12.7724 30.9809 12.8002 31.0357 12.8227C31.0896 12.8452 31.1462 12.8622 31.2037 12.8739C31.2612 12.8856 31.3205 12.8919 31.3789 12.8919C31.4373 12.8919 31.4966 12.8856 31.555 12.8739C31.6116 12.8622 31.6682 12.8452 31.723 12.8227C31.7769 12.8002 31.829 12.7724 31.8775 12.74C31.927 12.7077 31.9728 12.67 32.0141 12.6286C32.0554 12.5873 32.0932 12.5415 32.1255 12.4921C32.1587 12.4436 32.1857 12.3915 32.2082 12.3367C32.2315 12.2827 32.2486 12.2261 32.2603 12.1686C32.272 12.1111 32.2773 12.0518 32.2773 11.9934C32.2773 11.935 32.272 11.8758 32.2603 11.8183Z" fill="white"/>
<path d="M45.1001 3.04488H39.7582C39.262 3.04488 38.8598 3.44711 38.8598 3.94332V4.71903H36.3547C35.8585 4.71903 35.4562 5.12126 35.4562 5.61747V5.87604C33.9959 5.74855 33.5156 5.47165 32.1745 4.69827C31.1431 4.10351 29.5842 3.20462 26.7769 1.94241C26.7638 1.93648 26.7507 1.931 26.7373 1.92579C25.8235 1.56623 23.4286 0.858803 20.8706 2.01806L17.2553 3.31253L14.2079 0.265205C13.8571 -0.0856348 13.2882 -0.0856348 12.9373 0.265205L2.93252 10.2699C2.6089 10.5936 2.54682 11.1549 2.93252 11.5406L20.0286 28.6367C20.3022 28.9104 20.9428 28.9931 21.2993 28.6367L30.4332 19.5028C30.6707 19.5233 30.9171 19.5344 31.1726 19.5344C33.5198 19.5344 35.5961 17.9242 36.7839 16.1692H45.1001C45.5963 16.1692 45.9985 15.7669 45.9985 15.2707V3.94332C45.9985 3.44711 45.5963 3.04488 45.1001 3.04488ZM13.5725 2.17106L15.6203 4.21878C15.0116 4.59522 14.3078 4.79665 13.5725 4.79665C12.8372 4.79665 12.1335 4.59531 11.5248 4.21878L13.5725 2.17106ZM6.88618 12.953L4.83846 10.9052L6.88618 8.8575C7.26263 9.46619 7.46406 10.1699 7.46406 10.9052C7.46406 11.6405 7.26272 12.3442 6.88618 12.953ZM20.664 26.7307L18.6166 24.6834C19.8666 23.912 21.4612 23.912 22.7113 24.6834L20.664 26.7307ZM24.0057 23.3891C22.0204 21.9489 19.3076 21.9489 17.3223 23.3891L8.18056 14.2473C8.88215 13.2824 9.26093 12.1233 9.26093 10.9052C9.26093 9.68703 8.88224 8.52804 8.18056 7.56312L10.2305 5.51325C11.1954 6.21484 12.3544 6.59362 13.5726 6.59362C14.7908 6.59362 15.9498 6.21484 16.9147 5.51325L18.858 7.45648C18.4386 7.51838 18.0298 7.65656 17.6485 7.86904C17.0045 8.22788 16.4992 8.76523 16.1846 9.41534C15.1711 9.60302 14.2329 10.0937 13.4969 10.8296C11.5001 12.8264 11.5001 16.0755 13.497 18.0723C14.4953 19.0707 15.8068 19.5699 17.1183 19.5699C18.4298 19.5699 19.7413 19.0708 20.7397 18.0723C21.3893 17.4228 21.8444 16.6244 22.0723 15.7544L25.1058 16.7839C24.7643 18.3658 25.114 20.0301 26.0575 21.3373L24.0057 23.3891ZM18.5434 14.5563C18.5513 14.5592 18.5592 14.562 18.5672 14.5647L20.3637 15.1745C20.2281 15.7868 19.9211 16.3498 19.4692 16.8018C18.1729 18.0978 16.0637 18.098 14.7676 16.8018C13.4714 15.5056 13.4714 13.3965 14.7676 12.1002C15.0803 11.7874 15.4493 11.5429 15.8513 11.3772C16.0172 12.7573 17.0109 13.9876 18.5434 14.5563ZM27.352 20.0427C27.0053 19.4776 26.809 18.8326 26.778 18.1743C27.2084 18.4854 27.7343 18.7903 28.3625 19.0322L27.352 20.0427ZM35.4561 14.9125C34.6046 16.3085 32.9531 17.7373 31.1726 17.7373C30.8394 17.7373 30.5272 17.7136 30.2353 17.6714C30.2341 17.6712 30.233 17.671 30.2318 17.6708C28.2915 17.389 27.2478 16.2862 26.9038 15.8496C26.8855 15.8226 26.8074 15.7205 26.7958 15.7035C26.6912 15.5164 26.5196 15.3661 26.3007 15.2917L19.1574 12.8673C18.0175 12.4395 17.4149 11.4633 17.6911 10.4898C17.6912 10.4892 17.6914 10.4885 17.6916 10.4879C17.6919 10.4872 17.692 10.4864 17.6922 10.4857C17.8206 10.0373 18.1155 9.66547 18.523 9.43843C18.9278 9.21283 19.3958 9.15686 19.8422 9.28058L27.8916 11.8313C28.3647 11.9815 28.8696 11.7193 29.0195 11.2463C29.1693 10.7732 28.9074 10.2683 28.4344 10.1184L22.0326 8.0897L21.9767 8.03381C21.9762 8.03327 21.9756 8.03265 21.975 8.03211L18.6607 4.71777L21.5094 3.69769C21.519 3.69418 21.5309 3.68978 21.5404 3.68592C21.5428 3.68493 21.5475 3.68313 21.5498 3.68214C21.5621 3.6772 21.5741 3.67199 21.5861 3.66651C23.5119 2.78137 25.3426 3.31118 26.0602 3.59023C28.7719 4.8104 30.2193 5.64496 31.2768 6.25473C32.747 7.10258 33.4554 7.5111 35.4561 7.67633V14.9125ZM38.8598 14.3721H37.2531V6.5159H38.8598V14.3721ZM44.2016 14.3721H40.6567V4.84176H44.2016V14.3721Z" fill="white"/>
</svg>
