<svg width="46" height="46" viewBox="0 0 46 46" fill="none" xmlns="http://www.w3.org/2000/svg">
<path d="M43.9786 19.6302H43.3051V17.6083V10.4208C43.3051 8.06765 41.3907 6.15317 39.0376 6.15317H20.5317L8.04675 2.58602C8.04316 2.58503 8.03947 2.58449 8.03588 2.58351C8.0322 2.58252 8.02869 2.58108 8.02501 2.58018C8.01746 2.5783 8.01 2.5774 8.00255 2.57578C7.99096 2.57335 7.97937 2.57084 7.96778 2.56895C7.95727 2.56724 7.94693 2.56617 7.93642 2.56491C7.9242 2.56347 7.91207 2.56221 7.89995 2.56149C7.89006 2.56096 7.88027 2.56087 7.87039 2.56069C7.85781 2.56051 7.84532 2.56042 7.83283 2.56096C7.82358 2.56131 7.81432 2.56221 7.80516 2.56293C7.79231 2.56401 7.77947 2.56518 7.7668 2.56706C7.75817 2.56832 7.74964 2.56994 7.7411 2.57147C7.72799 2.5738 7.71505 2.57632 7.7022 2.57946C7.6942 2.58144 7.68639 2.58369 7.67848 2.58593C7.66536 2.58971 7.65243 2.59357 7.63949 2.59806C7.63221 2.60067 7.62502 2.60345 7.61775 2.60633C7.60472 2.61136 7.59178 2.61666 7.57911 2.6225C7.57238 2.62564 7.56582 2.62906 7.55917 2.63238C7.5465 2.63876 7.53401 2.64523 7.52179 2.65251C7.51542 2.65619 7.50931 2.66014 7.50302 2.6641C7.49098 2.67164 7.47912 2.67937 7.46762 2.68772C7.4616 2.69204 7.45576 2.69671 7.44983 2.70129C7.43878 2.70983 7.42782 2.71854 7.41731 2.7278C7.41138 2.73301 7.40572 2.73849 7.39997 2.74388C7.39008 2.75322 7.38029 2.76256 7.37095 2.77245C7.36511 2.77865 7.35963 2.78512 7.35397 2.79158C7.34543 2.80138 7.33699 2.81126 7.32899 2.82159C7.32324 2.82905 7.31785 2.83669 7.31237 2.84432C7.30527 2.85429 7.29826 2.86436 7.29179 2.87469C7.28622 2.88349 7.2811 2.89266 7.27598 2.90173C7.27032 2.9117 7.26466 2.92177 7.25954 2.9321C7.25451 2.94216 7.25002 2.95249 7.24544 2.96283C7.24094 2.97298 7.23654 2.98313 7.23259 2.99355C7.22846 3.00451 7.22486 3.01574 7.22118 3.02706C7.21884 3.03434 7.21597 3.04117 7.21381 3.04854C7.21273 3.05222 7.21228 3.05581 7.21129 3.05941C7.21031 3.06309 7.20887 3.0666 7.20797 3.07028L6.43747 6.15299H4.26802C1.9196 6.15299 0.0084453 8.05974 0.000718749 10.4065C0.000628905 10.4113 0 10.4159 0 10.4207V33.78C0 34.1519 0.302773 34.4538 0.673827 34.4538C1.04578 34.4538 1.34765 34.1519 1.34765 33.78V13.5286C2.11168 14.247 3.13896 14.6885 4.26802 14.6885H39.0376C39.0384 14.6885 39.0391 14.6884 39.0399 14.6884C40.6488 14.6897 41.9575 15.999 41.9575 17.6084V22.3256H34.5443C34.5439 22.3256 34.5435 22.3256 34.5431 22.3256C34.5236 22.3256 34.5042 22.3268 34.4848 22.3285C34.4634 22.3304 34.4422 22.3335 34.4213 22.3373C34.4182 22.3379 34.4151 22.3381 34.412 22.3388C34.3944 22.3423 34.3771 22.3469 34.36 22.3518C34.3562 22.3529 34.3523 22.3536 34.3486 22.3548C34.3334 22.3594 34.3185 22.365 34.3037 22.3707C34.2981 22.3728 34.2923 22.3746 34.2866 22.3769C34.2742 22.3821 34.2623 22.3881 34.2503 22.3939C34.2424 22.3977 34.2344 22.4012 34.2267 22.4052C34.2174 22.4102 34.2086 22.4158 34.1996 22.4212C34.1896 22.4272 34.1795 22.4329 34.1698 22.4394C34.1632 22.4437 34.1572 22.4486 34.1509 22.4532C34.1394 22.4615 34.1278 22.4697 34.1168 22.4787C34.1121 22.4827 34.1077 22.4871 34.1031 22.4911C34.0913 22.5014 34.0796 22.5115 34.0684 22.5227C34.0619 22.5292 34.0559 22.5364 34.0497 22.5432C34.041 22.5527 34.032 22.5619 34.0238 22.572C34.0098 22.589 33.9968 22.6066 33.9846 22.6248C33.9843 22.6251 33.9841 22.6255 33.9839 22.6258L30.3903 28.0165C30.3652 28.0541 30.344 28.0939 30.3272 28.1353C30.3209 28.1507 30.3157 28.1665 30.3106 28.1821C30.3091 28.1869 30.3071 28.1914 30.3057 28.1962C30.3006 28.2128 30.2968 28.2296 30.2931 28.2463C30.2921 28.2507 30.2909 28.2551 30.29 28.2595C30.287 28.2745 30.285 28.2897 30.2831 28.3049C30.2823 28.3114 30.2811 28.3179 30.2804 28.3244C30.2792 28.3369 30.2789 28.3493 30.2785 28.3618C30.278 28.3713 30.2772 28.3808 30.2772 28.3904C30.2772 28.3997 30.278 28.409 30.2784 28.4182C30.2788 28.431 30.2792 28.4438 30.2804 28.4566C30.2811 28.4628 30.2822 28.469 30.283 28.4752C30.285 28.4906 30.287 28.5061 30.29 28.5214C30.2909 28.5257 30.2921 28.5298 30.2931 28.534C30.2968 28.5509 30.3007 28.5678 30.3058 28.5846C30.3072 28.5894 30.3092 28.5939 30.3107 28.5988C30.3158 28.6144 30.321 28.6301 30.3273 28.6456C30.3442 28.6869 30.3654 28.7268 30.3906 28.7645L33.9841 34.1544C33.9842 34.1546 33.9844 34.1548 33.9846 34.1551C33.9991 34.1766 34.0149 34.197 34.0316 34.2167C34.0371 34.2232 34.0429 34.2292 34.0486 34.2353C34.06 34.2478 34.0718 34.2598 34.0841 34.2714C34.0914 34.2783 34.0986 34.2849 34.106 34.2913C34.1191 34.3025 34.1327 34.313 34.1466 34.3233C34.1529 34.3278 34.1589 34.3329 34.1653 34.3372C34.1855 34.3509 34.2064 34.3636 34.2281 34.3751C34.2335 34.378 34.2392 34.3804 34.2447 34.3831C34.2619 34.3917 34.2795 34.3997 34.2976 34.4068C34.3046 34.4096 34.3116 34.4121 34.3187 34.4146C34.3359 34.4207 34.3533 34.4261 34.3711 34.4309C34.3784 34.4328 34.3856 34.4348 34.3929 34.4366C34.4112 34.4408 34.4297 34.444 34.4485 34.4467C34.4553 34.4477 34.462 34.449 34.4688 34.4499C34.492 34.4525 34.5156 34.4539 34.5395 34.4541C34.5414 34.4541 34.5432 34.4544 34.5452 34.4544C34.5456 34.4544 34.546 34.4543 34.5465 34.4543H41.9578V39.1719C41.9578 40.782 40.6478 42.092 39.0378 42.092H4.26838C2.65838 42.092 1.34846 40.782 1.34846 39.1719C1.34846 39.1684 1.34801 39.1649 1.34792 39.1614V36.4756C1.34792 36.1046 1.04605 35.8018 0.674096 35.8018C0.303042 35.8018 0.000269531 36.1046 0.000269531 36.4756V39.1719C0.000269531 39.1789 0.00107812 39.1857 0.00134765 39.1926C0.0125781 41.5363 1.9222 43.4396 4.26838 43.4396H39.0378C41.3908 43.4396 43.3051 41.5255 43.3054 39.1726C43.3054 39.1725 43.3054 39.1724 43.3054 39.1722V34.4543H43.9789C45.0933 34.4543 46 33.5476 46 32.4332V21.6513C45.9997 20.5369 45.093 19.6302 43.9786 19.6302ZM8.34647 4.0732L20.2363 7.47046C20.2368 7.47064 20.2374 7.47073 20.238 7.47091L28.2068 9.74772H6.9282L8.34647 4.0732ZM41.9574 14.5003C41.1935 13.7821 40.1664 13.3407 39.0376 13.3407C39.0364 13.3407 39.0353 13.3408 39.0341 13.3408H4.26802C2.65793 13.3408 1.34801 12.0309 1.34801 10.4208C1.34801 8.81074 2.65793 7.50082 4.26802 7.50082H6.10065L5.53913 9.74772H4.2682C3.89607 9.74772 3.59437 10.0494 3.59437 10.4216C3.59437 10.7937 3.89607 11.0954 4.2682 11.0954H6.06291C6.06381 11.0954 6.0648 11.0956 6.06579 11.0956C6.06651 11.0956 6.06723 11.0954 6.06786 11.0954H33.0156C33.0165 11.0954 33.0173 11.0956 33.0181 11.0956C33.0189 11.0956 33.0196 11.0954 33.0203 11.0954H38.1383C38.5105 11.0954 38.8122 10.7937 38.8122 10.4216C38.8122 10.0494 38.5105 9.74772 38.1383 9.74772H33.1122L25.2483 7.50082H39.0375C40.6475 7.50082 41.9574 8.81074 41.9574 10.4208V14.5003ZM44.6521 32.4329C44.6521 32.8042 44.3499 33.1063 43.9786 33.1063H34.9049L31.7605 28.3901L34.9049 23.6731H43.9786C43.988 23.6731 43.9972 23.672 44.0065 23.6717C44.2326 23.6685 44.4497 23.6283 44.6521 23.5566V32.4329ZM43.9786 22.3247C43.9739 22.3247 43.9694 22.3254 43.9647 22.3255H43.3051V20.9778H43.9786C44.3499 20.9778 44.6521 21.28 44.6521 21.6513C44.6521 22.0226 44.3499 22.3247 43.9786 22.3247Z" fill="white"/>
<path d="M37.2402 25.9192C35.8778 25.9192 34.7695 27.0276 34.7695 28.39C34.7695 29.7524 35.8778 30.8607 37.2402 30.8607C38.6026 30.8607 39.7109 29.7524 39.7109 28.39C39.7109 27.0276 38.6026 25.9192 37.2402 25.9192ZM37.2402 29.513C36.6209 29.513 36.1172 29.0093 36.1172 28.39C36.1172 27.7707 36.6209 27.2668 37.2402 27.2668C37.8595 27.2668 38.3633 27.7707 38.3633 28.39C38.3633 29.0093 37.8595 29.513 37.2402 29.513Z" fill="white"/>
</svg>
