<svg width="20" height="20" viewBox="0 0 20 20" fill="none" xmlns="http://www.w3.org/2000/svg">
<g clip-path="url(#clip0)">
<path d="M19.5833 18.3333C19.4342 18.3333 19.2933 18.2533 19.2183 18.1183C17.3008 14.6525 13.6492 12.5 9.68917 12.5H8.33333V16.25C8.33333 16.4166 8.23417 16.5666 8.08167 16.6325C7.92667 16.7 7.75083 16.6675 7.63 16.5525L0.13 9.46915C0.0475 9.39081 0 9.28165 0 9.16665C0 9.05165 0.0475 8.94248 0.13 8.86415L7.63 1.78081C7.75167 1.66665 7.92833 1.63415 8.08167 1.70081C8.23417 1.76665 8.33333 1.91665 8.33333 2.08331V5.83331C14.7717 5.86581 20 11.1125 20 17.5583V17.9166C20 18.1066 19.8717 18.2725 19.6875 18.32C19.6525 18.3291 19.6175 18.3333 19.5833 18.3333ZM7.91667 11.6666H9.68917C13.4292 11.6666 16.9142 13.45 19.1067 16.4066C18.5292 10.94 13.8917 6.66665 8.275 6.66665H7.91667C7.68667 6.66665 7.5 6.47998 7.5 6.24998V3.04998L1.02417 9.16665L7.5 15.2833V12.0833C7.5 11.8533 7.68667 11.6666 7.91667 11.6666Z" fill="#999999"/>
</g>
<defs>
<clipPath id="clip0">
<rect width="20" height="20" fill="white"/>
</clipPath>
</defs>
</svg>
