<svg width="52" height="46" viewBox="0 0 52 46" fill="none" xmlns="http://www.w3.org/2000/svg">
<path fill-rule="evenodd" clip-rule="evenodd" d="M23.8877 0.0807018C23.8877 0.125572 23.6725 0.161404 23.4035 0.161404C23.1345 0.161404 22.9193 0.197235 22.9193 0.242105C22.9193 0.286491 22.774 0.322807 22.5965 0.322807C22.4189 0.322807 22.2737 0.359123 22.2737 0.403509C22.2737 0.447895 22.1647 0.484211 22.0316 0.484211C21.8984 0.484211 21.7895 0.520526 21.7895 0.564912C21.7895 0.609298 21.6805 0.645614 21.5474 0.645614C21.4142 0.645614 21.3053 0.68193 21.3053 0.726316C21.3053 0.770702 21.1963 0.807018 21.0632 0.807018C20.93 0.807018 20.8211 0.843333 20.8211 0.887719C20.8211 0.932105 20.7484 0.968421 20.6596 0.968421C20.5709 0.968421 20.4982 1.00474 20.4982 1.04912C20.4982 1.09351 20.4256 1.12982 20.3368 1.12982C20.2481 1.12982 20.1754 1.16614 20.1754 1.21053C20.1754 1.25491 20.1028 1.29123 20.014 1.29123C19.9253 1.29123 19.8526 1.32754 19.8526 1.37193C19.8526 1.41632 19.78 1.45263 19.6912 1.45263C19.6025 1.45263 19.5298 1.48895 19.5298 1.53333C19.5298 1.57772 19.4572 1.61404 19.3684 1.61404C19.2796 1.61404 19.207 1.65035 19.207 1.69474C19.207 1.73912 19.1424 1.77544 19.0634 1.77544C18.9844 1.77544 18.8675 1.84807 18.8035 1.93684C18.7395 2.02561 18.6306 2.09825 18.5614 2.09825C18.4922 2.09825 18.3833 2.17088 18.3193 2.25965C18.2553 2.34842 18.1537 2.42105 18.0934 2.42105C18.0331 2.42105 17.8443 2.56632 17.6737 2.74386C17.5031 2.9214 17.3238 3.06667 17.2753 3.06667C17.1603 3.06667 15.8175 4.40938 15.8175 4.52446C15.8175 4.57296 15.6723 4.7522 15.4947 4.92281C15.3172 5.09341 15.1719 5.28225 15.1719 5.34254C15.1719 5.40282 15.0993 5.50442 15.0105 5.56842C14.9218 5.63242 14.8491 5.74136 14.8491 5.81053C14.8491 5.87969 14.7765 5.98864 14.6877 6.05263C14.5989 6.11663 14.5263 6.23357 14.5263 6.31257C14.5263 6.3915 14.49 6.45614 14.4456 6.45614C14.4012 6.45614 14.3649 6.52877 14.3649 6.61754C14.3649 6.70632 14.3286 6.77895 14.2842 6.77895C14.2398 6.77895 14.2035 6.84359 14.2035 6.92252C14.2035 7.00152 14.1309 7.11846 14.0421 7.18246C13.9533 7.24645 13.8807 7.36339 13.8807 7.4424C13.8807 7.52132 13.8444 7.58596 13.8 7.58596C13.7556 7.58596 13.7193 7.69491 13.7193 7.82807C13.7193 7.96123 13.683 8.07018 13.6386 8.07018C13.5942 8.07018 13.5579 8.14281 13.5579 8.23158C13.5579 8.32035 13.5216 8.39298 13.4772 8.39298C13.4328 8.39298 13.3965 8.50193 13.3965 8.63509C13.3965 8.76825 13.3602 8.87719 13.3158 8.87719C13.2714 8.87719 13.2351 9.02246 13.2351 9.2C13.2351 9.37754 13.1988 9.52281 13.1544 9.52281C13.11 9.52281 13.0737 9.63175 13.0737 9.76491C13.0737 9.89807 13.0374 10.007 12.993 10.007C12.9486 10.007 12.9123 10.1886 12.9123 10.4105C12.9123 10.6325 12.876 10.814 12.8316 10.814C12.7845 10.814 12.7509 11.083 12.7509 11.4596C12.7509 11.8363 12.7172 12.1053 12.6702 12.1053C12.6209 12.1053 12.5895 12.4819 12.5895 13.0737C12.5895 13.6655 12.6209 14.0421 12.6702 14.0421C12.7172 14.0421 12.7509 14.3111 12.7509 14.6877C12.7509 15.0644 12.7845 15.3333 12.8316 15.3333C12.876 15.3333 12.9123 15.5149 12.9123 15.7368C12.9123 15.9588 12.9486 16.1404 12.993 16.1404C13.0374 16.1404 13.0737 16.2856 13.0737 16.4632C13.0737 16.6407 13.11 16.786 13.1544 16.786C13.1988 16.786 13.2351 16.8949 13.2351 17.0281C13.2351 17.1612 13.2714 17.2702 13.3158 17.2702C13.3602 17.2702 13.3965 17.3791 13.3965 17.5123C13.3965 17.6454 13.4328 17.7544 13.4772 17.7544C13.5216 17.7544 13.5579 17.827 13.5579 17.9158C13.5579 18.0046 13.5942 18.0772 13.6386 18.0772C13.683 18.0772 13.7193 18.1861 13.7193 18.3193C13.7193 18.4525 13.7556 18.5614 13.8 18.5614C13.8444 18.5614 13.8807 18.634 13.8807 18.7228C13.8807 18.8116 13.917 18.8842 13.9614 18.8842C14.0058 18.8842 14.0421 18.9568 14.0421 19.0456C14.0421 19.1344 14.0784 19.207 14.1228 19.207C14.1672 19.207 14.2035 19.2717 14.2035 19.3506C14.2035 19.4296 14.2761 19.5465 14.3649 19.6105C14.4537 19.6745 14.5263 19.7835 14.5263 19.8526C14.5263 19.9218 14.5989 20.0307 14.6877 20.0947C14.7765 20.1587 14.8491 20.2677 14.8491 20.3368C14.8491 20.406 14.9218 20.515 15.0105 20.5789C15.0993 20.6429 15.1719 20.7454 15.1719 20.8065C15.1719 20.8676 15.2809 21.0195 15.414 21.1439C15.5472 21.2682 15.6561 21.4104 15.6561 21.4597C15.6561 21.5758 17.1595 23.0807 17.2755 23.0807C17.3239 23.0807 17.5031 23.226 17.6737 23.4035C17.8443 23.5811 18.0331 23.7263 18.0934 23.7263C18.1537 23.7263 18.2553 23.7989 18.3193 23.8877C18.3833 23.9765 18.4922 24.0491 18.5614 24.0491C18.6306 24.0491 18.7395 24.1218 18.8035 24.2105C18.8675 24.2993 18.9765 24.3719 19.0456 24.3719C19.1148 24.3719 19.2237 24.4446 19.2877 24.5333C19.3517 24.6221 19.4687 24.6947 19.5477 24.6947C19.6266 24.6947 19.6912 24.7311 19.6912 24.7754C19.6912 24.8198 19.7639 24.8561 19.8526 24.8561C19.9414 24.8561 20.014 24.8925 20.014 24.9368C20.014 24.9812 20.0867 25.0175 20.1754 25.0175C20.2642 25.0175 20.3368 25.0539 20.3368 25.0982C20.3368 25.1426 20.4458 25.1789 20.5789 25.1789C20.7121 25.1789 20.8211 25.2153 20.8211 25.2596C20.8211 25.304 20.8937 25.3404 20.9825 25.3404C21.0712 25.3404 21.1439 25.3767 21.1439 25.4211C21.1439 25.4654 21.2528 25.5018 21.386 25.5018C21.5191 25.5018 21.6281 25.5381 21.6281 25.5825C21.6281 25.6268 21.737 25.6632 21.8702 25.6632C22.0033 25.6632 22.1123 25.6995 22.1123 25.7439C22.1123 25.7882 22.2575 25.8246 22.4351 25.8246C22.6126 25.8246 22.7579 25.8609 22.7579 25.9053C22.7579 25.9496 22.9032 25.986 23.0807 25.986C23.2582 25.986 23.4035 26.0223 23.4035 26.0667C23.4035 26.1127 23.6456 26.1474 23.9684 26.1474C24.2912 26.1474 24.5333 26.182 24.5333 26.2281C24.5333 26.2783 24.9907 26.3088 25.7439 26.3088C26.497 26.3088 26.9544 26.2783 26.9544 26.2281C26.9544 26.182 27.1965 26.1474 27.5193 26.1474C27.8421 26.1474 28.0842 26.1127 28.0842 26.0667C28.0842 26.0223 28.2658 25.986 28.4877 25.986C28.7096 25.986 28.8912 25.9496 28.8912 25.9053C28.8912 25.8609 29.0365 25.8246 29.214 25.8246C29.3916 25.8246 29.5368 25.7882 29.5368 25.7439C29.5368 25.6995 29.6458 25.6632 29.7789 25.6632C29.9121 25.6632 30.0211 25.6268 30.0211 25.5825C30.0211 25.5381 30.0937 25.5018 30.1825 25.5018C30.2712 25.5018 30.3439 25.4654 30.3439 25.4211C30.3439 25.3767 30.4528 25.3404 30.586 25.3404C30.7191 25.3404 30.8281 25.304 30.8281 25.2596C30.8281 25.2153 30.9007 25.1789 30.9895 25.1789C31.0782 25.1789 31.1509 25.1426 31.1509 25.0982C31.1509 25.0539 31.2235 25.0175 31.3123 25.0175C31.4011 25.0175 31.4737 24.9812 31.4737 24.9368C31.4737 24.8925 31.5463 24.8561 31.6351 24.8561C31.7239 24.8561 31.7965 24.8198 31.7965 24.7754C31.7965 24.7311 31.8691 24.6947 31.9579 24.6947C32.0467 24.6947 32.1193 24.6584 32.1193 24.614C32.1193 24.5696 32.1919 24.5333 32.2807 24.5333C32.3695 24.5333 32.4421 24.497 32.4421 24.4526C32.4421 24.4082 32.5067 24.3719 32.5857 24.3719C32.6647 24.3719 32.7816 24.2993 32.8456 24.2105C32.9096 24.1218 33.012 24.0491 33.0732 24.0491C33.1343 24.0491 33.2862 23.9402 33.4105 23.807C33.5349 23.6739 33.6794 23.5649 33.7317 23.5649C33.7839 23.5649 33.9662 23.4196 34.1368 23.2421C34.3074 23.0646 34.4878 22.9193 34.5377 22.9193C34.6541 22.9193 35.0246 22.5507 35.0246 22.4348C35.0246 22.3863 35.2788 22.0959 35.5895 21.7895C35.9002 21.483 36.1544 21.1907 36.1544 21.1397C36.1544 21.0889 36.2633 20.9454 36.3965 20.8211C36.5296 20.6967 36.6386 20.5368 36.6386 20.4659C36.6386 20.3949 36.6749 20.3368 36.7193 20.3368C36.7637 20.3368 36.8 20.2722 36.8 20.1933C36.8 20.1143 36.8726 19.9973 36.9614 19.9333C37.0502 19.8693 37.1228 19.7524 37.1228 19.6734C37.1228 19.5945 37.1591 19.5298 37.2035 19.5298C37.2479 19.5298 37.2842 19.4572 37.2842 19.3684C37.2842 19.2796 37.3205 19.207 37.3649 19.207C37.4093 19.207 37.4456 19.1344 37.4456 19.0456C37.4456 18.9568 37.4819 18.8842 37.5263 18.8842C37.5707 18.8842 37.607 18.8116 37.607 18.7228C37.607 18.634 37.6433 18.5614 37.6877 18.5614C37.7321 18.5614 37.7684 18.4888 37.7684 18.4C37.7684 18.3112 37.8047 18.2386 37.8491 18.2386C37.8935 18.2386 37.9298 18.1296 37.9298 17.9965C37.9298 17.8633 37.9661 17.7544 38.0105 17.7544C38.0549 17.7544 38.0912 17.6818 38.0912 17.593C38.0912 17.5042 38.1275 17.4316 38.1719 17.4316C38.2163 17.4316 38.2526 17.2863 38.2526 17.1088C38.2526 16.9312 38.2889 16.786 38.3333 16.786C38.3777 16.786 38.414 16.677 38.414 16.5439C38.414 16.4107 38.4504 16.3018 38.4947 16.3018C38.5391 16.3018 38.5754 16.1202 38.5754 15.8982C38.5754 15.6763 38.6118 15.4947 38.6561 15.4947C38.7022 15.4947 38.7368 15.2526 38.7368 14.9298C38.7368 14.607 38.7715 14.3649 38.8175 14.3649C38.868 14.3649 38.8982 13.8807 38.8982 13.0737C38.8982 12.2667 38.868 11.7825 38.8175 11.7825C38.7727 11.7825 38.7368 11.5672 38.7368 11.2982C38.7368 10.8679 38.7189 10.814 38.5754 10.814C38.4867 10.814 38.414 10.8504 38.414 10.8947C38.414 10.9391 38.356 10.9754 38.285 10.9754C38.2141 10.9754 38.0542 11.0844 37.9298 11.2175C37.8055 11.3507 37.6536 11.4596 37.5925 11.4596C37.5313 11.4596 37.4289 11.5323 37.3649 11.6211C37.3009 11.7098 37.1985 11.7825 37.1373 11.7825C37.0762 11.7825 36.9244 11.8914 36.8 12.0246C36.6756 12.1577 36.533 12.2667 36.483 12.2667C36.4331 12.2667 36.2298 12.4291 36.0312 12.6277L35.6702 12.9887V13.919C35.6702 14.4852 35.6386 14.8491 35.5895 14.8491C35.5451 14.8491 35.5088 14.9944 35.5088 15.1719C35.5088 15.3495 35.4725 15.4947 35.4281 15.4947C35.3837 15.4947 35.3474 15.64 35.3474 15.8175C35.3474 15.9951 35.3111 16.1404 35.2667 16.1404C35.2223 16.1404 35.186 16.2493 35.186 16.3825C35.186 16.5156 35.1496 16.6246 35.1053 16.6246C35.0609 16.6246 35.0246 16.6972 35.0246 16.786C35.0246 16.8747 34.9882 16.9474 34.9439 16.9474C34.8995 16.9474 34.8632 17.0563 34.8632 17.1895C34.8632 17.3226 34.8268 17.4316 34.7825 17.4316C34.7381 17.4316 34.7018 17.5042 34.7018 17.593C34.7018 17.6818 34.6654 17.7544 34.6211 17.7544C34.5767 17.7544 34.5404 17.819 34.5404 17.898C34.5404 17.977 34.4677 18.0939 34.3789 18.1579C34.2902 18.2219 34.2175 18.3308 34.2175 18.4C34.2175 18.4692 34.1449 18.5781 34.0561 18.6421C33.9674 18.7061 33.8947 18.8085 33.8947 18.8697C33.8947 18.9308 33.7858 19.0827 33.6526 19.207C33.5195 19.3314 33.4105 19.4736 33.4105 19.523C33.4105 19.6402 32.0683 20.9825 31.951 20.9825C31.9016 20.9825 31.7594 21.0914 31.6351 21.2246C31.5107 21.3577 31.3509 21.4667 31.2799 21.4667C31.2089 21.4667 31.1509 21.503 31.1509 21.5474C31.1509 21.5918 31.0862 21.6281 31.0073 21.6281C30.9283 21.6281 30.8114 21.7007 30.7474 21.7895C30.6834 21.8782 30.5664 21.9509 30.4874 21.9509C30.4085 21.9509 30.3439 21.9872 30.3439 22.0316C30.3439 22.076 30.2712 22.1123 30.1825 22.1123C30.0937 22.1123 30.0211 22.1486 30.0211 22.193C30.0211 22.2374 29.9484 22.2737 29.8596 22.2737C29.7709 22.2737 29.6982 22.31 29.6982 22.3544C29.6982 22.3988 29.5893 22.4351 29.4561 22.4351C29.323 22.4351 29.214 22.4714 29.214 22.5158C29.214 22.5602 29.1051 22.5965 28.9719 22.5965C28.8388 22.5965 28.7298 22.6328 28.7298 22.6772C28.7298 22.7216 28.6209 22.7579 28.4877 22.7579C28.3546 22.7579 28.2456 22.7942 28.2456 22.8386C28.2456 22.883 28.064 22.9193 27.8421 22.9193C27.6202 22.9193 27.4386 22.9556 27.4386 23C27.4386 23.0513 26.793 23.0807 25.6632 23.0807C24.5333 23.0807 23.8877 23.0513 23.8877 23C23.8877 22.9556 23.7425 22.9193 23.5649 22.9193C23.3874 22.9193 23.2421 22.883 23.2421 22.8386C23.2421 22.7942 23.0968 22.7579 22.9193 22.7579C22.7418 22.7579 22.5965 22.7216 22.5965 22.6772C22.5965 22.6328 22.4875 22.5965 22.3544 22.5965C22.2212 22.5965 22.1123 22.5602 22.1123 22.5158C22.1123 22.4714 22.0396 22.4351 21.9509 22.4351C21.8621 22.4351 21.7895 22.3988 21.7895 22.3544C21.7895 22.31 21.7168 22.2737 21.6281 22.2737C21.5393 22.2737 21.4667 22.2374 21.4667 22.193C21.4667 22.1486 21.394 22.1123 21.3053 22.1123C21.2165 22.1123 21.1439 22.076 21.1439 22.0316C21.1439 21.9872 21.0712 21.9509 20.9825 21.9509C20.8937 21.9509 20.8211 21.9146 20.8211 21.8702C20.8211 21.8258 20.7484 21.7895 20.6596 21.7895C20.5709 21.7895 20.4982 21.7532 20.4982 21.7088C20.4982 21.6644 20.4336 21.6281 20.3547 21.6281C20.2757 21.6281 20.1587 21.5554 20.0947 21.4667C20.0307 21.3779 19.9316 21.3053 19.8744 21.3053C19.7387 21.3053 17.593 19.1596 17.593 19.0238C17.593 18.9666 17.5204 18.8675 17.4316 18.8035C17.3428 18.7395 17.2702 18.6226 17.2702 18.5436C17.2702 18.4646 17.2339 18.4 17.1895 18.4C17.1451 18.4 17.1088 18.3274 17.1088 18.2386C17.1088 18.1498 17.0725 18.0772 17.0281 18.0772C16.9837 18.0772 16.9474 18.0046 16.9474 17.9158C16.9474 17.827 16.9111 17.7544 16.8667 17.7544C16.8223 17.7544 16.786 17.6818 16.786 17.593C16.786 17.5042 16.7496 17.4316 16.7053 17.4316C16.6609 17.4316 16.6246 17.3589 16.6246 17.2702C16.6246 17.1814 16.5882 17.1088 16.5439 17.1088C16.4995 17.1088 16.4632 17.0361 16.4632 16.9474C16.4632 16.8586 16.4268 16.786 16.3825 16.786C16.3381 16.786 16.3018 16.677 16.3018 16.5439C16.3018 16.4107 16.2654 16.3018 16.2211 16.3018C16.1767 16.3018 16.1404 16.1565 16.1404 15.9789C16.1404 15.8014 16.104 15.6561 16.0596 15.6561C16.0153 15.6561 15.9789 15.5109 15.9789 15.3333C15.9789 15.1558 15.9426 15.0105 15.8982 15.0105C15.8469 15.0105 15.8175 14.3649 15.8175 13.2351C15.8175 12.1053 15.8469 11.4596 15.8982 11.4596C15.9426 11.4596 15.9789 11.2781 15.9789 11.0561C15.9789 10.8342 16.0153 10.6526 16.0596 10.6526C16.104 10.6526 16.1404 10.5074 16.1404 10.3298C16.1404 10.1523 16.1767 10.007 16.2211 10.007C16.2654 10.007 16.3018 9.93439 16.3018 9.84561C16.3018 9.75684 16.3381 9.68421 16.3825 9.68421C16.4268 9.68421 16.4632 9.57526 16.4632 9.44211C16.4632 9.30895 16.4995 9.2 16.5439 9.2C16.5882 9.2 16.6246 9.12737 16.6246 9.0386C16.6246 8.94982 16.6609 8.87719 16.7053 8.87719C16.7496 8.87719 16.786 8.80456 16.786 8.71579C16.786 8.62702 16.8223 8.55439 16.8667 8.55439C16.9111 8.55439 16.9474 8.48175 16.9474 8.39298C16.9474 8.30421 16.9837 8.23158 17.0281 8.23158C17.0725 8.23158 17.1088 8.16694 17.1088 8.08801C17.1088 8.009 17.1814 7.89207 17.2702 7.82807C17.3589 7.76407 17.4316 7.65513 17.4316 7.58596C17.4316 7.5168 17.5042 7.40786 17.593 7.34386C17.6818 7.27986 17.7544 7.18068 17.7544 7.12346C17.7544 6.9966 19.5724 5.16491 19.6983 5.16491C19.7476 5.16491 19.8897 5.05596 20.014 4.92281C20.1384 4.78965 20.2983 4.6807 20.3692 4.6807C20.4402 4.6807 20.4982 4.64439 20.4982 4.6C20.4982 4.55561 20.5629 4.5193 20.6418 4.5193C20.7208 4.5193 20.8378 4.44667 20.9018 4.35789C20.9658 4.26912 21.0827 4.19649 21.1617 4.19649C21.2406 4.19649 21.3053 4.16018 21.3053 4.11579C21.3053 4.0714 21.3779 4.03509 21.4667 4.03509C21.5554 4.03509 21.6281 3.99877 21.6281 3.95439C21.6281 3.91 21.737 3.87368 21.8702 3.87368C22.0033 3.87368 22.1123 3.83737 22.1123 3.79298C22.1123 3.7486 22.2212 3.71228 22.3544 3.71228C22.4875 3.71228 22.5965 3.67596 22.5965 3.63158C22.5965 3.58719 22.7054 3.55088 22.8386 3.55088C22.9718 3.55088 23.0807 3.51456 23.0807 3.47018C23.0807 3.42579 23.226 3.38947 23.4035 3.38947C23.5811 3.38947 23.7263 3.35316 23.7263 3.30877C23.7263 3.2639 23.9415 3.22807 24.2105 3.22807C24.4795 3.22807 24.6947 3.19224 24.6947 3.14737C24.6947 3.09806 25.0714 3.06667 25.6632 3.06667C26.2549 3.06667 26.6316 3.09806 26.6316 3.14737C26.6316 3.19345 26.8737 3.22807 27.1965 3.22807C27.5193 3.22807 27.7614 3.26269 27.7614 3.30877C27.7614 3.35316 27.9067 3.38947 28.0842 3.38947C28.2618 3.38947 28.407 3.42579 28.407 3.47018C28.407 3.51456 28.516 3.55088 28.6491 3.55088C28.7823 3.55088 28.8912 3.58719 28.8912 3.63158C28.8912 3.67596 29.0002 3.71228 29.1333 3.71228C29.2665 3.71228 29.3754 3.7486 29.3754 3.79298C29.3754 3.83737 29.4481 3.87368 29.5368 3.87368C29.6256 3.87368 29.6982 3.91 29.6982 3.95439C29.6982 3.99877 29.8072 4.03509 29.9404 4.03509C30.0735 4.03509 30.1825 4.0714 30.1825 4.11579C30.1825 4.16018 30.2471 4.19649 30.326 4.19649C30.405 4.19649 30.522 4.26912 30.586 4.35789C30.65 4.44667 30.7669 4.5193 30.8459 4.5193C30.9248 4.5193 30.9895 4.55561 30.9895 4.6C30.9895 4.64439 31.0621 4.6807 31.1509 4.6807C31.2396 4.6807 31.3123 4.71702 31.3123 4.7614C31.3123 4.92378 31.5763 4.83581 31.7965 4.6C31.9209 4.46684 32.0661 4.35789 32.1193 4.35789C32.1725 4.35789 32.3177 4.24895 32.4421 4.11579C32.5665 3.98263 32.7117 3.87368 32.7649 3.87368C32.8181 3.87368 32.9634 3.76474 33.0877 3.63158C33.2121 3.49842 33.3554 3.38947 33.4063 3.38947C33.5238 3.38947 33.8947 3.0218 33.8947 2.90526C33.8947 2.78139 33.5204 2.42105 33.3916 2.42105C33.3329 2.42105 33.2324 2.34842 33.1684 2.25965C33.1044 2.17088 32.9955 2.09825 32.9263 2.09825C32.8572 2.09825 32.7482 2.02561 32.6842 1.93684C32.6202 1.84807 32.5033 1.77544 32.4243 1.77544C32.3453 1.77544 32.2807 1.73912 32.2807 1.69474C32.2807 1.65035 32.2081 1.61404 32.1193 1.61404C32.0305 1.61404 31.9579 1.57772 31.9579 1.53333C31.9579 1.48895 31.8853 1.45263 31.7965 1.45263C31.7077 1.45263 31.6351 1.41632 31.6351 1.37193C31.6351 1.32754 31.5625 1.29123 31.4737 1.29123C31.3849 1.29123 31.3123 1.25491 31.3123 1.21053C31.3123 1.16614 31.2396 1.12982 31.1509 1.12982C31.0621 1.12982 30.9895 1.09351 30.9895 1.04912C30.9895 1.00474 30.9168 0.968421 30.8281 0.968421C30.7393 0.968421 30.6667 0.932105 30.6667 0.887719C30.6667 0.843333 30.5577 0.807018 30.4246 0.807018C30.2914 0.807018 30.1825 0.770702 30.1825 0.726316C30.1825 0.68193 30.0735 0.645614 29.9404 0.645614C29.8072 0.645614 29.6982 0.609298 29.6982 0.564912C29.6982 0.520526 29.5893 0.484211 29.4561 0.484211C29.323 0.484211 29.214 0.447895 29.214 0.403509C29.214 0.359123 29.0688 0.322807 28.8912 0.322807C28.7137 0.322807 28.5684 0.286491 28.5684 0.242105C28.5684 0.197235 28.3532 0.161404 28.0842 0.161404C27.8152 0.161404 27.6 0.125572 27.6 0.0807018C27.6 0.029214 26.9275 0 25.7439 0C24.5602 0 23.8877 0.029214 23.8877 0.0807018ZM35.9123 5.16491C35.8483 5.25368 35.7459 5.32632 35.6847 5.32632C35.6236 5.32632 35.4717 5.43526 35.3474 5.56842C35.223 5.70158 35.0777 5.81053 35.0246 5.81053C34.9714 5.81053 34.8261 5.91947 34.7018 6.05263C34.5774 6.18579 34.4321 6.29474 34.3789 6.29474C34.3258 6.29474 34.1805 6.40368 34.0561 6.53684C33.9318 6.67 33.7865 6.77895 33.7333 6.77895C33.6802 6.77895 33.5349 6.88789 33.4105 7.02105C33.2862 7.15421 33.1409 7.26316 33.0877 7.26316C33.0345 7.26316 32.8893 7.37211 32.7649 7.50526C32.6406 7.63842 32.4887 7.74737 32.4276 7.74737C32.3664 7.74737 32.264 7.82 32.2 7.90877C32.136 7.99754 32.0336 8.07018 31.9724 8.07018C31.9113 8.07018 31.7594 8.17912 31.6351 8.31228C31.5107 8.44544 31.3655 8.55439 31.3123 8.55439C31.2591 8.55439 31.1138 8.66333 30.9895 8.79649C30.8651 8.92965 30.7198 9.0386 30.6667 9.0386C30.6135 9.0386 30.4682 9.14754 30.3439 9.2807C30.2195 9.41386 30.0742 9.52281 30.0211 9.52281C29.9679 9.52281 29.8226 9.63175 29.6982 9.76491C29.5739 9.89807 29.4286 10.007 29.3754 10.007C29.3223 10.007 29.177 10.116 29.0526 10.2491C28.9283 10.3823 28.7764 10.4912 28.7153 10.4912C28.6541 10.4912 28.5517 10.5639 28.4877 10.6526C28.4237 10.7414 28.3213 10.814 28.2601 10.814C28.199 10.814 28.0472 10.923 27.9228 11.0561C27.7984 11.1893 27.6532 11.2982 27.6 11.2982C27.5468 11.2982 27.4016 11.4072 27.2772 11.5404C27.1528 11.6735 27.0076 11.7825 26.9544 11.7825C26.9012 11.7825 26.7559 11.8914 26.6316 12.0246C26.5072 12.1577 26.3553 12.2667 26.2942 12.2667C26.2331 12.2667 26.1307 12.3393 26.0667 12.4281C25.9468 12.5944 25.5018 12.6579 25.5018 12.5088C25.5018 12.4644 25.4371 12.4281 25.3582 12.4281C25.2792 12.4281 25.1622 12.3554 25.0982 12.2667C25.0342 12.1779 24.9173 12.1053 24.8383 12.1053C24.7594 12.1053 24.6947 12.0689 24.6947 12.0246C24.6947 11.9802 24.6301 11.9439 24.5512 11.9439C24.4722 11.9439 24.3552 11.8712 24.2912 11.7825C24.2272 11.6937 24.1183 11.6211 24.0491 11.6211C23.98 11.6211 23.871 11.5484 23.807 11.4596C23.743 11.3709 23.6261 11.2982 23.5471 11.2982C23.4681 11.2982 23.4035 11.2619 23.4035 11.2175C23.4035 11.1732 23.3389 11.1368 23.2599 11.1368C23.1809 11.1368 23.064 11.0642 23 10.9754C22.936 10.8867 22.8271 10.814 22.7579 10.814C22.6887 10.814 22.5798 10.7414 22.5158 10.6526C22.4518 10.5639 22.3428 10.4912 22.2737 10.4912C22.2045 10.4912 22.0956 10.4186 22.0316 10.3298C21.9676 10.2411 21.8506 10.1684 21.7716 10.1684C21.6927 10.1684 21.6281 10.1321 21.6281 10.0877C21.6281 10.0433 21.5634 10.007 21.4845 10.007C21.4055 10.007 21.2886 9.93439 21.2246 9.84561C21.1562 9.75087 21.0156 9.68421 20.8839 9.68421H20.6596V11.5036V13.3231L20.8578 13.5212C20.9667 13.6301 21.112 13.7193 21.1806 13.7193C21.2492 13.7193 21.3053 13.7556 21.3053 13.8C21.3053 13.8444 21.3699 13.8807 21.4488 13.8807C21.5278 13.8807 21.6448 13.9533 21.7088 14.0421C21.7728 14.1309 21.8817 14.2035 21.9509 14.2035C22.02 14.2035 22.129 14.2761 22.193 14.3649C22.257 14.4537 22.3739 14.5263 22.4529 14.5263C22.5318 14.5263 22.5965 14.5626 22.5965 14.607C22.5965 14.6514 22.6611 14.6877 22.7401 14.6877C22.8191 14.6877 22.936 14.7604 23 14.8491C23.064 14.9379 23.1729 15.0105 23.2421 15.0105C23.3113 15.0105 23.4202 15.0832 23.4842 15.1719C23.5482 15.2607 23.6651 15.3333 23.7442 15.3333C23.8231 15.3333 23.8877 15.3696 23.8877 15.414C23.8877 15.4584 23.9524 15.4947 24.0313 15.4947C24.1103 15.4947 24.2272 15.5674 24.2912 15.6561C24.3552 15.7449 24.4642 15.8175 24.5333 15.8175C24.6025 15.8175 24.7114 15.8902 24.7754 15.9789C24.8394 16.0677 24.9484 16.1404 25.0175 16.1404C25.0867 16.1404 25.1957 16.213 25.2596 16.3018C25.3236 16.3905 25.4376 16.4632 25.5128 16.4632C25.5881 16.4632 25.666 16.5086 25.6859 16.564C25.7104 16.6325 25.7741 16.6065 25.8837 16.4833C25.9726 16.3835 26.09 16.3018 26.1446 16.3018C26.1993 16.3018 26.3458 16.1928 26.4702 16.0596C26.5945 15.9265 26.7398 15.8175 26.793 15.8175C26.8462 15.8175 26.9914 15.7086 27.1158 15.5754C27.2402 15.4423 27.3854 15.3333 27.4386 15.3333C27.4918 15.3333 27.637 15.2244 27.7614 15.0912C27.8858 14.9581 28.0376 14.8491 28.0987 14.8491C28.1599 14.8491 28.2623 14.7765 28.3263 14.6877C28.3903 14.5989 28.4927 14.5263 28.5539 14.5263C28.615 14.5263 28.7669 14.4174 28.8912 14.2842C29.0156 14.1511 29.1609 14.0421 29.214 14.0421C29.2672 14.0421 29.4125 13.9332 29.5368 13.8C29.6612 13.6668 29.8065 13.5579 29.8596 13.5579C29.9128 13.5579 30.0581 13.4489 30.1825 13.3158C30.3068 13.1826 30.4521 13.0737 30.5053 13.0737C30.5584 13.0737 30.7037 12.9647 30.8281 12.8316C30.9524 12.6984 31.0977 12.5895 31.1509 12.5895C31.2041 12.5895 31.3493 12.4805 31.4737 12.3474C31.598 12.2142 31.7433 12.1053 31.7965 12.1053C31.8497 12.1053 31.9949 11.9963 32.1193 11.8632C32.2437 11.73 32.3955 11.6211 32.4566 11.6211C32.5178 11.6211 32.6202 11.5484 32.6842 11.4596C32.7482 11.3709 32.8506 11.2982 32.9118 11.2982C32.9729 11.2982 33.1248 11.1893 33.2491 11.0561C33.3735 10.923 33.5187 10.814 33.5719 10.814C33.6251 10.814 33.7704 10.7051 33.8947 10.5719C34.0191 10.4388 34.1644 10.3298 34.2175 10.3298C34.2707 10.3298 34.416 10.2209 34.5404 10.0877C34.6647 9.95456 34.81 9.84561 34.8632 9.84561C34.9163 9.84561 35.0616 9.73667 35.186 9.60351C35.3103 9.47035 35.4556 9.3614 35.5088 9.3614C35.562 9.3614 35.7072 9.25246 35.8316 9.1193C35.9559 8.98614 36.1078 8.87719 36.1689 8.87719C36.2301 8.87719 36.3325 8.80456 36.3965 8.71579C36.4605 8.62702 36.5629 8.55439 36.6241 8.55439C36.6852 8.55439 36.837 8.44544 36.9614 8.31228C37.0858 8.17912 37.2291 8.07018 37.2799 8.07018C37.4282 8.07018 37.8192 7.64326 37.7056 7.60541C37.6514 7.58734 37.607 7.50292 37.607 7.41786C37.607 7.3328 37.5707 7.26316 37.5263 7.26316C37.4819 7.26316 37.4456 7.19053 37.4456 7.10175C37.4456 7.01298 37.4093 6.94035 37.3649 6.94035C37.3205 6.94035 37.2842 6.87571 37.2842 6.79678C37.2842 6.71778 37.2116 6.60084 37.1228 6.53684C37.034 6.47285 36.9614 6.3639 36.9614 6.29474C36.9614 6.22558 36.8888 6.11663 36.8 6.05263C36.7112 5.98864 36.6386 5.87969 36.6386 5.81053C36.6386 5.74136 36.566 5.63242 36.4772 5.56842C36.3884 5.50442 36.3158 5.40306 36.3158 5.3431C36.3158 5.24626 36.1307 5.00351 36.0569 5.00351C36.0413 5.00351 35.9763 5.07614 35.9123 5.16491ZM5.97193 32.6842C5.97193 32.7291 5.7567 32.7649 5.48772 32.7649C5.21874 32.7649 5.00351 32.8007 5.00351 32.8456C5.00351 32.89 4.89456 32.9263 4.7614 32.9263C4.62825 32.9263 4.5193 32.9626 4.5193 33.007C4.5193 33.0514 4.41035 33.0877 4.27719 33.0877C4.14404 33.0877 4.03509 33.124 4.03509 33.1684C4.03509 33.2128 3.96246 33.2491 3.87368 33.2491C3.78491 33.2491 3.71228 33.2854 3.71228 33.3298C3.71228 33.3742 3.63965 33.4105 3.55088 33.4105C3.46211 33.4105 3.38947 33.4468 3.38947 33.4912C3.38947 33.5356 3.31684 33.5719 3.22807 33.5719C3.1393 33.5719 3.06667 33.6082 3.06667 33.6526C3.06667 33.697 3.00864 33.7333 2.93762 33.7333C2.86669 33.7333 2.70682 33.8423 2.58246 33.9754C2.45809 34.1086 2.31541 34.2175 2.26546 34.2175C2.14731 34.2175 1.45263 34.9122 1.45263 35.0304C1.45263 35.0803 1.34368 35.223 1.21053 35.3474C1.07737 35.4717 0.968421 35.6316 0.968421 35.7025C0.968421 35.7736 0.932105 35.8316 0.887719 35.8316C0.843333 35.8316 0.807018 35.9042 0.807018 35.993C0.807018 36.0818 0.770702 36.1544 0.726316 36.1544C0.68193 36.1544 0.645614 36.227 0.645614 36.3158C0.645614 36.4046 0.609298 36.4772 0.564912 36.4772C0.520526 36.4772 0.484211 36.5498 0.484211 36.6386C0.484211 36.7274 0.447895 36.8 0.403509 36.8C0.359123 36.8 0.322807 36.9089 0.322807 37.0421C0.322807 37.1753 0.286491 37.2842 0.242105 37.2842C0.197719 37.2842 0.161404 37.4295 0.161404 37.607C0.161404 37.7846 0.125088 37.9298 0.0807018 37.9298C0.0301018 37.9298 0 38.4409 0 39.3018C0 40.1626 0.0301018 40.6737 0.0807018 40.6737C0.125088 40.6737 0.161404 40.8189 0.161404 40.9965C0.161404 41.174 0.197719 41.3193 0.242105 41.3193C0.286491 41.3193 0.322807 41.4282 0.322807 41.5614C0.322807 41.6946 0.359123 41.8035 0.403509 41.8035C0.447895 41.8035 0.484211 41.8761 0.484211 41.9649C0.484211 42.0537 0.520526 42.1263 0.564912 42.1263C0.609298 42.1263 0.645614 42.1989 0.645614 42.2877C0.645614 42.3765 0.68193 42.4491 0.726316 42.4491C0.770702 42.4491 0.807018 42.5218 0.807018 42.6105C0.807018 42.6993 0.843333 42.7719 0.887719 42.7719C0.932105 42.7719 0.968421 42.83 0.968421 42.901C0.968421 42.9719 1.07737 43.1318 1.21053 43.2561C1.34368 43.3805 1.45263 43.5232 1.45263 43.5731C1.45263 43.6913 2.14731 44.386 2.26546 44.386C2.31541 44.386 2.45809 44.4949 2.58246 44.6281C2.70682 44.7612 2.8587 44.8702 2.91979 44.8702C2.98096 44.8702 3.08337 44.9428 3.14737 45.0316C3.21136 45.1204 3.3283 45.193 3.40731 45.193C3.48624 45.193 3.55088 45.2293 3.55088 45.2737C3.55088 45.3181 3.62351 45.3544 3.71228 45.3544C3.80105 45.3544 3.87368 45.3907 3.87368 45.4351C3.87368 45.4795 3.98263 45.5158 4.11579 45.5158C4.24895 45.5158 4.35789 45.5521 4.35789 45.5965C4.35789 45.6409 4.46684 45.6772 4.6 45.6772C4.73316 45.6772 4.84211 45.7135 4.84211 45.7579C4.84211 45.8023 4.98737 45.8386 5.16491 45.8386C5.34246 45.8386 5.48772 45.8749 5.48772 45.9193C5.48772 45.9701 6.02576 46 6.94035 46C7.85494 46 8.39298 45.9701 8.39298 45.9193C8.39298 45.8749 8.57456 45.8386 8.79649 45.8386C9.01842 45.8386 9.2 45.8023 9.2 45.7579C9.2 45.7135 9.30895 45.6772 9.44211 45.6772C9.57526 45.6772 9.68421 45.6409 9.68421 45.5965C9.68421 45.5521 9.75684 45.5158 9.84561 45.5158C9.93439 45.5158 10.007 45.4795 10.007 45.4351C10.007 45.3907 10.0796 45.3544 10.1684 45.3544C10.2572 45.3544 10.3298 45.3181 10.3298 45.2737C10.3298 45.2293 10.4025 45.193 10.4912 45.193C10.58 45.193 10.6526 45.1567 10.6526 45.1123C10.6526 45.0679 10.7173 45.0316 10.7962 45.0316C10.8752 45.0316 10.9921 44.9589 11.0561 44.8702C11.1201 44.7814 11.2199 44.7088 11.2778 44.7088C11.377 44.7088 12.1053 44.0358 12.1053 43.9442C12.1053 43.9209 12.0472 43.9018 11.9762 43.9018C11.9053 43.9018 11.7454 43.7928 11.6211 43.6596C11.4967 43.5265 11.3514 43.4175 11.2982 43.4175C11.2451 43.4175 11.0998 43.3086 10.9754 43.1754C10.8511 43.0423 10.6992 42.9333 10.6381 42.9333C10.5769 42.9333 10.4745 42.8607 10.4105 42.7719C10.2904 42.6052 10.007 42.5485 10.007 42.6912C10.007 42.7356 9.93439 42.7719 9.84561 42.7719C9.75684 42.7719 9.68421 42.8082 9.68421 42.8526C9.68421 42.897 9.61158 42.9333 9.52281 42.9333C9.43403 42.9333 9.3614 42.9696 9.3614 43.014C9.3614 43.0584 9.28877 43.0947 9.2 43.0947C9.11123 43.0947 9.0386 43.1311 9.0386 43.1754C9.0386 43.2198 8.92965 43.2561 8.79649 43.2561C8.66333 43.2561 8.55439 43.2925 8.55439 43.3368C8.55439 43.3812 8.40912 43.4175 8.23158 43.4175C8.05403 43.4175 7.90877 43.4539 7.90877 43.4982C7.90877 43.5461 7.61284 43.5789 7.18246 43.5789C6.75207 43.5789 6.45614 43.5461 6.45614 43.4982C6.45614 43.4539 6.27456 43.4175 6.05263 43.4175C5.8307 43.4175 5.64912 43.3812 5.64912 43.3368C5.64912 43.2925 5.54817 43.2561 5.42485 43.2561C5.29315 43.2561 5.15256 43.1895 5.08421 43.0947C5.02021 43.006 4.90328 42.9333 4.82427 42.9333C4.74534 42.9333 4.6807 42.897 4.6807 42.8526C4.6807 42.8082 4.62542 42.7719 4.55787 42.7719C4.40833 42.7719 3.55088 41.9296 3.55088 41.7827C3.55088 41.725 3.47825 41.6254 3.38947 41.5614C3.3007 41.4974 3.22807 41.3805 3.22807 41.3015C3.22807 41.2225 3.19175 41.1579 3.14737 41.1579C3.10298 41.1579 3.06667 41.0489 3.06667 40.9158C3.06667 40.7826 3.03035 40.6737 2.98596 40.6737C2.94158 40.6737 2.90526 40.5284 2.90526 40.3509C2.90526 40.1733 2.86895 40.0281 2.82456 40.0281C2.77751 40.0281 2.74386 39.7591 2.74386 39.3825C2.74386 39.0058 2.77751 38.7368 2.82456 38.7368C2.86895 38.7368 2.90526 38.5553 2.90526 38.3333C2.90526 38.1114 2.94158 37.9298 2.98596 37.9298C3.03035 37.9298 3.06667 37.8572 3.06667 37.7684C3.06667 37.6796 3.10298 37.607 3.14737 37.607C3.19175 37.607 3.22807 37.5344 3.22807 37.4456C3.22807 37.3568 3.26439 37.2842 3.30877 37.2842C3.35316 37.2842 3.38947 37.2196 3.38947 37.1406C3.38947 37.0616 3.46211 36.9447 3.55088 36.8807C3.63965 36.8167 3.71228 36.7162 3.71228 36.6575C3.71228 36.5264 4.07358 36.1544 4.20077 36.1544C4.25161 36.1544 4.39494 36.0454 4.5193 35.9123C4.64366 35.7791 4.80353 35.6702 4.87447 35.6702C4.94548 35.6702 5.00351 35.6339 5.00351 35.5895C5.00351 35.5451 5.07614 35.5088 5.16491 35.5088C5.25368 35.5088 5.32632 35.4725 5.32632 35.4281C5.32632 35.3837 5.43526 35.3474 5.56842 35.3474C5.70158 35.3474 5.81053 35.3111 5.81053 35.2667C5.81053 35.2165 6.26786 35.186 7.02105 35.186C7.77424 35.186 8.23158 35.2165 8.23158 35.2667C8.23158 35.3111 8.34053 35.3474 8.47368 35.3474C8.60684 35.3474 8.71579 35.3837 8.71579 35.4281C8.71579 35.4725 8.81675 35.5088 8.94006 35.5088C9.07176 35.5088 9.21235 35.5754 9.2807 35.6702C9.40054 35.8365 9.84561 35.9 9.84561 35.7509C9.84561 35.7065 9.91026 35.6702 9.98918 35.6702C10.0682 35.6702 10.1851 35.5975 10.2491 35.5088C10.3131 35.42 10.4155 35.3474 10.4767 35.3474C10.5378 35.3474 10.6897 35.2384 10.814 35.1053C10.9384 34.9721 11.0813 34.8632 11.1316 34.8632C11.2217 34.8632 11.7825 34.3441 11.7825 34.2606C11.7825 34.2369 11.7244 34.2175 11.6534 34.2175C11.5825 34.2175 11.4226 34.1086 11.2982 33.9754C11.1739 33.8423 11.022 33.7333 10.9609 33.7333C10.8997 33.7333 10.7973 33.6607 10.7333 33.5719C10.6693 33.4832 10.5524 33.4105 10.4734 33.4105C10.3945 33.4105 10.3298 33.3742 10.3298 33.3298C10.3298 33.2854 10.2209 33.2491 10.0877 33.2491C9.95456 33.2491 9.84561 33.2128 9.84561 33.1684C9.84561 33.124 9.77298 33.0877 9.68421 33.0877C9.59544 33.0877 9.52281 33.0514 9.52281 33.007C9.52281 32.9626 9.37754 32.9263 9.2 32.9263C9.02246 32.9263 8.87719 32.89 8.87719 32.8456C8.87719 32.8012 8.69561 32.7649 8.47368 32.7649C8.25175 32.7649 8.07018 32.7286 8.07018 32.6842C8.07018 32.6346 7.66667 32.6035 7.02105 32.6035C6.37544 32.6035 5.97193 32.6346 5.97193 32.6842ZM14.3649 39.3018V45.8386H18.0772C20.4982 45.8386 21.7895 45.8105 21.7895 45.7579C21.7895 45.7135 21.9711 45.6772 22.193 45.6772C22.4149 45.6772 22.5965 45.6409 22.5965 45.5965C22.5965 45.5521 22.6691 45.5158 22.7579 45.5158C22.8467 45.5158 22.9193 45.4795 22.9193 45.4351C22.9193 45.3907 23.0282 45.3544 23.1614 45.3544C23.2946 45.3544 23.4035 45.3181 23.4035 45.2737C23.4035 45.2293 23.4681 45.193 23.5471 45.193C23.6261 45.193 23.743 45.1204 23.807 45.0316C23.871 44.9428 23.9706 44.8702 24.0283 44.8702C24.1753 44.8702 25.0175 44.0127 25.0175 43.8632C25.0175 43.7956 25.0539 43.7404 25.0982 43.7404C25.1426 43.7404 25.1789 43.6677 25.1789 43.5789C25.1789 43.4902 25.2153 43.4175 25.2596 43.4175C25.304 43.4175 25.3404 43.3086 25.3404 43.1754C25.3404 43.0423 25.3767 42.9333 25.4211 42.9333C25.4712 42.9333 25.5018 42.476 25.5018 41.7228C25.5018 40.9696 25.4712 40.5123 25.4211 40.5123C25.3767 40.5123 25.3404 40.4396 25.3404 40.3509C25.3404 40.2621 25.304 40.1895 25.2596 40.1895C25.2153 40.1895 25.1789 40.1168 25.1789 40.0281C25.1789 39.9393 25.1426 39.8667 25.0982 39.8667C25.0539 39.8667 25.0175 39.8115 25.0175 39.7441C25.0175 39.6767 24.7821 39.3862 24.4945 39.0985C24.2068 38.8108 23.9163 38.5754 23.8489 38.5754C23.7814 38.5754 23.7263 38.5391 23.7263 38.4947C23.7263 38.4504 23.6537 38.414 23.5649 38.414C23.4761 38.414 23.4035 38.3777 23.4035 38.3333C23.4035 38.2889 23.2946 38.2526 23.1614 38.2526C23.0282 38.2526 22.9193 38.2163 22.9193 38.1719C22.9193 38.1275 22.774 38.0912 22.5965 38.0912C22.4189 38.0912 22.2737 38.0549 22.2737 38.0105C22.2737 37.9627 21.9778 37.9298 21.5474 37.9298C21.117 37.9298 20.8211 37.897 20.8211 37.8491C20.8211 37.7978 20.1754 37.7684 19.0456 37.7684H17.2702V36.3965V35.0246H20.0769C22.7911 35.0246 22.8875 35.0192 23 34.8632C23.064 34.7744 23.1664 34.7018 23.2276 34.7018C23.2887 34.7018 23.4406 34.5928 23.5649 34.4596C23.6893 34.3265 23.8345 34.2175 23.8877 34.2175C23.9409 34.2175 24.0862 34.1086 24.2105 33.9754C24.3349 33.8423 24.4868 33.7333 24.5479 33.7333C24.609 33.7333 24.7114 33.6607 24.7754 33.5719C24.8394 33.4832 24.9394 33.4105 24.9977 33.4105C25.0982 33.4105 25.6632 32.899 25.6632 32.8079C25.6632 32.7843 23.1211 32.7649 20.014 32.7649H14.3649V39.3018ZM28.0842 39.3018V45.8386H33.0877H38.0912V44.7088V43.5789H34.5404H30.9895V41.9649V40.3509H34.0561H37.1228V39.3364C37.1228 38.5647 37.0952 38.2942 37.0075 38.2066C36.9118 38.1108 36.3911 38.0912 33.9408 38.0912H30.9895V36.5579V35.0246H33.0877C34.4328 35.0246 35.186 34.9956 35.186 34.9439C35.186 34.8995 35.2506 34.8632 35.3295 34.8632C35.4085 34.8632 35.5255 34.7905 35.5895 34.7018C35.6535 34.613 35.7559 34.5404 35.8171 34.5404C35.8781 34.5404 36.03 34.4314 36.1544 34.2982C36.2787 34.1651 36.424 34.0561 36.4772 34.0561C36.5304 34.0561 36.6756 33.9472 36.8 33.814C36.9244 33.6809 37.0762 33.5719 37.1373 33.5719C37.1985 33.5719 37.3009 33.4993 37.3649 33.4105C37.4289 33.3218 37.5294 33.2491 37.5881 33.2491C37.6911 33.2491 38.0912 32.899 38.0912 32.8089C38.0912 32.7847 35.8396 32.7649 33.0877 32.7649H28.0842V39.3018ZM40.6737 39.3018V45.8386H42.1263H43.5789V44.0632V42.2877H44.7895C45.5427 42.2877 46 42.2572 46 42.207C46 42.1581 46.3497 42.1263 46.8877 42.1263C47.4258 42.1263 47.7754 42.0945 47.7754 42.0456C47.7754 42.0012 47.9207 41.9649 48.0982 41.9649C48.2758 41.9649 48.4211 41.9286 48.4211 41.8842C48.4211 41.8398 48.4937 41.8035 48.5825 41.8035C48.6712 41.8035 48.7439 41.7672 48.7439 41.7228C48.7439 41.6784 48.8528 41.6421 48.986 41.6421C49.1191 41.6421 49.2281 41.6058 49.2281 41.5614C49.2281 41.517 49.2927 41.4807 49.3716 41.4807C49.4506 41.4807 49.5676 41.4081 49.6316 41.3193C49.6956 41.2305 49.7951 41.1579 49.8526 41.1579C49.9995 41.1579 51.0035 40.1383 51.0035 39.9893C51.0035 39.9218 51.0398 39.8667 51.0842 39.8667C51.1286 39.8667 51.1649 39.794 51.1649 39.7053C51.1649 39.6165 51.2012 39.5439 51.2456 39.5439C51.29 39.5439 51.3263 39.4712 51.3263 39.3825C51.3263 39.2937 51.3626 39.2211 51.407 39.2211C51.4514 39.2211 51.4877 39.0758 51.4877 38.8982C51.4877 38.7207 51.524 38.5754 51.5684 38.5754C51.6184 38.5754 51.6491 38.1451 51.6491 37.4456C51.6491 36.7462 51.6184 36.3158 51.5684 36.3158C51.524 36.3158 51.4877 36.2068 51.4877 36.0737C51.4877 35.9405 51.4514 35.8316 51.407 35.8316C51.3626 35.8316 51.3263 35.7306 51.3263 35.6073C51.3263 35.4756 51.2597 35.335 51.1649 35.2667C51.0761 35.2027 51.0035 35.0937 51.0035 35.0246C51.0035 34.9554 50.9309 34.8465 50.8421 34.7825C50.7533 34.7185 50.6807 34.6171 50.6807 34.5571C50.6807 34.4232 50.484 34.2175 50.3557 34.2175C50.3037 34.2175 50.1594 34.1086 50.0351 33.9754C49.9107 33.8423 49.7588 33.7333 49.6978 33.7333C49.6366 33.7333 49.5342 33.6607 49.4702 33.5719C49.4018 33.4772 49.2612 33.4105 49.1295 33.4105C49.0062 33.4105 48.9053 33.3742 48.9053 33.3298C48.9053 33.2854 48.8326 33.2491 48.7439 33.2491C48.6551 33.2491 48.5825 33.2128 48.5825 33.1684C48.5825 33.124 48.4372 33.0877 48.2596 33.0877C48.0821 33.0877 47.9368 33.0514 47.9368 33.007C47.9368 32.9626 47.7553 32.9263 47.5333 32.9263C47.3114 32.9263 47.1298 32.89 47.1298 32.8456C47.1298 32.7932 46 32.7649 43.9018 32.7649H40.6737V39.3018ZM46.6456 35.1053C46.6456 35.1496 46.7909 35.186 46.9684 35.186C47.146 35.186 47.2912 35.2223 47.2912 35.2667C47.2912 35.3111 47.3639 35.3474 47.4526 35.3474C47.5414 35.3474 47.614 35.3837 47.614 35.4281C47.614 35.4725 47.6697 35.5088 47.7378 35.5088C47.8984 35.5088 48.4211 36.0314 48.4211 36.1921C48.4211 36.2601 48.4574 36.3158 48.5018 36.3158C48.5461 36.3158 48.5825 36.4247 48.5825 36.5579C48.5825 36.6911 48.6188 36.8 48.6632 36.8C48.711 36.8 48.7439 37.0959 48.7439 37.5263C48.7439 37.9567 48.711 38.2526 48.6632 38.2526C48.6188 38.2526 48.5825 38.3536 48.5825 38.4769C48.5825 38.6086 48.5158 38.7492 48.4211 38.8175C48.3323 38.8815 48.2596 38.9829 48.2596 39.0429C48.2596 39.1906 48.0578 39.3825 47.9022 39.3825C47.8325 39.3825 47.7754 39.4188 47.7754 39.4632C47.7754 39.5075 47.7028 39.5439 47.614 39.5439C47.5253 39.5439 47.4526 39.5802 47.4526 39.6246C47.4526 39.6689 47.38 39.7053 47.2912 39.7053C47.2025 39.7053 47.1298 39.7416 47.1298 39.786C47.1298 39.8373 46.4842 39.8667 45.3544 39.8667H43.5789V37.4456V35.0246H45.1123C46.0807 35.0246 46.6456 35.0543 46.6456 35.1053ZM21.4667 40.2702C21.4667 40.3146 21.5584 40.3509 21.6705 40.3509C21.8985 40.3509 22.5965 40.988 22.5965 41.1961C22.5965 41.2639 22.6328 41.3193 22.6772 41.3193C22.7221 41.3193 22.7579 41.5345 22.7579 41.8035C22.7579 42.0725 22.7221 42.2877 22.6772 42.2877C22.6328 42.2877 22.5965 42.3797 22.5965 42.4921C22.5965 42.7195 22.1166 43.2561 21.9132 43.2561C21.8452 43.2561 21.7895 43.2925 21.7895 43.3368C21.7895 43.3812 21.6805 43.4175 21.5474 43.4175C21.4142 43.4175 21.3053 43.4539 21.3053 43.4982C21.3053 43.5499 20.5789 43.5789 19.2877 43.5789H17.2702V41.8842V40.1895H19.3684C20.7135 40.1895 21.4667 40.2184 21.4667 40.2702Z" fill="#000000"/>
</svg>
