<svg width="30" height="30" viewBox="0 0 30 30" fill="none" xmlns="http://www.w3.org/2000/svg">
<g clip-path="url(#clip0)">
<path d="M15.0017 0C10.9952 0 7.22864 1.559 4.39564 4.38984C-0.547684 9.32941 -1.28093 16.7718 1.99534 22.4573L0.0415348 28.78C-0.1687 29.4602 0.479465 30.0966 1.15693 29.8729L7.29327 27.8476C17.3041 33.8496 30.0009 26.5737 30.0009 14.9879C30.0009 6.70418 23.2924 0 15.0017 0V0ZM7.88038 26.1451C7.65737 26.0027 7.38234 25.9685 7.1315 26.0512L2.2238 27.6711L3.78989 22.6031C3.86437 22.3621 3.8315 22.1006 3.69966 21.8854C-1.67298 13.1186 4.66933 1.75641 15.0017 1.75641C22.3031 1.75641 28.2432 7.69207 28.2432 14.9879C28.2432 25.4313 16.6426 31.7404 7.88038 26.1451Z" fill="#999999"/>
<path d="M22.0316 10.5967H11.4853C10.9999 10.5967 10.6064 10.9898 10.6064 11.4749C10.6064 11.9599 10.9999 12.3531 11.4853 12.3531H22.0316C22.517 12.3531 22.9105 11.9599 22.9105 11.4749C22.9105 10.9898 22.517 10.5967 22.0316 10.5967Z" fill="#999999"/>
<path d="M18.516 17.6226H7.96967C7.48428 17.6226 7.09082 18.0157 7.09082 18.5008C7.09082 18.9858 7.48428 19.379 7.96967 19.379H18.516C19.0014 19.379 19.3949 18.9858 19.3949 18.5008C19.3949 18.0157 19.0013 17.6226 18.516 17.6226Z" fill="#999999"/>
<path d="M22.0315 14.1099H7.96967C7.48428 14.1099 7.09082 14.503 7.09082 14.9881C7.09082 15.4731 7.48428 15.8663 7.96967 15.8663H22.0315C22.5169 15.8663 22.9103 15.4731 22.9103 14.9881C22.9103 14.503 22.5168 14.1099 22.0315 14.1099Z" fill="#999999"/>
<path d="M22.0322 19.379C22.5175 19.379 22.911 18.9858 22.911 18.5008C22.911 18.0157 22.5175 17.6226 22.0322 17.6226C21.5468 17.6226 21.1533 18.0157 21.1533 18.5008C21.1533 18.9858 21.5468 19.379 22.0322 19.379Z" fill="#999999"/>
<path d="M7.96966 12.4117C8.45504 12.4117 8.84851 12.0185 8.84851 11.5335C8.84851 11.0485 8.45504 10.6553 7.96966 10.6553C7.48429 10.6553 7.09082 11.0485 7.09082 11.5335C7.09082 12.0185 7.48429 12.4117 7.96966 12.4117Z" fill="#999999"/>
</g>
<defs>
<clipPath id="clip0">
<rect width="30" height="30" fill="white"/>
</clipPath>
</defs>
</svg>
