<svg width="13" height="13" viewBox="0 0 13 13" fill="none" xmlns="http://www.w3.org/2000/svg">
<path fill-rule="evenodd" clip-rule="evenodd" d="M4.1 7C5.1 8.33331 7.1 8.33331 8.1 7L8.4 6.6L9.2 7.2L8.84 7.68L8.8389 7.67917C7.44061 9.4403 4.75939 9.4403 3.3611 7.67917L3.36 7.68L3.30052 7.60069L3 7.2L3.8 6.6L4.1 7ZM11.2 6.1C11.2 3.28335 8.91669 1 6.1 1C3.28335 1 1 3.28335 1 6.1C1 8.91669 3.28335 11.2 6.1 11.2C8.91669 11.2 11.2 8.91669 11.2 6.1ZM12.1992 6C12.1463 2.71045 9.48952 0.053675 6.2 0.00080312L6 0C2.71045 0.0528714 0.0536745 2.71045 0.000803106 6L0 6.2C0.0528719 9.48952 2.71045 12.1463 6 12.1992L6.2 12.2C9.48952 12.1471 12.1463 9.48952 12.1992 6.2V6ZM3.2 5V4H4.2V5H3.2ZM8 5V4H9V5H8Z" fill="#6B6D70"/>
</svg>
