<svg width="28" height="28" viewBox="0 0 28 28" fill="none" xmlns="http://www.w3.org/2000/svg">
<g clip-path="url(#clip0_81_1703)">
<path d="M14 28C14.9283 28 15.8185 27.6313 16.4749 26.9749C17.1313 26.3185 17.5 25.4283 17.5 24.5H10.5C10.5 25.4283 10.8687 26.3185 11.5251 26.9749C12.1815 27.6313 13.0717 28 14 28ZM15.7413 1.92326C15.7657 1.67992 15.7388 1.43418 15.6624 1.20186C15.5861 0.969541 15.4618 0.755812 15.2978 0.574457C15.1337 0.393102 14.9334 0.248146 14.7099 0.148938C14.4864 0.0497307 14.2446 -0.00152588 14 -0.00152588C13.7554 -0.00152588 13.5136 0.0497307 13.2901 0.148938C13.0666 0.248146 12.8663 0.393102 12.7022 0.574457C12.5382 0.755812 12.4139 0.969541 12.3376 1.20186C12.2612 1.43418 12.2343 1.67992 12.2587 1.92326C10.2808 2.32558 8.50259 3.39914 7.22534 4.96213C5.94809 6.52513 5.25025 8.48151 5.25 10.5C5.25 12.4215 4.375 21 1.75 22.75H26.25C23.625 21 22.75 12.4215 22.75 10.5C22.75 6.26501 19.74 2.73001 15.7413 1.92326Z" fill="#FF6600"/>
</g>
<defs>
<clipPath id="clip0_81_1703">
<rect width="28" height="28" fill="white"/>
</clipPath>
</defs>
</svg>
