<svg viewBox="0 0 14 14" xmlns="http://www.w3.org/2000/svg">
    <style>:root>svg{display:none}:root>svg:target{display:block}</style>
    <!--камера-->
    <svg id="on-orange" fill="none">
        <path
            fill="#FD6601"
            d="M7 14C7.46413 14 7.90925 13.8156 8.23744 13.4874C8.56563 13.1593 8.75 12.7141 8.75 12.25H5.25C5.25 12.7141 5.43437 13.1593 5.76256 13.4874C6.09075 13.8156 6.53587 14 7 14ZM7.87063 0.961628C7.88284 0.839962 7.86941 0.717088 7.83122 0.600929C7.79303 0.48477 7.73091 0.377906 7.64888 0.287228C7.56685 0.196551 7.46672 0.124073 7.35496 0.0744691C7.2432 0.0248654 7.12228 -0.000762939 7 -0.000762939C6.87772 -0.000762939 6.7568 0.0248654 6.64504 0.0744691C6.53328 0.124073 6.43315 0.196551 6.35112 0.287228C6.26909 0.377906 6.20697 0.48477 6.16878 0.600929C6.13059 0.717088 6.11716 0.839962 6.12937 0.961628C5.14038 1.16279 4.25129 1.69957 3.61267 2.48107C2.97404 3.26256 2.62513 4.24076 2.625 5.25C2.625 6.21075 2.1875 10.5 0.875 11.375H13.125C11.8125 10.5 11.375 6.21075 11.375 5.25C11.375 3.1325 9.87 1.365 7.87063 0.961628Z"
        />
    </svg>
    <svg id="on-gray" fill="none">
        <path
            fill="#6B6D70"
            d="M7 14C7.46413 14 7.90925 13.8156 8.23744 13.4874C8.56563 13.1593 8.75 12.7141 8.75 12.25H5.25C5.25 12.7141 5.43437 13.1593 5.76256 13.4874C6.09075 13.8156 6.53587 14 7 14ZM7.87063 0.961628C7.88284 0.839962 7.86941 0.717088 7.83122 0.600929C7.79303 0.48477 7.73091 0.377906 7.64888 0.287228C7.56685 0.196551 7.46672 0.124073 7.35496 0.0744691C7.2432 0.0248654 7.12228 -0.000762939 7 -0.000762939C6.87772 -0.000762939 6.7568 0.0248654 6.64504 0.0744691C6.53328 0.124073 6.43315 0.196551 6.35112 0.287228C6.26909 0.377906 6.20697 0.48477 6.16878 0.600929C6.13059 0.717088 6.11716 0.839962 6.12937 0.961628C5.14038 1.16279 4.25129 1.69957 3.61267 2.48107C2.97404 3.26256 2.62513 4.24076 2.625 5.25C2.625 6.21075 2.1875 10.5 0.875 11.375H13.125C11.8125 10.5 11.375 6.21075 11.375 5.25C11.375 3.1325 9.87 1.365 7.87063 0.961628Z"
        />

    </svg>
    <svg id="on-white" fill="none">
        <path
            fill="#FFFFFF"
            d="M7 14C7.46413 14 7.90925 13.8156 8.23744 13.4874C8.56563 13.1593 8.75 12.7141 8.75 12.25H5.25C5.25 12.7141 5.43437 13.1593 5.76256 13.4874C6.09075 13.8156 6.53587 14 7 14ZM7.87063 0.961628C7.88284 0.839962 7.86941 0.717088 7.83122 0.600929C7.79303 0.48477 7.73091 0.377906 7.64888 0.287228C7.56685 0.196551 7.46672 0.124073 7.35496 0.0744691C7.2432 0.0248654 7.12228 -0.000762939 7 -0.000762939C6.87772 -0.000762939 6.7568 0.0248654 6.64504 0.0744691C6.53328 0.124073 6.43315 0.196551 6.35112 0.287228C6.26909 0.377906 6.20697 0.48477 6.16878 0.600929C6.13059 0.717088 6.11716 0.839962 6.12937 0.961628C5.14038 1.16279 4.25129 1.69957 3.61267 2.48107C2.97404 3.26256 2.62513 4.24076 2.625 5.25C2.625 6.21075 2.1875 10.5 0.875 11.375H13.125C11.8125 10.5 11.375 6.21075 11.375 5.25C11.375 3.1325 9.87 1.365 7.87063 0.961628Z"
        />
    </svg>
    <svg id="off-gray" fill="none">
        <path d="M1.00016 11L12 2" stroke="#6B6D70"/>
        <path fill-rule="evenodd" clip-rule="evenodd"
              d="M9.96867 2.03632C9.39165 1.50294 8.67068 1.12303 7.87053 0.961597C7.88275 0.839932 7.86932 0.717058 7.83113 0.600899C7.79294 0.48474 7.73082 0.377876 7.64879 0.287198C7.56676 0.19652 7.46663 0.124042 7.35487 0.0744386C7.24311 0.0248348 7.12219 -0.000793457 6.99991 -0.000793457C6.87763 -0.000793457 6.75671 0.0248348 6.64495 0.0744386C6.53319 0.124042 6.43306 0.19652 6.35103 0.287198C6.269 0.377876 6.20688 0.48474 6.16869 0.600899C6.1305 0.717058 6.11707 0.839932 6.12928 0.961597C5.14029 1.16276 4.2512 1.69954 3.61258 2.48104C2.97395 3.26253 2.62504 4.24073 2.62491 5.24997C2.62491 5.74517 2.50868 7.12466 2.21631 8.46511L9.96867 2.03632ZM2.62379 11.375H13.1249C11.8124 10.5 11.3749 6.21072 11.3749 5.24997C11.3749 4.89496 11.3326 4.54979 11.2528 4.21924L2.62379 11.375ZM8.23735 13.4874C7.90916 13.8156 7.46404 14 6.99991 14C6.53578 14 6.09066 13.8156 5.76247 13.4874C5.43428 13.1592 5.24991 12.7141 5.24991 12.25H8.74991C8.74991 12.7141 8.56554 13.1592 8.23735 13.4874Z"
              fill="#6B6D70"/>
    </svg>
    <svg id="off-orange" fill="none">
        <path d="M1.00016 11L12 2" stroke="#FD6601"/>
        <path fill-rule="evenodd" clip-rule="evenodd"
              d="M9.96867 2.03632C9.39165 1.50294 8.67068 1.12303 7.87053 0.961597C7.88275 0.839932 7.86932 0.717058 7.83113 0.600899C7.79294 0.48474 7.73082 0.377876 7.64879 0.287198C7.56676 0.19652 7.46663 0.124042 7.35487 0.0744386C7.24311 0.0248348 7.12219 -0.000793457 6.99991 -0.000793457C6.87763 -0.000793457 6.75671 0.0248348 6.64495 0.0744386C6.53319 0.124042 6.43306 0.19652 6.35103 0.287198C6.269 0.377876 6.20688 0.48474 6.16869 0.600899C6.1305 0.717058 6.11707 0.839932 6.12928 0.961597C5.14029 1.16276 4.2512 1.69954 3.61258 2.48104C2.97395 3.26253 2.62504 4.24073 2.62491 5.24997C2.62491 5.74517 2.50868 7.12466 2.21631 8.46511L9.96867 2.03632ZM2.62379 11.375H13.1249C11.8124 10.5 11.3749 6.21072 11.3749 5.24997C11.3749 4.89496 11.3326 4.54979 11.2528 4.21924L2.62379 11.375ZM8.23735 13.4874C7.90916 13.8156 7.46404 14 6.99991 14C6.53578 14 6.09066 13.8156 5.76247 13.4874C5.43428 13.1592 5.24991 12.7141 5.24991 12.25H8.74991C8.74991 12.7141 8.56554 13.1592 8.23735 13.4874Z"
              fill="#FD6601"/>
    </svg>
    <svg id="off-white" fill="none" >
        <path d="M1.00016 11L12 2" stroke="#FFFFFF"/>
        <path fill-rule="evenodd" clip-rule="evenodd"
              d="M9.96867 2.03632C9.39165 1.50294 8.67068 1.12303 7.87053 0.961597C7.88275 0.839932 7.86932 0.717058 7.83113 0.600899C7.79294 0.48474 7.73082 0.377876 7.64879 0.287198C7.56676 0.19652 7.46663 0.124042 7.35487 0.0744386C7.24311 0.0248348 7.12219 -0.000793457 6.99991 -0.000793457C6.87763 -0.000793457 6.75671 0.0248348 6.64495 0.0744386C6.53319 0.124042 6.43306 0.19652 6.35103 0.287198C6.269 0.377876 6.20688 0.48474 6.16869 0.600899C6.1305 0.717058 6.11707 0.839932 6.12928 0.961597C5.14029 1.16276 4.2512 1.69954 3.61258 2.48104C2.97395 3.26253 2.62504 4.24073 2.62491 5.24997C2.62491 5.74517 2.50868 7.12466 2.21631 8.46511L9.96867 2.03632ZM2.62379 11.375H13.1249C11.8124 10.5 11.3749 6.21072 11.3749 5.24997C11.3749 4.89496 11.3326 4.54979 11.2528 4.21924L2.62379 11.375ZM8.23735 13.4874C7.90916 13.8156 7.46404 14 6.99991 14C6.53578 14 6.09066 13.8156 5.76247 13.4874C5.43428 13.1592 5.24991 12.7141 5.24991 12.25H8.74991C8.74991 12.7141 8.56554 13.1592 8.23735 13.4874Z"
              fill="#FFFFFF"/>
    </svg>
</svg>