<svg xmlns="http://www.w3.org/2000/svg" width="17" height="20">
    <g fill="none" fill-rule="evenodd">
        <path fill="#FF6600"
              d="M14.541 8.643a1.1 1.1 0 011.124 1.076c.059 2.791-1.997 6.068-5.98 6.61v1.446h.476a.991.991 0 110 1.983H6.845a.991.991 0 010-1.983h.475v-1.448c-3.977-.536-6.01-3.735-5.979-6.596a1.1 1.1 0 012.195-.096l.005.12c-.006.57.312 1.666.9 2.518.845 1.224 2.144 1.933 4.074 1.933 1.919 0 3.213-.723 4.059-1.97.54-.796.855-1.808.888-2.353l.003-.117a1.1 1.1 0 011.076-1.123zM8.503 0a3 3 0 013 3v6.324a3 3 0 11-6 0V3a3 3 0 013-3z"/>
        <path d="M0 0h17v20H0z"/>
    </g>
</svg>