<svg width="26" height="28" viewBox="0 0 26 28" fill="none" xmlns="http://www.w3.org/2000/svg">
<path d="M13 27.9999C13.9283 27.9999 14.8185 27.6312 15.4749 26.9748C16.1313 26.3184 16.5 25.4282 16.5 24.4999H9.5C9.5 25.4282 9.86875 26.3184 10.5251 26.9748C11.1815 27.6312 12.0717 27.9999 13 27.9999ZM14.7413 1.92319C14.7657 1.67986 14.7388 1.43412 14.6624 1.2018C14.5861 0.96948 14.4618 0.755751 14.2978 0.574396C14.1337 0.39304 13.9334 0.248085 13.7099 0.148877C13.4864 0.0496697 13.2446 -0.00158691 13 -0.00158691C12.7554 -0.00158691 12.5136 0.0496697 12.2901 0.148877C12.0666 0.248085 11.8663 0.39304 11.7022 0.574396C11.5382 0.755751 11.4139 0.96948 11.3376 1.2018C11.2612 1.43412 11.2343 1.67986 11.2587 1.92319C9.28076 2.32552 7.50259 3.39908 6.22534 4.96207C4.94809 6.52507 4.25025 8.48145 4.25 10.4999C4.25 12.4214 3.375 20.9999 0.75 22.7499H25.25C22.625 20.9999 21.75 12.4214 21.75 10.4999C21.75 6.26494 18.74 2.72994 14.7413 1.92319Z" fill="#4D4D4D"/>
</svg>
