<svg width="16" height="16" xmlns="http://www.w3.org/2000/svg">
    <path d="M12.942.994c1.16 0 2.1.94 2.1 2.1v7.8a2.1 2.1 0 01-2.1 2.1H6.343L3.95 15.708a.4.4 0 01-.7-.264v-2.45H2.154a2.1 2.1 0 01-2.1-2.1v-7.8c0-1.16.94-2.1 2.1-2.1h10.788zm-.283 1.794H2.477a.7.7 0 00-.693.605l-.007.095v7.01a.7.7 0 00.605.694l.095.007h2.197v1.05l.95-1.05h7.035a.7.7 0 00.694-.605l.006-.095v-7.01a.7.7 0 00-.7-.7zM5.3 5.952a.3.3 0 01.3.3v1.504a.3.3 0 01-.3.3H3.794a.3.3 0 01-.3-.3V6.252a.3.3 0 01.3-.3H5.3zm3.106 0a.3.3 0 01.3.3v1.504a.3.3 0 01-.3.3H6.901a.3.3 0 01-.3-.3V6.252a.3.3 0 01.3-.3h1.504zm3.107 0a.3.3 0 01.3.3v1.504a.3.3 0 01-.3.3h-1.504a.3.3 0 01-.3-.3V6.252a.3.3 0 01.3-.3h1.504z"
          fill="#FF6600" fill-rule="evenodd"/>
</svg>