<svg width="14" height="14" viewBox="0 0 14 14" fill="none" xmlns="http://www.w3.org/2000/svg">
<path fill-rule="evenodd" clip-rule="evenodd" d="M13.8253 13.0217C13.8798 13.0741 13.9234 13.1368 13.9534 13.2062C13.9834 13.2756 13.9992 13.3503 14 13.4259C14.0007 13.5015 13.9864 13.5765 13.9578 13.6465C13.9293 13.7165 13.887 13.7801 13.8335 13.8335C13.7801 13.887 13.7165 13.9293 13.6465 13.9578C13.5765 13.9864 13.5015 14.0007 13.4259 14C13.3503 13.9992 13.2756 13.9834 13.2062 13.9534C13.1374 13.9236 13.0752 13.8806 13.0233 13.8268L9.18959 9.99317L9.17836 10.0023C8.2091 10.7905 6.97492 11.2647 5.63236 11.2647C2.52861 11.2647 0 8.73611 0 5.63236C0 2.52862 2.52861 0 5.63236 0C8.73611 0 11.2647 2.52862 11.2647 5.63236C11.2647 6.97492 10.7905 8.2091 10.0023 9.17836L9.99317 9.18959L13.8236 13.0201L13.8253 13.0217ZM8.87269 8.74942L8.87365 8.74842C9.64972 7.94115 10.1282 6.84528 10.1282 5.63236C10.1282 3.14248 8.12225 1.13656 5.63236 1.13656C3.14248 1.13656 1.13656 3.14248 1.13656 5.63236C1.13656 8.12225 3.14248 10.1282 5.63236 10.1282C6.84528 10.1282 7.94115 9.64972 8.74842 8.87365L8.74942 8.87269L8.75023 8.87158C8.78431 8.82522 8.82522 8.78431 8.87158 8.75023L8.87269 8.74942Z" fill="#FD6601"/>
</svg>
