<svg width="15" height="12" xmlns="http://www.w3.org/2000/svg">
    <g fill="none" fill-rule="evenodd">
        <g transform="translate(-10.017 -6.125)">
            <path d="M16.472 7.61l.02.052c.2.364.318.848.336 1.485l.003.214.563.814c.14.242.065.443-.2.478l-.084.005h-.302l-.003.4c-.009.43-.032.74-.07.928-.074.362-.376.683-.708.683a.732.732 0 01-.236-.041l-.055.127a2.67 2.67 0 01-.035.073l-.025.607.566.097v.07c0 .127.008.386.073.422l.256.166c.227.143.393.228.732.32.846.295 1.054.799 1.148 1.36.059.345.106 1.01.134 1.472-1.305.274-2.74.414-4.243.414-1.545 0-3.013-.148-4.342-.44a6.52 6.52 0 01.128-.846l.144-.589c.134-.521.283-.88.997-1.226l.175-.08c.544-.234.662-.374 1.209-.613.02-.098.033-.196.037-.295v-.149l.595-.075-.002-.582-.2-.224c-.308-.36-.877-1.079-.964-1.592a11.586 11.586 0 01-.124-1.113l-.03-.553c-.02-.452-.054-2.4.947-2.22-.413-.655 2.69-1.211 3.497.315l.063.136zm4.809-1.238c.308-.249.771-.249 1.049 0 1.636 1.466 2.53 3.432 2.53 5.508 0 2.077-.922 3.871-2.558 5.339-.309.248-.744.419-1.021.17-.278-.277-.278-.692 0-.94 1.389-1.218 2.129-2.824 2.129-4.569 0-1.744-.74-3.35-2.13-4.567a.614.614 0 01-.216-.47c0-.167.092-.333.217-.471zM19.997 8.89c.284-.231.711-.231.967 0 .882.8 1.365 1.857 1.365 2.991 0 1.134-.483 2.191-1.365 2.99-.285.231-.712.231-.967 0-.256-.258-.256-.645 0-.876.625-.567.967-1.314.967-2.114 0-.798-.342-1.547-.967-2.113a.578.578 0 01-.192-.346l-.007-.093.007-.077a.763.763 0 01.192-.362z"
                  fill="#FD6601"/>
        </g>
        <path stroke="#979797" d="M-2.517-3.625h19v19h-19z"/>
    </g>
</svg>