<svg width="32" height="13" viewBox="0 0 32 13" fill="none" xmlns="http://www.w3.org/2000/svg">
<path d="M2.30496 9.30226L2.30495 9.30255L2.29985 9.55883L2.29983 9.56072L2.29927 10.2192V10.2193C2.29931 10.614 2.59051 10.9198 2.92878 10.9203L2.30496 9.30226ZM2.30496 9.30226C2.31167 8.90522 2.38704 8.27847 2.69971 7.56399C2.87924 7.15974 3.09442 6.80056 3.35146 6.47388C3.35153 6.47379 3.35161 6.4737 3.3517 6.4736L3.35395 6.47095L3.36228 6.46128C3.36954 6.45296 3.38017 6.44097 3.39424 6.42554C3.42239 6.39467 3.46431 6.35011 3.52059 6.29379C3.63315 6.18117 3.80314 6.0216 4.03535 5.83078C4.49973 5.44917 5.213 4.94252 6.21337 4.43656C8.21362 3.42488 11.3646 2.41448 15.9735 2.41432C19.8996 2.41423 22.5762 2.82267 24.5087 3.53308C26.4376 4.24216 27.6294 5.25358 28.5843 6.46983L28.5847 6.47034C28.8366 6.78693 29.0521 7.14509 29.2382 7.56053C29.5519 8.2793 29.6273 8.90519 29.6359 9.30138L29.6404 10.2187C29.6404 10.2187 29.6404 10.2188 29.6404 10.2189C29.6409 10.6137 29.3504 10.9199 29.0118 10.9199L23.7585 10.9199C23.4196 10.9194 23.1281 10.6137 23.1273 10.2178C23.1273 10.2178 23.1273 10.2178 23.1273 10.2178L23.1291 6.67192L23.1291 6.59414L23.0537 6.57496L22.6146 6.46315C22.3716 6.40102 22.1046 6.32549 21.8151 6.24135L21.8147 6.24125L21.8115 6.24032C20.4422 5.84787 18.5596 5.3083 15.9694 5.30948C13.3838 5.30882 11.5034 5.84734 10.1381 6.23837L10.1353 6.23915L10.1352 6.23918C9.84068 6.32392 9.57253 6.40015 9.32644 6.46251L9.32624 6.46256L8.88638 6.57498L8.81113 6.59421L8.81114 6.67188L8.81173 10.2178L2.30496 9.30226ZM2.92902 12.2858H2.92918L8.18289 12.2862L8.1831 12.2862C9.28573 12.284 10.1776 11.3534 10.1776 10.2187L10.1776 7.64757C10.2849 7.61685 10.3956 7.58532 10.5112 7.5528L10.5117 7.55265C11.809 7.18046 13.5761 6.67473 15.9695 6.67557H15.9695C18.3667 6.67548 20.1355 7.18136 21.4344 7.55281L21.4377 7.55377L21.4377 7.55378C21.4716 7.56346 21.5053 7.57311 21.5387 7.58269C21.6148 7.6045 21.6895 7.62592 21.7626 7.64637L21.7615 9.34542V9.34555L21.7621 10.2192C21.7621 11.3558 22.6547 12.2852 23.758 12.2855L23.758 12.2855L29.0121 12.2861L29.0121 12.2861C30.1146 12.2861 31.0069 11.355 31.0069 10.2186L31.0069 10.2184L31.0027 8.73349L31.0024 8.63315L30.9499 8.63348C30.875 8.0874 30.7187 7.53609 30.4877 7.008L30.4877 7.00799L30.4873 7.00708C30.2517 6.48297 29.9783 6.0292 29.6548 5.62317C27.0967 2.36378 23.1143 1.04899 15.9735 1.04865L15.9735 1.14865L15.9735 1.04865C6.08079 1.04899 2.45337 5.41106 2.28431 5.62055L2.28357 5.6215C1.94923 6.04626 1.67668 6.50026 1.45095 7.01263L1.45087 7.01283C1.22068 7.53834 1.06389 8.09089 0.989025 8.63816L0.948348 8.64097L0.947375 8.73331L0.931755 10.2177L0.931756 10.2188C0.932898 11.3541 1.82491 12.284 2.92902 12.2858ZM8.18023 10.9209L2.9289 10.9203L8.81173 10.218C8.81079 10.6132 8.5185 10.9204 8.18023 10.9209Z" fill="#242529" stroke="#242529" stroke-width="0.2"/>
</svg>
