<svg width="16" height="14" viewBox="0 0 16 14" fill="none" xmlns="http://www.w3.org/2000/svg">
<g clip-path="url(#clip0_639_83)">
<path fill-rule="evenodd" clip-rule="evenodd" d="M4.37492 2.12012C3.90758 2.11997 3.45249 2.27161 3.07646 2.55278C2.70043 2.83395 2.42326 3.22984 2.28563 3.68234C2.14801 4.13485 2.15717 4.62013 2.31178 5.06697C2.46639 5.51381 2.7583 5.89867 3.14467 6.16506C2.4741 6.41424 1.89248 6.86104 1.47466 7.44796C1.05684 8.03487 0.821938 8.73503 0.800183 9.45835C0.797812 9.53843 0.826937 9.61619 0.881151 9.67451C0.935365 9.73284 1.01023 9.76695 1.08927 9.76936C1.16831 9.77176 1.24506 9.74225 1.30263 9.68732C1.36019 9.63239 1.39387 9.55655 1.39624 9.47646C1.4199 8.69198 1.74412 7.94765 2.30019 7.40121C2.85625 6.85478 3.60047 6.54918 4.37512 6.54918C4.97551 6.54918 5.55761 6.73275 6.048 7.06973L6.2892 6.50697C6.07495 6.36933 5.84579 6.25447 5.60518 6.16506C5.99155 5.89867 6.28346 5.51381 6.43807 5.06697C6.59267 4.62013 6.60184 4.13485 6.46421 3.68234C6.32658 3.22984 6.04941 2.83395 5.67338 2.55278C5.29735 2.27161 4.84227 2.11997 4.37492 2.12012ZM3.25099 3.1957C2.9529 3.49771 2.78544 3.90732 2.78544 4.33443C2.78544 4.76154 2.9529 5.17115 3.25099 5.47316C3.54908 5.77517 3.95337 5.94484 4.37492 5.94484C4.79648 5.94484 5.20077 5.77517 5.49885 5.47316C5.79694 5.17115 5.9644 4.76154 5.9644 4.33443C5.9644 3.90732 5.79694 3.49771 5.49885 3.1957C5.20077 2.89369 4.79648 2.72402 4.37492 2.72402C3.95337 2.72402 3.54908 2.89369 3.25099 3.1957Z" fill="#212529"/>
<path fill-rule="evenodd" clip-rule="evenodd" d="M11.5249 2.12012C11.0576 2.11997 10.6025 2.27161 10.2265 2.55278C9.85046 2.83395 9.57329 3.22984 9.43566 3.68234C9.29803 4.13485 9.3072 4.62013 9.46181 5.06697C9.61641 5.51381 9.90832 5.89867 10.2947 6.16506C9.98468 6.28026 9.69368 6.4377 9.42908 6.6317L9.77522 7.1245C10.2811 6.75269 10.893 6.54918 11.5251 6.54918C12.2998 6.54918 13.044 6.85478 13.6001 7.40121C14.1561 7.94765 14.4804 8.69198 14.504 9.47646C14.5043 9.51667 14.5126 9.5564 14.5282 9.59335C14.5439 9.63029 14.5667 9.66369 14.5952 9.69159C14.6238 9.71949 14.6576 9.74132 14.6946 9.75582C14.7316 9.77031 14.7711 9.77717 14.8108 9.77599C14.8505 9.77481 14.8895 9.76561 14.9256 9.74895C14.9617 9.73228 14.9942 9.70847 15.0211 9.67892C15.048 9.64937 15.0688 9.61468 15.0823 9.57687C15.0958 9.53906 15.1017 9.4989 15.0997 9.45875C15.078 8.73537 14.8431 8.03511 14.4253 7.44812C14.0075 6.86113 13.4258 6.41427 12.7552 6.16506C13.1416 5.89867 13.4335 5.51381 13.5881 5.06697C13.7427 4.62013 13.7519 4.13485 13.6142 3.68234C13.4766 3.22984 13.1994 2.83395 12.8234 2.55278C12.4474 2.27161 11.9923 2.11997 11.5249 2.12012ZM10.401 3.1957C10.1029 3.49771 9.93547 3.90732 9.93547 4.33443C9.93547 4.76154 10.1029 5.17115 10.401 5.47316C10.6991 5.77517 11.1034 5.94484 11.5249 5.94484C11.9465 5.94484 12.3508 5.77517 12.6489 5.47316C12.947 5.17115 13.1144 4.76154 13.1144 4.33443C13.1144 3.90732 12.947 3.49771 12.6489 3.1957C12.3508 2.89369 11.9465 2.72402 11.5249 2.72402C11.1034 2.72402 10.6991 2.89369 10.401 3.1957Z" fill="#212529"/>
<path fill-rule="evenodd" clip-rule="evenodd" d="M7.94995 5.28809C7.4653 5.28794 6.99336 5.44481 6.6034 5.73567C6.21344 6.02653 5.92601 6.43608 5.78328 6.90418C5.64056 7.37229 5.65006 7.87431 5.8104 8.33655C5.97073 8.7988 6.27345 9.19693 6.67413 9.47251C5.97873 9.73029 5.37557 10.1925 4.94228 10.7996C4.50898 11.4068 4.26538 12.1311 4.24281 12.8794C4.24036 12.9622 4.27056 13.0426 4.32678 13.103C4.383 13.1633 4.46064 13.1986 4.54261 13.2011C4.62458 13.2036 4.70417 13.173 4.76387 13.1162C4.82357 13.0594 4.85849 12.9809 4.86095 12.8981C4.88549 12.0866 5.22171 11.3166 5.79837 10.7513C6.37503 10.186 7.14681 9.86988 7.95016 9.86988C8.7535 9.86988 9.52528 10.186 10.1019 10.7513C10.6786 11.3166 11.0148 12.0866 11.0394 12.8981C11.0397 12.9397 11.0482 12.9808 11.0645 13.019C11.0807 13.0572 11.1043 13.0918 11.134 13.1206C11.1636 13.1495 11.1986 13.1721 11.237 13.1871C11.2754 13.2021 11.3164 13.2092 11.3575 13.208C11.3986 13.2067 11.4391 13.1972 11.4766 13.18C11.514 13.1627 11.5477 13.1381 11.5756 13.1075C11.6035 13.077 11.6251 13.0411 11.6391 13.002C11.6531 12.9629 11.6592 12.9213 11.6571 12.8798C11.6346 12.1314 11.391 11.407 10.9577 10.7998C10.5244 10.1926 9.92124 9.73031 9.22577 9.47251C9.62645 9.19693 9.92917 8.7988 10.0895 8.33655C10.2498 7.87431 10.2593 7.37229 10.1166 6.90418C9.97389 6.43608 9.68646 6.02653 9.2965 5.73567C8.90655 5.44481 8.43461 5.28794 7.94995 5.28809ZM6.3016 7.57875C6.3016 7.13692 6.47527 6.71318 6.78439 6.40076C7.09352 6.08833 7.51278 5.91281 7.94995 5.91281C8.38712 5.91281 8.80639 6.08833 9.11551 6.40076C9.42464 6.71318 9.5983 7.13692 9.5983 7.57875C9.5983 8.02059 9.42464 8.44433 9.11551 8.75675C8.80639 9.06917 8.38712 9.24469 7.94995 9.24469C7.51278 9.24469 7.09352 9.06917 6.78439 8.75675C6.47527 8.44433 6.3016 8.02059 6.3016 7.57875Z" fill="#212529"/>
</g>
<defs>
<clipPath id="clip0_639_83">
<rect width="14.3" height="13.2" fill="white" transform="translate(0.800049 0.800049)"/>
</clipPath>
</defs>
</svg>
