<svg width="753" height="651" viewBox="0 0 753 651" fill="none" xmlns="http://www.w3.org/2000/svg">
<path d="M66.4758 2.7464C66.4758 5.79796 66.5346 5.7471 61.7695 6.35741C50.2981 7.93405 34.8851 15.1561 25.7667 23.2427C16.766 31.2785 9.05953 43.8916 7.35352 53.4023C6.64758 57.5219 6.70641 57.4711 3.17672 57.4711C0.117656 57.4711 0 57.5219 0 58.7934C0 60.1158 0.0588281 60.1666 3.11789 59.8615L6.17695 59.5055V65.1V70.6945L3.11789 70.3385C0.0588281 70.0334 0 70.0842 0 71.4066C0 72.678 0.117656 72.7289 3.17672 72.7289C6.70641 72.7289 6.64758 72.678 7.35352 76.7977C8.00063 80.307 10.8832 87.4781 13.2952 91.6486C20.1192 103.346 31.0613 112.806 44.5917 118.706C49.4156 120.791 57.7104 123.283 61.7695 123.843C66.8288 124.504 66.4758 124.046 66.4758 130.2C66.4758 136.354 66.8288 135.896 61.7695 136.557C50.2981 138.134 34.8851 145.356 25.7667 153.443C16.766 161.479 9.05953 174.092 7.35352 183.602C6.64758 187.722 6.70641 187.671 3.17672 187.671C0.117656 187.671 0 187.722 0 188.993C0 190.316 0.0588281 190.367 3.11789 190.061L6.17695 189.705V195.3V200.895L3.11789 200.539C0.0588281 200.233 0 200.284 0 201.607C0 202.878 0.117656 202.929 3.17672 202.929C6.70641 202.929 6.64758 202.878 7.35352 206.998C8.00063 210.507 10.8832 217.678 13.2952 221.849C20.1192 233.546 31.0613 243.006 44.5917 248.906C49.4156 250.991 57.7104 253.483 61.7695 254.043C66.8288 254.704 66.4758 254.246 66.4758 260.4C66.4758 266.554 66.8288 266.096 61.7695 266.757C50.2981 268.334 34.8851 275.556 25.7667 283.643C16.766 291.679 9.05953 304.292 7.35352 313.802C6.64758 317.922 6.70641 317.871 3.17672 317.871C0.117656 317.871 0 317.922 0 319.193C0 320.516 0.0588281 320.567 3.11789 320.262L6.17695 319.905V325.5V331.095L3.11789 330.739C0.0588281 330.433 0 330.484 0 331.807C0 333.078 0.117656 333.129 3.17672 333.129C6.70641 333.129 6.64758 333.078 7.35352 337.198C8.00063 340.707 10.8832 347.878 13.2952 352.049C20.1192 363.746 31.0613 373.206 44.5917 379.106C49.4156 381.191 57.7104 383.683 61.7695 384.243C66.8288 384.904 66.4758 384.446 66.4758 390.6C66.4758 396.754 66.8288 396.296 61.7695 396.957C50.2981 398.534 34.8851 405.756 25.7667 413.843C16.766 421.879 9.05953 434.492 7.35352 444.002C6.64758 448.122 6.70641 448.071 3.17672 448.071C0.117656 448.071 0 448.122 0 449.393C0 450.716 0.0588281 450.767 3.11789 450.462L6.17695 450.106V455.7V461.295L3.11789 460.939C0.0588281 460.633 0 460.684 0 462.007C0 463.278 0.117656 463.329 3.17672 463.329C6.70641 463.329 6.64758 463.278 7.35352 467.398C8.00063 470.907 10.8832 478.078 13.2952 482.249C20.1192 493.946 31.0613 503.406 44.5917 509.306C49.4156 511.391 57.7104 513.883 61.7695 514.443C66.8288 515.104 66.4758 514.646 66.4758 520.8C66.4758 526.954 66.8288 526.496 61.7695 527.157C50.2981 528.734 34.8851 535.956 25.7667 544.043C16.766 552.079 9.05953 564.692 7.35352 574.202C6.64758 578.322 6.70641 578.271 3.17672 578.271C0.117656 578.271 0 578.322 0 579.593C0 580.916 0.0588281 580.967 3.11789 580.662L6.17695 580.306V585.9V591.495L3.11789 591.139C0.0588281 590.833 0 590.884 0 592.207C0 593.478 0.117656 593.529 3.17672 593.529C6.70641 593.529 6.64758 593.478 7.35352 597.598C8.00063 601.107 10.8832 608.278 13.2952 612.449C20.1192 624.146 31.0613 633.606 44.5917 639.506C49.4156 641.591 57.7104 644.083 61.7695 644.643C66.5346 645.253 66.4758 645.202 66.4758 648.254C66.4758 650.898 66.5346 651 68.0053 651C69.5349 651 69.5937 650.949 69.2407 648.305L68.8289 645.66H75.3H81.7711L81.3593 648.305C81.0063 650.949 81.0652 651 82.5947 651C84.0654 651 84.1242 650.898 84.1242 648.254C84.1242 645.202 84.0654 645.253 88.8305 644.643C92.8896 644.083 101.184 641.591 106.008 639.506C119.539 633.606 130.481 624.146 137.305 612.449C139.717 608.278 142.599 601.107 143.246 597.598C144.011 593.224 143.482 593.529 150.6 593.529C157.718 593.529 157.189 593.224 157.954 597.598C158.601 601.107 161.483 608.278 163.895 612.449C170.719 624.146 181.661 633.606 195.192 639.506C200.016 641.591 208.31 644.083 212.37 644.643C217.135 645.253 217.076 645.202 217.076 648.254C217.076 650.898 217.135 651 218.605 651C220.135 651 220.194 650.949 219.841 648.355L219.429 645.66H225.9H232.371L231.959 648.305C231.606 650.949 231.665 651 233.195 651C234.665 651 234.724 650.898 234.724 648.254C234.724 645.202 234.665 645.253 239.43 644.643C243.49 644.083 251.784 641.591 256.608 639.506C270.139 633.606 281.081 624.146 287.905 612.449C290.317 608.278 293.199 601.107 293.847 597.598C294.611 593.224 294.082 593.529 301.2 593.529C308.318 593.529 307.789 593.224 308.554 597.598C309.201 601.107 312.083 608.278 314.495 612.449C321.319 624.146 332.261 633.606 345.792 639.506C350.616 641.591 358.91 644.083 362.97 644.643C367.735 645.253 367.676 645.202 367.676 648.254C367.676 650.898 367.735 651 369.205 651C370.735 651 370.794 650.949 370.441 648.305L370.029 645.66H376.5H382.971L382.559 648.305C382.206 650.949 382.265 651 383.795 651C385.265 651 385.324 650.898 385.324 648.254C385.324 645.202 385.265 645.253 390.031 644.643C394.09 644.083 402.384 641.591 407.208 639.506C420.739 633.606 431.681 624.146 438.505 612.449C440.917 608.278 443.799 601.107 444.447 597.598C445.211 593.224 444.682 593.529 451.8 593.529C458.918 593.529 458.389 593.224 459.154 597.598C459.801 601.107 462.683 608.278 465.095 612.449C471.919 624.146 482.861 633.606 496.392 639.506C501.216 641.591 509.51 644.083 513.57 644.643C518.335 645.253 518.276 645.202 518.276 648.254C518.276 650.898 518.335 651 519.805 651C521.335 651 521.394 650.949 521.041 648.355L520.629 645.66H527.1H533.571L533.159 648.305C532.806 650.949 532.865 651 534.395 651C535.865 651 535.924 650.898 535.924 648.254C535.924 645.202 535.865 645.253 540.631 644.643C544.69 644.083 552.984 641.591 557.808 639.506C571.339 633.606 582.281 624.146 589.105 612.449C591.517 608.278 594.399 601.107 595.047 597.598C595.811 593.224 595.282 593.529 602.4 593.529C609.518 593.529 608.989 593.224 609.754 597.598C610.401 601.107 613.283 608.278 615.695 612.449C622.519 624.146 633.461 633.606 646.992 639.506C651.816 641.591 660.11 644.083 664.17 644.643C668.935 645.253 668.876 645.202 668.876 648.254C668.876 650.898 668.935 651 670.405 651C671.935 651 671.994 650.949 671.641 648.305L671.229 645.66H677.7H684.171L683.759 648.305C683.406 650.949 683.465 651 684.995 651C686.465 651 686.524 650.898 686.524 648.254C686.524 645.202 686.465 645.253 691.231 644.643C695.29 644.083 703.584 641.591 708.408 639.506C721.939 633.606 732.881 624.146 739.705 612.449C742.117 608.278 744.999 601.107 745.647 597.598C746.352 593.478 746.294 593.529 749.823 593.529C752.882 593.529 753 593.478 753 592.207C753 590.884 752.941 590.833 749.941 591.139L746.823 591.495V585.9V580.306L749.941 580.662C752.941 580.967 753 580.916 753 579.593C753 578.322 752.882 578.271 749.823 578.271C746.294 578.271 746.352 578.322 745.647 574.202C744.941 570.286 741.882 562.962 738.94 558.182C732.175 547.043 722.292 538.499 709.644 532.854C703.996 530.362 695.701 527.768 691.231 527.157C686.171 526.496 686.524 526.954 686.524 520.8C686.524 514.646 686.171 515.104 691.231 514.443C695.29 513.883 703.584 511.391 708.408 509.306C721.939 503.406 732.881 493.946 739.705 482.249C742.117 478.078 744.999 470.907 745.647 467.398C746.352 463.278 746.294 463.329 749.823 463.329C752.882 463.329 753 463.278 753 462.007C753 460.684 752.941 460.633 749.941 460.939L746.823 461.295V455.7V450.106L749.941 450.462C752.941 450.767 753 450.716 753 449.393C753 448.122 752.882 448.071 749.823 448.071C746.294 448.071 746.352 448.122 745.647 444.002C744.941 440.086 741.882 432.762 738.94 427.982C732.175 416.843 722.292 408.299 709.644 402.654C703.996 400.162 695.701 397.568 691.231 396.957C686.171 396.296 686.524 396.754 686.524 390.6C686.524 384.446 686.171 384.904 691.231 384.243C695.29 383.683 703.584 381.191 708.408 379.106C721.939 373.206 732.881 363.746 739.705 352.049C742.117 347.878 744.999 340.707 745.647 337.198C746.352 333.078 746.294 333.129 749.823 333.129C752.882 333.129 753 333.078 753 331.807C753 330.484 752.941 330.433 749.941 330.739L746.823 331.095V325.5V319.905L749.941 320.262C752.941 320.567 753 320.516 753 319.193C753 317.922 752.882 317.871 749.823 317.871C746.294 317.871 746.352 317.922 745.647 313.802C744.941 309.886 741.882 302.562 738.94 297.782C732.175 286.643 722.292 278.099 709.644 272.454C703.996 269.962 695.701 267.368 691.231 266.757C686.171 266.096 686.524 266.554 686.524 260.4C686.524 254.246 686.171 254.704 691.231 254.043C695.29 253.483 703.584 250.991 708.408 248.906C721.939 243.006 732.881 233.546 739.705 221.849C742.117 217.678 744.999 210.507 745.647 206.998C746.352 202.878 746.294 202.929 749.823 202.929C752.882 202.929 753 202.878 753 201.607C753 200.284 752.941 200.233 749.941 200.539L746.823 200.895V195.3V189.705L749.941 190.061C752.941 190.367 753 190.316 753 188.993C753 187.722 752.882 187.671 749.823 187.671C746.294 187.671 746.352 187.722 745.647 183.602C744.941 179.686 741.882 172.362 738.94 167.582C732.175 156.443 722.292 147.899 709.644 142.254C703.996 139.762 695.701 137.168 691.231 136.557C686.171 135.896 686.524 136.354 686.524 130.2C686.524 124.046 686.171 124.504 691.231 123.843C695.29 123.283 703.584 120.791 708.408 118.706C721.939 112.806 732.881 103.346 739.705 91.6486C742.117 87.4781 744.999 80.307 745.647 76.7977C746.352 72.678 746.294 72.7289 749.823 72.7289C752.882 72.7289 753 72.678 753 71.4066C753 70.0842 752.941 70.0334 749.941 70.3385L746.823 70.6945V65.1V59.5055L749.941 59.8615C752.941 60.1666 753 60.1158 753 58.7934C753 57.5219 752.882 57.4711 749.823 57.4711C746.294 57.4711 746.352 57.5219 745.647 53.4023C744.941 49.4862 741.882 42.1624 738.94 37.3816C732.175 26.2434 722.292 17.6991 709.644 12.0537C703.996 9.56155 695.701 6.96773 691.231 6.35741C686.465 5.7471 686.524 5.79796 686.524 2.7464C686.524 0.101709 686.465 -9.53674e-06 684.995 -9.53674e-06C683.465 -9.53674e-06 683.406 0.0508498 683.759 2.64468L684.171 5.34023H677.7H671.229L671.641 2.64468C671.994 0.0508498 671.935 -9.53674e-06 670.405 -9.53674e-06C668.935 -9.53674e-06 668.876 0.101709 668.876 2.7464C668.876 5.79796 668.935 5.7471 664.17 6.35741C652.698 7.93405 637.285 15.1561 628.167 23.2427C619.166 31.2785 611.46 43.8916 609.754 53.4023C608.989 57.7762 609.518 57.4711 602.4 57.4711C595.282 57.4711 595.811 57.7762 595.047 53.4023C594.341 49.4862 591.282 42.1624 588.34 37.3816C581.575 26.2434 571.692 17.6991 559.044 12.0537C553.396 9.56155 545.101 6.96773 540.631 6.35741C535.865 5.7471 535.924 5.79796 535.924 2.7464C535.924 0.101709 535.865 -9.53674e-06 534.395 -9.53674e-06C532.865 -9.53674e-06 532.806 0.0508498 533.159 2.64468L533.571 5.34023H527.1H520.629L521.041 2.64468C521.394 0.0508498 521.335 -9.53674e-06 519.805 -9.53674e-06C518.335 -9.53674e-06 518.276 0.101709 518.276 2.7464C518.276 5.79796 518.335 5.7471 513.57 6.35741C502.098 7.93405 486.685 15.1561 477.567 23.2427C468.566 31.2785 460.86 43.8916 459.154 53.4023C458.389 57.7762 458.918 57.4711 451.8 57.4711C444.682 57.4711 445.211 57.7762 444.447 53.4023C443.741 49.4862 440.682 42.1624 437.74 37.3816C430.975 26.2434 421.092 17.6991 408.444 12.0537C402.796 9.56155 394.501 6.96773 390.031 6.35741C385.265 5.7471 385.324 5.79796 385.324 2.7464C385.324 0.101709 385.265 -9.53674e-06 383.795 -9.53674e-06C382.265 -9.53674e-06 382.206 0.0508498 382.559 2.64468L382.971 5.34023H376.5H370.029L370.441 2.64468C370.794 0.0508498 370.735 -9.53674e-06 369.205 -9.53674e-06C367.735 -9.53674e-06 367.676 0.101709 367.676 2.7464C367.676 5.79796 367.735 5.7471 362.97 6.35741C351.498 7.93405 336.085 15.1561 326.967 23.2427C317.966 31.2785 310.26 43.8916 308.554 53.4023C307.789 57.7762 308.318 57.4711 301.2 57.4711C294.082 57.4711 294.611 57.7762 293.847 53.4023C293.141 49.4862 290.082 42.1624 287.14 37.3816C280.375 26.2434 270.492 17.6991 257.844 12.0537C252.196 9.56155 243.901 6.96773 239.43 6.35741C234.665 5.7471 234.724 5.79796 234.724 2.7464C234.724 0.101709 234.665 -9.53674e-06 233.195 -9.53674e-06C231.665 -9.53674e-06 231.606 0.0508498 231.959 2.64468L232.371 5.34023H225.9H219.429L219.841 2.64468C220.194 0.0508498 220.135 -9.53674e-06 218.605 -9.53674e-06C217.135 -9.53674e-06 217.076 0.101709 217.076 2.7464C217.076 5.79796 217.135 5.7471 212.37 6.35741C200.898 7.93405 185.485 15.1561 176.367 23.2427C167.366 31.2785 159.66 43.8916 157.954 53.4023C157.189 57.7762 157.718 57.4711 150.6 57.4711C143.482 57.4711 144.011 57.7762 143.246 53.4023C142.541 49.4862 139.481 42.1624 136.54 37.3816C129.775 26.2434 119.892 17.6991 107.244 12.0537C101.596 9.56155 93.3014 6.96773 88.8305 6.35741C84.0654 5.7471 84.1242 5.79796 84.1242 2.7464C84.1242 0.101709 84.0654 -9.53674e-06 82.5947 -9.53674e-06C81.0652 -9.53674e-06 81.0063 0.0508498 81.3593 2.64468L81.7711 5.34023H75.3H68.8289L69.2407 2.64468C69.5937 0.0508498 69.5349 -9.53674e-06 68.0053 -9.53674e-06C66.5346 -9.53674e-06 66.4758 0.101709 66.4758 2.7464ZM82.0064 8.49351C82.1241 9.0021 82.477 10.4262 82.6535 11.6976C83.3006 15.2069 86.1832 22.3781 88.5952 26.5486C95.4192 38.2462 106.361 47.7061 119.892 53.6058C124.716 55.691 133.01 58.1831 137.07 58.7426C142.129 59.4037 141.776 58.946 141.776 65.1C141.776 71.254 142.129 70.7962 137.07 71.4574C125.598 73.0341 110.185 80.2561 101.067 88.3427C92.066 96.3785 84.3595 108.992 82.6535 118.502C81.8888 122.876 82.4182 122.571 75.3 122.571C68.1818 122.571 68.7113 122.876 67.9465 118.502C67.2406 114.586 64.1815 107.262 61.2401 102.482C54.4748 91.3434 44.5917 82.7991 31.9437 77.1537C26.2962 74.6616 18.0014 72.0677 13.5305 71.4574C8.47125 70.7962 8.82422 71.254 8.82422 65.1C8.82422 58.946 8.47125 59.4037 13.5305 58.7426C17.5896 58.1831 25.8844 55.691 30.7083 53.6058C44.2388 47.7061 55.1808 38.2462 62.0048 26.5486C64.4168 22.3781 67.2994 15.2069 67.9465 11.6976C68.7113 7.32374 68.1818 7.6289 75.3 7.6289C80.8887 7.6289 81.7123 7.73062 82.0064 8.49351ZM232.606 8.49351C232.724 9.0021 233.077 10.4262 233.254 11.6976C233.901 15.2069 236.783 22.3781 239.195 26.5486C246.019 38.2462 256.961 47.7061 270.492 53.6058C275.316 55.691 283.61 58.1831 287.67 58.7426C292.729 59.4037 292.376 58.946 292.376 65.1C292.376 71.254 292.729 70.7962 287.67 71.4574C276.198 73.0341 260.785 80.2561 251.667 88.3427C242.666 96.3785 234.96 108.992 233.254 118.502C232.489 122.876 233.018 122.571 225.9 122.571C218.782 122.571 219.311 122.876 218.547 118.502C217.841 114.586 214.782 107.262 211.84 102.482C205.075 91.3434 195.192 82.7991 182.544 77.1537C176.896 74.6616 168.601 72.0677 164.13 71.4574C159.071 70.7962 159.424 71.254 159.424 65.1C159.424 58.946 159.071 59.4037 164.13 58.7426C168.19 58.1831 176.484 55.691 181.308 53.6058C194.839 47.7061 205.781 38.2462 212.605 26.5486C215.017 22.3781 217.899 15.2069 218.547 11.6976C219.311 7.32374 218.782 7.6289 225.9 7.6289C231.489 7.6289 232.312 7.73062 232.606 8.49351ZM383.206 8.49351C383.324 9.0021 383.677 10.4262 383.854 11.6976C384.501 15.2069 387.383 22.3781 389.795 26.5486C396.619 38.2462 407.561 47.7061 421.092 53.6058C425.916 55.691 434.21 58.1831 438.27 58.7426C443.329 59.4037 442.976 58.946 442.976 65.1C442.976 71.254 443.329 70.7962 438.27 71.4574C426.798 73.0341 411.385 80.2561 402.267 88.3427C393.266 96.3785 385.56 108.992 383.854 118.502C383.089 122.876 383.618 122.571 376.5 122.571C369.382 122.571 369.911 122.876 369.147 118.502C368.441 114.586 365.382 107.262 362.44 102.482C355.675 91.3434 345.792 82.7991 333.144 77.1537C327.496 74.6616 319.201 72.0677 314.73 71.4574C309.671 70.7962 310.024 71.254 310.024 65.1C310.024 58.946 309.671 59.4037 314.73 58.7426C318.79 58.1831 327.084 55.691 331.908 53.6058C345.439 47.7061 356.381 38.2462 363.205 26.5486C365.617 22.3781 368.499 15.2069 369.147 11.6976C369.911 7.32374 369.382 7.6289 376.5 7.6289C382.089 7.6289 382.912 7.73062 383.206 8.49351ZM533.806 8.49351C533.924 9.0021 534.277 10.4262 534.454 11.6976C535.101 15.2069 537.983 22.3781 540.395 26.5486C547.219 38.2462 558.161 47.7061 571.692 53.6058C576.516 55.691 584.81 58.1831 588.87 58.7426C593.929 59.4037 593.576 58.946 593.576 65.1C593.576 71.254 593.929 70.7962 588.87 71.4574C577.398 73.0341 561.985 80.2561 552.867 88.3427C543.866 96.3785 536.16 108.992 534.454 118.502C533.689 122.876 534.218 122.571 527.1 122.571C519.982 122.571 520.511 122.876 519.747 118.502C519.041 114.586 515.982 107.262 513.04 102.482C506.275 91.3434 496.392 82.7991 483.744 77.1537C478.096 74.6616 469.801 72.0677 465.331 71.4574C460.271 70.7962 460.624 71.254 460.624 65.1C460.624 58.946 460.271 59.4037 465.331 58.7426C469.39 58.1831 477.684 55.691 482.508 53.6058C496.039 47.7061 506.981 38.2462 513.805 26.5486C516.217 22.3781 519.099 15.2069 519.747 11.6976C520.511 7.32374 519.982 7.6289 527.1 7.6289C532.689 7.6289 533.512 7.73062 533.806 8.49351ZM684.406 8.49351C684.524 9.0021 684.877 10.4262 685.054 11.6976C685.701 15.2069 688.583 22.3781 690.995 26.5486C697.819 38.2462 708.761 47.7061 722.292 53.6058C727.116 55.691 735.41 58.1831 739.47 58.7426C744.529 59.4037 744.176 58.946 744.176 65.1C744.176 71.254 744.529 70.7962 739.47 71.4574C727.998 73.0341 712.585 80.2561 703.467 88.3427C694.466 96.3785 686.76 108.992 685.054 118.502C684.289 122.876 684.818 122.571 677.7 122.571C670.582 122.571 671.111 122.876 670.347 118.502C669.641 114.586 666.582 107.262 663.64 102.482C656.875 91.3434 646.992 82.7991 634.344 77.1537C628.696 74.6616 620.401 72.0677 615.931 71.4574C610.871 70.7962 611.224 71.254 611.224 65.1C611.224 58.946 610.871 59.4037 615.931 58.7426C619.99 58.1831 628.284 55.691 633.108 53.6058C646.639 47.7061 657.581 38.2462 664.405 26.5486C666.817 22.3781 669.699 15.2069 670.347 11.6976C671.111 7.32374 670.582 7.6289 677.7 7.6289C683.289 7.6289 684.112 7.73062 684.406 8.49351ZM65.4757 10.0193C64.8286 13.7829 62.299 20.5472 60.0047 24.6159C56.7691 30.4648 53.3571 34.7369 48.2391 39.3652C40.8267 46.0786 33.3555 50.4016 23.8254 53.6058C18.8838 55.2333 10.0596 57.1659 9.53016 56.7082C9.0007 56.2505 12.4716 45.8752 14.5894 41.7555C23.0018 25.2771 40.7679 12.7657 61.2401 8.90038C63.2991 8.54437 65.1816 8.18835 65.4169 8.18835C65.6522 8.13749 65.6522 9.0021 65.4757 10.0193ZM94.125 10.0193C115.244 15.2578 132.952 30.5665 139.011 48.8759C139.776 51.2154 140.599 54.0127 140.776 55.0298C141.129 56.9116 141.129 56.9116 139.246 56.6573C128.834 55.0298 118.421 51.0628 110.009 45.5191C105.538 42.5184 98.4195 36.0084 95.4192 32.0414C90.5365 25.684 86.3009 16.5293 85.1243 10.0701L84.8302 8.23921L86.948 8.49351C88.1245 8.64609 91.3601 9.35812 94.125 10.0193ZM216.076 10.0193C215.429 13.7829 212.899 20.5472 210.605 24.6159C207.369 30.4648 203.957 34.7369 198.839 39.3652C191.427 46.0786 183.956 50.4016 174.425 53.6058C169.484 55.2333 160.66 57.1659 160.13 56.7082C159.601 56.2505 163.072 45.8752 165.189 41.7555C173.602 25.2771 191.368 12.7657 211.84 8.90038C213.899 8.54437 215.782 8.18835 216.017 8.18835C216.252 8.13749 216.252 9.0021 216.076 10.0193ZM244.725 10.0193C265.844 15.2578 283.552 30.5665 289.611 48.8759C290.376 51.2154 291.199 54.0127 291.376 55.0298C291.729 56.9116 291.729 56.9116 289.846 56.6573C279.434 55.0298 269.021 51.0628 260.609 45.5191C256.138 42.5184 249.019 36.0084 246.019 32.0414C241.137 25.684 236.901 16.5293 235.724 10.0701L235.43 8.23921L237.548 8.49351C238.725 8.64609 241.96 9.35812 244.725 10.0193ZM366.676 10.0193C366.029 13.7829 363.499 20.5472 361.205 24.6159C357.969 30.4648 354.557 34.7369 349.439 39.3652C342.027 46.0786 334.556 50.4016 325.025 53.6058C320.084 55.2333 311.26 57.1659 310.73 56.7082C310.201 56.2505 313.672 45.8752 315.789 41.7555C324.202 25.2771 341.968 12.7657 362.44 8.90038C364.499 8.54437 366.382 8.18835 366.617 8.18835C366.852 8.13749 366.852 9.0021 366.676 10.0193ZM395.325 10.0193C416.444 15.2578 434.152 30.5665 440.211 48.8759C440.976 51.2154 441.799 54.0127 441.976 55.0298C442.329 56.9116 442.329 56.9116 440.446 56.6573C430.034 55.0298 419.621 51.0628 411.209 45.5191C406.738 42.5184 399.619 36.0084 396.619 32.0414C391.737 25.684 387.501 16.5293 386.324 10.0701L386.03 8.23921L388.148 8.49351C389.325 8.64609 392.56 9.35812 395.325 10.0193ZM517.276 10.0193C516.629 13.7829 514.099 20.5472 511.805 24.6159C508.569 30.4648 505.157 34.7369 500.039 39.3652C492.627 46.0786 485.156 50.4016 475.625 53.6058C470.684 55.2333 461.86 57.1659 461.33 56.7082C460.801 56.2505 464.272 45.8752 466.389 41.7555C474.802 25.2771 492.568 12.7657 513.04 8.90038C515.099 8.54437 516.982 8.18835 517.217 8.18835C517.452 8.13749 517.452 9.0021 517.276 10.0193ZM545.925 10.0193C567.044 15.2578 584.752 30.5665 590.811 48.8759C591.576 51.2154 592.399 54.0127 592.576 55.0298C592.929 56.9116 592.929 56.9116 591.046 56.6573C580.634 55.0298 570.221 51.0628 561.809 45.5191C557.338 42.5184 550.22 36.0084 547.219 32.0414C542.337 25.684 538.101 16.5293 536.924 10.0701L536.63 8.23921L538.748 8.49351C539.925 8.64609 543.16 9.35812 545.925 10.0193ZM667.876 10.0193C667.229 13.7829 664.699 20.5472 662.405 24.6159C659.169 30.4648 655.757 34.7369 650.639 39.3652C643.227 46.0786 635.756 50.4016 626.225 53.6058C621.284 55.2333 612.46 57.1659 611.93 56.7082C611.401 56.2505 614.872 45.8752 616.989 41.7555C625.402 25.2771 643.168 12.7657 663.64 8.90038C665.699 8.54437 667.582 8.18835 667.817 8.18835C668.052 8.13749 668.052 9.0021 667.876 10.0193ZM696.525 10.0193C717.644 15.2578 735.352 30.5665 741.411 48.8759C742.176 51.2154 742.999 54.0127 743.176 55.0298C743.529 56.9116 743.529 56.9116 741.646 56.6573C731.234 55.0298 720.821 51.0628 712.409 45.5191C707.938 42.5184 700.82 36.0084 697.819 32.0414C692.937 25.684 688.701 16.5293 687.524 10.0701L687.23 8.23921L689.348 8.49351C690.525 8.64609 693.76 9.35812 696.525 10.0193ZM156.777 65.1V70.4402H150.6H144.423V65.1V59.7598H150.6H156.777V65.1ZM307.377 65.1V70.4402H301.2H295.023V65.1V59.7598H301.2H307.377V65.1ZM457.977 65.1V70.4402H451.8H445.623V65.1V59.7598H451.8H457.977V65.1ZM608.577 65.1V70.4402H602.4H596.223V65.1V59.7598H602.4H608.577V65.1ZM157.306 73.5935C157.424 74.1021 157.777 75.5262 157.954 76.7977C158.601 80.307 161.483 87.4781 163.895 91.6486C170.719 103.346 181.661 112.806 195.192 118.706C200.016 120.791 208.31 123.283 212.37 123.843C217.429 124.504 217.076 124.046 217.076 130.2C217.076 136.354 217.429 135.896 212.37 136.557C200.898 138.134 185.485 145.356 176.367 153.443C167.366 161.479 159.66 174.092 157.954 183.602C157.189 187.976 157.718 187.671 150.6 187.671C143.482 187.671 144.011 187.976 143.246 183.602C142.541 179.686 139.481 172.362 136.54 167.582C129.775 156.443 119.892 147.899 107.244 142.254C101.596 139.762 93.3014 137.168 88.8305 136.557C83.7713 135.896 84.1242 136.354 84.1242 130.2C84.1242 124.046 83.7713 124.504 88.8305 123.843C92.8896 123.283 101.184 120.791 106.008 118.706C119.539 112.806 130.481 103.346 137.305 91.6486C139.717 87.4781 142.599 80.307 143.246 76.7977C144.011 72.4237 143.482 72.7289 150.6 72.7289C156.189 72.7289 157.012 72.8306 157.306 73.5935ZM307.906 73.5935C308.024 74.1021 308.377 75.5262 308.554 76.7977C309.201 80.307 312.083 87.4781 314.495 91.6486C321.319 103.346 332.261 112.806 345.792 118.706C350.616 120.791 358.91 123.283 362.97 123.843C368.029 124.504 367.676 124.046 367.676 130.2C367.676 136.354 368.029 135.896 362.97 136.557C351.498 138.134 336.085 145.356 326.967 153.443C317.966 161.479 310.26 174.092 308.554 183.602C307.789 187.976 308.318 187.671 301.2 187.671C294.082 187.671 294.611 187.976 293.847 183.602C293.141 179.686 290.082 172.362 287.14 167.582C280.375 156.443 270.492 147.899 257.844 142.254C252.196 139.762 243.901 137.168 239.43 136.557C234.371 135.896 234.724 136.354 234.724 130.2C234.724 124.046 234.371 124.504 239.43 123.843C243.49 123.283 251.784 120.791 256.608 118.706C270.139 112.806 281.081 103.346 287.905 91.6486C290.317 87.4781 293.199 80.307 293.847 76.7977C294.611 72.4237 294.082 72.7289 301.2 72.7289C306.789 72.7289 307.612 72.8306 307.906 73.5935ZM458.506 73.5935C458.624 74.1021 458.977 75.5262 459.154 76.7977C459.801 80.307 462.683 87.4781 465.095 91.6486C471.919 103.346 482.861 112.806 496.392 118.706C501.216 120.791 509.51 123.283 513.57 123.843C518.629 124.504 518.276 124.046 518.276 130.2C518.276 136.354 518.629 135.896 513.57 136.557C502.098 138.134 486.685 145.356 477.567 153.443C468.566 161.479 460.86 174.092 459.154 183.602C458.389 187.976 458.918 187.671 451.8 187.671C444.682 187.671 445.211 187.976 444.447 183.602C443.741 179.686 440.682 172.362 437.74 167.582C430.975 156.443 421.092 147.899 408.444 142.254C402.796 139.762 394.501 137.168 390.031 136.557C384.971 135.896 385.324 136.354 385.324 130.2C385.324 124.046 384.971 124.504 390.031 123.843C394.09 123.283 402.384 120.791 407.208 118.706C420.739 112.806 431.681 103.346 438.505 91.6486C440.917 87.4781 443.799 80.307 444.447 76.7977C445.211 72.4237 444.682 72.7289 451.8 72.7289C457.389 72.7289 458.212 72.8306 458.506 73.5935ZM609.106 73.5935C609.224 74.1021 609.577 75.5262 609.754 76.7977C610.401 80.307 613.283 87.4781 615.695 91.6486C622.519 103.346 633.461 112.806 646.992 118.706C651.816 120.791 660.11 123.283 664.17 123.843C669.229 124.504 668.876 124.046 668.876 130.2C668.876 136.354 669.229 135.896 664.17 136.557C652.698 138.134 637.285 145.356 628.167 153.443C619.166 161.479 611.46 174.092 609.754 183.602C608.989 187.976 609.518 187.671 602.4 187.671C595.282 187.671 595.811 187.976 595.047 183.602C594.341 179.686 591.282 172.362 588.34 167.582C581.575 156.443 571.692 147.899 559.044 142.254C553.396 139.762 545.101 137.168 540.631 136.557C535.571 135.896 535.924 136.354 535.924 130.2C535.924 124.046 535.571 124.504 540.631 123.843C544.69 123.283 552.984 120.791 557.808 118.706C571.339 112.806 582.281 103.346 589.105 91.6486C591.517 87.4781 594.399 80.307 595.047 76.7977C595.811 72.4237 595.282 72.7289 602.4 72.7289C607.989 72.7289 608.812 72.8306 609.106 73.5935ZM18.825 75.1193C39.9443 80.3578 57.6516 95.6665 63.7109 113.976C64.4756 116.315 65.2992 119.113 65.4757 120.13C65.8287 122.012 65.8287 122.012 63.9462 121.757C53.5336 120.13 43.121 116.163 34.7086 110.619C30.2377 107.618 23.1195 101.108 20.1192 97.1414C15.2365 90.784 11.0009 81.6293 9.8243 75.1702L9.53016 73.3392L11.648 73.5935C12.8245 73.7461 16.0601 74.4581 18.825 75.1193ZM140.776 75.1193C140.129 78.8829 137.599 85.6472 135.305 89.7159C132.069 95.5648 128.657 99.837 123.539 104.465C116.127 111.179 108.656 115.502 99.1254 118.706C94.1838 120.333 85.3596 122.266 84.8302 121.808C84.3007 121.35 87.7716 110.975 89.8894 106.856C98.3018 90.3771 116.068 77.8657 136.54 74.0004C138.599 73.6444 140.482 73.2884 140.717 73.2884C140.952 73.2375 140.952 74.1021 140.776 75.1193ZM169.425 75.1193C190.544 80.3578 208.252 95.6665 214.311 113.976C215.076 116.315 215.899 119.113 216.076 120.13C216.429 122.012 216.429 122.012 214.546 121.757C204.134 120.13 193.721 116.163 185.309 110.619C180.838 107.618 173.719 101.108 170.719 97.1414C165.836 90.784 161.601 81.6293 160.424 75.1702L160.13 73.3392L162.248 73.5935C163.425 73.7461 166.66 74.4581 169.425 75.1193ZM291.376 75.1193C290.729 78.8829 288.199 85.6472 285.905 89.7159C282.669 95.5648 279.257 99.837 274.139 104.465C266.727 111.179 259.256 115.502 249.725 118.706C244.784 120.333 235.96 122.266 235.43 121.808C234.901 121.35 238.372 110.975 240.489 106.856C248.902 90.3771 266.668 77.8657 287.14 74.0004C289.199 73.6444 291.082 73.2884 291.317 73.2884C291.552 73.2375 291.552 74.1021 291.376 75.1193ZM320.025 75.1193C341.144 80.3578 358.852 95.6665 364.911 113.976C365.676 116.315 366.499 119.113 366.676 120.13C367.029 122.012 367.029 122.012 365.146 121.757C354.734 120.13 344.321 116.163 335.909 110.619C331.438 107.618 324.319 101.108 321.319 97.1414C316.437 90.784 312.201 81.6293 311.024 75.1702L310.73 73.3392L312.848 73.5935C314.025 73.7461 317.26 74.4581 320.025 75.1193ZM441.976 75.1193C441.329 78.8829 438.799 85.6472 436.505 89.7159C433.269 95.5648 429.857 99.837 424.739 104.465C417.327 111.179 409.856 115.502 400.325 118.706C395.384 120.333 386.56 122.266 386.03 121.808C385.501 121.35 388.972 110.975 391.089 106.856C399.502 90.3771 417.268 77.8657 437.74 74.0004C439.799 73.6444 441.682 73.2884 441.917 73.2884C442.152 73.2375 442.152 74.1021 441.976 75.1193ZM470.625 75.1193C491.744 80.3578 509.452 95.6665 515.511 113.976C516.276 116.315 517.099 119.113 517.276 120.13C517.629 122.012 517.629 122.012 515.746 121.757C505.334 120.13 494.921 116.163 486.509 110.619C482.038 107.618 474.919 101.108 471.919 97.1414C467.037 90.784 462.801 81.6293 461.624 75.1702L461.33 73.3392L463.448 73.5935C464.625 73.7461 467.86 74.4581 470.625 75.1193ZM592.576 75.1193C591.929 78.8829 589.399 85.6472 587.105 89.7159C583.869 95.5648 580.457 99.837 575.339 104.465C567.927 111.179 560.456 115.502 550.925 118.706C545.984 120.333 537.16 122.266 536.63 121.808C536.101 121.35 539.572 110.975 541.689 106.856C550.102 90.3771 567.868 77.8657 588.34 74.0004C590.399 73.6444 592.282 73.2884 592.517 73.2884C592.752 73.2375 592.752 74.1021 592.576 75.1193ZM621.225 75.1193C642.344 80.3578 660.052 95.6665 666.111 113.976C666.876 116.315 667.699 119.113 667.876 120.13C668.229 122.012 668.229 122.012 666.346 121.757C655.934 120.13 645.521 116.163 637.109 110.619C632.638 107.618 625.52 101.108 622.519 97.1414C617.637 90.784 613.401 81.6293 612.224 75.1702L611.93 73.3392L614.048 73.5935C615.225 73.7461 618.46 74.4581 621.225 75.1193ZM743.176 75.1193C742.529 78.8829 739.999 85.6472 737.705 89.7159C734.469 95.5648 731.057 99.837 725.939 104.465C718.527 111.179 711.056 115.502 701.525 118.706C696.584 120.333 687.76 122.266 687.23 121.808C686.701 121.35 690.172 110.975 692.289 106.856C700.702 90.3771 718.468 77.8657 738.94 74.0004C740.999 73.6444 742.882 73.2884 743.117 73.2884C743.352 73.2375 743.352 74.1021 743.176 75.1193ZM81.477 130.2V135.54H75.3H69.1231V130.2V124.86H75.3H81.477V130.2ZM232.077 130.2V135.54H225.9H219.723V130.2V124.86H225.9H232.077V130.2ZM382.677 130.2V135.54H376.5H370.323V130.2V124.86H376.5H382.677V130.2ZM533.277 130.2V135.54H527.1H520.923V130.2V124.86H527.1H533.277V130.2ZM683.877 130.2V135.54H677.7H671.523V130.2V124.86H677.7H683.877V130.2ZM82.0064 138.694C82.1241 139.202 82.477 140.626 82.6535 141.898C83.3006 145.407 86.1832 152.578 88.5952 156.749C95.4192 168.446 106.361 177.906 119.892 183.806C124.716 185.891 133.01 188.383 137.07 188.943C142.129 189.604 141.776 189.146 141.776 195.3C141.776 201.454 142.129 200.996 137.07 201.657C125.598 203.234 110.185 210.456 101.067 218.543C92.066 226.579 84.3595 239.192 82.6535 248.702C81.8888 253.076 82.4182 252.771 75.3 252.771C68.1818 252.771 68.7113 253.076 67.9465 248.702C67.2406 244.786 64.1815 237.462 61.2401 232.682C54.4748 221.543 44.5917 212.999 31.9437 207.354C26.2962 204.862 18.0014 202.268 13.5305 201.657C8.47125 200.996 8.82422 201.454 8.82422 195.3C8.82422 189.146 8.47125 189.604 13.5305 188.943C17.5896 188.383 25.8844 185.891 30.7083 183.806C44.2388 177.906 55.1808 168.446 62.0048 156.749C64.4168 152.578 67.2994 145.407 67.9465 141.898C68.7113 137.524 68.1818 137.829 75.3 137.829C80.8887 137.829 81.7123 137.931 82.0064 138.694ZM232.606 138.694C232.724 139.202 233.077 140.626 233.254 141.898C233.901 145.407 236.783 152.578 239.195 156.749C246.019 168.446 256.961 177.906 270.492 183.806C275.316 185.891 283.61 188.383 287.67 188.943C292.729 189.604 292.376 189.146 292.376 195.3C292.376 201.454 292.729 200.996 287.67 201.657C276.198 203.234 260.785 210.456 251.667 218.543C242.666 226.579 234.96 239.192 233.254 248.702C232.489 253.076 233.018 252.771 225.9 252.771C218.782 252.771 219.311 253.076 218.547 248.702C217.841 244.786 214.782 237.462 211.84 232.682C205.075 221.543 195.192 212.999 182.544 207.354C176.896 204.862 168.601 202.268 164.13 201.657C159.071 200.996 159.424 201.454 159.424 195.3C159.424 189.146 159.071 189.604 164.13 188.943C168.19 188.383 176.484 185.891 181.308 183.806C194.839 177.906 205.781 168.446 212.605 156.749C215.017 152.578 217.899 145.407 218.547 141.898C219.311 137.524 218.782 137.829 225.9 137.829C231.489 137.829 232.312 137.931 232.606 138.694ZM383.206 138.694C383.324 139.202 383.677 140.626 383.854 141.898C384.501 145.407 387.383 152.578 389.795 156.749C396.619 168.446 407.561 177.906 421.092 183.806C425.916 185.891 434.21 188.383 438.27 188.943C443.329 189.604 442.976 189.146 442.976 195.3C442.976 201.454 443.329 200.996 438.27 201.657C426.798 203.234 411.385 210.456 402.267 218.543C393.266 226.579 385.56 239.192 383.854 248.702C383.089 253.076 383.618 252.771 376.5 252.771C369.382 252.771 369.911 253.076 369.147 248.702C368.441 244.786 365.382 237.462 362.44 232.682C355.675 221.543 345.792 212.999 333.144 207.354C327.496 204.862 319.201 202.268 314.73 201.657C309.671 200.996 310.024 201.454 310.024 195.3C310.024 189.146 309.671 189.604 314.73 188.943C318.79 188.383 327.084 185.891 331.908 183.806C345.439 177.906 356.381 168.446 363.205 156.749C365.617 152.578 368.499 145.407 369.147 141.898C369.911 137.524 369.382 137.829 376.5 137.829C382.089 137.829 382.912 137.931 383.206 138.694ZM533.806 138.694C533.924 139.202 534.277 140.626 534.454 141.898C535.101 145.407 537.983 152.578 540.395 156.749C547.219 168.446 558.161 177.906 571.692 183.806C576.516 185.891 584.81 188.383 588.87 188.943C593.929 189.604 593.576 189.146 593.576 195.3C593.576 201.454 593.929 200.996 588.87 201.657C577.398 203.234 561.985 210.456 552.867 218.543C543.866 226.579 536.16 239.192 534.454 248.702C533.689 253.076 534.218 252.771 527.1 252.771C519.982 252.771 520.511 253.076 519.747 248.702C519.041 244.786 515.982 237.462 513.04 232.682C506.275 221.543 496.392 212.999 483.744 207.354C478.096 204.862 469.801 202.268 465.331 201.657C460.271 200.996 460.624 201.454 460.624 195.3C460.624 189.146 460.271 189.604 465.331 188.943C469.39 188.383 477.684 185.891 482.508 183.806C496.039 177.906 506.981 168.446 513.805 156.749C516.217 152.578 519.099 145.407 519.747 141.898C520.511 137.524 519.982 137.829 527.1 137.829C532.689 137.829 533.512 137.931 533.806 138.694ZM684.406 138.694C684.524 139.202 684.877 140.626 685.054 141.898C685.701 145.407 688.583 152.578 690.995 156.749C697.819 168.446 708.761 177.906 722.292 183.806C727.116 185.891 735.41 188.383 739.47 188.943C744.529 189.604 744.176 189.146 744.176 195.3C744.176 201.454 744.529 200.996 739.47 201.657C727.998 203.234 712.585 210.456 703.467 218.543C694.466 226.579 686.76 239.192 685.054 248.702C684.289 253.076 684.818 252.771 677.7 252.771C670.582 252.771 671.111 253.076 670.347 248.702C669.641 244.786 666.582 237.462 663.64 232.682C656.875 221.543 646.992 212.999 634.344 207.354C628.696 204.862 620.401 202.268 615.931 201.657C610.871 200.996 611.224 201.454 611.224 195.3C611.224 189.146 610.871 189.604 615.931 188.943C619.99 188.383 628.284 185.891 633.108 183.806C646.639 177.906 657.581 168.446 664.405 156.749C666.817 152.578 669.699 145.407 670.347 141.898C671.111 137.524 670.582 137.829 677.7 137.829C683.289 137.829 684.112 137.931 684.406 138.694ZM65.4757 140.219C64.8286 143.983 62.299 150.747 60.0047 154.816C56.7691 160.665 53.3571 164.937 48.2391 169.565C40.8267 176.279 33.3555 180.602 23.8254 183.806C18.8838 185.433 10.0596 187.366 9.53016 186.908C9.0007 186.45 12.4716 176.075 14.5894 171.956C23.0018 155.477 40.7679 142.966 61.2401 139.1C63.2991 138.744 65.1816 138.388 65.4169 138.388C65.6522 138.338 65.6522 139.202 65.4757 140.219ZM94.125 140.219C115.244 145.458 132.952 160.766 139.011 179.076C139.776 181.415 140.599 184.213 140.776 185.23C141.129 187.112 141.129 187.112 139.246 186.857C128.834 185.23 118.421 181.263 110.009 175.719C105.538 172.718 98.4195 166.208 95.4192 162.241C90.5365 155.884 86.3009 146.729 85.1243 140.27L84.8302 138.439L86.948 138.694C88.1245 138.846 91.3601 139.558 94.125 140.219ZM216.076 140.219C215.429 143.983 212.899 150.747 210.605 154.816C207.369 160.665 203.957 164.937 198.839 169.565C191.427 176.279 183.956 180.602 174.425 183.806C169.484 185.433 160.66 187.366 160.13 186.908C159.601 186.45 163.072 176.075 165.189 171.956C173.602 155.477 191.368 142.966 211.84 139.1C213.899 138.744 215.782 138.388 216.017 138.388C216.252 138.338 216.252 139.202 216.076 140.219ZM244.725 140.219C265.844 145.458 283.552 160.766 289.611 179.076C290.376 181.415 291.199 184.213 291.376 185.23C291.729 187.112 291.729 187.112 289.846 186.857C279.434 185.23 269.021 181.263 260.609 175.719C256.138 172.718 249.019 166.208 246.019 162.241C241.137 155.884 236.901 146.729 235.724 140.27L235.43 138.439L237.548 138.694C238.725 138.846 241.96 139.558 244.725 140.219ZM366.676 140.219C366.029 143.983 363.499 150.747 361.205 154.816C357.969 160.665 354.557 164.937 349.439 169.565C342.027 176.279 334.556 180.602 325.025 183.806C320.084 185.433 311.26 187.366 310.73 186.908C310.201 186.45 313.672 176.075 315.789 171.956C324.202 155.477 341.968 142.966 362.44 139.1C364.499 138.744 366.382 138.388 366.617 138.388C366.852 138.338 366.852 139.202 366.676 140.219ZM395.325 140.219C416.444 145.458 434.152 160.766 440.211 179.076C440.976 181.415 441.799 184.213 441.976 185.23C442.329 187.112 442.329 187.112 440.446 186.857C430.034 185.23 419.621 181.263 411.209 175.719C406.738 172.718 399.619 166.208 396.619 162.241C391.737 155.884 387.501 146.729 386.324 140.27L386.03 138.439L388.148 138.694C389.325 138.846 392.56 139.558 395.325 140.219ZM517.276 140.219C516.629 143.983 514.099 150.747 511.805 154.816C508.569 160.665 505.157 164.937 500.039 169.565C492.627 176.279 485.156 180.602 475.625 183.806C470.684 185.433 461.86 187.366 461.33 186.908C460.801 186.45 464.272 176.075 466.389 171.956C474.802 155.477 492.568 142.966 513.04 139.1C515.099 138.744 516.982 138.388 517.217 138.388C517.452 138.338 517.452 139.202 517.276 140.219ZM545.925 140.219C567.044 145.458 584.752 160.766 590.811 179.076C591.576 181.415 592.399 184.213 592.576 185.23C592.929 187.112 592.929 187.112 591.046 186.857C580.634 185.23 570.221 181.263 561.809 175.719C557.338 172.718 550.22 166.208 547.219 162.241C542.337 155.884 538.101 146.729 536.924 140.27L536.63 138.439L538.748 138.694C539.925 138.846 543.16 139.558 545.925 140.219ZM667.876 140.219C667.229 143.983 664.699 150.747 662.405 154.816C659.169 160.665 655.757 164.937 650.639 169.565C643.227 176.279 635.756 180.602 626.225 183.806C621.284 185.433 612.46 187.366 611.93 186.908C611.401 186.45 614.872 176.075 616.989 171.956C625.402 155.477 643.168 142.966 663.64 139.1C665.699 138.744 667.582 138.388 667.817 138.388C668.052 138.338 668.052 139.202 667.876 140.219ZM696.525 140.219C717.644 145.458 735.352 160.766 741.411 179.076C742.176 181.415 742.999 184.213 743.176 185.23C743.529 187.112 743.529 187.112 741.646 186.857C731.234 185.23 720.821 181.263 712.409 175.719C707.938 172.718 700.82 166.208 697.819 162.241C692.937 155.884 688.701 146.729 687.524 140.27L687.23 138.439L689.348 138.694C690.525 138.846 693.76 139.558 696.525 140.219ZM156.777 195.3V200.64H150.6H144.423V195.3V189.96H150.6H156.777V195.3ZM307.377 195.3V200.64H301.2H295.023V195.3V189.96H301.2H307.377V195.3ZM457.977 195.3V200.64H451.8H445.623V195.3V189.96H451.8H457.977V195.3ZM608.577 195.3V200.64H602.4H596.223V195.3V189.96H602.4H608.577V195.3ZM157.306 203.794C157.424 204.302 157.777 205.726 157.954 206.998C158.601 210.507 161.483 217.678 163.895 221.849C170.719 233.546 181.661 243.006 195.192 248.906C200.016 250.991 208.31 253.483 212.37 254.043C217.429 254.704 217.076 254.246 217.076 260.4C217.076 266.554 217.429 266.096 212.37 266.757C200.898 268.334 185.485 275.556 176.367 283.643C167.366 291.679 159.66 304.292 157.954 313.802C157.189 318.176 157.718 317.871 150.6 317.871C143.482 317.871 144.011 318.176 143.246 313.802C142.541 309.886 139.481 302.562 136.54 297.782C129.775 286.643 119.892 278.099 107.244 272.454C101.596 269.962 93.3014 267.368 88.8305 266.757C83.7713 266.096 84.1242 266.554 84.1242 260.4C84.1242 254.246 83.7713 254.704 88.8305 254.043C92.8896 253.483 101.184 250.991 106.008 248.906C119.539 243.006 130.481 233.546 137.305 221.849C139.717 217.678 142.599 210.507 143.246 206.998C144.011 202.624 143.482 202.929 150.6 202.929C156.189 202.929 157.012 203.031 157.306 203.794ZM307.906 203.794C308.024 204.302 308.377 205.726 308.554 206.998C309.201 210.507 312.083 217.678 314.495 221.849C321.319 233.546 332.261 243.006 345.792 248.906C350.616 250.991 358.91 253.483 362.97 254.043C368.029 254.704 367.676 254.246 367.676 260.4C367.676 266.554 368.029 266.096 362.97 266.757C351.498 268.334 336.085 275.556 326.967 283.643C317.966 291.679 310.26 304.292 308.554 313.802C307.789 318.176 308.318 317.871 301.2 317.871C294.082 317.871 294.611 318.176 293.847 313.802C293.141 309.886 290.082 302.562 287.14 297.782C280.375 286.643 270.492 278.099 257.844 272.454C252.196 269.962 243.901 267.368 239.43 266.757C234.371 266.096 234.724 266.554 234.724 260.4C234.724 254.246 234.371 254.704 239.43 254.043C243.49 253.483 251.784 250.991 256.608 248.906C270.139 243.006 281.081 233.546 287.905 221.849C290.317 217.678 293.199 210.507 293.847 206.998C294.611 202.624 294.082 202.929 301.2 202.929C306.789 202.929 307.612 203.031 307.906 203.794ZM458.506 203.794C458.624 204.302 458.977 205.726 459.154 206.998C459.801 210.507 462.683 217.678 465.095 221.849C471.919 233.546 482.861 243.006 496.392 248.906C501.216 250.991 509.51 253.483 513.57 254.043C518.629 254.704 518.276 254.246 518.276 260.4C518.276 266.554 518.629 266.096 513.57 266.757C502.098 268.334 486.685 275.556 477.567 283.643C468.566 291.679 460.86 304.292 459.154 313.802C458.389 318.176 458.918 317.871 451.8 317.871C444.682 317.871 445.211 318.176 444.447 313.802C443.741 309.886 440.682 302.562 437.74 297.782C430.975 286.643 421.092 278.099 408.444 272.454C402.796 269.962 394.501 267.368 390.031 266.757C384.971 266.096 385.324 266.554 385.324 260.4C385.324 254.246 384.971 254.704 390.031 254.043C394.09 253.483 402.384 250.991 407.208 248.906C420.739 243.006 431.681 233.546 438.505 221.849C440.917 217.678 443.799 210.507 444.447 206.998C445.211 202.624 444.682 202.929 451.8 202.929C457.389 202.929 458.212 203.031 458.506 203.794ZM609.106 203.794C609.224 204.302 609.577 205.726 609.754 206.998C610.401 210.507 613.283 217.678 615.695 221.849C622.519 233.546 633.461 243.006 646.992 248.906C651.816 250.991 660.11 253.483 664.17 254.043C669.229 254.704 668.876 254.246 668.876 260.4C668.876 266.554 669.229 266.096 664.17 266.757C652.698 268.334 637.285 275.556 628.167 283.643C619.166 291.679 611.46 304.292 609.754 313.802C608.989 318.176 609.518 317.871 602.4 317.871C595.282 317.871 595.811 318.176 595.047 313.802C594.341 309.886 591.282 302.562 588.34 297.782C581.575 286.643 571.692 278.099 559.044 272.454C553.396 269.962 545.101 267.368 540.631 266.757C535.571 266.096 535.924 266.554 535.924 260.4C535.924 254.246 535.571 254.704 540.631 254.043C544.69 253.483 552.984 250.991 557.808 248.906C571.339 243.006 582.281 233.546 589.105 221.849C591.517 217.678 594.399 210.507 595.047 206.998C595.811 202.624 595.282 202.929 602.4 202.929C607.989 202.929 608.812 203.031 609.106 203.794ZM18.825 205.319C39.9443 210.558 57.6516 225.866 63.7109 244.176C64.4756 246.515 65.2992 249.313 65.4757 250.33C65.8287 252.212 65.8287 252.212 63.9462 251.957C53.5336 250.33 43.121 246.363 34.7086 240.819C30.2377 237.818 23.1195 231.308 20.1192 227.341C15.2365 220.984 11.0009 211.829 9.8243 205.37L9.53016 203.539L11.648 203.794C12.8245 203.946 16.0601 204.658 18.825 205.319ZM140.776 205.319C140.129 209.083 137.599 215.847 135.305 219.916C132.069 225.765 128.657 230.037 123.539 234.665C116.127 241.379 108.656 245.702 99.1254 248.906C94.1838 250.533 85.3596 252.466 84.8302 252.008C84.3007 251.55 87.7716 241.175 89.8894 237.056C98.3018 220.577 116.068 208.066 136.54 204.2C138.599 203.844 140.482 203.488 140.717 203.488C140.952 203.438 140.952 204.302 140.776 205.319ZM169.425 205.319C190.544 210.558 208.252 225.866 214.311 244.176C215.076 246.515 215.899 249.313 216.076 250.33C216.429 252.212 216.429 252.212 214.546 251.957C204.134 250.33 193.721 246.363 185.309 240.819C180.838 237.818 173.719 231.308 170.719 227.341C165.836 220.984 161.601 211.829 160.424 205.37L160.13 203.539L162.248 203.794C163.425 203.946 166.66 204.658 169.425 205.319ZM291.376 205.319C290.729 209.083 288.199 215.847 285.905 219.916C282.669 225.765 279.257 230.037 274.139 234.665C266.727 241.379 259.256 245.702 249.725 248.906C244.784 250.533 235.96 252.466 235.43 252.008C234.901 251.55 238.372 241.175 240.489 237.056C248.902 220.577 266.668 208.066 287.14 204.2C289.199 203.844 291.082 203.488 291.317 203.488C291.552 203.438 291.552 204.302 291.376 205.319ZM320.025 205.319C341.144 210.558 358.852 225.866 364.911 244.176C365.676 246.515 366.499 249.313 366.676 250.33C367.029 252.212 367.029 252.212 365.146 251.957C354.734 250.33 344.321 246.363 335.909 240.819C331.438 237.818 324.319 231.308 321.319 227.341C316.437 220.984 312.201 211.829 311.024 205.37L310.73 203.539L312.848 203.794C314.025 203.946 317.26 204.658 320.025 205.319ZM441.976 205.319C441.329 209.083 438.799 215.847 436.505 219.916C433.269 225.765 429.857 230.037 424.739 234.665C417.327 241.379 409.856 245.702 400.325 248.906C395.384 250.533 386.56 252.466 386.03 252.008C385.501 251.55 388.972 241.175 391.089 237.056C399.502 220.577 417.268 208.066 437.74 204.2C439.799 203.844 441.682 203.488 441.917 203.488C442.152 203.438 442.152 204.302 441.976 205.319ZM470.625 205.319C491.744 210.558 509.452 225.866 515.511 244.176C516.276 246.515 517.099 249.313 517.276 250.33C517.629 252.212 517.629 252.212 515.746 251.957C505.334 250.33 494.921 246.363 486.509 240.819C482.038 237.818 474.919 231.308 471.919 227.341C467.037 220.984 462.801 211.829 461.624 205.37L461.33 203.539L463.448 203.794C464.625 203.946 467.86 204.658 470.625 205.319ZM592.576 205.319C591.929 209.083 589.399 215.847 587.105 219.916C583.869 225.765 580.457 230.037 575.339 234.665C567.927 241.379 560.456 245.702 550.925 248.906C545.984 250.533 537.16 252.466 536.63 252.008C536.101 251.55 539.572 241.175 541.689 237.056C550.102 220.577 567.868 208.066 588.34 204.2C590.399 203.844 592.282 203.488 592.517 203.488C592.752 203.438 592.752 204.302 592.576 205.319ZM621.225 205.319C642.344 210.558 660.052 225.866 666.111 244.176C666.876 246.515 667.699 249.313 667.876 250.33C668.229 252.212 668.229 252.212 666.346 251.957C655.934 250.33 645.521 246.363 637.109 240.819C632.638 237.818 625.52 231.308 622.519 227.341C617.637 220.984 613.401 211.829 612.224 205.37L611.93 203.539L614.048 203.794C615.225 203.946 618.46 204.658 621.225 205.319ZM743.176 205.319C742.529 209.083 739.999 215.847 737.705 219.916C734.469 225.765 731.057 230.037 725.939 234.665C718.527 241.379 711.056 245.702 701.525 248.906C696.584 250.533 687.76 252.466 687.23 252.008C686.701 251.55 690.172 241.175 692.289 237.056C700.702 220.577 718.468 208.066 738.94 204.2C740.999 203.844 742.882 203.488 743.117 203.488C743.352 203.438 743.352 204.302 743.176 205.319ZM81.477 260.4V265.74H75.3H69.1231V260.4V255.06H75.3H81.477V260.4ZM232.077 260.4V265.74H225.9H219.723V260.4V255.06H225.9H232.077V260.4ZM382.677 260.4V265.74H376.5H370.323V260.4V255.06H376.5H382.677V260.4ZM533.277 260.4V265.74H527.1H520.923V260.4V255.06H527.1H533.277V260.4ZM683.877 260.4V265.74H677.7H671.523V260.4V255.06H677.7H683.877V260.4ZM82.0064 268.894C82.1241 269.402 82.477 270.826 82.6535 272.098C83.3006 275.607 86.1832 282.778 88.5952 286.949C95.4192 298.646 106.361 308.106 119.892 314.006C124.716 316.091 133.01 318.583 137.07 319.143C142.129 319.804 141.776 319.346 141.776 325.5C141.776 331.654 142.129 331.196 137.07 331.857C125.598 333.434 110.185 340.656 101.067 348.743C92.066 356.779 84.3595 369.392 82.6535 378.902C81.8888 383.276 82.4182 382.971 75.3 382.971C68.1818 382.971 68.7113 383.276 67.9465 378.902C67.2406 374.986 64.1815 367.662 61.2401 362.882C54.4748 351.743 44.5917 343.199 31.9437 337.554C26.2962 335.062 18.0014 332.468 13.5305 331.857C8.47125 331.196 8.82422 331.654 8.82422 325.5C8.82422 319.346 8.47125 319.804 13.5305 319.143C17.5896 318.583 25.8844 316.091 30.7083 314.006C44.2388 308.106 55.1808 298.646 62.0048 286.949C64.4168 282.778 67.2994 275.607 67.9465 272.098C68.7113 267.724 68.1818 268.029 75.3 268.029C80.8887 268.029 81.7123 268.131 82.0064 268.894ZM232.606 268.894C232.724 269.402 233.077 270.826 233.254 272.098C233.901 275.607 236.783 282.778 239.195 286.949C246.019 298.646 256.961 308.106 270.492 314.006C275.316 316.091 283.61 318.583 287.67 319.143C292.729 319.804 292.376 319.346 292.376 325.5C292.376 331.654 292.729 331.196 287.67 331.857C276.198 333.434 260.785 340.656 251.667 348.743C242.666 356.779 234.96 369.392 233.254 378.902C232.489 383.276 233.018 382.971 225.9 382.971C218.782 382.971 219.311 383.276 218.547 378.902C217.841 374.986 214.782 367.662 211.84 362.882C205.075 351.743 195.192 343.199 182.544 337.554C176.896 335.062 168.601 332.468 164.13 331.857C159.071 331.196 159.424 331.654 159.424 325.5C159.424 319.346 159.071 319.804 164.13 319.143C168.19 318.583 176.484 316.091 181.308 314.006C194.839 308.106 205.781 298.646 212.605 286.949C215.017 282.778 217.899 275.607 218.547 272.098C219.311 267.724 218.782 268.029 225.9 268.029C231.489 268.029 232.312 268.131 232.606 268.894ZM383.206 268.894C383.324 269.402 383.677 270.826 383.854 272.098C384.501 275.607 387.383 282.778 389.795 286.949C396.619 298.646 407.561 308.106 421.092 314.006C425.916 316.091 434.21 318.583 438.27 319.143C443.329 319.804 442.976 319.346 442.976 325.5C442.976 331.654 443.329 331.196 438.27 331.857C426.798 333.434 411.385 340.656 402.267 348.743C393.266 356.779 385.56 369.392 383.854 378.902C383.089 383.276 383.618 382.971 376.5 382.971C369.382 382.971 369.911 383.276 369.147 378.902C368.441 374.986 365.382 367.662 362.44 362.882C355.675 351.743 345.792 343.199 333.144 337.554C327.496 335.062 319.201 332.468 314.73 331.857C309.671 331.196 310.024 331.654 310.024 325.5C310.024 319.346 309.671 319.804 314.73 319.143C318.79 318.583 327.084 316.091 331.908 314.006C345.439 308.106 356.381 298.646 363.205 286.949C365.617 282.778 368.499 275.607 369.147 272.098C369.911 267.724 369.382 268.029 376.5 268.029C382.089 268.029 382.912 268.131 383.206 268.894ZM533.806 268.894C533.924 269.402 534.277 270.826 534.454 272.098C535.101 275.607 537.983 282.778 540.395 286.949C547.219 298.646 558.161 308.106 571.692 314.006C576.516 316.091 584.81 318.583 588.87 319.143C593.929 319.804 593.576 319.346 593.576 325.5C593.576 331.654 593.929 331.196 588.87 331.857C577.398 333.434 561.985 340.656 552.867 348.743C543.866 356.779 536.16 369.392 534.454 378.902C533.689 383.276 534.218 382.971 527.1 382.971C519.982 382.971 520.511 383.276 519.747 378.902C519.041 374.986 515.982 367.662 513.04 362.882C506.275 351.743 496.392 343.199 483.744 337.554C478.096 335.062 469.801 332.468 465.331 331.857C460.271 331.196 460.624 331.654 460.624 325.5C460.624 319.346 460.271 319.804 465.331 319.143C469.39 318.583 477.684 316.091 482.508 314.006C496.039 308.106 506.981 298.646 513.805 286.949C516.217 282.778 519.099 275.607 519.747 272.098C520.511 267.724 519.982 268.029 527.1 268.029C532.689 268.029 533.512 268.131 533.806 268.894ZM684.406 268.894C684.524 269.402 684.877 270.826 685.054 272.098C685.701 275.607 688.583 282.778 690.995 286.949C697.819 298.646 708.761 308.106 722.292 314.006C727.116 316.091 735.41 318.583 739.47 319.143C744.529 319.804 744.176 319.346 744.176 325.5C744.176 331.654 744.529 331.196 739.47 331.857C727.998 333.434 712.585 340.656 703.467 348.743C694.466 356.779 686.76 369.392 685.054 378.902C684.289 383.276 684.818 382.971 677.7 382.971C670.582 382.971 671.111 383.276 670.347 378.902C669.641 374.986 666.582 367.662 663.64 362.882C656.875 351.743 646.992 343.199 634.344 337.554C628.696 335.062 620.401 332.468 615.931 331.857C610.871 331.196 611.224 331.654 611.224 325.5C611.224 319.346 610.871 319.804 615.931 319.143C619.99 318.583 628.284 316.091 633.108 314.006C646.639 308.106 657.581 298.646 664.405 286.949C666.817 282.778 669.699 275.607 670.347 272.098C671.111 267.724 670.582 268.029 677.7 268.029C683.289 268.029 684.112 268.131 684.406 268.894ZM65.4757 270.419C64.8286 274.183 62.299 280.947 60.0047 285.016C56.7691 290.865 53.3571 295.137 48.2391 299.765C40.8267 306.479 33.3555 310.802 23.8254 314.006C18.8838 315.633 10.0596 317.566 9.53016 317.108C9.0007 316.65 12.4716 306.275 14.5894 302.156C23.0018 285.677 40.7679 273.166 61.2401 269.3C63.2991 268.944 65.1816 268.588 65.4169 268.588C65.6522 268.538 65.6522 269.402 65.4757 270.419ZM94.125 270.419C115.244 275.658 132.952 290.967 139.011 309.276C139.776 311.615 140.599 314.413 140.776 315.43C141.129 317.312 141.129 317.312 139.246 317.057C128.834 315.43 118.421 311.463 110.009 305.919C105.538 302.918 98.4195 296.408 95.4192 292.441C90.5365 286.084 86.3009 276.929 85.1243 270.47L84.8302 268.639L86.948 268.894C88.1245 269.046 91.3601 269.758 94.125 270.419ZM216.076 270.419C215.429 274.183 212.899 280.947 210.605 285.016C207.369 290.865 203.957 295.137 198.839 299.765C191.427 306.479 183.956 310.802 174.425 314.006C169.484 315.633 160.66 317.566 160.13 317.108C159.601 316.65 163.072 306.275 165.189 302.156C173.602 285.677 191.368 273.166 211.84 269.3C213.899 268.944 215.782 268.588 216.017 268.588C216.252 268.538 216.252 269.402 216.076 270.419ZM244.725 270.419C265.844 275.658 283.552 290.967 289.611 309.276C290.376 311.615 291.199 314.413 291.376 315.43C291.729 317.312 291.729 317.312 289.846 317.057C279.434 315.43 269.021 311.463 260.609 305.919C256.138 302.918 249.019 296.408 246.019 292.441C241.137 286.084 236.901 276.929 235.724 270.47L235.43 268.639L237.548 268.894C238.725 269.046 241.96 269.758 244.725 270.419ZM366.676 270.419C366.029 274.183 363.499 280.947 361.205 285.016C357.969 290.865 354.557 295.137 349.439 299.765C342.027 306.479 334.556 310.802 325.025 314.006C320.084 315.633 311.26 317.566 310.73 317.108C310.201 316.65 313.672 306.275 315.789 302.156C324.202 285.677 341.968 273.166 362.44 269.3C364.499 268.944 366.382 268.588 366.617 268.588C366.852 268.538 366.852 269.402 366.676 270.419ZM395.325 270.419C416.444 275.658 434.152 290.967 440.211 309.276C440.976 311.615 441.799 314.413 441.976 315.43C442.329 317.312 442.329 317.312 440.446 317.057C430.034 315.43 419.621 311.463 411.209 305.919C406.738 302.918 399.619 296.408 396.619 292.441C391.737 286.084 387.501 276.929 386.324 270.47L386.03 268.639L388.148 268.894C389.325 269.046 392.56 269.758 395.325 270.419ZM517.276 270.419C516.629 274.183 514.099 280.947 511.805 285.016C508.569 290.865 505.157 295.137 500.039 299.765C492.627 306.479 485.156 310.802 475.625 314.006C470.684 315.633 461.86 317.566 461.33 317.108C460.801 316.65 464.272 306.275 466.389 302.156C474.802 285.677 492.568 273.166 513.04 269.3C515.099 268.944 516.982 268.588 517.217 268.588C517.452 268.538 517.452 269.402 517.276 270.419ZM545.925 270.419C567.044 275.658 584.752 290.967 590.811 309.276C591.576 311.615 592.399 314.413 592.576 315.43C592.929 317.312 592.929 317.312 591.046 317.057C580.634 315.43 570.221 311.463 561.809 305.919C557.338 302.918 550.22 296.408 547.219 292.441C542.337 286.084 538.101 276.929 536.924 270.47L536.63 268.639L538.748 268.894C539.925 269.046 543.16 269.758 545.925 270.419ZM667.876 270.419C667.229 274.183 664.699 280.947 662.405 285.016C659.169 290.865 655.757 295.137 650.639 299.765C643.227 306.479 635.756 310.802 626.225 314.006C621.284 315.633 612.46 317.566 611.93 317.108C611.401 316.65 614.872 306.275 616.989 302.156C625.402 285.677 643.168 273.166 663.64 269.3C665.699 268.944 667.582 268.588 667.817 268.588C668.052 268.538 668.052 269.402 667.876 270.419ZM696.525 270.419C717.644 275.658 735.352 290.967 741.411 309.276C742.176 311.615 742.999 314.413 743.176 315.43C743.529 317.312 743.529 317.312 741.646 317.057C731.234 315.43 720.821 311.463 712.409 305.919C707.938 302.918 700.82 296.408 697.819 292.441C692.937 286.084 688.701 276.929 687.524 270.47L687.23 268.639L689.348 268.894C690.525 269.046 693.76 269.758 696.525 270.419ZM156.777 325.5V330.84H150.6H144.423V325.5V320.16H150.6H156.777V325.5ZM307.377 325.5V330.84H301.2H295.023V325.5V320.16H301.2H307.377V325.5ZM457.977 325.5V330.84H451.8H445.623V325.5V320.16H451.8H457.977V325.5ZM608.577 325.5V330.84H602.4H596.223V325.5V320.16H602.4H608.577V325.5ZM157.306 333.994C157.424 334.502 157.777 335.926 157.954 337.198C158.601 340.707 161.483 347.878 163.895 352.049C170.719 363.746 181.661 373.206 195.192 379.106C200.016 381.191 208.31 383.683 212.37 384.243C217.429 384.904 217.076 384.446 217.076 390.6C217.076 396.754 217.429 396.296 212.37 396.957C200.898 398.534 185.485 405.756 176.367 413.843C167.366 421.879 159.66 434.492 157.954 444.002C157.189 448.376 157.718 448.071 150.6 448.071C143.482 448.071 144.011 448.376 143.246 444.002C142.541 440.086 139.481 432.762 136.54 427.982C129.775 416.843 119.892 408.299 107.244 402.654C101.596 400.162 93.3014 397.568 88.8305 396.957C83.7713 396.296 84.1242 396.754 84.1242 390.6C84.1242 384.446 83.7713 384.904 88.8305 384.243C92.8896 383.683 101.184 381.191 106.008 379.106C119.539 373.206 130.481 363.746 137.305 352.049C139.717 347.878 142.599 340.707 143.246 337.198C144.011 332.824 143.482 333.129 150.6 333.129C156.189 333.129 157.012 333.231 157.306 333.994ZM307.906 333.994C308.024 334.502 308.377 335.926 308.554 337.198C309.201 340.707 312.083 347.878 314.495 352.049C321.319 363.746 332.261 373.206 345.792 379.106C350.616 381.191 358.91 383.683 362.97 384.243C368.029 384.904 367.676 384.446 367.676 390.6C367.676 396.754 368.029 396.296 362.97 396.957C351.498 398.534 336.085 405.756 326.967 413.843C317.966 421.879 310.26 434.492 308.554 444.002C307.789 448.376 308.318 448.071 301.2 448.071C294.082 448.071 294.611 448.376 293.847 444.002C293.141 440.086 290.082 432.762 287.14 427.982C280.375 416.843 270.492 408.299 257.844 402.654C252.196 400.162 243.901 397.568 239.43 396.957C234.371 396.296 234.724 396.754 234.724 390.6C234.724 384.446 234.371 384.904 239.43 384.243C243.49 383.683 251.784 381.191 256.608 379.106C270.139 373.206 281.081 363.746 287.905 352.049C290.317 347.878 293.199 340.707 293.847 337.198C294.611 332.824 294.082 333.129 301.2 333.129C306.789 333.129 307.612 333.231 307.906 333.994ZM458.506 333.994C458.624 334.502 458.977 335.926 459.154 337.198C459.801 340.707 462.683 347.878 465.095 352.049C471.919 363.746 482.861 373.206 496.392 379.106C501.216 381.191 509.51 383.683 513.57 384.243C518.629 384.904 518.276 384.446 518.276 390.6C518.276 396.754 518.629 396.296 513.57 396.957C502.098 398.534 486.685 405.756 477.567 413.843C468.566 421.879 460.86 434.492 459.154 444.002C458.389 448.376 458.918 448.071 451.8 448.071C444.682 448.071 445.211 448.376 444.447 444.002C443.741 440.086 440.682 432.762 437.74 427.982C430.975 416.843 421.092 408.299 408.444 402.654C402.796 400.162 394.501 397.568 390.031 396.957C384.971 396.296 385.324 396.754 385.324 390.6C385.324 384.446 384.971 384.904 390.031 384.243C394.09 383.683 402.384 381.191 407.208 379.106C420.739 373.206 431.681 363.746 438.505 352.049C440.917 347.878 443.799 340.707 444.447 337.198C445.211 332.824 444.682 333.129 451.8 333.129C457.389 333.129 458.212 333.231 458.506 333.994ZM609.106 333.994C609.224 334.502 609.577 335.926 609.754 337.198C610.401 340.707 613.283 347.878 615.695 352.049C622.519 363.746 633.461 373.206 646.992 379.106C651.816 381.191 660.11 383.683 664.17 384.243C669.229 384.904 668.876 384.446 668.876 390.6C668.876 396.754 669.229 396.296 664.17 396.957C652.698 398.534 637.285 405.756 628.167 413.843C619.166 421.879 611.46 434.492 609.754 444.002C608.989 448.376 609.518 448.071 602.4 448.071C595.282 448.071 595.811 448.376 595.047 444.002C594.341 440.086 591.282 432.762 588.34 427.982C581.575 416.843 571.692 408.299 559.044 402.654C553.396 400.162 545.101 397.568 540.631 396.957C535.571 396.296 535.924 396.754 535.924 390.6C535.924 384.446 535.571 384.904 540.631 384.243C544.69 383.683 552.984 381.191 557.808 379.106C571.339 373.206 582.281 363.746 589.105 352.049C591.517 347.878 594.399 340.707 595.047 337.198C595.811 332.824 595.282 333.129 602.4 333.129C607.989 333.129 608.812 333.231 609.106 333.994ZM18.825 335.519C39.9443 340.758 57.6516 356.067 63.7109 374.376C64.4756 376.715 65.2992 379.513 65.4757 380.53C65.8287 382.412 65.8287 382.412 63.9462 382.157C53.5336 380.53 43.121 376.563 34.7086 371.019C30.2377 368.018 23.1195 361.508 20.1192 357.541C15.2365 351.184 11.0009 342.029 9.8243 335.57L9.53016 333.739L11.648 333.994C12.8245 334.146 16.0601 334.858 18.825 335.519ZM140.776 335.519C140.129 339.283 137.599 346.047 135.305 350.116C132.069 355.965 128.657 360.237 123.539 364.865C116.127 371.579 108.656 375.902 99.1254 379.106C94.1838 380.733 85.3596 382.666 84.8302 382.208C84.3007 381.751 87.7716 371.375 89.8894 367.256C98.3018 350.777 116.068 338.266 136.54 334.4C138.599 334.044 140.482 333.688 140.717 333.688C140.952 333.638 140.952 334.502 140.776 335.519ZM169.425 335.519C190.544 340.758 208.252 356.067 214.311 374.376C215.076 376.715 215.899 379.513 216.076 380.53C216.429 382.412 216.429 382.412 214.546 382.157C204.134 380.53 193.721 376.563 185.309 371.019C180.838 368.018 173.719 361.508 170.719 357.541C165.836 351.184 161.601 342.029 160.424 335.57L160.13 333.739L162.248 333.994C163.425 334.146 166.66 334.858 169.425 335.519ZM291.376 335.519C290.729 339.283 288.199 346.047 285.905 350.116C282.669 355.965 279.257 360.237 274.139 364.865C266.727 371.579 259.256 375.902 249.725 379.106C244.784 380.733 235.96 382.666 235.43 382.208C234.901 381.751 238.372 371.375 240.489 367.256C248.902 350.777 266.668 338.266 287.14 334.4C289.199 334.044 291.082 333.688 291.317 333.688C291.552 333.638 291.552 334.502 291.376 335.519ZM320.025 335.519C341.144 340.758 358.852 356.067 364.911 374.376C365.676 376.715 366.499 379.513 366.676 380.53C367.029 382.412 367.029 382.412 365.146 382.157C354.734 380.53 344.321 376.563 335.909 371.019C331.438 368.018 324.319 361.508 321.319 357.541C316.437 351.184 312.201 342.029 311.024 335.57L310.73 333.739L312.848 333.994C314.025 334.146 317.26 334.858 320.025 335.519ZM441.976 335.519C441.329 339.283 438.799 346.047 436.505 350.116C433.269 355.965 429.857 360.237 424.739 364.865C417.327 371.579 409.856 375.902 400.325 379.106C395.384 380.733 386.56 382.666 386.03 382.208C385.501 381.751 388.972 371.375 391.089 367.256C399.502 350.777 417.268 338.266 437.74 334.4C439.799 334.044 441.682 333.688 441.917 333.688C442.152 333.638 442.152 334.502 441.976 335.519ZM470.625 335.519C491.744 340.758 509.452 356.067 515.511 374.376C516.276 376.715 517.099 379.513 517.276 380.53C517.629 382.412 517.629 382.412 515.746 382.157C505.334 380.53 494.921 376.563 486.509 371.019C482.038 368.018 474.919 361.508 471.919 357.541C467.037 351.184 462.801 342.029 461.624 335.57L461.33 333.739L463.448 333.994C464.625 334.146 467.86 334.858 470.625 335.519ZM592.576 335.519C591.929 339.283 589.399 346.047 587.105 350.116C583.869 355.965 580.457 360.237 575.339 364.865C567.927 371.579 560.456 375.902 550.925 379.106C545.984 380.733 537.16 382.666 536.63 382.208C536.101 381.751 539.572 371.375 541.689 367.256C550.102 350.777 567.868 338.266 588.34 334.4C590.399 334.044 592.282 333.688 592.517 333.688C592.752 333.638 592.752 334.502 592.576 335.519ZM621.225 335.519C642.344 340.758 660.052 356.067 666.111 374.376C666.876 376.715 667.699 379.513 667.876 380.53C668.229 382.412 668.229 382.412 666.346 382.157C655.934 380.53 645.521 376.563 637.109 371.019C632.638 368.018 625.52 361.508 622.519 357.541C617.637 351.184 613.401 342.029 612.224 335.57L611.93 333.739L614.048 333.994C615.225 334.146 618.46 334.858 621.225 335.519ZM743.176 335.519C742.529 339.283 739.999 346.047 737.705 350.116C734.469 355.965 731.057 360.237 725.939 364.865C718.527 371.579 711.056 375.902 701.525 379.106C696.584 380.733 687.76 382.666 687.23 382.208C686.701 381.751 690.172 371.375 692.289 367.256C700.702 350.777 718.468 338.266 738.94 334.4C740.999 334.044 742.882 333.688 743.117 333.688C743.352 333.638 743.352 334.502 743.176 335.519ZM81.477 390.6V395.94H75.3H69.1231V390.6V385.26H75.3H81.477V390.6ZM232.077 390.6V395.94H225.9H219.723V390.6V385.26H225.9H232.077V390.6ZM382.677 390.6V395.94H376.5H370.323V390.6V385.26H376.5H382.677V390.6ZM533.277 390.6V395.94H527.1H520.923V390.6V385.26H527.1H533.277V390.6ZM683.877 390.6V395.94H677.7H671.523V390.6V385.26H677.7H683.877V390.6ZM82.0064 399.094C82.1241 399.602 82.477 401.026 82.6535 402.298C83.3006 405.807 86.1832 412.978 88.5952 417.149C95.4192 428.846 106.361 438.306 119.892 444.206C124.716 446.291 133.01 448.783 137.07 449.343C142.129 450.004 141.776 449.546 141.776 455.7C141.776 461.854 142.129 461.396 137.07 462.057C125.598 463.634 110.185 470.856 101.067 478.943C92.066 486.979 84.3595 499.592 82.6535 509.102C81.8888 513.476 82.4182 513.171 75.3 513.171C68.1818 513.171 68.7113 513.476 67.9465 509.102C67.2406 505.186 64.1815 497.862 61.2401 493.082C54.4748 481.943 44.5917 473.399 31.9437 467.754C26.2962 465.262 18.0014 462.668 13.5305 462.057C8.47125 461.396 8.82422 461.854 8.82422 455.7C8.82422 449.546 8.47125 450.004 13.5305 449.343C17.5896 448.783 25.8844 446.291 30.7083 444.206C44.2388 438.306 55.1808 428.846 62.0048 417.149C64.4168 412.978 67.2994 405.807 67.9465 402.298C68.7113 397.924 68.1818 398.229 75.3 398.229C80.8887 398.229 81.7123 398.331 82.0064 399.094ZM232.606 399.094C232.724 399.602 233.077 401.026 233.254 402.298C233.901 405.807 236.783 412.978 239.195 417.149C246.019 428.846 256.961 438.306 270.492 444.206C275.316 446.291 283.61 448.783 287.67 449.343C292.729 450.004 292.376 449.546 292.376 455.7C292.376 461.854 292.729 461.396 287.67 462.057C276.198 463.634 260.785 470.856 251.667 478.943C242.666 486.979 234.96 499.592 233.254 509.102C232.489 513.476 233.018 513.171 225.9 513.171C218.782 513.171 219.311 513.476 218.547 509.102C217.841 505.186 214.782 497.862 211.84 493.082C205.075 481.943 195.192 473.399 182.544 467.754C176.896 465.262 168.601 462.668 164.13 462.057C159.071 461.396 159.424 461.854 159.424 455.7C159.424 449.546 159.071 450.004 164.13 449.343C168.19 448.783 176.484 446.291 181.308 444.206C194.839 438.306 205.781 428.846 212.605 417.149C215.017 412.978 217.899 405.807 218.547 402.298C219.311 397.924 218.782 398.229 225.9 398.229C231.489 398.229 232.312 398.331 232.606 399.094ZM383.206 399.094C383.324 399.602 383.677 401.026 383.854 402.298C384.501 405.807 387.383 412.978 389.795 417.149C396.619 428.846 407.561 438.306 421.092 444.206C425.916 446.291 434.21 448.783 438.27 449.343C443.329 450.004 442.976 449.546 442.976 455.7C442.976 461.854 443.329 461.396 438.27 462.057C426.798 463.634 411.385 470.856 402.267 478.943C393.266 486.979 385.56 499.592 383.854 509.102C383.089 513.476 383.618 513.171 376.5 513.171C369.382 513.171 369.911 513.476 369.147 509.102C368.441 505.186 365.382 497.862 362.44 493.082C355.675 481.943 345.792 473.399 333.144 467.754C327.496 465.262 319.201 462.668 314.73 462.057C309.671 461.396 310.024 461.854 310.024 455.7C310.024 449.546 309.671 450.004 314.73 449.343C318.79 448.783 327.084 446.291 331.908 444.206C345.439 438.306 356.381 428.846 363.205 417.149C365.617 412.978 368.499 405.807 369.147 402.298C369.911 397.924 369.382 398.229 376.5 398.229C382.089 398.229 382.912 398.331 383.206 399.094ZM533.806 399.094C533.924 399.602 534.277 401.026 534.454 402.298C535.101 405.807 537.983 412.978 540.395 417.149C547.219 428.846 558.161 438.306 571.692 444.206C576.516 446.291 584.81 448.783 588.87 449.343C593.929 450.004 593.576 449.546 593.576 455.7C593.576 461.854 593.929 461.396 588.87 462.057C577.398 463.634 561.985 470.856 552.867 478.943C543.866 486.979 536.16 499.592 534.454 509.102C533.689 513.476 534.218 513.171 527.1 513.171C519.982 513.171 520.511 513.476 519.747 509.102C519.041 505.186 515.982 497.862 513.04 493.082C506.275 481.943 496.392 473.399 483.744 467.754C478.096 465.262 469.801 462.668 465.331 462.057C460.271 461.396 460.624 461.854 460.624 455.7C460.624 449.546 460.271 450.004 465.331 449.343C469.39 448.783 477.684 446.291 482.508 444.206C496.039 438.306 506.981 428.846 513.805 417.149C516.217 412.978 519.099 405.807 519.747 402.298C520.511 397.924 519.982 398.229 527.1 398.229C532.689 398.229 533.512 398.331 533.806 399.094ZM684.406 399.094C684.524 399.602 684.877 401.026 685.054 402.298C685.701 405.807 688.583 412.978 690.995 417.149C697.819 428.846 708.761 438.306 722.292 444.206C727.116 446.291 735.41 448.783 739.47 449.343C744.529 450.004 744.176 449.546 744.176 455.7C744.176 461.854 744.529 461.396 739.47 462.057C727.998 463.634 712.585 470.856 703.467 478.943C694.466 486.979 686.76 499.592 685.054 509.102C684.289 513.476 684.818 513.171 677.7 513.171C670.582 513.171 671.111 513.476 670.347 509.102C669.641 505.186 666.582 497.862 663.64 493.082C656.875 481.943 646.992 473.399 634.344 467.754C628.696 465.262 620.401 462.668 615.931 462.057C610.871 461.396 611.224 461.854 611.224 455.7C611.224 449.546 610.871 450.004 615.931 449.343C619.99 448.783 628.284 446.291 633.108 444.206C646.639 438.306 657.581 428.846 664.405 417.149C666.817 412.978 669.699 405.807 670.347 402.298C671.111 397.924 670.582 398.229 677.7 398.229C683.289 398.229 684.112 398.331 684.406 399.094ZM65.4757 400.619C64.8286 404.383 62.299 411.147 60.0047 415.216C56.7691 421.065 53.3571 425.337 48.2391 429.965C40.8267 436.679 33.3555 441.002 23.8254 444.206C18.8838 445.833 10.0596 447.766 9.53016 447.308C9.0007 446.851 12.4716 436.475 14.5894 432.356C23.0018 415.877 40.7679 403.366 61.2401 399.5C63.2991 399.144 65.1816 398.788 65.4169 398.788C65.6522 398.738 65.6522 399.602 65.4757 400.619ZM94.125 400.619C115.244 405.858 132.952 421.167 139.011 439.476C139.776 441.815 140.599 444.613 140.776 445.63C141.129 447.512 141.129 447.512 139.246 447.257C128.834 445.63 118.421 441.663 110.009 436.119C105.538 433.118 98.4195 426.608 95.4192 422.641C90.5365 416.284 86.3009 407.129 85.1243 400.67L84.8302 398.839L86.948 399.094C88.1245 399.246 91.3601 399.958 94.125 400.619ZM216.076 400.619C215.429 404.383 212.899 411.147 210.605 415.216C207.369 421.065 203.957 425.337 198.839 429.965C191.427 436.679 183.956 441.002 174.425 444.206C169.484 445.833 160.66 447.766 160.13 447.308C159.601 446.851 163.072 436.475 165.189 432.356C173.602 415.877 191.368 403.366 211.84 399.5C213.899 399.144 215.782 398.788 216.017 398.788C216.252 398.738 216.252 399.602 216.076 400.619ZM244.725 400.619C265.844 405.858 283.552 421.167 289.611 439.476C290.376 441.815 291.199 444.613 291.376 445.63C291.729 447.512 291.729 447.512 289.846 447.257C279.434 445.63 269.021 441.663 260.609 436.119C256.138 433.118 249.019 426.608 246.019 422.641C241.137 416.284 236.901 407.129 235.724 400.67L235.43 398.839L237.548 399.094C238.725 399.246 241.96 399.958 244.725 400.619ZM366.676 400.619C366.029 404.383 363.499 411.147 361.205 415.216C357.969 421.065 354.557 425.337 349.439 429.965C342.027 436.679 334.556 441.002 325.025 444.206C320.084 445.833 311.26 447.766 310.73 447.308C310.201 446.851 313.672 436.475 315.789 432.356C324.202 415.877 341.968 403.366 362.44 399.5C364.499 399.144 366.382 398.788 366.617 398.788C366.852 398.738 366.852 399.602 366.676 400.619ZM395.325 400.619C416.444 405.858 434.152 421.167 440.211 439.476C440.976 441.815 441.799 444.613 441.976 445.63C442.329 447.512 442.329 447.512 440.446 447.257C430.034 445.63 419.621 441.663 411.209 436.119C406.738 433.118 399.619 426.608 396.619 422.641C391.737 416.284 387.501 407.129 386.324 400.67L386.03 398.839L388.148 399.094C389.325 399.246 392.56 399.958 395.325 400.619ZM517.276 400.619C516.629 404.383 514.099 411.147 511.805 415.216C508.569 421.065 505.157 425.337 500.039 429.965C492.627 436.679 485.156 441.002 475.625 444.206C470.684 445.833 461.86 447.766 461.33 447.308C460.801 446.851 464.272 436.475 466.389 432.356C474.802 415.877 492.568 403.366 513.04 399.5C515.099 399.144 516.982 398.788 517.217 398.788C517.452 398.738 517.452 399.602 517.276 400.619ZM545.925 400.619C567.044 405.858 584.752 421.167 590.811 439.476C591.576 441.815 592.399 444.613 592.576 445.63C592.929 447.512 592.929 447.512 591.046 447.257C580.634 445.63 570.221 441.663 561.809 436.119C557.338 433.118 550.22 426.608 547.219 422.641C542.337 416.284 538.101 407.129 536.924 400.67L536.63 398.839L538.748 399.094C539.925 399.246 543.16 399.958 545.925 400.619ZM667.876 400.619C667.229 404.383 664.699 411.147 662.405 415.216C659.169 421.065 655.757 425.337 650.639 429.965C643.227 436.679 635.756 441.002 626.225 444.206C621.284 445.833 612.46 447.766 611.93 447.308C611.401 446.851 614.872 436.475 616.989 432.356C625.402 415.877 643.168 403.366 663.64 399.5C665.699 399.144 667.582 398.788 667.817 398.788C668.052 398.738 668.052 399.602 667.876 400.619ZM696.525 400.619C717.644 405.858 735.352 421.167 741.411 439.476C742.176 441.815 742.999 444.613 743.176 445.63C743.529 447.512 743.529 447.512 741.646 447.257C731.234 445.63 720.821 441.663 712.409 436.119C707.938 433.118 700.82 426.608 697.819 422.641C692.937 416.284 688.701 407.129 687.524 400.67L687.23 398.839L689.348 399.094C690.525 399.246 693.76 399.958 696.525 400.619ZM156.777 455.7V461.04H150.6H144.423V455.7V450.36H150.6H156.777V455.7ZM307.377 455.7V461.04H301.2H295.023V455.7V450.36H301.2H307.377V455.7ZM457.977 455.7V461.04H451.8H445.623V455.7V450.36H451.8H457.977V455.7ZM608.577 455.7V461.04H602.4H596.223V455.7V450.36H602.4H608.577V455.7ZM157.306 464.194C157.424 464.702 157.777 466.126 157.954 467.398C158.601 470.907 161.483 478.078 163.895 482.249C170.719 493.946 181.661 503.406 195.192 509.306C200.016 511.391 208.31 513.883 212.37 514.443C217.429 515.104 217.076 514.646 217.076 520.8C217.076 526.954 217.429 526.496 212.37 527.157C200.898 528.734 185.485 535.956 176.367 544.043C167.366 552.079 159.66 564.692 157.954 574.202C157.189 578.576 157.718 578.271 150.6 578.271C143.482 578.271 144.011 578.576 143.246 574.202C142.541 570.286 139.481 562.962 136.54 558.182C129.775 547.043 119.892 538.499 107.244 532.854C101.596 530.362 93.3014 527.768 88.8305 527.157C83.7713 526.496 84.1242 526.954 84.1242 520.8C84.1242 514.646 83.7713 515.104 88.8305 514.443C92.8896 513.883 101.184 511.391 106.008 509.306C122.715 502.033 135.422 489.318 141.129 474.111C142.07 471.67 143.011 468.669 143.246 467.398C144.011 463.024 143.482 463.329 150.6 463.329C156.189 463.329 157.012 463.431 157.306 464.194ZM307.906 464.194C308.024 464.702 308.377 466.126 308.554 467.398C309.201 470.907 312.083 478.078 314.495 482.249C321.319 493.946 332.261 503.406 345.792 509.306C350.616 511.391 358.91 513.883 362.97 514.443C368.029 515.104 367.676 514.646 367.676 520.8C367.676 526.954 368.029 526.496 362.97 527.157C351.498 528.734 336.085 535.956 326.967 544.043C317.966 552.079 310.26 564.692 308.554 574.202C307.789 578.576 308.318 578.271 301.2 578.271C294.082 578.271 294.611 578.576 293.847 574.202C293.141 570.286 290.082 562.962 287.14 558.182C280.375 547.043 270.492 538.499 257.844 532.854C252.196 530.362 243.901 527.768 239.43 527.157C234.371 526.496 234.724 526.954 234.724 520.8C234.724 514.646 234.371 515.104 239.43 514.443C243.49 513.883 251.784 511.391 256.608 509.306C270.139 503.406 281.081 493.946 287.905 482.249C290.317 478.078 293.199 470.907 293.847 467.398C294.611 463.024 294.082 463.329 301.2 463.329C306.789 463.329 307.612 463.431 307.906 464.194ZM458.506 464.194C458.624 464.702 458.977 466.126 459.154 467.398C459.801 470.907 462.683 478.078 465.095 482.249C471.919 493.946 482.861 503.406 496.392 509.306C501.216 511.391 509.51 513.883 513.57 514.443C518.629 515.104 518.276 514.646 518.276 520.8C518.276 526.954 518.629 526.496 513.57 527.157C502.098 528.734 486.685 535.956 477.567 544.043C468.566 552.079 460.86 564.692 459.154 574.202C458.389 578.576 458.918 578.271 451.8 578.271C444.682 578.271 445.211 578.576 444.447 574.202C443.741 570.286 440.682 562.962 437.74 558.182C430.975 547.043 421.092 538.499 408.444 532.854C402.796 530.362 394.501 527.768 390.031 527.157C384.971 526.496 385.324 526.954 385.324 520.8C385.324 514.646 384.971 515.104 390.031 514.443C394.09 513.883 402.384 511.391 407.208 509.306C420.739 503.406 431.681 493.946 438.505 482.249C440.917 478.078 443.799 470.907 444.447 467.398C445.211 463.024 444.682 463.329 451.8 463.329C457.389 463.329 458.212 463.431 458.506 464.194ZM609.106 464.194C609.224 464.702 609.577 466.126 609.754 467.398C610.401 470.907 613.283 478.078 615.695 482.249C622.519 493.946 633.461 503.406 646.992 509.306C651.816 511.391 660.11 513.883 664.17 514.443C669.229 515.104 668.876 514.646 668.876 520.8C668.876 526.954 669.229 526.496 664.17 527.157C652.698 528.734 637.285 535.956 628.167 544.043C619.166 552.079 611.46 564.692 609.754 574.202C608.989 578.576 609.518 578.271 602.4 578.271C595.282 578.271 595.811 578.576 595.047 574.202C594.341 570.286 591.282 562.962 588.34 558.182C581.575 547.043 571.692 538.499 559.044 532.854C553.396 530.362 545.101 527.768 540.631 527.157C535.571 526.496 535.924 526.954 535.924 520.8C535.924 514.646 535.571 515.104 540.631 514.443C544.69 513.883 552.984 511.391 557.808 509.306C571.339 503.406 582.281 493.946 589.105 482.249C591.517 478.078 594.399 470.907 595.047 467.398C595.811 463.024 595.282 463.329 602.4 463.329C607.989 463.329 608.812 463.431 609.106 464.194ZM18.825 465.719C39.9443 470.958 57.6516 486.267 63.7109 504.576C64.4756 506.915 65.2992 509.713 65.4757 510.73C65.8287 512.612 65.8287 512.612 63.9462 512.357C53.5336 510.73 43.121 506.763 34.7086 501.219C30.2377 498.218 23.1195 491.708 20.1192 487.741C15.2365 481.384 11.0009 472.229 9.8243 465.77L9.53016 463.939L11.648 464.194C12.8245 464.346 16.0601 465.058 18.825 465.719ZM140.776 465.719C140.129 469.483 137.599 476.247 135.305 480.316C132.069 486.165 128.657 490.437 123.539 495.065C116.127 501.779 108.656 506.102 99.1254 509.306C94.1838 510.933 85.3596 512.866 84.8302 512.408C84.3007 511.951 87.7716 501.575 89.8894 497.456C98.3018 480.977 116.068 468.466 136.54 464.6C138.599 464.244 140.482 463.888 140.717 463.888C140.952 463.838 140.952 464.702 140.776 465.719ZM169.425 465.719C190.544 470.958 208.252 486.267 214.311 504.576C215.076 506.915 215.899 509.713 216.076 510.73C216.429 512.612 216.429 512.612 214.546 512.357C204.134 510.73 193.721 506.763 185.309 501.219C180.838 498.218 173.719 491.708 170.719 487.741C165.836 481.384 161.601 472.229 160.424 465.77L160.13 463.939L162.248 464.194C163.425 464.346 166.66 465.058 169.425 465.719ZM291.376 465.719C290.729 469.483 288.199 476.247 285.905 480.316C282.669 486.165 279.257 490.437 274.139 495.065C266.727 501.779 259.256 506.102 249.725 509.306C244.784 510.933 235.96 512.866 235.43 512.408C234.901 511.951 238.372 501.575 240.489 497.456C248.902 480.977 266.668 468.466 287.14 464.6C289.199 464.244 291.082 463.888 291.317 463.888C291.552 463.838 291.552 464.702 291.376 465.719ZM320.025 465.719C341.144 470.958 358.852 486.267 364.911 504.576C365.676 506.915 366.499 509.713 366.676 510.73C367.029 512.612 367.029 512.612 365.146 512.357C354.734 510.73 344.321 506.763 335.909 501.219C331.438 498.218 324.319 491.708 321.319 487.741C316.437 481.384 312.201 472.229 311.024 465.77L310.73 463.939L312.848 464.194C314.025 464.346 317.26 465.058 320.025 465.719ZM441.976 465.719C441.329 469.483 438.799 476.247 436.505 480.316C433.269 486.165 429.857 490.437 424.739 495.065C417.327 501.779 409.856 506.102 400.325 509.306C395.384 510.933 386.56 512.866 386.03 512.408C385.501 511.951 388.972 501.575 391.089 497.456C399.502 480.977 417.268 468.466 437.74 464.6C439.799 464.244 441.682 463.888 441.917 463.888C442.152 463.838 442.152 464.702 441.976 465.719ZM470.625 465.719C491.744 470.958 509.452 486.267 515.511 504.576C516.276 506.915 517.099 509.713 517.276 510.73C517.629 512.612 517.629 512.612 515.746 512.357C505.334 510.73 494.921 506.763 486.509 501.219C482.038 498.218 474.919 491.708 471.919 487.741C467.037 481.384 462.801 472.229 461.624 465.77L461.33 463.939L463.448 464.194C464.625 464.346 467.86 465.058 470.625 465.719ZM592.576 465.719C591.929 469.483 589.399 476.247 587.105 480.316C583.869 486.165 580.457 490.437 575.339 495.065C567.927 501.779 560.456 506.102 550.925 509.306C545.984 510.933 537.16 512.866 536.63 512.408C536.101 511.951 539.572 501.575 541.689 497.456C550.102 480.977 567.868 468.466 588.34 464.6C590.399 464.244 592.282 463.888 592.517 463.888C592.752 463.838 592.752 464.702 592.576 465.719ZM621.225 465.719C642.344 470.958 660.052 486.267 666.111 504.576C666.876 506.915 667.699 509.713 667.876 510.73C668.229 512.612 668.229 512.612 666.346 512.357C655.934 510.73 645.521 506.763 637.109 501.219C632.638 498.218 625.52 491.708 622.519 487.741C617.637 481.384 613.401 472.229 612.224 465.77L611.93 463.939L614.048 464.194C615.225 464.346 618.46 465.058 621.225 465.719ZM743.176 465.719C742.529 469.483 739.999 476.247 737.705 480.316C734.469 486.165 731.057 490.437 725.939 495.065C718.527 501.779 711.056 506.102 701.525 509.306C696.584 510.933 687.76 512.866 687.23 512.408C686.701 511.951 690.172 501.575 692.289 497.456C700.702 480.977 718.468 468.466 738.94 464.6C740.999 464.244 742.882 463.888 743.117 463.888C743.352 463.838 743.352 464.702 743.176 465.719ZM81.477 520.8V526.14H75.3H69.1231V520.8V515.46H75.3H81.477V520.8ZM232.077 520.8V526.14H225.9H219.723V520.8V515.46H225.9H232.077V520.8ZM382.677 520.8V526.14H376.5H370.323V520.8V515.46H376.5H382.677V520.8ZM533.277 520.8V526.14H527.1H520.923V520.8V515.46H527.1H533.277V520.8ZM683.877 520.8V526.14H677.7H671.523V520.8V515.46H677.7H683.877V520.8ZM82.0064 529.294C82.1241 529.802 82.477 531.226 82.6535 532.498C83.3006 536.007 86.1832 543.178 88.5952 547.349C95.4192 559.046 106.361 568.506 119.892 574.406C124.716 576.491 133.01 578.983 137.07 579.543C142.129 580.204 141.776 579.746 141.776 585.9C141.776 592.054 142.129 591.596 137.07 592.257C125.598 593.834 110.185 601.056 101.067 609.143C92.066 617.179 84.3595 629.792 82.6535 639.302C81.8888 643.676 82.4182 643.371 75.3 643.371C68.1818 643.371 68.7113 643.676 67.9465 639.302C67.2406 635.386 64.1815 628.062 61.2401 623.282C54.4748 612.143 44.5917 603.599 31.9437 597.954C26.2962 595.462 18.0014 592.868 13.5305 592.257C8.47125 591.596 8.82422 592.054 8.82422 585.9C8.82422 579.746 8.47125 580.204 13.5305 579.543C17.5896 578.983 25.8844 576.491 30.7083 574.406C44.2388 568.506 55.1808 559.046 62.0048 547.349C64.4168 543.178 67.2994 536.007 67.9465 532.498C68.7113 528.124 68.1818 528.429 75.3 528.429C80.8887 528.429 81.7123 528.531 82.0064 529.294ZM232.606 529.294C232.724 529.802 233.077 531.226 233.254 532.498C233.901 536.007 236.783 543.178 239.195 547.349C246.019 559.046 256.961 568.506 270.492 574.406C275.316 576.491 283.61 578.983 287.67 579.543C292.729 580.204 292.376 579.746 292.376 585.9C292.376 592.054 292.729 591.596 287.67 592.257C276.198 593.834 260.785 601.056 251.667 609.143C242.666 617.179 234.96 629.792 233.254 639.302C232.489 643.676 233.018 643.371 225.9 643.371C218.782 643.371 219.311 643.676 218.547 639.302C217.841 635.386 214.782 628.062 211.84 623.282C205.075 612.143 195.192 603.599 182.544 597.954C176.896 595.462 168.601 592.868 164.13 592.257C159.071 591.596 159.424 592.054 159.424 585.9C159.424 579.746 159.071 580.204 164.13 579.543C168.19 578.983 176.484 576.491 181.308 574.406C194.839 568.506 205.781 559.046 212.605 547.349C215.017 543.178 217.899 536.007 218.547 532.498C219.311 528.124 218.782 528.429 225.9 528.429C231.489 528.429 232.312 528.531 232.606 529.294ZM383.206 529.294C383.324 529.802 383.677 531.226 383.854 532.498C384.501 536.007 387.383 543.178 389.795 547.349C396.619 559.046 407.561 568.506 421.092 574.406C425.916 576.491 434.21 578.983 438.27 579.543C443.329 580.204 442.976 579.746 442.976 585.9C442.976 592.054 443.329 591.596 438.27 592.257C426.798 593.834 411.385 601.056 402.267 609.143C393.266 617.179 385.56 629.792 383.854 639.302C383.089 643.676 383.618 643.371 376.5 643.371C369.382 643.371 369.911 643.676 369.147 639.302C368.441 635.386 365.382 628.062 362.44 623.282C355.675 612.143 345.792 603.599 333.144 597.954C327.496 595.462 319.201 592.868 314.73 592.257C309.671 591.596 310.024 592.054 310.024 585.9C310.024 579.746 309.671 580.204 314.73 579.543C318.79 578.983 327.084 576.491 331.908 574.406C345.439 568.506 356.381 559.046 363.205 547.349C365.617 543.178 368.499 536.007 369.147 532.498C369.911 528.124 369.382 528.429 376.5 528.429C382.089 528.429 382.912 528.531 383.206 529.294ZM533.806 529.294C533.924 529.802 534.277 531.226 534.454 532.498C535.101 536.007 537.983 543.178 540.395 547.349C547.219 559.046 558.161 568.506 571.692 574.406C576.516 576.491 584.81 578.983 588.87 579.543C593.929 580.204 593.576 579.746 593.576 585.9C593.576 592.054 593.929 591.596 588.87 592.257C577.398 593.834 561.985 601.056 552.867 609.143C543.866 617.179 536.16 629.792 534.454 639.302C533.689 643.676 534.218 643.371 527.1 643.371C519.982 643.371 520.511 643.676 519.747 639.302C519.041 635.386 515.982 628.062 513.04 623.282C506.275 612.143 496.392 603.599 483.744 597.954C478.096 595.462 469.801 592.868 465.331 592.257C460.271 591.596 460.624 592.054 460.624 585.9C460.624 579.746 460.271 580.204 465.331 579.543C469.39 578.983 477.684 576.491 482.508 574.406C496.039 568.506 506.981 559.046 513.805 547.349C516.217 543.178 519.099 536.007 519.747 532.498C520.511 528.124 519.982 528.429 527.1 528.429C532.689 528.429 533.512 528.531 533.806 529.294ZM684.406 529.294C684.524 529.802 684.877 531.226 685.054 532.498C685.701 536.007 688.583 543.178 690.995 547.349C699.408 561.793 714.115 572.778 731.704 577.712C734.528 578.525 737.999 579.339 739.47 579.543C744.529 580.204 744.176 579.746 744.176 585.9C744.176 592.054 744.529 591.596 739.47 592.257C727.998 593.834 712.585 601.056 703.467 609.143C694.466 617.179 686.76 629.792 685.054 639.302C684.289 643.676 684.818 643.371 677.7 643.371C670.582 643.371 671.111 643.676 670.347 639.302C669.641 635.386 666.582 628.062 663.64 623.282C656.875 612.143 646.992 603.599 634.344 597.954C628.696 595.462 620.401 592.868 615.931 592.257C610.871 591.596 611.224 592.054 611.224 585.9C611.224 579.746 610.871 580.204 615.931 579.543C619.99 578.983 628.284 576.491 633.108 574.406C646.639 568.506 657.581 559.046 664.405 547.349C666.817 543.178 669.699 536.007 670.347 532.498C671.111 528.124 670.582 528.429 677.7 528.429C683.289 528.429 684.112 528.531 684.406 529.294ZM65.4757 530.819C64.8286 534.583 62.299 541.347 60.0047 545.416C56.7691 551.265 53.3571 555.537 48.2391 560.165C40.8267 566.879 33.3555 571.202 23.8254 574.406C18.8838 576.033 10.0596 577.966 9.53016 577.508C9.0007 577.051 12.4716 566.675 14.5894 562.556C23.0018 546.077 40.7679 533.566 61.2401 529.7C63.2991 529.344 65.1816 528.988 65.4169 528.988C65.6522 528.938 65.6522 529.802 65.4757 530.819ZM94.125 530.819C115.244 536.058 132.952 551.367 139.011 569.676C139.776 572.015 140.599 574.813 140.776 575.83C141.129 577.712 141.129 577.712 139.246 577.457C128.834 575.83 118.421 571.863 110.009 566.319C105.538 563.318 98.4195 556.808 95.4192 552.841C90.5365 546.484 86.3009 537.329 85.1243 530.87L84.8302 529.039L86.948 529.294C88.1245 529.446 91.3601 530.158 94.125 530.819ZM216.076 530.819C215.429 534.583 212.899 541.347 210.605 545.416C207.369 551.265 203.957 555.537 198.839 560.165C191.427 566.879 183.956 571.202 174.425 574.406C169.484 576.033 160.66 577.966 160.13 577.508C159.601 577.051 163.072 566.675 165.189 562.556C173.602 546.077 191.368 533.566 211.84 529.7C213.899 529.344 215.782 528.988 216.017 528.988C216.252 528.938 216.252 529.802 216.076 530.819ZM244.725 530.819C265.844 536.058 283.552 551.367 289.611 569.676C290.376 572.015 291.199 574.813 291.376 575.83C291.729 577.712 291.729 577.712 289.846 577.457C279.434 575.83 269.021 571.863 260.609 566.319C256.138 563.318 249.019 556.808 246.019 552.841C241.137 546.484 236.901 537.329 235.724 530.87L235.43 529.039L237.548 529.294C238.725 529.446 241.96 530.158 244.725 530.819ZM366.676 530.819C366.029 534.583 363.499 541.347 361.205 545.416C357.969 551.265 354.557 555.537 349.439 560.165C342.027 566.879 334.556 571.202 325.025 574.406C320.084 576.033 311.26 577.966 310.73 577.508C310.201 577.051 313.672 566.675 315.789 562.556C324.202 546.077 341.968 533.566 362.44 529.7C364.499 529.344 366.382 528.988 366.617 528.988C366.852 528.938 366.852 529.802 366.676 530.819ZM395.325 530.819C416.444 536.058 434.152 551.367 440.211 569.676C440.976 572.015 441.799 574.813 441.976 575.83C442.329 577.712 442.329 577.712 440.446 577.457C430.034 575.83 419.621 571.863 411.209 566.319C406.738 563.318 399.619 556.808 396.619 552.841C391.737 546.484 387.501 537.329 386.324 530.87L386.03 529.039L388.148 529.294C389.325 529.446 392.56 530.158 395.325 530.819ZM517.276 530.819C516.629 534.583 514.099 541.347 511.805 545.416C508.569 551.265 505.157 555.537 500.039 560.165C492.627 566.879 485.156 571.202 475.625 574.406C470.684 576.033 461.86 577.966 461.33 577.508C460.801 577.051 464.272 566.675 466.389 562.556C474.802 546.077 492.568 533.566 513.04 529.7C515.099 529.344 516.982 528.988 517.217 528.988C517.452 528.938 517.452 529.802 517.276 530.819ZM545.925 530.819C567.044 536.058 584.752 551.367 590.811 569.676C591.576 572.015 592.399 574.813 592.576 575.83C592.929 577.712 592.929 577.712 591.046 577.457C580.634 575.83 570.221 571.863 561.809 566.319C557.338 563.318 550.22 556.808 547.219 552.841C542.337 546.484 538.101 537.329 536.924 530.87L536.63 529.039L538.748 529.294C539.925 529.446 543.16 530.158 545.925 530.819ZM667.876 530.819C667.229 534.583 664.699 541.347 662.405 545.416C659.169 551.265 655.757 555.537 650.639 560.165C643.227 566.879 635.756 571.202 626.225 574.406C621.284 576.033 612.46 577.966 611.93 577.508C611.401 577.051 614.872 566.675 616.989 562.556C625.402 546.077 643.168 533.566 663.64 529.7C665.699 529.344 667.582 528.988 667.817 528.988C668.052 528.938 668.052 529.802 667.876 530.819ZM696.525 530.819C717.644 536.058 735.352 551.367 741.411 569.676C742.176 572.015 742.999 574.813 743.176 575.83C743.529 577.712 743.529 577.712 741.646 577.457C731.234 575.83 720.821 571.863 712.409 566.319C707.938 563.318 700.82 556.808 697.819 552.841C692.937 546.484 688.701 537.329 687.524 530.87L687.23 529.039L689.348 529.294C690.525 529.446 693.76 530.158 696.525 530.819ZM156.777 585.9V591.24H150.6H144.423V585.9V580.56H150.6H156.777V585.9ZM307.377 585.9V591.24H301.2H295.023V585.9V580.56H301.2H307.377V585.9ZM457.977 585.9V591.24H451.8H445.623V585.9V580.56H451.8H457.977V585.9ZM608.577 585.9V591.24H602.4H596.223V585.9V580.56H602.4H608.577V585.9ZM18.825 595.919C39.9443 601.158 57.6516 616.467 63.7109 634.776C64.4756 637.115 65.2992 639.913 65.4757 640.93C65.8287 642.812 65.8287 642.812 63.9462 642.557C53.5336 640.93 43.121 636.963 34.7086 631.419C30.2377 628.418 23.1195 621.908 20.1192 617.941C15.2365 611.584 11.0009 602.429 9.8243 595.97L9.53016 594.139L11.648 594.394C12.8245 594.546 16.0601 595.258 18.825 595.919ZM140.776 595.919C140.129 599.683 137.599 606.447 135.305 610.516C132.069 616.365 128.657 620.637 123.539 625.265C116.127 631.979 108.656 636.302 99.1254 639.506C94.1838 641.133 85.3596 643.066 84.8302 642.608C84.3007 642.151 87.7716 631.775 89.8894 627.656C98.3018 611.177 116.068 598.666 136.54 594.8C138.599 594.444 140.482 594.088 140.717 594.088C140.952 594.038 140.952 594.902 140.776 595.919ZM169.425 595.919C190.544 601.158 208.252 616.467 214.311 634.776C215.076 637.115 215.899 639.913 216.076 640.93C216.429 642.812 216.429 642.812 214.546 642.557C204.134 640.93 193.721 636.963 185.309 631.419C180.838 628.418 173.719 621.908 170.719 617.941C165.836 611.584 161.601 602.429 160.424 595.97L160.13 594.139L162.248 594.394C163.425 594.546 166.66 595.258 169.425 595.919ZM291.376 595.919C290.729 599.683 288.199 606.447 285.905 610.516C282.669 616.365 279.257 620.637 274.139 625.265C266.727 631.979 259.256 636.302 249.725 639.506C244.784 641.133 235.96 643.066 235.43 642.608C234.901 642.151 238.372 631.775 240.489 627.656C248.902 611.177 266.668 598.666 287.14 594.8C289.199 594.444 291.082 594.088 291.317 594.088C291.552 594.038 291.552 594.902 291.376 595.919ZM320.025 595.919C341.144 601.158 358.852 616.467 364.911 634.776C365.676 637.115 366.499 639.913 366.676 640.93C367.029 642.812 367.029 642.812 365.146 642.557C354.734 640.93 344.321 636.963 335.909 631.419C331.438 628.418 324.319 621.908 321.319 617.941C316.437 611.584 312.201 602.429 311.024 595.97L310.73 594.139L312.848 594.394C314.025 594.546 317.26 595.258 320.025 595.919ZM441.976 595.919C441.329 599.683 438.799 606.447 436.505 610.516C433.269 616.365 429.857 620.637 424.739 625.265C417.327 631.979 409.856 636.302 400.325 639.506C395.384 641.133 386.56 643.066 386.03 642.608C385.501 642.151 388.972 631.775 391.089 627.656C399.502 611.177 417.268 598.666 437.74 594.8C439.799 594.444 441.682 594.088 441.917 594.088C442.152 594.038 442.152 594.902 441.976 595.919ZM470.625 595.919C491.744 601.158 509.452 616.467 515.511 634.776C516.276 637.115 517.099 639.913 517.276 640.93C517.629 642.812 517.629 642.812 515.746 642.557C505.334 640.93 494.921 636.963 486.509 631.419C482.038 628.418 474.919 621.908 471.919 617.941C467.037 611.584 462.801 602.429 461.624 595.97L461.33 594.139L463.448 594.394C464.625 594.546 467.86 595.258 470.625 595.919ZM592.576 595.919C591.929 599.683 589.399 606.447 587.105 610.516C583.869 616.365 580.457 620.637 575.339 625.265C567.927 631.979 560.456 636.302 550.925 639.506C545.984 641.133 537.16 643.066 536.63 642.608C536.101 642.151 539.572 631.775 541.689 627.656C550.102 611.177 567.868 598.666 588.34 594.8C590.399 594.444 592.282 594.088 592.517 594.088C592.752 594.038 592.752 594.902 592.576 595.919ZM621.225 595.919C642.344 601.158 660.052 616.467 666.111 634.776C666.876 637.115 667.699 639.913 667.876 640.93C668.229 642.812 668.229 642.812 666.346 642.557C655.934 640.93 645.521 636.963 637.109 631.419C632.638 628.418 625.52 621.908 622.519 617.941C617.637 611.584 613.401 602.429 612.224 595.97L611.93 594.139L614.048 594.394C615.225 594.546 618.46 595.258 621.225 595.919ZM743.176 595.919C742.529 599.683 739.999 606.447 737.705 610.516C734.469 616.365 731.057 620.637 725.939 625.265C718.527 631.979 711.056 636.302 701.525 639.506C696.584 641.133 687.76 643.066 687.23 642.608C686.701 642.151 690.172 631.775 692.289 627.656C700.702 611.177 718.468 598.666 738.94 594.8C740.999 594.444 742.882 594.088 743.117 594.088C743.352 594.038 743.352 594.902 743.176 595.919Z" fill="#F3EDE7"/>
</svg>
