<svg width="72" height="72" viewBox="0 0 72 72" fill="none" xmlns="http://www.w3.org/2000/svg">
<path fill="#FF6600" d="M63.0435 27.8804H25.281V32.1578H63.0435V27.8804Z"/>
<path fill="#FF6600" d="M63.0435 35.2974H25.281V39.5748H63.0435V35.2974Z"/>
<path fill="#FF6600" d="M63.0435 42.7144H25.281V46.9917H63.0435V42.7144Z"/>
<path fill="#FF6600" d="M45.2285 17.0435V6.20654H0V46.2674L10.6896 39.5721H16.324V57.83H59.2858L72 65.7933V17.0435H45.2285ZM8.95711 17.0434V21.3208H16.3239V24.4609H8.95711V28.7383H16.3239V35.2944H9.46069V35.2945L4.27739 38.541V10.4839H40.951V17.0434H22.2571H16.3239H8.95711ZM20.6011 53.5525V39.5719V21.3209H22.257H45.2284H67.7225V58.0671L60.5146 53.5525H20.6011Z"/>
</svg>
