<svg width="12" height="12" viewBox="0 0 12 12" fill="none" xmlns="http://www.w3.org/2000/svg">
<path fill-rule="evenodd" clip-rule="evenodd" d="M4.03279 6.88525C5.01639 8.19669 6.98361 8.19669 7.96721 6.88525L8.26229 6.4918L9.04918 7.08197L8.69508 7.5541L8.694 7.55329C7.31864 9.28554 4.68137 9.28554 3.306 7.55329L3.30492 7.5541L3.24641 7.47609L2.95082 7.08197L3.7377 6.4918L4.03279 6.88525ZM11.0164 6C11.0164 3.22952 8.77052 0.983607 6 0.983607C3.22952 0.983607 0.983607 3.22952 0.983607 6C0.983607 8.77052 3.22952 11.0164 6 11.0164C8.77052 11.0164 11.0164 8.77052 11.0164 6ZM11.9992 5.90164C11.9472 2.66602 9.33395 0.0527951 6.09836 0.000789954L5.90164 0C2.66602 0.0520047 0.0527946 2.66602 0.00078994 5.90164L0 6.09836C0.0520052 9.33395 2.66602 11.9472 5.90164 11.9992L6.09836 12C9.33395 11.948 11.9472 9.33395 11.9992 6.09836V5.90164ZM3.14754 4.91803V3.93443H4.13115V4.91803H3.14754ZM7.86885 4.91803V3.93443H8.85246V4.91803H7.86885Z" fill="#FF6600"/>
</svg>
