<svg width="20" height="15" fill="none" xmlns="http://www.w3.org/2000/svg">
    <path fill-rule="evenodd" clip-rule="evenodd"
          d="M1.15 0A1.15 1.15 0 000 1.15v12.7C0 14.485.515 15 1.15 15h17.7A1.15 1.15 0 0020 13.85V1.15A1.15 1.15 0 0018.85 0H1.15zM5 4.862C5 4.386 5.386 4 5.862 4h6.342c.476 0 .863.386.863.862v5.275a.863.863 0 01-.863.863H5.862A.863.863 0 015 10.137V4.862zm8.8 3.761l1.507 1.15A.431.431 0 0016 9.428V5.57a.431.431 0 00-.692-.343L13.8 6.373v2.25z"
          fill="#FF6600"/>
</svg>