<svg width="14" height="14" viewBox="0 0 14 14" fill="none" xmlns="http://www.w3.org/2000/svg">
    <g clip-path="url(#clip0_820_3263)">
        <path d="M1.00016 11L12 2" stroke="#6B6D70"/>
        <path fill-rule="evenodd" clip-rule="evenodd"
              d="M9.96867 2.03632C9.39165 1.50294 8.67068 1.12303 7.87053 0.961597C7.88275 0.839932 7.86932 0.717058 7.83113 0.600899C7.79294 0.48474 7.73082 0.377876 7.64879 0.287198C7.56676 0.19652 7.46663 0.124042 7.35487 0.0744386C7.24311 0.0248348 7.12219 -0.000793457 6.99991 -0.000793457C6.87763 -0.000793457 6.75671 0.0248348 6.64495 0.0744386C6.53319 0.124042 6.43306 0.19652 6.35103 0.287198C6.269 0.377876 6.20688 0.48474 6.16869 0.600899C6.1305 0.717058 6.11707 0.839932 6.12928 0.961597C5.14029 1.16276 4.2512 1.69954 3.61258 2.48104C2.97395 3.26253 2.62504 4.24073 2.62491 5.24997C2.62491 5.74517 2.50868 7.12466 2.21631 8.46511L9.96867 2.03632ZM2.62379 11.375H13.1249C11.8124 10.5 11.3749 6.21072 11.3749 5.24997C11.3749 4.89496 11.3326 4.54979 11.2528 4.21924L2.62379 11.375ZM8.23735 13.4874C7.90916 13.8156 7.46404 14 6.99991 14C6.53578 14 6.09066 13.8156 5.76247 13.4874C5.43428 13.1592 5.24991 12.7141 5.24991 12.25H8.74991C8.74991 12.7141 8.56554 13.1592 8.23735 13.4874Z"
              fill="#6B6D70"/>
    </g>
    <defs>
        <clipPath id="clip0_820_3263">
            <rect width="14" height="14" fill="white"/>
        </clipPath>
    </defs>
</svg>
