<svg width="10" height="10" xmlns="http://www.w3.org/2000/svg">
    <path d="M8.671 3.687H6.48a.16.16 0 01-.148-.094.995.995 0 01.014-.77c.181-.53.202-1.1.06-1.64C6.254.81 6.215.13 5.528.1a.709.709 0 00-.511.35.224.224 0 00-.028.11c.021.44.021.813 0 1.119-.031.458-.909 1.626-1.466 2.367a.217.217 0 01-.143.088c-.21.03-.608.084-.752.103-.034.004-.053.047-.053.066v4.16c0 .015.018.048.051.054.113.018.394.07.679.161.357.115.654.386 1.25.587.031.01.066.016.099.016h2.796a.792.792 0 00.648-.743 1.372 1.372 0 00-.12-.599c-.012-.027.004-.055.033-.06.358-.066.807-.746.254-1.294-.014-.015-.012-.034.008-.04a.842.842 0 00.609-.623.671.671 0 00-.017-.35 1.186 1.186 0 00-.19-.375c-.021-.029-.01-.066.025-.077a.756.756 0 00.51-.722c.034-.323-.225-.711-.54-.711zm-6.953.175H.133a.131.131 0 00-.131.152l.92 5.171c.015.08.085.138.167.138h.586c.09 0 .164-.072.164-.16l.013-5.17a.132.132 0 00-.134-.131"
        fill="#FF6600"  fill-rule="evenodd"/>

</svg>