<svg width="22" height="30" viewBox="0 0 22 30" fill="none" xmlns="http://www.w3.org/2000/svg">
<path d="M17.3402 10.8247V6.34021C17.3402 2.84419 14.496 0 11 0C7.50398 0 4.65979 2.84419 4.65979 6.34021V10.8247H0.329895V30H21.6701V10.8247H17.3402ZM6.51546 6.34021C6.51546 3.8674 8.52719 1.85567 11 1.85567C13.4728 1.85567 15.4845 3.8674 15.4845 6.34021V10.8247H6.51546V6.34021ZM19.8144 28.1443H2.18557V12.6804H19.8144V28.1443Z" fill="white"/>
<path d="M10.0722 20.9102V24.2237H11.9278V20.9101C12.6586 20.562 13.1649 19.8164 13.1649 18.9545C13.1649 17.7607 12.1938 16.7896 11 16.7896C9.80625 16.7896 8.83505 17.7607 8.83505 18.9545C8.83505 19.8165 9.3414 20.5621 10.0722 20.9102Z" fill="white"/>
</svg>
