<svg width="38" height="40" viewBox="0 0 38 40" fill="none" xmlns="http://www.w3.org/2000/svg">
<path fill-rule="evenodd" clip-rule="evenodd" d="M19 0.208314C16.5498 0.207563 14.1639 0.992253 12.1924 2.44721C10.221 3.90217 8.76782 5.95077 8.04627 8.29232C7.32472 10.6339 7.37276 13.1451 8.18334 15.4573C8.99392 17.7696 10.5243 19.7611 12.55 21.1396C9.03437 22.429 5.98506 24.7411 3.7945 27.7781C1.60395 30.8152 0.372392 34.4383 0.258333 38.1812C0.245901 38.5956 0.398599 38.998 0.682833 39.2998C0.967068 39.6016 1.35956 39.7782 1.77396 39.7906C2.18836 39.8031 2.59073 39.6504 2.89254 39.3661C3.19436 39.0819 3.3709 38.6894 3.38333 38.275C3.5074 34.2155 5.20721 30.3639 8.12256 27.5363C11.0379 24.7086 14.9397 23.1273 19.001 23.1273C23.0624 23.1273 26.9642 24.7086 29.8795 27.5363C32.7949 30.3639 34.4947 34.2155 34.6187 38.275C34.6203 38.483 34.6634 38.6887 34.7456 38.8798C34.8277 39.071 34.9471 39.2438 35.0969 39.3882C35.2468 39.5326 35.4239 39.6455 35.6179 39.7206C35.812 39.7955 36.0191 39.831 36.227 39.8249C36.435 39.8188 36.6397 39.7713 36.829 39.685C37.0183 39.5988 37.1885 39.4756 37.3296 39.3227C37.4707 39.1697 37.5798 38.9902 37.6505 38.7946C37.7213 38.5989 37.7523 38.3911 37.7417 38.1833C37.628 34.4401 36.3967 30.8165 34.2061 27.779C32.0155 24.7415 28.966 22.4291 25.45 21.1396C27.4757 19.7611 29.0061 17.7696 29.8167 15.4573C30.6272 13.1451 30.6753 10.6339 29.9537 8.29232C29.2322 5.95077 27.779 3.90217 25.8076 2.44721C23.8361 0.992253 21.4502 0.207563 19 0.208314ZM10.6667 11.6667C10.6667 9.45651 11.5446 7.33689 13.1074 5.77409C14.6702 4.21129 16.7899 3.33331 19 3.33331C21.2101 3.33331 23.3298 4.21129 24.8926 5.77409C26.4554 7.33689 27.3333 9.45651 27.3333 11.6667C27.3333 13.8768 26.4554 15.9964 24.8926 17.5592C23.3298 19.122 21.2101 20 19 20C16.7899 20 14.6702 19.122 13.1074 17.5592C11.5446 15.9964 10.6667 13.8768 10.6667 11.6667Z" fill="white"/>
</svg>
