<svg width="20" height="23" viewBox="0 0 20 23" fill="none" xmlns="http://www.w3.org/2000/svg">
<path opacity="0.609" fill-rule="evenodd" clip-rule="evenodd" d="M9.90759 0.0680864C8.98959 0.863086 7.33509 1.91009 5.73159 2.75009C4.12809 3.59009 2.56509 4.21709 1.32759 4.21709C1.26309 4.21709 1.06959 4.38659 1.06359 4.45259C0.0540893 12.7596 3.46359 17.7876 10.0126 22.5171C10.0576 22.5501 10.2796 22.5501 10.3246 22.5171C16.8736 17.7876 20.2846 12.7596 19.2736 4.45259C19.2676 4.38809 19.0741 4.21709 19.0096 4.21709C17.7721 4.21709 16.2091 3.59009 14.6056 2.75009C13.0021 1.91009 11.3476 0.863086 10.4311 0.0680864C10.3951 0.0380864 9.95709 0.0275864 9.90909 0.0680864H9.90759Z" fill="#01854D"/>
</svg>
