<svg version="1.0" xmlns="http://www.w3.org/2000/svg"
     width="512.000000pt" height="512.000000pt" viewBox="0 0 512.000000 512.000000">

    <g fill="#FFFFFF" stroke="none" transform="translate(0.000000,512.000000) scale(0.100000,-0.100000)">
        <path d="M960 5114 c-277 -53 -692 -391 -864 -705 -81 -147 -99 -245 -85 -462 46 -737 414 -1534 1053 -2287 123 -145 486 -505 631 -626 729 -610 1465 -953 2194 -1024 212 -21 300 -12 435 43 132 54 246 136 392 281 151 151 241 268 312 405 67 129 86 191 86 281 1 68 -2 81 -38 147 -71 134 -208 281 -451 484 -265 221 -579 422 -764 489 -153 56 -244 40 -354 -60 -77 -70 -122 -131 -251 -335 -124 -196 -205 -308 -241 -331 -25 -16 -29 -15 -158 49 -527 260 -1133 866 -1395 1395 l-65 133 20 27 c28 38 123 108 308 225 211 133 289 191 354 263 101 111 117 201 61 355 -105 291 -530 868 -808 1100 -153 127 -265 173 -372 153z m136 -290 c116 -77 330 -311 507 -554 151 -208 294 -450 313 -532 12 -52 -51 -102 -452 -358 -198 -127 -301 -245 -320 -365 -8 -54 20 -136 101 -295 246 -482 732 -1007 1242 -1341 132 -86 385 -213 453 -228 98 -21 190 17 290 118 66 68 103 120 276 391 54 85 122 179 151 209 45 47 55 53 80 47 125 -30 497 -269 755 -485 129 -108 268 -249 325 -328 40 -57 45 -69 40 -103 -13 -102 -139 -300 -291 -457 -113 -118 -199 -185 -306 -239 -70 -35 -83 -38 -179 -42 -363 -15 -865 122 -1327 362 -1200 624 -2218 1876 -2443 3004 -34 172 -55 371 -49 468 8 126 84 266 230 420 133 140 305 266 436 320 78 32 104 30 168 -12z"/>
    </g>
</svg>
