<svg xmlns="http://www.w3.org/2000/svg"  viewBox="0 0 32 32">
    <style>:root>svg{display:none}:root>svg:target{display:block}</style>
    <svg id="default">
        <path fill="#4D4D4D" d="M16 28c-6.617 0-12-5.383-12-12s5.383-12 12-12c6.617 0 12 5.383 12 12s-5.383 12-12 12z"></path>
        <path fill="#fff"
              d="M17.336 9.25l-4.036 4.145c-0.218 0.218-0.436 0.545-0.436 0.982v6.655c0 0.764 0.545 1.309 1.309 1.309h5.564c0.545 0 0.982-0.327 1.2-0.764l2.073-4.691c0.109-0.218 0.218-0.545 0.218-0.873v-0.655c0-0.764-0.655-1.418-1.309-1.418h-4.036c0 0 0.982-2.727 0.982-3.164-0.218-1.2-1.527-1.527-1.527-1.527v0z"></path>
        <path fill="#fff" d="M8.5 13.613h1.419v8.727h-1.419v-8.727z"></path>
    </svg>
    <svg id="active">
        <path fill="#FD6601" d="M16 28c-6.617 0-12-5.383-12-12s5.383-12 12-12c6.617 0 12 5.383 12 12s-5.383 12-12 12z"></path>
        <path fill="#fff"
              d="M17.336 9.25l-4.036 4.145c-0.218 0.218-0.436 0.545-0.436 0.982v6.655c0 0.764 0.545 1.309 1.309 1.309h5.564c0.545 0 0.982-0.327 1.2-0.764l2.073-4.691c0.109-0.218 0.218-0.545 0.218-0.873v-0.655c0-0.764-0.655-1.418-1.309-1.418h-4.036c0 0 0.982-2.727 0.982-3.164-0.218-1.2-1.527-1.527-1.527-1.527v0z"></path>
        <path fill="#fff" d="M8.5 13.613h1.419v8.727h-1.419v-8.727z"></path>
    </svg>
</svg>
