<svg width="24" height="14" xmlns="http://www.w3.org/2000/svg">
    <g fill="#FF6600" fill-rule="evenodd">
        <path d="M22.9 1.2c-.3-.3-.9-.3-1.2 0L11.9 11 7.3 6.4c-.3-.3-.9-.3-1.2 0-.2.2-.2.4-.2.6 0 .2.1.4.2.6l5.1 5.1c0 .1.1.1.1.1.2.2.4.3.6.2.2 0 .4-.1.6-.2l.1-.1L22.8 2.4c.4-.3.4-.8.1-1.2z"/>
        <path d="M17.9 1.2c-.3-.3-.9-.3-1.2 0L6.9 11 2.3 6.4c-.3-.3-.9-.3-1.2 0-.2.2-.2.4-.2.6 0 .2.1.4.2.6l5.1 5.1c0 .1.1.1.1.1.2.2.4.3.6.2.2 0 .4-.1.6-.2l.1-.1L17.8 2.4c.4-.3.4-.8.1-1.2z"/>
    </g>
</svg>