<svg width="225" height="64" viewBox="0 0 225 64" fill="none" xmlns="http://www.w3.org/2000/svg">
<path d="M77.1822 41.8527C77.1822 41.8527 80.9873 32.9792 88.5975 15.2374C88.5975 15.2374 89.5937 15.2374 91.5862 15.2374C91.5862 15.2374 95.4035 24.1109 103.032 41.8527C103.032 41.8527 102.06 41.8527 100.115 41.8527C100.115 41.8527 98.8303 38.863 96.2615 32.8831C96.2615 32.8831 92.1326 32.8831 83.8676 32.8831C83.8676 32.8831 82.571 35.8728 79.9782 41.8527C79.9782 41.8527 79.0482 41.8527 77.1816 41.8527H77.1822ZM84.8885 30.4693C84.8885 30.4693 88.3334 30.4693 95.2237 30.4693C95.2237 30.4693 93.5189 26.4046 90.1097 18.2634C90.1097 18.2634 88.3691 22.334 84.8879 30.4693H84.8885ZM105.685 41.8527C105.685 41.8527 105.685 35.2846 105.685 22.1541C105.685 22.1541 106.573 22.1541 108.356 22.1541C108.356 22.1541 108.356 23.0007 108.356 24.7056C109.976 22.6884 112.083 21.6796 114.688 21.6796C116.08 21.6796 117.353 21.938 118.505 22.46C119.651 22.9826 120.612 23.7389 121.386 24.7355C122.022 25.582 122.467 26.5065 122.724 27.5154C122.983 28.5243 123.109 29.8571 123.109 31.5081V41.8527H120.456C120.456 41.8527 120.456 38.4066 120.456 31.5081C120.456 30.1869 120.348 29.1125 120.132 28.3016C119.916 27.4849 119.549 26.7649 119.045 26.1462C117.935 24.7952 116.375 24.1232 114.37 24.1232C113.295 24.1232 112.305 24.3453 111.411 24.7894C110.511 25.234 109.809 25.858 109.293 26.6565C108.951 27.1967 108.711 27.7913 108.566 28.4399C108.428 29.0884 108.356 29.9532 108.356 31.0154V41.8527H105.686H105.685ZM129.512 48.763C129.512 48.763 130.586 46.2414 132.729 41.2042C132.729 41.2042 130.179 34.8522 125.083 22.1536C125.083 22.1536 126.055 22.1536 128 22.1536C128 22.1536 130.083 27.3889 134.242 37.8594C134.242 37.8594 136.463 32.6241 140.91 22.1536C140.91 22.1536 141.852 22.1536 143.737 22.1536C143.737 22.1536 139.944 31.0212 132.363 48.763C132.363 48.763 131.409 48.763 129.512 48.763ZM146.798 41.8527C146.798 41.8527 146.798 32.9792 146.798 15.2374C146.798 15.2374 149.241 15.2374 154.132 15.2374C155.854 15.2374 157.265 15.3452 158.357 15.5555C159.455 15.7659 160.416 16.1262 161.232 16.63C162.24 17.2247 163.021 18.1011 163.573 19.26C164.125 20.4124 164.401 21.7575 164.401 23.2942C164.401 24.6329 164.173 25.8281 163.711 26.8844C163.254 27.9413 162.6 28.7815 161.742 29.4183C160.938 30.0129 159.984 30.4447 158.898 30.7031C157.805 30.9615 156.365 31.0874 154.57 31.0874H149.45V41.8527H146.797H146.798ZM149.451 28.6619H154.396C156.785 28.6619 158.489 28.362 159.51 27.7615C160.212 27.3894 160.758 26.8065 161.136 26.0203C161.52 25.234 161.706 24.3154 161.706 23.2585C161.706 21.9614 161.448 20.8687 160.938 19.9981C160.422 19.1217 159.684 18.5335 158.717 18.2271C157.571 17.8427 155.74 17.6506 153.231 17.6506H149.45V28.6619H149.451ZM187.119 22.1536C187.119 22.1536 187.119 28.7158 187.119 41.8521C187.119 41.8521 186.224 41.8521 184.442 41.8521C184.442 41.8521 184.442 40.6997 184.442 38.3879C183.403 39.7928 182.293 40.8017 181.128 41.4139C179.964 42.0203 178.547 42.3267 176.885 42.3267C174.881 42.3267 173.068 41.8826 171.46 40.9997C169.845 40.1115 168.585 38.8865 167.673 37.3251C166.754 35.7579 166.298 33.9986 166.298 32.0535C166.298 30.1084 166.749 28.3432 167.655 26.7579C168.555 25.179 169.797 23.9363 171.382 23.0294C172.96 22.1289 174.725 21.6784 176.669 21.6784C178.398 21.6784 179.875 21.9907 181.111 22.6152C182.347 23.2456 183.458 24.2486 184.442 25.6354V22.153H187.119L187.119 22.1536ZM176.639 24.1226C174.527 24.1226 172.726 24.8854 171.238 26.4105C169.749 27.9355 169.005 29.7786 169.005 31.9522C169.005 34.1679 169.767 36.0409 171.292 37.5718C172.817 39.1027 174.671 39.8655 176.85 39.8655C178.992 39.8655 180.793 39.1032 182.257 37.5899C183.715 36.0714 184.442 34.1919 184.442 31.9522C184.442 29.7071 183.697 27.8458 182.209 26.3566C180.72 24.8679 178.866 24.1232 176.639 24.1232V24.1226ZM208.24 36.0462C208.24 36.0462 209.248 36.0462 211.259 36.0462C210.701 37.1148 210.185 37.9497 209.716 38.5555C209.248 39.156 208.684 39.7084 208.023 40.2006C206.223 41.6172 204.08 42.3255 201.607 42.3255C199.615 42.3255 197.797 41.8691 196.158 40.9628C194.513 40.0564 193.229 38.8074 192.287 37.2162C191.35 35.625 190.882 33.872 190.882 31.9504C190.882 30.0592 191.35 28.3303 192.281 26.7573C193.211 25.1901 194.489 23.9475 196.104 23.0411C197.725 22.1284 199.501 21.6784 201.434 21.6784C203.66 21.6784 205.647 22.2549 207.4 23.4196C209.152 24.5784 210.431 26.1515 211.229 28.1323H208.24C207.478 26.8417 206.505 25.851 205.335 25.1602C204.165 24.4636 202.85 24.1215 201.398 24.1215C199.207 24.1215 197.358 24.8843 195.852 26.4093C194.346 27.9343 193.59 29.8014 193.59 32.0172C193.59 34.2148 194.358 36.0696 195.883 37.5888C197.413 39.1021 199.286 39.8643 201.506 39.8643C202.911 39.8643 204.129 39.5702 205.15 38.982C206.176 38.3996 207.208 37.4206 208.241 36.0462H208.24ZM217.344 41.8521C217.344 41.8521 217.344 36.0884 217.344 24.5609C217.344 24.5609 215.934 24.5609 213.107 24.5609C213.107 24.5609 213.107 23.7565 213.107 22.1536C213.107 22.1536 214.524 22.1536 217.344 22.1536C217.344 22.1536 217.344 19.8482 217.344 15.2368C217.344 15.2368 218.239 15.2368 220.021 15.2368C220.021 15.2368 220.021 17.5422 220.021 22.1536C220.021 22.1536 221.498 22.1536 224.451 22.1536C224.451 22.1536 224.451 22.9579 224.451 24.5609C224.451 24.5609 222.974 24.5609 220.021 24.5609C220.021 24.5609 220.021 30.3246 220.021 41.8521C220.021 41.8521 219.127 41.8521 217.344 41.8521Z" fill="black"/>
<path fill-rule="evenodd" clip-rule="evenodd" d="M2.7998 26.5148H12.2197C12.2197 21.795 14.1319 17.5223 17.2242 14.4289L10.564 7.76587C5.76739 12.5641 2.80039 19.1932 2.80039 26.5148H2.7998Z" fill="#333333"/>
<path fill-rule="evenodd" clip-rule="evenodd" d="M10.5645 7.76575L17.2247 14.4288C20.317 11.3354 24.5883 9.42258 29.3064 9.42258V-0.000488281C21.9873 -0.000488281 15.3611 2.96692 10.5645 7.76516V7.76575Z" fill="black"/>
<path fill-rule="evenodd" clip-rule="evenodd" d="M17.2078 38.5841C14.1249 35.4925 12.2197 31.2262 12.2197 26.5146H2.7998C2.7998 33.828 5.76036 40.4506 10.5476 45.2477L17.2078 38.5847V38.5841Z" fill="#4D4D4D"/>
<path fill-rule="evenodd" clip-rule="evenodd" d="M17.209 38.584L10.5488 45.247C10.5769 45.2752 10.6056 45.3033 10.6337 45.3314L10.6818 45.3794L29.2967 63.9994L29.3066 63.9895V53.0285V43.606C24.5803 43.606 20.302 41.6867 17.209 38.584Z" fill="#666666"/>
<path fill-rule="evenodd" clip-rule="evenodd" d="M29.3057 43.606V53.0285V63.9894L47.4069 45.8832L48.0482 45.2628L41.3874 38.6003C38.2951 41.6937 34.0238 43.6066 29.3057 43.6066V43.606Z" fill="#666666"/>
<path fill-rule="evenodd" clip-rule="evenodd" d="M48.0486 7.76575L41.3884 14.4288C38.2961 11.3354 34.0248 9.42258 29.3066 9.42258V-0.000488281C36.6257 -0.000488281 43.252 2.96692 48.0486 7.76516V7.76575Z" fill="black"/>
<path fill-rule="evenodd" clip-rule="evenodd" d="M29.0761 25.8742V18.9341L14.599 4.45263L0 4.42627L21.4401 25.8742H29.0761Z" fill="#FF6600"/>
<path fill-rule="evenodd" clip-rule="evenodd" d="M55.8121 26.5148H46.3922C46.3922 21.795 44.48 17.5223 41.3877 14.4289L48.0479 7.76587C52.8445 12.5641 55.8115 19.1932 55.8115 26.5148H55.8121Z" fill="#1A1A1A"/>
<path fill-rule="evenodd" clip-rule="evenodd" d="M41.4043 38.5841C44.4873 35.4925 46.3924 31.2262 46.3924 26.5146H55.8123C55.8123 33.828 52.8518 40.4506 48.0645 45.2477L41.4043 38.5847V38.5841Z" fill="#333333"/>
<path fill-rule="evenodd" clip-rule="evenodd" d="M33.5723 23.8408V30.7816L48.0494 45.263L62.6484 45.2888L41.2082 23.8408H33.5723Z" fill="#FF6600"/>
</svg>
