<svg width="15" height="15" xmlns="http://www.w3.org/2000/svg">
    <path d="M9.032.303l.16 1.793c.219.073.43.16.636.257l1.362-1.177a7.321 7.321 0 012.39 2.349l-1.154 1.381c.101.203.19.413.267.63l1.796.13c.23.937.278 1.946.105 2.987l-.07.364-1.788.161a5.475 5.475 0 01-.256.647l1.183 1.369a7.2 7.2 0 01-2.346 2.388l-1.388-1.16a5.477 5.477 0 01-.645.269l-.13 1.79-.14.033a7.456 7.456 0 01-3.21-.01l-.16-1.793a5.558 5.558 0 01-.636-.257l-1.36 1.178a7.321 7.321 0 01-2.391-2.35l1.154-1.38a5.562 5.562 0 01-.268-.63l-1.796-.13a7.402 7.402 0 01-.105-2.988l.07-.364L2.11 5.63c.075-.208.166-.415.271-.618L1.226 3.675A8.55 8.55 0 013.584 1.28L4.94 2.414c.2-.11.404-.204.61-.283L5.68.326l.14-.033a7.455 7.455 0 013.212.01zM6.62 3.848c-1.243.264-2.492 1.514-2.757 2.757a3.649 3.649 0 004.355 4.354 3.588 3.588 0 002.757-2.757 3.649 3.649 0 00-4.355-4.354z"
          fill="#FF6600" fill-rule="evenodd"/>
</svg>