<svg width="38" height="40"  viewBox="0 0 38 40" xmlns="http://www.w3.org/2000/svg" xmlns:xlink="http://www.w3.org/1999/xlink">

    <g id="white" fill="white">
        <path fill-rule="evenodd" clip-rule="evenodd" d="
        M18.9999 0.208344C16.5497 0.207594 14.1638 0.992284 12.1924 2.44724C10.2209 3.9022 8.76776 5.9508 8.04621 8.29235C7.32466 10.6339 7.37269 13.1451 8.18328 15.4573C8.99386 17.7696 10.5243 19.7611 12.5499 21.1396C9.03431 22.429 5.98499 24.7411 3.79444 27.7782C1.60389 30.8152 0.372331 34.4384 0.258272 38.1813C0.24584 38.5957 0.398538 38.998 0.682772 39.2999C0.967007 39.6017 1.3595 39.7782 1.7739 39.7906C2.1883 39.8031 2.59066 39.6504 2.89248 39.3661C3.1943 39.0819 3.37084 38.6894 3.38327 38.275C3.50733 34.2156 5.20715 30.3639 8.1225 27.5363C11.0378 24.7087 14.9396 23.1273 19.001 23.1273C23.0623 23.1273 26.9641 24.7087 29.8795 27.5363C32.7948 30.3639 34.4946 34.2156 34.6187 38.275C34.6203 38.4831 34.6634 38.6887 34.7455 38.8799C34.8276 39.071 34.9471 39.2438 35.0969 39.3882C35.2467 39.5326 35.4238 39.6456 35.6179 39.7206C35.8119 39.7956 36.019 39.8311 36.227 39.825C36.4349 39.8189 36.6396 39.7713 36.8289 39.685C37.0182 39.5988 37.1884 39.4756 37.3295 39.3227C37.4706 39.1698 37.5797 38.9902 37.6505 38.7946C37.7212 38.5989 37.7522 38.3911 37.7416 38.1834C37.628 34.4401 36.3966 30.8165 34.206 27.779C32.0154 24.7415 28.9659 22.4292 25.4499 21.1396C27.4756 19.7611 29.006 17.7696 29.8166 15.4573C30.6272 13.1451 30.6752 10.6339 29.9537 8.29235C29.2321 5.9508 27.779 3.9022 25.8075 2.44724C23.8361 0.992284 21.4501 0.207594 18.9999 0.208344ZM10.6666 11.6667C10.6666 9.45654 11.5446 7.33693 13.1074 5.77412C14.6702 4.21132 16.7898 3.33334 18.9999 3.33334C21.2101 3.33334 23.3297 4.21132 24.8925 5.77412C26.4553 7.33693 27.3333 9.45654 27.3333 11.6667C27.3333 13.8768 26.4553 15.9964 24.8925 17.5592C23.3297 19.122 21.2101 20 18.9999 20C16.7898 20 14.6702 19.122 13.1074 17.5592C11.5446 15.9964 10.6666 13.8768 10.6666 11.6667Z"/>
    </g>
    <use x="100" y="100" xlink:href="#white" fill="black"/>
</svg>
