<svg width="63" height="64" viewBox="0 0 63 64" fill="none" xmlns="http://www.w3.org/2000/svg">
<path fill-rule="evenodd" clip-rule="evenodd" d="M2.7998 26.5148H12.2197C12.2197 21.795 14.1319 17.5223 17.2242 14.4289L10.564 7.76587C5.76739 12.5641 2.80039 19.1932 2.80039 26.5148H2.7998Z" fill="#333333"/>
<path fill-rule="evenodd" clip-rule="evenodd" d="M10.5645 7.76575L17.2247 14.4288C20.317 11.3354 24.5883 9.42258 29.3064 9.42258V-0.000488281C21.9873 -0.000488281 15.3611 2.96692 10.5645 7.76516V7.76575Z" fill="black"/>
<path fill-rule="evenodd" clip-rule="evenodd" d="M17.2078 38.5841C14.1249 35.4925 12.2197 31.2262 12.2197 26.5146H2.7998C2.7998 33.828 5.76036 40.4506 10.5476 45.2477L17.2078 38.5847V38.5841Z" fill="#4D4D4D"/>
<path fill-rule="evenodd" clip-rule="evenodd" d="M17.209 38.584L10.5488 45.247C10.5769 45.2752 10.6056 45.3033 10.6337 45.3314L10.6818 45.3794L29.2967 63.9994L29.3066 63.9895V53.0285V43.606C24.5803 43.606 20.302 41.6867 17.209 38.584Z" fill="#666666"/>
<path fill-rule="evenodd" clip-rule="evenodd" d="M29.3057 43.606V53.0285V63.9894L47.4069 45.8832L48.0482 45.2628L41.3874 38.6003C38.2951 41.6937 34.0238 43.6066 29.3057 43.6066V43.606Z" fill="#666666"/>
<path fill-rule="evenodd" clip-rule="evenodd" d="M48.0486 7.76575L41.3884 14.4288C38.2961 11.3354 34.0248 9.42258 29.3066 9.42258V-0.000488281C36.6257 -0.000488281 43.252 2.96692 48.0486 7.76516V7.76575Z" fill="black"/>
<path fill-rule="evenodd" clip-rule="evenodd" d="M29.0761 25.8742V18.9341L14.599 4.45263L0 4.42627L21.4401 25.8742H29.0761Z" fill="#FF6600"/>
<path fill-rule="evenodd" clip-rule="evenodd" d="M55.8121 26.5148H46.3922C46.3922 21.795 44.48 17.5223 41.3877 14.4289L48.0479 7.76587C52.8445 12.5641 55.8115 19.1932 55.8115 26.5148H55.8121Z" fill="#1A1A1A"/>
<path fill-rule="evenodd" clip-rule="evenodd" d="M41.4043 38.5841C44.4873 35.4925 46.3924 31.2262 46.3924 26.5146H55.8123C55.8123 33.828 52.8518 40.4506 48.0645 45.2477L41.4043 38.5847V38.5841Z" fill="#333333"/>
<path fill-rule="evenodd" clip-rule="evenodd" d="M33.5723 23.8408V30.7816L48.0494 45.263L62.6484 45.2888L41.2082 23.8408H33.5723Z" fill="#FF6600"/>
</svg>
