<svg width="28" height="28" viewBox="0 0 28 28" fill="none" xmlns="http://www.w3.org/2000/svg">
<g clip-path="url(#clip0_81_1708)">
<path d="M1.18362 16.1153L3.01865 16.1268C3.29305 17.5388 3.83612 18.9108 4.65931 20.157L3.35593 21.4489C2.88717 21.912 2.88717 22.6608 3.3445 23.1296L4.75078 24.553C5.21382 25.0218 5.9627 25.0218 6.43146 24.5645L7.73484 23.2725C8.96963 24.1071 10.3359 24.6731 11.7479 24.9589L11.7365 26.7939C11.7307 27.4513 12.2624 27.983 12.9198 27.9887L14.9206 28.0001C15.578 28.0059 16.1097 27.4742 16.1154 26.8168L16.1268 24.9818C17.5388 24.7074 18.9108 24.1643 20.157 23.3411L21.449 24.6445C21.912 25.1133 22.6609 25.1133 23.1296 24.6559L24.5531 23.2496C25.0218 22.7866 25.0218 22.0377 24.5645 21.569L23.2725 20.2656C24.1072 19.0308 24.6731 17.6645 24.9589 16.2525L26.794 16.264C27.4514 16.2697 27.983 15.738 27.9887 15.0806L28.0002 13.0798C28.0059 12.4224 27.4742 11.8908 26.8168 11.8851L24.9818 11.8736C24.7074 10.4616 24.1643 9.08965 23.3411 7.84343L24.6445 6.55148C25.1133 6.08843 25.1133 5.33956 24.656 4.8708L23.2497 3.44737C22.7866 2.97861 22.0378 2.97861 21.569 3.43593L20.2656 4.72788C19.0308 3.89326 17.6646 3.32732 16.2526 3.04149L16.264 1.20646C16.2697 0.549052 15.7381 0.0174091 15.0807 0.0116925L13.0799 0.000259296C12.4225 -0.0054573 11.8908 0.526186 11.8851 1.18359L11.8679 3.01862C10.4502 3.29302 9.07824 3.83609 7.83774 4.65928L6.54579 3.3559C6.08275 2.88714 5.33387 2.88714 4.86511 3.34447L3.4474 4.75075C2.97864 5.21379 2.97864 5.96267 3.43596 6.43143L4.72791 7.73481C3.89329 8.9696 3.32735 10.3359 3.04152 11.7479L1.20649 11.7364C0.549083 11.7307 0.0174396 12.2624 0.011723 12.9198L0.000289814 14.9206C-0.00542678 15.5723 0.526217 16.1096 1.18362 16.1153ZM10.2501 10.2101C12.3424 8.14069 15.7095 8.15784 17.7789 10.2501C19.8483 12.3424 19.8312 15.7095 17.7389 17.7789C15.6466 19.8483 12.2795 19.8311 10.2101 17.7389C8.14072 15.6466 8.15787 12.2795 10.2501 10.2101Z" fill="#FF6600"/>
</g>
<defs>
<clipPath id="clip0_81_1708">
<rect width="28" height="28" fill="white"/>
</clipPath>
</defs>
</svg>
