<svg width="14" height="14" viewBox="0 0 14 14" fill="none" xmlns="http://www.w3.org/2000/svg">
<g clip-path="url(#clip0_820_3709)">
<path d="M7 14C7.46413 14 7.90925 13.8156 8.23744 13.4874C8.56563 13.1593 8.75 12.7141 8.75 12.25H5.25C5.25 12.7141 5.43437 13.1593 5.76256 13.4874C6.09075 13.8156 6.53587 14 7 14ZM7.87063 0.961628C7.88284 0.839962 7.86941 0.717088 7.83122 0.600929C7.79303 0.48477 7.73091 0.377906 7.64888 0.287228C7.56685 0.196551 7.46672 0.124073 7.35496 0.0744691C7.2432 0.0248654 7.12228 -0.000762939 7 -0.000762939C6.87772 -0.000762939 6.7568 0.0248654 6.64504 0.0744691C6.53328 0.124073 6.43315 0.196551 6.35112 0.287228C6.26909 0.377906 6.20697 0.48477 6.16878 0.600929C6.13059 0.717088 6.11716 0.839962 6.12937 0.961628C5.14038 1.16279 4.25129 1.69957 3.61267 2.48107C2.97404 3.26256 2.62513 4.24076 2.625 5.25C2.625 6.21075 2.1875 10.5 0.875 11.375H13.125C11.8125 10.5 11.375 6.21075 11.375 5.25C11.375 3.1325 9.87 1.365 7.87063 0.961628Z"
      fill="#FD6601"/>
</g>
<defs>
<clipPath id="clip0_820_3709">
<rect width="14" height="14" fill="white"/>
</clipPath>
</defs>
</svg>
