<svg width="7" height="12" viewBox="0 0 7 12" fill="none" xmlns="http://www.w3.org/2000/svg">
<path fill-rule="evenodd" clip-rule="evenodd" d="M0 2.24779H0.970588V8.79455C0.970588 10.0381 2.02151 11.0567 3.32143 11.0567C4.62135 11.0567 5.67227 10.0381 5.67227 8.79455V2.35493C5.67227 1.58032 5.01714 0.943299 4.20378 0.943299C3.39042 0.943299 2.73529 1.58032 2.73529 2.35493V8.79455C2.73529 9.10019 2.99457 9.35567 3.32143 9.35567C3.64829 9.35567 3.90756 9.10019 3.90756 8.79455V2.24779H4.87815V8.79455C4.87815 9.62787 4.17617 10.299 3.32143 10.299C2.46669 10.299 1.76471 9.62787 1.76471 8.79455V2.35493C1.76471 1.05264 2.86251 0 4.20378 0C5.54505 0 6.64286 1.05264 6.64286 2.35493V8.79455C6.64286 10.5658 5.14923 12 3.32143 12C1.49363 12 0 10.5658 0 8.79455V2.24779Z" fill="#6B6D70"/>
</svg>
