<svg width="21" height="18" xmlns="http://www.w3.org/2000/svg">
    <path d="M11.957 7.014H5.024l4.22-4.415a1.514 1.514 0 000-2.158 1.482 1.482 0 00-2.11 0L.402 7.504c-.1.098-.1.196-.201.196 0 0 0 .098-.1.098 0 .098-.101.098-.101.197V9.172c0 .098.1.098.1.196v.098c.101.098.101.196.201.196l6.732 7.063c.302.294.704.49 1.106.49.402 0 .804-.196 1.105-.49a1.514 1.514 0 000-2.158l-4.22-4.414h6.933c3.316 0 6.029 2.746 6.029 6.278 0 .882.703 1.569 1.507 1.569.804 0 1.507-.687 1.507-1.57 0-5.198-4.12-9.416-9.043-9.416z"
          fill="#212529" fill-rule="evenodd"/>
</svg>