<svg width="36" height="36" viewBox="0 0 36 36" fill="none" xmlns="http://www.w3.org/2000/svg">
<path fill-rule="evenodd" clip-rule="evenodd" d="M24.2287 6.70025C23.5285 6.3838 22.7514 6.20764 21.9332 6.20764H5.581C2.49928 6.20764 0 8.70692 0 11.7886V24.2113C0 26.042 0.881953 27.6671 2.24404 28.6849L24.2287 6.70025ZM27.3896 10.6104L8.20767 29.7923H21.9259C25.0076 29.7923 27.5069 27.293 27.5069 24.2113V23.1866L33.744 26.7843C34.7467 27.3594 36 26.6369 36 25.4794V10.5058C36 9.35571 34.7467 8.62583 33.7514 9.21563L27.5142 12.8134V11.7886C27.5142 11.3844 27.4712 10.9903 27.3896 10.6104Z" fill="#6B6D70"/>
<line x1="1.29289" y1="33.2929" x2="30.2929" y2="4.29289" stroke="#6B6D70" stroke-width="2"/>
</svg>
