<svg width="18" height="18" viewBox="0 0 18 18" fill="none" xmlns="http://www.w3.org/2000/svg">
<path fill-rule="evenodd" clip-rule="evenodd" d="M11.9134 12.6124L17.1489 17.848C17.1945 17.8954 17.249 17.9333 17.3094 17.9594C17.3698 17.9855 17.4347 17.9993 17.5005 18C17.5663 18.0006 17.6315 17.9882 17.6924 17.9633C17.7533 17.9385 17.8087 17.9017 17.8552 17.8552C17.9017 17.8087 17.9385 17.7533 17.9633 17.6924C17.9882 17.6315 18.0006 17.5663 18 17.5005C17.9993 17.4347 17.9855 17.3698 17.9594 17.3094C17.9333 17.249 17.8954 17.1944 17.848 17.1489L17.8439 17.145L12.6124 11.9134L12.7709 11.7185C13.7776 10.4806 14.3827 8.90518 14.3827 7.19137C14.3827 3.22884 11.1539 0 7.19137 0C3.22884 0 0 3.22884 0 7.19137C0 11.1539 3.22884 14.3827 7.19137 14.3827C8.90518 14.3827 10.4806 13.7776 11.7185 12.7709L11.9134 12.6124ZM11.6466 11.5076L11.6274 11.5218C11.587 11.5514 11.5514 11.587 11.5218 11.6274L11.5076 11.6466L11.4904 11.6632C10.377 12.7336 8.86458 13.394 7.19137 13.394C3.75661 13.394 0.988759 10.6261 0.988759 7.19137C0.988759 3.75661 3.75661 0.988759 7.19137 0.988759C10.6261 0.988759 13.394 3.75661 13.394 7.19137C13.394 8.86458 12.7336 10.377 11.6632 11.4904L11.6466 11.5076Z" fill="#212529"/>
</svg>
