<svg width="12" height="12" viewBox="0 0 12 12" fill="none" xmlns="http://www.w3.org/2000/svg">
<path d="M5.58086 1.10494e-07C6.20097 -0.000167077 6.806 0.191234 7.31319 0.548025C7.82037 0.904816 8.20496 1.40958 8.41435 1.99327C8.62374 2.57696 8.6477 3.21109 8.48296 3.80892C8.31822 4.40675 7.97282 4.93909 7.494 5.33314C9.49543 5.99486 11.16 7.61486 11.16 9.54343V10.5334C11.16 10.9085 11.011 11.2683 10.7458 11.5335C10.4805 11.7987 10.1208 11.9477 9.74571 11.9477H1.41429C1.03919 11.9477 0.679465 11.7987 0.414235 11.5335C0.149005 11.2683 0 10.9085 0 10.5334V9.80314C0 7.84286 1.70057 6.07286 3.69086 5.352C3.20617 4.96112 2.85466 4.42952 2.68478 3.83048C2.5149 3.23144 2.53502 2.59446 2.74236 2.00733C2.94969 1.4202 3.33404 0.911844 3.84243 0.552325C4.35081 0.192806 4.9582 -0.000168574 5.58086 1.10494e-07V1.10494e-07ZM5.55257 6.12429C3.456 6.12429 1.11514 7.93286 1.11514 9.80314V10.5334C1.11514 10.6997 1.24971 10.8334 1.41514 10.8334H9.74657C9.82614 10.8334 9.90244 10.8018 9.9587 10.7456C10.015 10.6893 10.0466 10.613 10.0466 10.5334V9.54343C10.0466 7.72971 7.74086 6.12429 5.55257 6.12429V6.12429ZM5.58086 1.11429C5.33193 1.11429 5.08543 1.16332 4.85545 1.25858C4.62547 1.35384 4.41651 1.49347 4.24049 1.66949C4.06447 1.84551 3.92484 2.05447 3.82958 2.28445C3.73432 2.51443 3.68529 2.76093 3.68529 3.00986C3.68529 3.25879 3.73432 3.50528 3.82958 3.73526C3.92484 3.96524 4.06447 4.17421 4.24049 4.35023C4.41651 4.52625 4.62547 4.66588 4.85545 4.76114C5.08543 4.8564 5.33193 4.90543 5.58086 4.90543C6.08359 4.90543 6.56574 4.70572 6.92123 4.35023C7.27672 3.99474 7.47643 3.51259 7.47643 3.00986C7.47643 2.50712 7.27672 2.02497 6.92123 1.66949C6.56574 1.314 6.08359 1.11429 5.58086 1.11429V1.11429Z" fill="#FF6600"/>
</svg>
