<svg width="12" height="12" viewBox="0 0 12 12" fill="none" xmlns="http://www.w3.org/2000/svg">
<path d="M5.61601 1.10494e-07C6.23613 -0.000167077 6.84115 0.191234 7.34834 0.548025C7.85553 0.904816 8.24012 1.40958 8.4495 1.99327C8.65889 2.57696 8.68285 3.21109 8.51811 3.80892C8.35337 4.40675 8.00797 4.93909 7.52916 5.33314C9.53058 5.99486 11.1952 7.61486 11.1952 9.54343V10.5334C11.1952 10.9085 11.0462 11.2683 10.7809 11.5335C10.5157 11.7987 10.156 11.9477 9.78087 11.9477H1.44944C1.07435 11.9477 0.714621 11.7987 0.449391 11.5335C0.184161 11.2683 0.0351563 10.9085 0.0351562 10.5334V9.80314C0.0351562 7.84286 1.73573 6.07286 3.72601 5.352C3.24133 4.96112 2.88982 4.42952 2.71994 3.83048C2.55006 3.23144 2.57017 2.59446 2.77751 2.00733C2.98485 1.4202 3.3692 0.911844 3.87758 0.552325C4.38597 0.192806 4.99335 -0.000168574 5.61601 1.10494e-07ZM5.58773 6.12429C3.49116 6.12429 1.1503 7.93286 1.1503 9.80314V10.5334C1.1503 10.6997 1.28487 10.8334 1.4503 10.8334H9.78173C9.86129 10.8334 9.9376 10.8018 9.99386 10.7456C10.0501 10.6893 10.0817 10.613 10.0817 10.5334V9.54343C10.0817 7.72971 7.77601 6.12429 5.58773 6.12429ZM5.61601 1.11429C5.36708 1.11429 5.12059 1.16332 4.89061 1.25858C4.66063 1.35384 4.45166 1.49347 4.27564 1.66949C4.09962 1.84551 3.96 2.05447 3.86473 2.28445C3.76947 2.51443 3.72044 2.76093 3.72044 3.00986C3.72044 3.25879 3.76947 3.50528 3.86473 3.73526C3.96 3.96524 4.09962 4.17421 4.27564 4.35023C4.45166 4.52625 4.66063 4.66588 4.89061 4.76114C5.12059 4.8564 5.36708 4.90543 5.61601 4.90543C6.11875 4.90543 6.6009 4.70572 6.95638 4.35023C7.31187 3.99474 7.51158 3.51259 7.51158 3.00986C7.51158 2.50712 7.31187 2.02497 6.95638 1.66949C6.6009 1.314 6.11875 1.11429 5.61601 1.11429Z" fill="#6B6D70"/>
</svg>
