<svg xmlns="http://www.w3.org/2000/svg" width="17" height="20">
    <g fill="none" fill-rule="evenodd">
        <path d="M0 0h17v20H0z"/>
        <path fill="#6B6D70"
              d="M2.464 8.654c.568.006 1.03.441 1.084.993l.006.12c-.007.572.313 1.67.902 2.523.845 1.225 2.145 1.935 4.078 1.935l.167-.004 1.944 1.943c-.3.08-.613.142-.939.186v1.449h.477a.993.993 0 110 1.985H6.862a.993.993 0 010-1.985h.475v-1.45c-3.982-.538-6.017-3.74-5.986-6.605a1.102 1.102 0 011.113-1.09zm-.869-6.597L15.769 16.23a.933.933 0 010 1.32l-.002.002a.933.933 0 01-1.32 0L.274 3.379a.933.933 0 010-1.32l.002-.002a.933.933 0 011.32 0zm12.974 6.597a1.101 1.101 0 011.124 1.078c.02.905-.183 1.86-.601 2.758l-1.771-1.773c.097-.318.154-.606.167-.82l.003-.118a1.101 1.101 0 011.078-1.125zM8.522 0a3.004 3.004 0 013.004 3.004v5.92L5.518 2.92l.004-.091a3.004 3.004 0 013-2.828z"/>
    </g>
</svg>