<svg width="20" height="20" viewBox="0 0 20 20" xmlns="http://www.w3.org/2000/svg">
    <path fill="#FF6600" d="M11.4887 10.0024L19.6917 1.79939C20.1028 1.3883 20.1028 0.721816 19.6917 0.310762C19.2806 -0.100332 18.6141 -0.100332 18.2031 0.310762L9.99998 8.51381L1.79695 0.310762C1.38586 -0.100332 0.719374 -0.100332 0.30832 0.310762C-0.102734 0.721855 -0.102773 1.38834 0.30832 1.79939L8.51135 10.0024L0.30832 18.2055C-0.102773 18.6166 -0.102773 19.2831 0.30832 19.6941C0.719413 20.1052 1.3859 20.1052 1.79695 19.6941L9.99998 11.4911L18.203 19.6941C18.6141 20.1052 19.2806 20.1052 19.6916 19.6941C20.1027 19.283 20.1027 18.6165 19.6916 18.2055L11.4887 10.0024Z" />
</svg>
