<svg width="312" height="71" viewBox="0 0 312 71" fill="none" xmlns="http://www.w3.org/2000/svg">
<path d="M0.00123876 56.1832C0.00123876 56.1832 8.04159 37.4521 24.1223 0.00123413C24.1223 0.00123413 26.2274 0.00123413 30.4375 0.00123413C30.4375 0.00123413 38.5038 18.7323 54.6229 56.1832C54.6229 56.1832 52.5686 56.1832 48.4587 56.1832C48.4587 56.1832 45.7447 49.8723 40.3168 37.2493C40.3168 37.2493 31.5921 37.2493 14.1278 37.2493C14.1278 37.2493 11.3879 43.5602 5.90929 56.1832C5.90929 56.1832 3.94406 56.1832 0 56.1832H0.00123876ZM16.2849 32.1541C16.2849 32.1541 23.5642 32.1541 38.1239 32.1541C38.1239 32.1541 34.5214 23.5739 27.3176 6.38878C27.3176 6.38878 23.6396 14.9814 16.2837 32.1541H16.2849ZM60.229 56.1832C60.229 56.1832 60.229 42.3185 60.229 14.6017C60.229 14.6017 62.1051 14.6017 65.8722 14.6017C65.8722 14.6017 65.8722 16.3887 65.8722 19.9875C69.2965 15.7296 73.7479 13.6 79.2526 13.6C82.1942 13.6 84.8834 14.1453 87.3189 15.2472C89.7408 16.3504 91.7704 17.947 93.4064 20.0506C94.7504 21.8376 95.6897 23.7891 96.2342 25.9187C96.7799 28.0483 97.046 30.8618 97.046 34.3468V56.1832H91.4399C91.4399 56.1832 91.4399 48.9089 91.4399 34.3468C91.4399 31.558 91.2122 29.2899 90.7556 27.5783C90.2989 25.8544 89.5254 24.3345 88.4599 23.0285C86.1135 20.1767 82.8167 18.7582 78.5806 18.7582C76.3097 18.7582 74.2182 19.2269 72.3285 20.1643C70.4264 21.103 68.9426 22.4201 67.8523 24.1057C67.1295 25.2459 66.6221 26.5012 66.3177 27.8702C66.0256 29.2392 65.8734 31.0646 65.8734 33.3067V56.1832H60.2302H60.229ZM110.577 70.77C110.577 70.77 112.847 65.4473 117.375 54.8141C117.375 54.8141 111.986 41.4059 101.218 14.6004C101.218 14.6004 103.272 14.6004 107.382 14.6004C107.382 14.6004 111.783 25.6516 120.572 47.7538C120.572 47.7538 125.265 36.7027 134.661 14.6004C134.661 14.6004 136.652 14.6004 140.635 14.6004C140.635 14.6004 132.619 33.3191 116.602 70.77C116.602 70.77 114.586 70.77 110.577 70.77ZM147.102 56.1832C147.102 56.1832 147.102 37.4521 147.102 0.00123413C147.102 0.00123413 152.264 0.00123413 162.6 0.00123413C166.24 0.00123413 169.22 0.228789 171.528 0.672764C173.848 1.11674 175.878 1.87731 177.603 2.94087C179.733 4.19611 181.382 6.04621 182.549 8.4924C183.716 10.925 184.299 13.7644 184.299 17.0083C184.299 19.8342 183.818 22.357 182.84 24.5868C181.876 26.8178 180.494 28.5912 178.681 29.9355C176.982 31.1907 174.966 32.1022 172.67 32.6476C170.362 33.193 167.318 33.4588 163.526 33.4588H152.707V56.1832H147.101H147.102ZM152.708 28.3389H163.158C168.206 28.3389 171.808 27.7057 173.963 26.4381C175.447 25.6528 176.602 24.4223 177.4 22.7626C178.212 21.103 178.605 19.1639 178.605 16.9329C178.605 14.1948 178.06 11.8884 176.982 10.0506C175.891 8.20054 174.331 6.95889 172.289 6.3121C169.867 5.50083 165.998 5.09519 160.697 5.09519H152.707V28.3389H152.708ZM232.303 14.6004C232.303 14.6004 232.303 28.4527 232.303 56.1819C232.303 56.1819 230.413 56.1819 226.646 56.1819C226.646 56.1819 226.646 53.7493 226.646 48.8693C224.452 51.8349 222.105 53.9645 219.645 55.2569C217.185 56.5368 214.191 57.1836 210.679 57.1836C206.443 57.1836 202.613 56.2462 199.214 54.3825C195.802 52.5077 193.139 49.9218 191.212 46.626C189.272 43.3178 188.308 39.604 188.308 35.4982C188.308 31.3923 189.259 27.6662 191.174 24.3197C193.076 20.9868 195.701 18.3637 199.05 16.4493C202.385 14.5485 206.114 13.5975 210.222 13.5975C213.875 13.5975 216.995 14.2566 219.608 15.575C222.22 16.9057 224.567 19.0229 226.647 21.9501V14.5992H232.304L232.303 14.6004ZM210.159 18.757C205.695 18.757 201.891 20.3672 198.745 23.5863C195.599 26.8054 194.028 30.6961 194.028 35.2842C194.028 39.9614 195.638 43.9151 198.86 47.1466C202.082 50.3781 206.001 51.9883 210.603 51.9883C215.13 51.9883 218.936 50.3793 222.03 47.1849C225.111 43.9794 226.646 40.0121 226.646 35.2842C226.646 30.5452 225.073 26.6162 221.928 23.4725C218.782 20.3301 214.864 18.7582 210.159 18.7582V18.757ZM276.932 43.9263C276.932 43.9263 279.063 43.9263 283.312 43.9263C282.132 46.182 281.042 47.9443 280.052 49.223C279.063 50.4906 277.87 51.6568 276.476 52.6957C272.67 55.686 268.143 57.1812 262.918 57.1812C258.708 57.1812 254.866 56.2178 251.403 54.3046C247.928 52.3914 245.214 49.7548 243.223 46.3959C241.244 43.0371 240.255 39.3369 240.255 35.2805C240.255 31.2884 241.244 27.6389 243.21 24.3184C245.177 21.0102 247.877 18.3872 251.289 16.474C254.713 14.5473 258.467 13.5975 262.551 13.5975C267.256 13.5975 271.454 14.8144 275.158 17.2729C278.86 19.7191 281.562 23.0397 283.249 27.2209H276.934C275.322 24.4965 273.268 22.4052 270.795 20.9472C268.323 19.4767 265.544 18.7545 262.475 18.7545C257.847 18.7545 253.94 20.3647 250.757 23.5838C247.574 26.8029 245.976 30.7443 245.976 35.4215C245.976 40.0603 247.6 43.9757 250.821 47.1825C254.055 50.3769 258.013 51.9858 262.704 51.9858C265.672 51.9858 268.246 51.365 270.403 50.1233C272.571 48.8941 274.753 46.8275 276.935 43.9263H276.932ZM296.171 56.1819C296.171 56.1819 296.171 44.0153 296.171 19.682C296.171 19.682 293.191 19.682 287.217 19.682C287.217 19.682 287.217 17.9841 287.217 14.6004C287.217 14.6004 290.211 14.6004 296.171 14.6004C296.171 14.6004 296.171 9.73404 296.171 0C296.171 0 298.061 0 301.828 0C301.828 0 301.828 4.8664 301.828 14.6004C301.828 14.6004 304.948 14.6004 311.188 14.6004C311.188 14.6004 311.188 16.2984 311.188 19.682C311.188 19.682 308.068 19.682 301.828 19.682C301.828 19.682 301.828 31.8487 301.828 56.1819C301.828 56.1819 299.938 56.1819 296.171 56.1819Z" fill="#444444"/>
</svg>
