<?xml version="1.0" encoding="utf-8"?><svg viewBox="0 0 189 72" xmlns="http://www.w3.org/2000/svg" xmlns:xlink="http://www.w3.org/1999/xlink"><style>:root>svg{display:none}:root>svg:target{display:block}</style><svg viewBox="0 0 48 48" id="arrow-left" xmlns="http://www.w3.org/2000/svg"><path d="M17.75 34.7L7 24l10.75-10.75L19 14.5l-8.6 8.6H41v1.75H10.4L19 33.4z" fill="currentColor"/></svg><svg fill="none" viewBox="0 0 9 6" id="bet__button-down" xmlns="http://www.w3.org/2000/svg"><path d="M.5 1l4 4L8 1" stroke="currentColor"/></svg><svg fill="none" viewBox="0 0 10 6" id="bet__button-up" xmlns="http://www.w3.org/2000/svg"><path d="M1 5l4-4 4 4" stroke="currentColor"/></svg><svg fill="none" viewBox="0 0 22 22" id="header-create-btn" xmlns="http://www.w3.org/2000/svg"><path d="M11 1v20M1 11h20" stroke="currentColor" stroke-width="2" stroke-linecap="square"/></svg><svg fill="none" viewBox="0 0 32 32" id="header-wallet" xmlns="http://www.w3.org/2000/svg"><g clip-path="url(#eclip0)" fill="currentColor"><path d="M30.545 16.134v-4.497a2.903 2.903 0 00-2.678-2.886l-4.176-7.295A2.874 2.874 0 0021.93.099a2.858 2.858 0 00-2.19.293L5.425 8.728H2.909A2.912 2.912 0 000 11.637V29.09A2.912 2.912 0 002.91 32h24.726a2.912 2.912 0 002.909-2.91v-4.497a2.178 2.178 0 001.454-2.047v-4.364c0-.947-.61-1.747-1.454-2.048zM20.475 1.65c.329-.193.713-.244 1.08-.146.37.1.68.34.873.676l1.417 2.475a4.993 4.993 0 01-2.027.437 5.01 5.01 0 01-3.954-1.923l2.61-1.52zM16.6 3.904c1.233 1.663 3.132 2.642 5.217 2.642.944 0 1.879-.223 2.748-.632l1.611 2.814H8.315L16.6 3.904zM29.09 29.09c0 .802-.653 1.454-1.455 1.454H2.909a1.456 1.456 0 01-1.454-1.454V11.637c0-.802.652-1.455 1.454-1.455h24.727c.802 0 1.454.653 1.454 1.455V16h-4.363a4.368 4.368 0 00-4.364 4.364 4.368 4.368 0 004.364 4.363h4.363v4.364zm1.454-6.545a.728.728 0 01-.727.727h-5.091a2.912 2.912 0 01-2.91-2.91 2.912 2.912 0 012.91-2.908h5.09c.402 0 .728.326.728.727v4.364z"/><path d="M24.726 18.91c-.802 0-1.454.652-1.454 1.454 0 .802.652 1.454 1.454 1.454.802 0 1.454-.652 1.454-1.454 0-.802-.652-1.455-1.454-1.455z"/></g><defs><clipPath id="eclip0"><path fill="#fff" d="M0 0h32v32H0z"/></clipPath></defs></svg><svg fill="none" viewBox="0 0 46 46" id="important" xmlns="http://www.w3.org/2000/svg"><circle cx="23" cy="23" r="23" fill="#F60"/><path d="M24.185 16.639l-.163 8.86H22.86l-.154-8.86h1.48zm-.722 12.49a.942.942 0 01-.955-.946c0-.264.092-.488.275-.671a.927.927 0 01.68-.284c.258 0 .481.094.67.284a.9.9 0 01.285.67.9.9 0 01-.284.672.932.932 0 01-.671.275z" fill="#fff"/></svg><svg fill="none" viewBox="0 0 72 72" id="input-file" xmlns="http://www.w3.org/2000/svg"><circle cx="36" cy="36" r="35" stroke="#fff" stroke-width="2" stroke-dasharray="4 4"/><path d="M20 37h33M37 20v33" stroke="#fff" stroke-width="2"/></svg><svg fill="none" viewBox="0 0 189 54" id="logo_app" xmlns="http://www.w3.org/2000/svg"><g clip-path="url(#hclip0_4_28)"><path d="M64.991 35.313l9.612-22.457h2.517s3.215 7.487 9.638 22.457h-2.456l-3.245-7.568H70.621l-3.275 7.568H64.99zm6.49-9.605h8.702L75.877 15.41 71.48 25.707zm17.511 9.605v-16.62h2.249v2.152c1.365-1.702 3.138-2.553 5.332-2.553 1.172 0 2.244.218 3.215.658a6.373 6.373 0 012.425 1.92c.536.715.91 1.495 1.127 2.346.218.851.324 1.976.324 3.369v8.728h-2.234v-8.728c0-1.115-.091-2.022-.273-2.706a4.783 4.783 0 00-.915-1.818c-.935-1.14-2.249-1.707-3.937-1.707-.905 0-1.738.187-2.491.562a4.392 4.392 0 00-1.784 1.575c-.288.456-.49.958-.612 1.505-.116.547-.177 1.277-.177 2.173v9.144h-2.248zm20.064 5.83s.905-2.127 2.709-6.377l-6.439-16.074h2.457s1.753 4.417 5.256 13.252c0 0 1.87-4.418 5.615-13.252h2.38s-3.194 7.482-9.577 22.452h-2.401zm14.555-5.83V12.856h6.176c1.451 0 2.638.091 3.558.269.925.177 1.733.481 2.421.906.849.502 1.506 1.242 1.971 2.22.465.972.697 2.107.697 3.403 0 1.13-.191 2.138-.581 3.03-.384.891-.935 1.6-1.658 2.137-.677.502-1.48.866-2.395 1.084-.92.218-2.133.325-3.644.325h-4.311v9.083h-2.234zm2.234-11.13h4.165c2.011 0 3.446-.253 4.305-.76.592-.313 1.052-.805 1.37-1.469.324-.663.48-1.438.48-2.33 0-1.094-.217-2.016-.647-2.75a3.23 3.23 0 00-1.87-1.495c-.965-.324-2.507-.486-4.619-.486h-3.184v9.29zm31.719-5.491v16.62h-2.254V32.39c-.875 1.185-1.81 2.036-2.79 2.553-.981.511-2.174.77-3.573.77-1.688 0-3.215-.375-4.569-1.12a8.197 8.197 0 01-3.189-3.1c-.773-1.322-1.157-2.807-1.157-4.448 0-1.641.379-3.13 1.142-4.468a8.295 8.295 0 013.138-3.146c1.33-.76 2.815-1.14 4.453-1.14 1.456 0 2.699.263 3.74.79 1.041.532 1.976 1.378 2.805 2.549V18.69h2.254zm-8.824 1.661c-1.779 0-3.295.644-4.549 1.93-1.253 1.287-1.88 2.842-1.88 4.676 0 1.87.642 3.45 1.926 4.742 1.284 1.292 2.846 1.935 4.68 1.935 1.804 0 3.32-.643 4.553-1.92 1.228-1.281 1.84-2.867 1.84-4.757 0-1.894-.627-3.464-1.88-4.72-1.254-1.257-2.815-1.885-4.69-1.885zm26.609 10.06h2.542c-.47.902-.904 1.607-1.299 2.118a7.417 7.417 0 01-1.425 1.388c-1.517 1.195-3.321 1.793-5.403 1.793-1.678 0-3.209-.385-4.589-1.15a8.48 8.48 0 01-3.26-3.161c-.788-1.343-1.182-2.822-1.182-4.443 0-1.596.394-3.054 1.178-4.382a8.543 8.543 0 013.219-3.135c1.365-.77 2.86-1.15 4.488-1.15 1.875 0 3.548.486 5.024 1.47 1.475.977 2.552 2.304 3.224 3.975h-2.517c-.642-1.089-1.46-1.925-2.446-2.507-.985-.588-2.092-.877-3.315-.877-1.845 0-3.402.644-4.67 1.93-1.269 1.287-1.905 2.863-1.905 4.732 0 1.855.647 3.42 1.931 4.701 1.288 1.277 2.865 1.92 4.735 1.92 1.183 0 2.208-.248 3.068-.744.864-.492 1.733-1.318 2.603-2.477h-.001zm7.667 4.9v-14.59h-3.568v-2.031h3.568v-5.836h2.254v5.836H189v2.031h-3.73v14.59h-2.254z" fill="#000"/><path fill-rule="evenodd" clip-rule="evenodd" d="M2.358 22.372h7.932c0-3.983 1.61-7.588 4.214-10.198L8.896 6.552a22.329 22.329 0 00-6.538 15.82z" fill="#333"/><path fill-rule="evenodd" clip-rule="evenodd" d="M8.895 6.552l5.608 5.622A14.325 14.325 0 0124.677 7.95V0A22.222 22.222 0 008.895 6.552z" fill="#000"/><path fill-rule="evenodd" clip-rule="evenodd" d="M14.49 32.555a14.391 14.391 0 01-4.2-10.183H2.358a22.33 22.33 0 006.524 15.806l5.608-5.622z" fill="#4D4D4D"/><path fill-rule="evenodd" clip-rule="evenodd" d="M14.49 32.555l-5.608 5.622.071.071.04.04L24.67 54l.008-.009V36.793c-3.98 0-7.582-1.62-10.187-4.238z" fill="#666"/><path fill-rule="evenodd" clip-rule="evenodd" d="M24.676 36.793V53.99L39.92 38.714l.54-.523-5.61-5.622a14.325 14.325 0 01-10.173 4.224z" fill="#666"/><path fill-rule="evenodd" clip-rule="evenodd" d="M40.459 6.552l-5.609 5.622A14.325 14.325 0 0024.677 7.95V0a22.222 22.222 0 0115.782 6.552z" fill="#000"/><path fill-rule="evenodd" clip-rule="evenodd" d="M24.484 21.831v-5.855l-12.19-12.22L0 3.736 18.054 21.83h6.43z" fill="#F60"/><path fill-rule="evenodd" clip-rule="evenodd" d="M46.996 22.372h-7.932c0-3.983-1.61-7.588-4.214-10.198l5.608-5.622a22.329 22.329 0 016.538 15.82z" fill="#1A1A1A"/><path fill-rule="evenodd" clip-rule="evenodd" d="M34.864 32.555a14.391 14.391 0 004.2-10.183h7.932a22.33 22.33 0 01-6.524 15.806l-5.608-5.622z" fill="#333"/><path fill-rule="evenodd" clip-rule="evenodd" d="M28.269 20.116v5.856l12.19 12.218 12.293.022-18.054-18.097h-6.43z" fill="#F60"/></g><defs><clipPath id="hclip0_4_28"><path fill="#fff" d="M0 0h189v54H0z"/></clipPath></defs></svg><svg fill="none" viewBox="0 0 21 21" id="magnifier-white" xmlns="http://www.w3.org/2000/svg"><path d="M21 19.709l-6.167-6.161a8.186 8.186 0 001.918-5.268C16.751 3.713 12.997 0 8.38 0 3.763 0 0 3.717 0 8.284c0 4.566 3.754 8.28 8.371 8.28a8.403 8.403 0 005.2-1.794L19.81 21 21 19.709zM1.78 8.284c0-3.587 2.959-6.503 6.591-6.503 3.633 0 6.592 2.916 6.592 6.503s-2.96 6.503-6.592 6.503c-3.632 0-6.592-2.92-6.592-6.503z" fill="currentColor"/></svg></svg>