<?xml version="1.0" encoding="utf-8"?><svg viewBox="0 0 396 229" xmlns="http://www.w3.org/2000/svg" xmlns:xlink="http://www.w3.org/1999/xlink"><style>:root>svg{display:none}:root>svg:target{display:block}</style><svg fill="none" viewBox="0 0 312 71" id="anypact-title" xmlns="http://www.w3.org/2000/svg"><path d="M.001 56.183S8.041 37.453 24.122.001h6.316s8.066 18.731 24.185 56.182h-6.164L40.317 37.25h-26.19L5.91 56.183H0h.001zm16.284-24.029h21.839S34.52 23.574 27.318 6.39c0 0-3.678 8.592-11.034 25.765zm43.944 24.03V14.601h5.643v5.386c3.424-4.258 7.876-6.388 13.38-6.388 2.942 0 5.631.545 8.067 1.647a15.994 15.994 0 016.087 4.804 16.44 16.44 0 012.828 5.868c.546 2.13.812 4.943.812 8.428v21.836H91.44V34.347c0-2.789-.228-5.057-.684-6.769-.457-1.724-1.23-3.244-2.296-4.55-2.346-2.851-5.643-4.27-9.88-4.27-2.27 0-4.362.469-6.251 1.406-1.903.939-3.386 2.256-4.477 3.942a11.714 11.714 0 00-1.534 3.764c-.292 1.37-.445 3.195-.445 5.437v22.876H60.23zm50.348 14.586s2.27-5.323 6.798-15.956c0 0-5.389-13.408-16.157-40.214h6.164s4.401 11.052 13.19 33.154c0 0 4.693-11.051 14.089-33.154h5.974s-8.016 18.72-24.033 56.17h-6.025zm36.525-14.587V.001H162.6c3.64 0 6.62.228 8.928.672 2.32.444 4.35 1.204 6.075 2.268 2.13 1.255 3.779 3.105 4.946 5.551 1.167 2.433 1.75 5.272 1.75 8.516 0 2.826-.481 5.349-1.459 7.579-.964 2.23-2.346 4.004-4.159 5.349-1.699 1.255-3.715 2.166-6.011 2.712-2.308.545-5.352.81-9.144.81h-10.819v22.725h-5.606.001zm5.606-27.844h10.45c5.048 0 8.65-.633 10.805-1.9 1.484-.786 2.639-2.017 3.437-3.676.812-1.66 1.205-3.6 1.205-5.83 0-2.738-.545-5.045-1.623-6.882-1.091-1.85-2.651-3.092-4.693-3.739-2.422-.811-6.291-1.217-11.592-1.217h-7.99V28.34h.001zM232.303 14.6v41.582h-5.657v-7.313c-2.194 2.966-4.541 5.096-7.001 6.388-2.46 1.28-5.454 1.927-8.966 1.927-4.236 0-8.066-.938-11.465-2.801-3.412-1.875-6.075-4.461-8.002-7.757-1.94-3.308-2.904-7.022-2.904-11.128s.951-7.832 2.866-11.178c1.902-3.333 4.527-5.956 7.876-7.87 3.335-1.901 7.064-2.852 11.172-2.852 3.653 0 6.773.659 9.386 1.977 2.612 1.33 4.959 3.448 7.039 6.375V14.6h5.657-.001zm-22.144 4.157c-4.464 0-8.268 1.61-11.414 4.83-3.146 3.218-4.717 7.11-4.717 11.697 0 4.677 1.61 8.631 4.832 11.863 3.222 3.231 7.141 4.841 11.743 4.841 4.527 0 8.333-1.609 11.427-4.803 3.081-3.206 4.616-7.173 4.616-11.9 0-4.74-1.573-8.669-4.718-11.812-3.146-3.143-7.064-4.715-11.769-4.715v-.001zm66.773 25.17h6.38c-1.18 2.255-2.27 4.017-3.26 5.296a18.638 18.638 0 01-3.576 3.473c-3.806 2.99-8.333 4.485-13.558 4.485-4.21 0-8.052-.963-11.515-2.876-3.475-1.914-6.189-4.55-8.18-7.91-1.979-3.358-2.968-7.058-2.968-11.114 0-3.993.989-7.642 2.955-10.963 1.967-3.308 4.667-5.93 8.079-7.844 3.424-1.927 7.178-2.877 11.262-2.877 4.705 0 8.903 1.217 12.607 3.676 3.702 2.446 6.404 5.767 8.091 9.948h-6.315c-1.612-2.724-3.666-4.816-6.139-6.274-2.472-1.47-5.251-2.192-8.32-2.192-4.628 0-8.535 1.61-11.718 4.829-3.183 3.219-4.781 7.16-4.781 11.838 0 4.638 1.624 8.554 4.845 11.76 3.234 3.195 7.192 4.804 11.883 4.804 2.968 0 5.542-.621 7.699-1.863 2.168-1.229 4.35-3.295 6.532-6.197h-.003zm19.239 12.255v-36.5h-8.954V14.6h8.954V0h5.657v14.6h9.36v5.082h-9.36v36.5h-5.657z" fill="currentColor"/></svg><svg viewBox="0 0 48 48" id="arrow-left" xmlns="http://www.w3.org/2000/svg"><path d="M17.75 34.7L7 24l10.75-10.75L19 14.5l-8.6 8.6H41v1.75H10.4L19 33.4z" fill="currentColor"/></svg><svg fill="none" viewBox="0 0 9 6" id="bet__button-down" xmlns="http://www.w3.org/2000/svg"><path d="M.5 1l4 4L8 1" stroke="currentColor"/></svg><svg fill="none" viewBox="0 0 10 6" id="bet__button-up" xmlns="http://www.w3.org/2000/svg"><path d="M1 5l4-4 4 4" stroke="currentColor"/></svg><svg version="1.0" viewBox="0 0 100 100" id="dont_chat" xmlns="http://www.w3.org/2000/svg"><g fill="currentColor"><path d="M5.2 11.2c-1.7 1.7-1.7 53.9 0 55.6.7.7 3.9 1.2 7.5 1.2H19v3c0 1.7-.7 4.4-1.5 5.9-.8 1.6-1.2 3.1-.9 3.4 1.5 1.4 10.2-3 14.7-7.5 4.6-4.6 5.1-4.8 10.2-4.8H47v4.3c0 2.3.7 5.3 1.6 6.5 1.4 2 2.3 2.2 11.9 2.2h10.3l2.1 3.2c2.2 3.6 4.9 5.6 9.4 6.9l2.9.8-.7-4.2c-.4-2.3-.8-4.6-.9-5.2 0-.5 2.2-1.2 4.9-1.5 2.8-.3 5.6-.9 6.3-1.3 1.7-1.1 1.7-38.8 0-40.5-.7-.7-4.3-1.2-9-1.2H78V25.6c0-10-.3-12.8-1.6-14-1.3-1.4-6-1.6-35.8-1.6-25.3 0-34.5.3-35.4 1.2zM75 25v13H62.6C46.7 38 47 37.7 47 54.2V66h-6.4c-6.2 0-6.6.2-8.3 3-1.7 2.9-6.8 6.9-10.5 8.3-2.1.7-2.1.4-.8-4.3 1.8-6.2.8-7-7.6-7H6V12h69v13zm18.8 34.2l-.3 19.3-5.5.3c-3 .2-5.8.9-6.2 1.5-.4.7-.5 2.9-.1 4.9.4 2.7.2 3.8-.7 3.8-1.7 0-8-6.5-8-8.4 0-1.3-1.8-1.6-11.2-1.8l-11.3-.3-.3-19.3L50 40h44l-.2 19.2z"/><path d="M34.4 20.2c-2.3 1.1-4.9 5.7-3.8 6.7.4.3.9 0 1.2-.8 1-3 4.3-5.1 7.8-5.1 5.6 0 7.4 1.5 7.4 6 0 3.2-.5 4.3-2.7 5.7-1.6.9-3.6 2.6-4.5 3.7-1.9 2.2-2.5 9.6-.8 9.6.6 0 1-1.3 1-2.9 0-4.3.9-6 4.2-7.7 3.4-1.7 5.7-6.4 5-10-1-5.3-9-8.1-14.8-5.2zM37 52.9c0 2.6 1.7 3.6 3.5 2.1s.8-4-1.6-4c-1.2 0-1.9.7-1.9 1.9zM63.2 50.3C61.4 52.1 60 54 60 54.6c0 1.5 6.9 7.9 7.7 7.1.3-.4-.4-1.8-1.7-3.2L63.7 56h4.7c6.1 0 8.2 1.2 9.6 5.6.8 2.3 1.6 3.2 2.2 2.6 1.3-1.3-1.4-6.5-4.4-8.6-1.3-.9-4.3-1.6-7-1.6-5.2 0-5.8-.7-2.8-3.5 2.1-1.9 2.6-3.5 1.2-3.5-.4 0-2.2 1.5-4 3.3zM55.7 69.7c-1.1 1-.8 4.3.3 4.3.6 0 1-1.1 1-2.5 0-2.6-.2-2.9-1.3-1.8zM79 71.4c0 1.4.5 2.6 1 2.6.6 0 1-.9 1-1.9 0-1.1-.4-2.3-1-2.6-.6-.4-1 .5-1 1.9zM86.4 70.4c-.4 1-.2 2.2.4 2.8.8.8 1.3.7 1.8-.6.4-1 .2-2.2-.4-2.8-.8-.8-1.3-.7-1.8.6zM63 72c0 1.1.5 2 1 2 .6 0 1-.9 1-2s-.4-2-1-2c-.5 0-1 .9-1 2zM71 72c0 1.1.5 2 1 2 .6 0 1-.9 1-2s-.4-2-1-2c-.5 0-1 .9-1 2z"/></g></svg><svg fill="none" viewBox="0 0 22 22" id="header-create-btn" xmlns="http://www.w3.org/2000/svg"><path d="M11 1v20M1 11h20" stroke="currentColor" stroke-width="2" stroke-linecap="square"/></svg><svg fill="none" viewBox="0 0 32 32" id="header-wallet" xmlns="http://www.w3.org/2000/svg"><g clip-path="url(#gclip0)" fill="currentColor"><path d="M30.545 16.134v-4.497a2.903 2.903 0 00-2.678-2.886l-4.176-7.295A2.874 2.874 0 0021.93.099a2.858 2.858 0 00-2.19.293L5.425 8.728H2.909A2.912 2.912 0 000 11.637V29.09A2.912 2.912 0 002.91 32h24.726a2.912 2.912 0 002.909-2.91v-4.497a2.178 2.178 0 001.454-2.047v-4.364c0-.947-.61-1.747-1.454-2.048zM20.475 1.65c.329-.193.713-.244 1.08-.146.37.1.68.34.873.676l1.417 2.475a4.993 4.993 0 01-2.027.437 5.01 5.01 0 01-3.954-1.923l2.61-1.52zM16.6 3.904c1.233 1.663 3.132 2.642 5.217 2.642.944 0 1.879-.223 2.748-.632l1.611 2.814H8.315L16.6 3.904zM29.09 29.09c0 .802-.653 1.454-1.455 1.454H2.909a1.456 1.456 0 01-1.454-1.454V11.637c0-.802.652-1.455 1.454-1.455h24.727c.802 0 1.454.653 1.454 1.455V16h-4.363a4.368 4.368 0 00-4.364 4.364 4.368 4.368 0 004.364 4.363h4.363v4.364zm1.454-6.545a.728.728 0 01-.727.727h-5.091a2.912 2.912 0 01-2.91-2.91 2.912 2.912 0 012.91-2.908h5.09c.402 0 .728.326.728.727v4.364z"/><path d="M24.726 18.91c-.802 0-1.454.652-1.454 1.454 0 .802.652 1.454 1.454 1.454.802 0 1.454-.652 1.454-1.454 0-.802-.652-1.455-1.454-1.455z"/></g><defs><clipPath id="gclip0"><path fill="#fff" d="M0 0h32v32H0z"/></clipPath></defs></svg><svg fill="none" viewBox="0 0 46 46" id="important" xmlns="http://www.w3.org/2000/svg"><circle cx="23" cy="23" r="23" fill="#F60"/><path d="M24.185 16.639l-.163 8.86H22.86l-.154-8.86h1.48zm-.722 12.49a.942.942 0 01-.955-.946c0-.264.092-.488.275-.671a.927.927 0 01.68-.284c.258 0 .481.094.67.284a.9.9 0 01.285.67.9.9 0 01-.284.672.932.932 0 01-.671.275z" fill="#fff"/></svg><svg fill="none" viewBox="0 0 72 72" id="input-file" xmlns="http://www.w3.org/2000/svg"><circle cx="36" cy="36" r="35" stroke="#fff" stroke-width="2" stroke-dasharray="4 4"/><path d="M20 37h33M37 20v33" stroke="#fff" stroke-width="2"/></svg><svg fill="none" viewBox="0 0 189 54" id="logo_app" xmlns="http://www.w3.org/2000/svg"><g clip-path="url(#jclip0_4_28)"><path d="M64.991 35.313l9.612-22.457h2.517s3.215 7.487 9.638 22.457h-2.456l-3.245-7.568H70.621l-3.275 7.568H64.99zm6.49-9.605h8.702L75.877 15.41 71.48 25.707zm17.511 9.605v-16.62h2.249v2.152c1.365-1.702 3.138-2.553 5.332-2.553 1.172 0 2.244.218 3.215.658a6.373 6.373 0 012.425 1.92c.536.715.91 1.495 1.127 2.346.218.851.324 1.976.324 3.369v8.728h-2.234v-8.728c0-1.115-.091-2.022-.273-2.706a4.783 4.783 0 00-.915-1.818c-.935-1.14-2.249-1.707-3.937-1.707-.905 0-1.738.187-2.491.562a4.392 4.392 0 00-1.784 1.575c-.288.456-.49.958-.612 1.505-.116.547-.177 1.277-.177 2.173v9.144h-2.248zm20.064 5.83s.905-2.127 2.709-6.377l-6.439-16.074h2.457s1.753 4.417 5.256 13.252c0 0 1.87-4.418 5.615-13.252h2.38s-3.194 7.482-9.577 22.452h-2.401zm14.555-5.83V12.856h6.176c1.451 0 2.638.091 3.558.269.925.177 1.733.481 2.421.906.849.502 1.506 1.242 1.971 2.22.465.972.697 2.107.697 3.403 0 1.13-.191 2.138-.581 3.03-.384.891-.935 1.6-1.658 2.137-.677.502-1.48.866-2.395 1.084-.92.218-2.133.325-3.644.325h-4.311v9.083h-2.234zm2.234-11.13h4.165c2.011 0 3.446-.253 4.305-.76.592-.313 1.052-.805 1.37-1.469.324-.663.48-1.438.48-2.33 0-1.094-.217-2.016-.647-2.75a3.23 3.23 0 00-1.87-1.495c-.965-.324-2.507-.486-4.619-.486h-3.184v9.29zm31.719-5.491v16.62h-2.254V32.39c-.875 1.185-1.81 2.036-2.79 2.553-.981.511-2.174.77-3.573.77-1.688 0-3.215-.375-4.569-1.12a8.197 8.197 0 01-3.189-3.1c-.773-1.322-1.157-2.807-1.157-4.448 0-1.641.379-3.13 1.142-4.468a8.295 8.295 0 013.138-3.146c1.33-.76 2.815-1.14 4.453-1.14 1.456 0 2.699.263 3.74.79 1.041.532 1.976 1.378 2.805 2.549V18.69h2.254zm-8.824 1.661c-1.779 0-3.295.644-4.549 1.93-1.253 1.287-1.88 2.842-1.88 4.676 0 1.87.642 3.45 1.926 4.742 1.284 1.292 2.846 1.935 4.68 1.935 1.804 0 3.32-.643 4.553-1.92 1.228-1.281 1.84-2.867 1.84-4.757 0-1.894-.627-3.464-1.88-4.72-1.254-1.257-2.815-1.885-4.69-1.885zm26.609 10.06h2.542c-.47.902-.904 1.607-1.299 2.118a7.417 7.417 0 01-1.425 1.388c-1.517 1.195-3.321 1.793-5.403 1.793-1.678 0-3.209-.385-4.589-1.15a8.48 8.48 0 01-3.26-3.161c-.788-1.343-1.182-2.822-1.182-4.443 0-1.596.394-3.054 1.178-4.382a8.543 8.543 0 013.219-3.135c1.365-.77 2.86-1.15 4.488-1.15 1.875 0 3.548.486 5.024 1.47 1.475.977 2.552 2.304 3.224 3.975h-2.517c-.642-1.089-1.46-1.925-2.446-2.507-.985-.588-2.092-.877-3.315-.877-1.845 0-3.402.644-4.67 1.93-1.269 1.287-1.905 2.863-1.905 4.732 0 1.855.647 3.42 1.931 4.701 1.288 1.277 2.865 1.92 4.735 1.92 1.183 0 2.208-.248 3.068-.744.864-.492 1.733-1.318 2.603-2.477h-.001zm7.667 4.9v-14.59h-3.568v-2.031h3.568v-5.836h2.254v5.836H189v2.031h-3.73v14.59h-2.254z" fill="#000"/><path fill-rule="evenodd" clip-rule="evenodd" d="M2.358 22.372h7.932c0-3.983 1.61-7.588 4.214-10.198L8.896 6.552a22.329 22.329 0 00-6.538 15.82z" fill="#333"/><path fill-rule="evenodd" clip-rule="evenodd" d="M8.895 6.552l5.608 5.622A14.325 14.325 0 0124.677 7.95V0A22.222 22.222 0 008.895 6.552z" fill="#000"/><path fill-rule="evenodd" clip-rule="evenodd" d="M14.49 32.555a14.391 14.391 0 01-4.2-10.183H2.358a22.33 22.33 0 006.524 15.806l5.608-5.622z" fill="#4D4D4D"/><path fill-rule="evenodd" clip-rule="evenodd" d="M14.49 32.555l-5.608 5.622.071.071.04.04L24.67 54l.008-.009V36.793c-3.98 0-7.582-1.62-10.187-4.238z" fill="#666"/><path fill-rule="evenodd" clip-rule="evenodd" d="M24.676 36.793V53.99L39.92 38.714l.54-.523-5.61-5.622a14.325 14.325 0 01-10.173 4.224z" fill="#666"/><path fill-rule="evenodd" clip-rule="evenodd" d="M40.459 6.552l-5.609 5.622A14.325 14.325 0 0024.677 7.95V0a22.222 22.222 0 0115.782 6.552z" fill="#000"/><path fill-rule="evenodd" clip-rule="evenodd" d="M24.484 21.831v-5.855l-12.19-12.22L0 3.736 18.054 21.83h6.43z" fill="#F60"/><path fill-rule="evenodd" clip-rule="evenodd" d="M46.996 22.372h-7.932c0-3.983-1.61-7.588-4.214-10.198l5.608-5.622a22.329 22.329 0 016.538 15.82z" fill="#1A1A1A"/><path fill-rule="evenodd" clip-rule="evenodd" d="M34.864 32.555a14.391 14.391 0 004.2-10.183h7.932a22.33 22.33 0 01-6.524 15.806l-5.608-5.622z" fill="#333"/><path fill-rule="evenodd" clip-rule="evenodd" d="M28.269 20.116v5.856l12.19 12.218 12.293.022-18.054-18.097h-6.43z" fill="#F60"/></g><defs><clipPath id="jclip0_4_28"><path fill="#fff" d="M0 0h189v54H0z"/></clipPath></defs></svg><svg fill="none" viewBox="0 0 21 21" id="magnifier-white" xmlns="http://www.w3.org/2000/svg"><path d="M21 19.709l-6.167-6.161a8.186 8.186 0 001.918-5.268C16.751 3.713 12.997 0 8.38 0 3.763 0 0 3.717 0 8.284c0 4.566 3.754 8.28 8.371 8.28a8.403 8.403 0 005.2-1.794L19.81 21 21 19.709zM1.78 8.284c0-3.587 2.959-6.503 6.591-6.503 3.633 0 6.592 2.916 6.592 6.503s-2.96 6.503-6.592 6.503c-3.632 0-6.592-2.92-6.592-6.503z" fill="currentColor"/></svg><svg viewBox="10 8 45 45" fill="none" id="notification-bell" xmlns="http://www.w3.org/2000/svg"><path fill-rule="evenodd" clip-rule="evenodd" d="M15.027 40c.114-1.056.66-1.768 2.88-2.831 1.678-1.405 1.883-5.361 2.064-8.855.079-1.51.153-2.934.34-4.028C20.706 19.857 23.6 11 32 11s11.293 8.857 11.69 13.286c.186 1.094.26 2.518.339 4.028.18 3.494.386 7.45 2.064 8.855 2.22 1.063 2.766 1.775 2.88 2.831l.003.032c.035.345.025.727.013 1.17-.006.246-.013.51-.013.798H15.024c0-.287-.007-.552-.013-.798-.012-.443-.022-.825.013-1.17l.003-.032zm32.236-4.486c1.563.776 2.795 1.628 3.373 2.984.299.701.353 1.38.362 1.92.005.27-.002.549-.008.798l-.001.03c-.006.251-.013.493-.013.754v2H13.024v-2c0-.261-.006-.503-.013-.753v-.03c-.007-.25-.014-.529-.01-.799.01-.54.064-1.219.363-1.92.578-1.356 1.81-2.208 3.373-2.984.15-.19.355-.563.549-1.245.238-.838.392-1.899.5-3.114.085-.957.136-1.938.187-2.925l.042-.795c.064-1.179.143-2.388.31-3.406.232-2.455 1.133-6.07 3.159-9.147C23.574 11.708 26.96 9 32 9s8.426 2.708 10.516 5.882c2.026 3.076 2.927 6.692 3.158 9.147.168 1.018.247 2.227.31 3.406.015.266.03.53.043.795.051.987.102 1.968.187 2.924.108 1.216.262 2.277.5 3.115.194.682.4 1.056.549 1.245z" fill="currentColor"/><path fill-rule="evenodd" clip-rule="evenodd" d="M27.39 15.616c-1.56 1.347-2.515 3.182-2.91 4.525a.5.5 0 01-.96-.282c.439-1.49 1.484-3.505 3.216-5 1.75-1.51 4.195-2.483 7.362-1.85a.5.5 0 01-.196.981c-2.833-.566-4.97.295-6.513 1.626zM26.674 46.055a1 1 0 011.271.619c1.33 3.854 6.78 3.854 8.11 0a1 1 0 011.89.652c-1.949 5.652-9.942 5.652-11.89 0a1 1 0 01.619-1.271z" fill="currentColor"/></svg><svg fill="none" viewBox="0 0 396 229" id="promo-background-left-arrow" xmlns="http://www.w3.org/2000/svg"><path fill-rule="evenodd" clip-rule="evenodd" d="M395.753 108.267L286.87 0H0v228.191l276.509-.001 119.244-119.923z" fill="#F4F4F4"/></svg><svg fill="none" viewBox="0 0 396 229" id="promo-background-right-arrow" xmlns="http://www.w3.org/2000/svg"><path fill-rule="evenodd" clip-rule="evenodd" d="M0 119.924l108.884 108.267h286.869V.001H119.244L0 119.924z" fill="#F4F4F4"/></svg><svg fill="none" viewBox="0 0 13 24" id="social-link-fb" xmlns="http://www.w3.org/2000/svg"><path d="M10.807 3.985h2.191V.169C12.621.117 11.32 0 9.808 0c-3.16 0-5.323 1.987-5.323 5.639v3.36H.998v4.267h3.486V24h4.274V13.267h3.345L12.632 9H8.758V6.062c0-1.233.333-2.077 2.05-2.077z" fill="currentColor"/></svg><svg fill="none" viewBox="0 0 25 25" id="social-link-instagram" xmlns="http://www.w3.org/2000/svg"><path d="M23.815 7.816c-.055-1.234-.254-2.083-.54-2.818a5.667 5.667 0 00-1.343-2.06A5.715 5.715 0 0019.876 1.6c-.74-.286-1.583-.486-2.817-.54C15.816 1 15.42.987 12.267.987c-3.153 0-3.548.014-4.786.068-1.234.055-2.083.255-2.818.54-.78.295-1.479.749-2.06 1.343a5.718 5.718 0 00-1.338 2.056c-.286.74-.486 1.583-.54 2.817C.666 9.054.652 9.45.652 12.602c0 3.154.014 3.549.068 4.787.055 1.234.255 2.083.54 2.818.295.78.754 1.479 1.343 2.06a5.715 5.715 0 002.056 1.338c.74.286 1.583.486 2.817.54 1.239.055 1.634.068 4.787.068s3.548-.013 4.787-.068c1.234-.054 2.082-.254 2.817-.54a5.941 5.941 0 003.399-3.398c.286-.74.485-1.584.54-2.818.054-1.238.068-1.633.068-4.787 0-3.153-.005-3.548-.06-4.786zm-2.092 9.482c-.05 1.135-.24 1.747-.4 2.156a3.853 3.853 0 01-2.204 2.205c-.409.159-1.026.35-2.155.399-1.225.055-1.593.068-4.692.068s-3.47-.014-4.691-.068c-1.135-.05-1.747-.24-2.156-.4a3.574 3.574 0 01-1.333-.866 3.61 3.61 0 01-.867-1.334c-.159-.408-.35-1.025-.4-2.155-.054-1.225-.067-1.593-.067-4.692 0-3.098.013-3.47.068-4.69.05-1.135.24-1.748.399-2.156a3.53 3.53 0 01.871-1.334c.377-.386.83-.68 1.334-.867.408-.158 1.026-.349 2.155-.399 1.225-.054 1.593-.068 4.692-.068 3.103 0 3.47.014 4.691.068 1.134.05 1.747.24 2.155.4.504.185.962.48 1.334.866.386.377.68.83.867 1.334.159.408.35 1.025.4 2.155.053 1.225.067 1.593.067 4.691 0 3.1-.014 3.462-.068 4.688z" fill="currentColor"/><path fill-rule="evenodd" clip-rule="evenodd" d="M24.201 7.799c.055 1.248.06 1.65.06 4.803 0 3.156-.014 3.557-.069 4.804-.056 1.272-.263 2.158-.565 2.94a6.328 6.328 0 01-3.62 3.62c-.778.303-1.669.51-2.94.566-1.247.055-1.649.068-4.804.068-3.155 0-3.557-.013-4.804-.068-1.271-.056-2.156-.263-2.938-.565a6.102 6.102 0 01-2.192-1.427A6.114 6.114 0 01.9 20.345c-.303-.778-.51-1.668-.565-2.939-.055-1.247-.069-1.648-.069-4.804 0-3.154.014-3.557.073-4.809.056-1.27.263-2.156.565-2.937A6.105 6.105 0 012.33 2.665a6.054 6.054 0 012.196-1.431C5.303.93 6.193.724 7.464.669 8.71.614 9.112.6 12.267.6c3.155 0 3.558.014 4.81.073 1.27.056 2.156.263 2.937.565.823.31 1.572.798 2.19 1.426a6.054 6.054 0 011.432 2.195c.303.779.51 1.669.565 2.94zm-2.865 9.482c.054-1.216.068-1.573.068-4.67 0-3.096-.014-3.457-.068-4.674-.048-1.086-.23-1.662-.373-2.032L20.96 5.9a3.222 3.222 0 00-.773-1.191l-.009-.008a3.185 3.185 0 00-1.189-.773l-.006-.002c-.37-.144-.941-.325-2.032-.373-1.212-.054-1.573-.068-4.675-.068-3.096 0-3.457.014-4.674.068-1.086.048-1.662.23-2.032.373l-.006.003c-.45.165-.854.428-1.19.773l-.006.005-.005.005c-.346.33-.609.737-.775 1.188l-.002.006c-.144.37-.326.941-.374 2.032-.054 1.212-.067 1.578-.067 4.674 0 3.097.013 3.458.067 4.675.048 1.086.23 1.662.374 2.032l.002.006c.166.45.43.854.774 1.191l.008.008c.33.343.739.606 1.19.773l.006.002c.37.144.94.325 2.031.373 1.213.054 1.578.068 4.675.068 3.097 0 3.458-.014 4.674-.068 1.087-.048 1.662-.23 2.032-.373h.001a3.466 3.466 0 001.983-1.984c.145-.37.326-.942.374-2.033z" fill="currentColor"/><path d="M12.266 6.636A5.968 5.968 0 006.3 12.603a5.968 5.968 0 005.966 5.966 5.968 5.968 0 005.967-5.966 5.968 5.968 0 00-5.967-5.967zm0 9.837a3.87 3.87 0 11.002-7.742 3.87 3.87 0 01-.002 7.742z" fill="currentColor"/><path fill-rule="evenodd" clip-rule="evenodd" d="M5.913 12.602a6.355 6.355 0 016.354-6.353 6.355 6.355 0 016.353 6.353 6.355 6.355 0 01-6.353 6.354 6.355 6.355 0 01-6.354-6.354zm2.87 0a3.484 3.484 0 106.968 0 3.484 3.484 0 00-6.968 0z" fill="currentColor"/><path d="M19.862 6.4a1.393 1.393 0 11-2.786 0 1.393 1.393 0 012.786 0z" fill="currentColor"/></svg><svg fill="none" viewBox="0 0 15 24" id="social-link-ok" xmlns="http://www.w3.org/2000/svg"><path d="M.221 12.881c-.613 1.205.083 1.781 1.671 2.765 1.35.834 3.215 1.139 4.413 1.261l-4.721 4.541c-1.374 1.317.838 3.43 2.211 2.141l3.717-3.585c1.423 1.369 2.787 2.681 3.717 3.59 1.374 1.294 3.585-.801 2.226-2.141l-4.736-4.541c1.213-.122 3.05-.445 4.384-1.26l-.001-.002c1.588-.989 2.284-1.564 1.68-2.769-.365-.684-1.35-1.256-2.66-.267 0 0-1.768 1.355-4.621 1.355-2.854 0-4.622-1.355-4.622-1.355-1.309-.994-2.297-.417-2.658.267z" fill="currentColor"/><path d="M7.499 12.142c3.478 0 6.318-2.718 6.318-6.064 0-3.36-2.84-6.078-6.318-6.078-3.48 0-6.32 2.718-6.32 6.078 0 3.346 2.84 6.064 6.32 6.064zm0-9.063c1.709 0 3.103 1.341 3.103 2.999 0 1.644-1.394 2.985-3.103 2.985-1.71 0-3.103-1.341-3.103-2.985-.001-1.659 1.393-2.999 3.103-2.999z" fill="currentColor"/></svg><svg fill="none" viewBox="0 0 27 16" id="social-link-vk" xmlns="http://www.w3.org/2000/svg"><path d="M22.127 8.92c-.43-.544-.307-.786 0-1.273.006-.006 3.565-4.924 3.932-6.591l.002-.002C26.243.447 26.06 0 25.18 0h-2.916c-.742 0-1.084.383-1.268.812 0 0-1.484 3.554-3.584 5.857-.678.666-.991.879-1.361.879-.183 0-.466-.213-.466-.821V1.054c0-.728-.208-1.054-.822-1.054h-4.585c-.465 0-.742.34-.742.657 0 .69 1.05.85 1.159 2.794v4.22c0 .924-.168 1.094-.54 1.094-.991 0-3.397-3.568-4.822-7.652C4.944.321 4.662.001 3.915.001H.999c-.832 0-1 .383-1 .812 0 .758.991 4.526 4.609 9.504 2.411 3.398 5.807 5.239 8.896 5.239 1.857 0 2.083-.409 2.083-1.112 0-3.247-.168-3.554.762-3.554.432 0 1.174.214 2.907 1.853 1.981 1.943 2.307 2.813 3.416 2.813h2.915c.832 0 1.253-.409 1.01-1.216-.554-1.696-4.3-5.186-4.47-5.42z" fill="currentColor"/></svg></svg>