<?xml version="1.0" encoding="utf-8"?><!DOCTYPE svg PUBLIC "-//W3C//DTD SVG 1.1//EN" "http://www.w3.org/Graphics/SVG/1.1/DTD/svg11.dtd"><svg viewBox="0 0 396 229" xmlns="http://www.w3.org/2000/svg" xmlns:xlink="http://www.w3.org/1999/xlink"><style>:root>svg{display:none}:root>svg:target{display:block}</style><svg fill="none" viewBox="0 0 312 71" id="anypact-title" xmlns="http://www.w3.org/2000/svg"><path d="M.001 56.183S8.041 37.453 24.122.001h6.316s8.066 18.731 24.185 56.182h-6.164L40.317 37.25h-26.19L5.91 56.183H0h.001zm16.284-24.029h21.839S34.52 23.574 27.318 6.39c0 0-3.678 8.592-11.034 25.765zm43.944 24.03V14.601h5.643v5.386c3.424-4.258 7.876-6.388 13.38-6.388 2.942 0 5.631.545 8.067 1.647a15.994 15.994 0 016.087 4.804 16.44 16.44 0 012.828 5.868c.546 2.13.812 4.943.812 8.428v21.836H91.44V34.347c0-2.789-.228-5.057-.684-6.769-.457-1.724-1.23-3.244-2.296-4.55-2.346-2.851-5.643-4.27-9.88-4.27-2.27 0-4.362.469-6.251 1.406-1.903.939-3.386 2.256-4.477 3.942a11.714 11.714 0 00-1.534 3.764c-.292 1.37-.445 3.195-.445 5.437v22.876H60.23zm50.348 14.586s2.27-5.323 6.798-15.956c0 0-5.389-13.408-16.157-40.214h6.164s4.401 11.052 13.19 33.154c0 0 4.693-11.051 14.089-33.154h5.974s-8.016 18.72-24.033 56.17h-6.025zm36.525-14.587V.001H162.6c3.64 0 6.62.228 8.928.672 2.32.444 4.35 1.204 6.075 2.268 2.13 1.255 3.779 3.105 4.946 5.551 1.167 2.433 1.75 5.272 1.75 8.516 0 2.826-.481 5.349-1.459 7.579-.964 2.23-2.346 4.004-4.159 5.349-1.699 1.255-3.715 2.166-6.011 2.712-2.308.545-5.352.81-9.144.81h-10.819v22.725h-5.606.001zm5.606-27.844h10.45c5.048 0 8.65-.633 10.805-1.9 1.484-.786 2.639-2.017 3.437-3.676.812-1.66 1.205-3.6 1.205-5.83 0-2.738-.545-5.045-1.623-6.882-1.091-1.85-2.651-3.092-4.693-3.739-2.422-.811-6.291-1.217-11.592-1.217h-7.99V28.34h.001zM232.303 14.6v41.582h-5.657v-7.313c-2.194 2.966-4.541 5.096-7.001 6.388-2.46 1.28-5.454 1.927-8.966 1.927-4.236 0-8.066-.938-11.465-2.801-3.412-1.875-6.075-4.461-8.002-7.757-1.94-3.308-2.904-7.022-2.904-11.128s.951-7.832 2.866-11.178c1.902-3.333 4.527-5.956 7.876-7.87 3.335-1.901 7.064-2.852 11.172-2.852 3.653 0 6.773.659 9.386 1.977 2.612 1.33 4.959 3.448 7.039 6.375V14.6h5.657-.001zm-22.144 4.157c-4.464 0-8.268 1.61-11.414 4.83-3.146 3.218-4.717 7.11-4.717 11.697 0 4.677 1.61 8.631 4.832 11.863 3.222 3.231 7.141 4.841 11.743 4.841 4.527 0 8.333-1.609 11.427-4.803 3.081-3.206 4.616-7.173 4.616-11.9 0-4.74-1.573-8.669-4.718-11.812-3.146-3.143-7.064-4.715-11.769-4.715v-.001zm66.773 25.17h6.38c-1.18 2.255-2.27 4.017-3.26 5.296a18.638 18.638 0 01-3.576 3.473c-3.806 2.99-8.333 4.485-13.558 4.485-4.21 0-8.052-.963-11.515-2.876-3.475-1.914-6.189-4.55-8.18-7.91-1.979-3.358-2.968-7.058-2.968-11.114 0-3.993.989-7.642 2.955-10.963 1.967-3.308 4.667-5.93 8.079-7.844 3.424-1.927 7.178-2.877 11.262-2.877 4.705 0 8.903 1.217 12.607 3.676 3.702 2.446 6.404 5.767 8.091 9.948h-6.315c-1.612-2.724-3.666-4.816-6.139-6.274-2.472-1.47-5.251-2.192-8.32-2.192-4.628 0-8.535 1.61-11.718 4.829-3.183 3.219-4.781 7.16-4.781 11.838 0 4.638 1.624 8.554 4.845 11.76 3.234 3.195 7.192 4.804 11.883 4.804 2.968 0 5.542-.621 7.699-1.863 2.168-1.229 4.35-3.295 6.532-6.197h-.003zm19.239 12.255v-36.5h-8.954V14.6h8.954V0h5.657v14.6h9.36v5.082h-9.36v36.5h-5.657z" fill="currentColor"/></svg><svg fill="currentColor" viewBox="0 0 12 8" id="arr_profile" xmlns="http://www.w3.org/2000/svg"><path d="M6 6.349L.58.929a.338.338 0 00-.48 0 .338.338 0 000 .48L5.76 7.07a.338.338 0 00.481 0L11.9 1.41a.331.331 0 000-.478.338.338 0 00-.48 0L6 6.349z"/></svg><svg viewBox="0 0 48 48" id="arrow-left" xmlns="http://www.w3.org/2000/svg"><path d="M17.75 34.7L7 24l10.75-10.75L19 14.5l-8.6 8.6H41v1.75H10.4L19 33.4z" fill="currentColor"/></svg><svg fill="none" viewBox="0 0 9 6" id="bet__button-down" xmlns="http://www.w3.org/2000/svg"><path d="M.5 1l4 4L8 1" stroke="currentColor"/></svg><svg fill="none" viewBox="0 0 10 6" id="bet__button-up" xmlns="http://www.w3.org/2000/svg"><path d="M1 5l4-4 4 4" stroke="currentColor"/></svg><svg fill="none" viewBox="0 0 49 43" id="cart" xmlns="http://www.w3.org/2000/svg"><path d="M16.565 43a3.577 3.577 0 003.57-3.583 3.577 3.577 0 00-3.57-3.584 3.577 3.577 0 00-3.57 3.584A3.577 3.577 0 0016.565 43zM41.554 43a3.577 3.577 0 003.57-3.583 3.577 3.577 0 00-3.57-3.584 3.577 3.577 0 00-3.57 3.584A3.577 3.577 0 0041.554 43zM47.89 6.358a2.669 2.669 0 00-2.07-.983H11.867l-.684-3.895a1.793 1.793 0 00-.61-1.061A1.78 1.78 0 009.424 0h-7.14c-.473 0-.927.189-1.262.525a1.795 1.795 0 000 2.534c.335.336.789.524 1.262.524h5.643l5.093 28.978c.073.415.29.79.611 1.062.322.27.728.419 1.148.419h28.559c.473 0 .927-.19 1.262-.525a1.795 1.795 0 000-2.534 1.782 1.782 0 00-1.262-.525H16.277l-.63-3.583h26.96c.62 0 1.219-.216 1.698-.61.479-.393.808-.941.93-1.55L48.449 8.59a2.696 2.696 0 00-.557-2.232z" fill="#F60"/></svg><svg fill="none" viewBox="0 0 48 40" id="catalog-change" xmlns="http://www.w3.org/2000/svg"><path fill-rule="evenodd" clip-rule="evenodd" d="M28.723 21.014l-12 .026V8.716c0-.779-.467-1.478-1.177-1.764a1.832 1.832 0 00-2.04.47L.5 21.642a1.925 1.925 0 00-.04 2.542l13.006 15.168c.51.595 1.328.805 2.052.527a1.895 1.895 0 001.205-1.775v-9.48l10.142-.026c1.026 0 1.858-.849 1.858-1.896v-5.688z" fill="#F60"/><path fill-rule="evenodd" clip-rule="evenodd" d="M19.277 18.986l12-.026v12.324c0 .779.467 1.478 1.177 1.764.71.286 1.52.1 2.04-.47L47.5 18.358c.65-.712.668-1.81.04-2.542L34.534.648A1.833 1.833 0 0032.482.12a1.895 1.895 0 00-1.205 1.775v9.48l-10.142.026c-1.026 0-1.858.849-1.858 1.896v5.688z" fill="#F60"/></svg><svg fill="none" viewBox="0 0 209 174" id="change" xmlns="http://www.w3.org/2000/svg"><path d="M50.73 29.319L32.254 58H46.27v99.429h8.282L55.188 58h14.016L50.729 29.319z" fill="currentColor"/><path fill-rule="evenodd" clip-rule="evenodd" d="M30.344 165.077V79.671c.212-2.125-.612-7.012-5.733-7.012H4.225c-3.185 0-5.733-2.931-3.185-7.01 2.548-4.08 29.516-41.642 42.681-59.913C45.558 3.186 47.96 0 50.73 0 53.5 0 55.5 3.5 57 5.736l43.418 59.912c3.186 3.825 1.275 7.011-3.185 7.011H76.847c-1.91.213-5.733 0-5.733 7.011v85.407c0 3.824 0 8.923-5.096 8.923H34.803c-5.097 0-4.46-3.824-4.46-8.923zM10.596 62.462L46.5 12s2.459-3.5 4.23-3.5c1.77 0 3.77 3.5 3.77 3.5 12.5 16.802 35.27 48.154 37 50.462 1.911 2.549.947 4.461-3.822 4.461H73.5c-7.135 0-8.5 3.824-8.5 8.286v91.78H36.714v-91.78c0-5.609-3.822-7.861-6.37-8.286H13.78c-2.548 0-5.096-1.912-3.185-4.462z" fill="currentColor"/><path d="M157.311 144.681L138.837 116h14.015V16.571h8.282L161.77 116h14.016l-18.475 28.681z" fill="currentColor"/><path fill-rule="evenodd" clip-rule="evenodd" d="M136.926 8.923V94.33c.212 2.124-.612 7.01-5.733 7.01h-20.386c-3.185 0-5.733 2.933-3.185 7.012 2.548 4.079 29.516 41.641 42.681 59.912 1.837 2.549 4.238 5.736 7.008 5.736 2.771 0 4.771-3.5 6.271-5.736L207 108.352c3.186-3.825 1.275-7.012-3.185-7.012H183.43c-1.912-.212-5.734 0-5.734-7.01V8.922c0-3.824 0-8.923-5.096-8.923h-31.215c-5.097 0-4.459 3.824-4.459 8.923zm-19.748 102.615L153.082 162s2.459 3.5 4.229 3.5c1.771 0 3.771-3.5 3.771-3.5 12.5-16.802 35.27-48.154 37-50.462 1.911-2.549.947-4.461-3.822-4.461h-14.178c-7.135 0-8.5-3.824-8.5-8.286V7.011h-28.285v91.78c0 5.609-3.823 7.861-6.371 8.286h-16.563c-2.548 0-5.096 1.912-3.185 4.461z" fill="currentColor"/></svg><svg class="aisvg aisvg-icon" viewBox="0 0 17 17" id="check"><path d="M7.629 14.566a.644.644 0 00.912 0l8.219-8.221a.643.643 0 10-.911-.911l-7.764 7.763-3.933-3.93a.645.645 0 00-.911.911l4.388 4.388z" stroke="#f60" fill="#f60"/></svg><svg fill="none" viewBox="0 0 171 191" id="comfort" xmlns="http://www.w3.org/2000/svg"><path fill-rule="evenodd" clip-rule="evenodd" d="M78 51c-31 0-63 25-63 62.999C15 157.499 51 175 78 175c34 0 61.5-24.501 61.5-61.001 0-39-32-62.999-61.5-62.999zm-56 62.999c0-38 32.504-55.5 56-55.5 23.496 0 55 20.5 55 55.5 0 30.5-25.504 54.001-55 54.001-17.504 0-56-12.501-56-54.001z" fill="currentColor"/><path fill-rule="evenodd" clip-rule="evenodd" d="M78 58.5c-23.496 0-56 17.5-56 55.499C22 155.499 60.496 168 78 168c29.496 0 55-23.501 55-54.001 0-35-31.504-55.5-55-55.5zm0-7.5c-31 0-63 25-63 62.999C15 157.499 51 175 78 175c34 0 61.5-24.501 61.5-61.001 0-39-32-62.999-61.5-62.999z" fill="currentColor"/><path d="M78 130.999c-9.941 0-18-8.058-18-18 0-8.919 6.487-16.322 15-17.75V78.5h6v16.748c7.538 1.265 13.487 7.214 14.751 14.752H110v6l-14.249-.001c-1.428 8.513-8.832 15-17.751 15z" fill="currentColor"/><path fill-rule="evenodd" clip-rule="evenodd" d="M15 113.999C15 75.999 47 51 78 51c29.5 0 61.5 24 61.5 62.999C139.5 150.499 112 175 78 175c-27 0-63-17.501-63-61.001zm7 0c0-38 32.504-55.5 56-55.5 23.496 0 55 20.5 55 55.5 0 30.5-25.504 54.001-55 54.001-17.504 0-56-12.501-56-54.001zm56 17c-9.941 0-18-8.058-18-18 0-8.919 6.487-16.322 15-17.75V78.5h6v16.748c7.538 1.265 13.487 7.214 14.751 14.752H110v6l-14.249-.001c-1.428 8.513-8.832 15-17.751 15z" fill="currentColor"/><path fill-rule="evenodd" clip-rule="evenodd" d="M0 113.999C0 158 32 191 78 191c42.824 0 72.214-30.767 76.069-68.5H165c5 0 6-1.5 6-6.5v-9.5c0-4.5-1-6.5-6-6.5h-11.759c-3.979-21.992-17.135-41.507-35.741-53.163L111 43.2c-4.429-2.197-11.11-4.412-16-5.7 0 0-4.397-1.008-7.5-1.402a74.858 74.858 0 00-5.646-.5V29.5c6.416-1.701 11.145-7.549 11.145-14.5 0-8.284-6.716-15-15-15-8.285 0-15 6.716-15 15 0 6.951 4.728 12.799 11.145 14.5v6.09a80.1 80.1 0 00-8.144.803c-3.907.588-6.5 1.26-6.5 1.26a77.464 77.464 0 00-14 4.78c-4.45 2.013-6.5 3.32-6.5 3.32-23.42 13.4-39 38.678-39 68.246zm7 0C7 75.999 40.499 43 77.999 43 115.499 43 147 72.499 147 113.999c0 41.501-35 69.501-69.001 69.501C43.997 183.5 7 158 7 113.999zm147.14-7.499a78.445 78.445 0 01.336 9.5H165v-9.5h-10.86zM78 23a8 8 0 100-16 8 8 0 000 16z" fill="currentColor"/><path fill-rule="evenodd" clip-rule="evenodd" d="M78 51c-31 0-63 25-63 62.999C15 157.499 51 175 78 175c34 0 61.5-24.501 61.5-61.001 0-39-32-62.999-61.5-62.999zm0 7.5c-23.496 0-56 17.5-56 55.499C22 155.499 60.496 168 78 168c29.496 0 55-23.501 55-54.001 0-35-31.504-55.5-55-55.5zm-18 54.499c0 9.942 8.059 18 18 18 8.92 0 16.323-6.487 17.751-15L110 116v-6H95.751C94.487 102.462 88.538 96.513 81 95.248V78.5h-6v16.748C66.487 96.676 60 104.08 60 113z" fill="currentColor"/></svg><svg version="1.0" viewBox="0 0 100 100" id="dont_chat" xmlns="http://www.w3.org/2000/svg"><g fill="currentColor"><path d="M5.2 11.2c-1.7 1.7-1.7 53.9 0 55.6.7.7 3.9 1.2 7.5 1.2H19v3c0 1.7-.7 4.4-1.5 5.9-.8 1.6-1.2 3.1-.9 3.4 1.5 1.4 10.2-3 14.7-7.5 4.6-4.6 5.1-4.8 10.2-4.8H47v4.3c0 2.3.7 5.3 1.6 6.5 1.4 2 2.3 2.2 11.9 2.2h10.3l2.1 3.2c2.2 3.6 4.9 5.6 9.4 6.9l2.9.8-.7-4.2c-.4-2.3-.8-4.6-.9-5.2 0-.5 2.2-1.2 4.9-1.5 2.8-.3 5.6-.9 6.3-1.3 1.7-1.1 1.7-38.8 0-40.5-.7-.7-4.3-1.2-9-1.2H78V25.6c0-10-.3-12.8-1.6-14-1.3-1.4-6-1.6-35.8-1.6-25.3 0-34.5.3-35.4 1.2zM75 25v13H62.6C46.7 38 47 37.7 47 54.2V66h-6.4c-6.2 0-6.6.2-8.3 3-1.7 2.9-6.8 6.9-10.5 8.3-2.1.7-2.1.4-.8-4.3 1.8-6.2.8-7-7.6-7H6V12h69v13zm18.8 34.2l-.3 19.3-5.5.3c-3 .2-5.8.9-6.2 1.5-.4.7-.5 2.9-.1 4.9.4 2.7.2 3.8-.7 3.8-1.7 0-8-6.5-8-8.4 0-1.3-1.8-1.6-11.2-1.8l-11.3-.3-.3-19.3L50 40h44l-.2 19.2z"/><path d="M34.4 20.2c-2.3 1.1-4.9 5.7-3.8 6.7.4.3.9 0 1.2-.8 1-3 4.3-5.1 7.8-5.1 5.6 0 7.4 1.5 7.4 6 0 3.2-.5 4.3-2.7 5.7-1.6.9-3.6 2.6-4.5 3.7-1.9 2.2-2.5 9.6-.8 9.6.6 0 1-1.3 1-2.9 0-4.3.9-6 4.2-7.7 3.4-1.7 5.7-6.4 5-10-1-5.3-9-8.1-14.8-5.2zM37 52.9c0 2.6 1.7 3.6 3.5 2.1s.8-4-1.6-4c-1.2 0-1.9.7-1.9 1.9zM63.2 50.3C61.4 52.1 60 54 60 54.6c0 1.5 6.9 7.9 7.7 7.1.3-.4-.4-1.8-1.7-3.2L63.7 56h4.7c6.1 0 8.2 1.2 9.6 5.6.8 2.3 1.6 3.2 2.2 2.6 1.3-1.3-1.4-6.5-4.4-8.6-1.3-.9-4.3-1.6-7-1.6-5.2 0-5.8-.7-2.8-3.5 2.1-1.9 2.6-3.5 1.2-3.5-.4 0-2.2 1.5-4 3.3zM55.7 69.7c-1.1 1-.8 4.3.3 4.3.6 0 1-1.1 1-2.5 0-2.6-.2-2.9-1.3-1.8zM79 71.4c0 1.4.5 2.6 1 2.6.6 0 1-.9 1-1.9 0-1.1-.4-2.3-1-2.6-.6-.4-1 .5-1 1.9zM86.4 70.4c-.4 1-.2 2.2.4 2.8.8.8 1.3.7 1.8-.6.4-1 .2-2.2-.4-2.8-.8-.8-1.3-.7-1.8.6zM63 72c0 1.1.5 2 1 2 .6 0 1-.9 1-2s-.4-2-1-2c-.5 0-1 .9-1 2zM71 72c0 1.1.5 2 1 2 .6 0 1-.9 1-2s-.4-2-1-2c-.5 0-1 .9-1 2z"/></g></svg><svg fill="none" viewBox="0 0 188 182" id="email" xmlns="http://www.w3.org/2000/svg"><path d="M48.5 39.5V48h91v-8.5h-91zM48.5 52.5V61h91v-8.5h-91zM48.5 68v8.5h42V68h-42zM97.5 68v8.5h42V68h-42zM47.5 160L94 117.5l47 42.5H47.5z" fill="currentColor"/><path fill-rule="evenodd" clip-rule="evenodd" d="M2.5 71C4.5 69 13 61 13 61V22.5c0-5 3-6.5 6-6.5h4V5.5C23 0 28 0 29.5 0h130c4 0 5.5 3.667 5.5 5.5V16h3c5.2 0 6.833 4.333 7 6.5V61s8.5 8 10.5 10c1 1 2.5 3 2.5 7v93c0 7.2-3.5 10.5-10.5 10.5H9.5c-6.5 0-9.5-4-9.5-10.5V78c0-4 1.5-6 2.5-7zm7 7v88L60 117.5 9.5 78zm56 33.5L22 78V22.5h143V78l-43 33.5-18.5-17c-.188-.125-.408-.282-.659-.46-1.755-1.244-4.992-3.54-8.841-3.54-4.4 0-8.167 2.833-9.5 4l-19 17zM13 173l73.5-68.5c1-1.333 3.9-4 7.5-4s6.5 2.667 7.5 4L173 173H13zM29 6.5V16h129.5V6.5H29zM177.5 166V78l-50 39.5 50 48.5z" fill="currentColor"/></svg><svg fill="none" viewBox="0 0 30 30" id="filter" xmlns="http://www.w3.org/2000/svg"><path d="M1.615 3.462h26.77M1.615 15h26.77M1.615 26.538h26.77" stroke="#fff" stroke-linecap="round"/><path d="M23.923 0h-2.23C20.46 0 19.46 1.033 19.46 2.308v2.307c0 1.275 1 2.308 2.231 2.308h2.231c1.232 0 2.23-1.033 2.23-2.308V2.308c0-1.275-.998-2.308-2.23-2.308zM16.115 11.539h-2.23c-1.232 0-2.231 1.033-2.231 2.307v2.308c0 1.274.999 2.308 2.23 2.308h2.231c1.232 0 2.231-1.034 2.231-2.308v-2.308c0-1.274-.999-2.307-2.23-2.307zM23.923 23.077h-2.23c-1.233 0-2.232 1.033-2.232 2.308v2.307c0 1.275 1 2.308 2.231 2.308h2.231c1.232 0 2.23-1.033 2.23-2.308v-2.307c0-1.275-.998-2.308-2.23-2.308z" fill="#fff"/></svg><svg shape-rendering="geometricPrecision" text-rendering="geometricPrecision" image-rendering="optimizeQuality" fill-rule="evenodd" clip-rule="evenodd" viewBox="0 0 28 28" id="gear" xmlns="http://www.w3.org/2000/svg"><path fill="currentColor" d="M10.5-.5h6v4c2.15-.405 4.15-.905 6-1.5 2.494 2.244 2.494 4.577 0 7 1.405 1.27 3.071 1.77 5 1.5v6c-4.765-.443-5.765 1.057-3 4.5-1.664 3.72-4.33 4.554-8 2.5v4h-6v-4c-2.37.351-4.703.518-7 .5a7.253 7.253 0 01-2-2.5c1.45-1.35 2.117-3.017 2-5h-4v-6c4.29-.244 4.956-1.91 2-5a14.973 14.973 0 013-3.5 49.7 49.7 0 006 1.5v-4zm2 2c1.677.683 2.343 2.017 2 4a6.845 6.845 0 014 1c1.12-1.333 2.453-1.833 4-1.5-3.098 4.206-2.098 7.04 3 8.5-4.869 1.212-5.869 3.712-3 7.5L21 22.5c-3.788-2.869-6.288-1.869-7.5 3l-2-4a14.602 14.602 0 00-7-.5c2.848-3.73 1.848-6.23-3-7.5 4.49-1.613 5.49-4.28 3-8l1-1c3.786 2.61 6.12 1.61 7-3zm-1 9c5.675.36 6.342 2.36 2 6-2.969-1.265-3.635-3.265-2-6z" opacity=".579"/><path fill="currentColor" d="M10.5 8.5c6.988-.852 9.322 1.981 7 8.5-8.662 2.5-10.996-.332-7-8.5zm1 2c-1.635 2.735-.969 4.735 2 6 4.342-3.64 3.675-5.64-2-6z" opacity=".606"/></svg><svg version="1.0" viewBox="0 0 27 29" id="geopointer" xmlns="http://www.w3.org/2000/svg"><g fill="currentColor"><path d="M7.6 3.1C6.2 4.8 5 7.2 5 8.4 5 11.2 11.7 25 13.1 25c1.4 0 6.1-8 7.5-12.8 1.5-5 .7-8.2-2.8-10.6-3.6-2.5-7.3-2-10.2 1.5zm9.9.1c2.4 1.9 2.7 2.6 2.2 6.4-.5 4.8-5.3 13.8-6.8 12.9-.5-.4-2.1-2.8-3.4-5.5C5.1 8.3 6.8 1.6 13.6 1.1c.6-.1 2.4.9 3.9 2.1z"/><path d="M9.9 6.6c-1.4 1.8-.5 4 2.5 5.8 2.5 1.6 6-2.7 4.6-5.5-1.3-2.3-5.3-2.5-7.1-.3zm5.6 1.9c0 1.3-.8 2.1-2.2 2.3-1.7.3-2.3-.2-2.3-1.6 0-1 .3-2.2.7-2.6 1.3-1.3 3.8-.1 3.8 1.9zM2.2 21.1c-1.7.6-2.2 1.5-2 3.1.9 6.2 26.8 6 26.8-.2 0-1.8-3.9-4-6.8-3.9-.9 0 0 .7 2.1 1.6 2 .8 3.7 1.8 3.7 2.2 0 1.7-5.8 3.2-12.5 3.2-11.6 0-16-3-8.4-5.7 2.1-.8 2.6-1.3 1.4-1.3-1.1 0-3 .4-4.3 1z"/></g></svg><svg fill="none" viewBox="0 0 44 48" id="gift-box" xmlns="http://www.w3.org/2000/svg"><path d="M20.722 24.522V12.488h-4.033c-3.69 0-5.635-2.43-5.635-4.79 0-2.453 1.79-3.906 4.182-3.906 2.75 0 5.486 2.157 5.486 5.767v2.93l2.778.011v-3c0-3.61 2.514-5.708 5.264-5.708 2.393 0 4.204 1.453 4.204 3.905 0 2.362-2.013 4.791-5.657 4.791L23.5 12.5v12l16.243.022c2.438 0 3.757-.953 3.757-3.383v-5.268c0-2.407-1.32-3.383-3.757-3.383h-5.21c1.386-1.271 2.214-2.997 2.214-4.95 0-4.382-3.421-7.538-7.76-7.538-3.22 0-5.835 1.816-6.976 5.04C20.871 1.817 18.232 0 15.012 0c-4.316 0-7.76 3.156-7.76 7.538.001 1.953.806 3.679 2.215 4.95h-5.21c-2.304 0-3.757.976-3.757 3.383v5.268c0 2.43 1.342 3.383 3.757 3.383h16.465zm0 23.478V26.952H3.698v15.28c0 3.793 2.19 5.768 5.925 5.768h11.099zM23.5 26.952V48h10.877c3.734 0 5.925-1.975 5.925-5.767V26.952H23.5z" fill="#F60"/></svg><svg fill="none" viewBox="0 0 48 44" id="hand-with-coins" xmlns="http://www.w3.org/2000/svg"><path d="M30.298 30.219l.379-.03c1.395-.233 1.746-1.765 1.746-2.925 0-1.259-1.039-2.622-2.125-2.65H18.517c-2.946 0-5.778 1.258-7.704 3.546l-3.172 3.66v10.982h6.004c.566 0 1.133 0 1.586-.114l15.974-1.83c2.606-.344 5.098-1.26 7.25-2.86L48 30.933c-2.077-3.146-5.013-2.889-6.599-1.974l-4.871 2.288c-1.7.8-3.512 1.259-5.438 1.259h-10.99c-.679 0-1.132-.458-1.132-1.144 0-.687.453-1.144 1.133-1.144h10.195zM0 31.417c0-.58.465-1.049 1.038-1.049h3.116c.573 0 1.038.47 1.038 1.049V42.95c0 .58-.465 1.049-1.038 1.049H1.038C.465 44 0 43.53 0 42.951V31.417zM20.952 10.486c-3.172 0-5.664 2.517-5.664 5.72s2.492 5.72 5.664 5.72c3.172 0 5.665-2.517 5.665-5.72s-2.493-5.72-5.665-5.72zM37.568 10.486c-3.172 0-5.664 2.517-5.664 5.72s2.492 5.72 5.664 5.72c3.172 0 5.665-2.517 5.665-5.72s-2.493-5.72-5.665-5.72zM29.166 0c-2.493 0-4.532 2.059-4.532 4.576 0 2.516 2.04 4.575 4.532 4.575s4.531-2.059 4.531-4.575C33.697 2.059 31.658 0 29.166 0z" fill="#F60"/></svg><svg fill="none" viewBox="0 0 22 22" id="header-create-btn" xmlns="http://www.w3.org/2000/svg"><path d="M11 1v20M1 11h20" stroke="currentColor" stroke-width="2" stroke-linecap="square"/></svg><svg fill="none" viewBox="0 0 32 32" id="header-wallet" xmlns="http://www.w3.org/2000/svg"><g clip-path="url(#asclip0)" fill="currentColor"><path d="M30.545 16.134v-4.497a2.903 2.903 0 00-2.678-2.886l-4.176-7.295A2.874 2.874 0 0021.93.099a2.858 2.858 0 00-2.19.293L5.425 8.728H2.909A2.912 2.912 0 000 11.637V29.09A2.912 2.912 0 002.91 32h24.726a2.912 2.912 0 002.909-2.91v-4.497a2.178 2.178 0 001.454-2.047v-4.364c0-.947-.61-1.747-1.454-2.048zM20.475 1.65c.329-.193.713-.244 1.08-.146.37.1.68.34.873.676l1.417 2.475a4.993 4.993 0 01-2.027.437 5.01 5.01 0 01-3.954-1.923l2.61-1.52zM16.6 3.904c1.233 1.663 3.132 2.642 5.217 2.642.944 0 1.879-.223 2.748-.632l1.611 2.814H8.315L16.6 3.904zM29.09 29.09c0 .802-.653 1.454-1.455 1.454H2.909a1.456 1.456 0 01-1.454-1.454V11.637c0-.802.652-1.455 1.454-1.455h24.727c.802 0 1.454.653 1.454 1.455V16h-4.363a4.368 4.368 0 00-4.364 4.364 4.368 4.368 0 004.364 4.363h4.363v4.364zm1.454-6.545a.728.728 0 01-.727.727h-5.091a2.912 2.912 0 01-2.91-2.91 2.912 2.912 0 012.91-2.908h5.09c.402 0 .728.326.728.727v4.364z"/><path d="M24.726 18.91c-.802 0-1.454.652-1.454 1.454 0 .802.652 1.454 1.454 1.454.802 0 1.454-.652 1.454-1.454 0-.802-.652-1.455-1.454-1.455z"/></g><defs><clipPath id="asclip0"><path fill="#fff" d="M0 0h32v32H0z"/></clipPath></defs></svg><svg fill="none" viewBox="0 0 48 43" id="house" xmlns="http://www.w3.org/2000/svg"><path d="M20.69 43h6.62V28.719h-6.62V43z" fill="#F60"/><path fill-rule="evenodd" clip-rule="evenodd" d="M.81 19.715c-1.649 1.459-.612 4.174 1.594 4.174h2.4V40.61A2.394 2.394 0 007.204 43h11.003V29.546c0-2.068 0-3.268 1.655-3.268h8.276c1.655 0 1.655 1.2 1.655 3.268V43h11.004c1.325 0 2.4-1.07 2.4-2.389V23.89h2.399c2.206 0 3.243-2.715 1.594-4.174L25.594.603a2.408 2.408 0 00-3.188 0L.81 19.715z" fill="#F60"/></svg><svg fill="none" viewBox="0 0 195 159" id="icon1" xmlns="http://www.w3.org/2000/svg"><path d="M123.999 78.5h44.5c-3 5.167-7 14-22 14-14.5 0-19.334-8.833-22.5-14zM123.999 129.5h44.5c-3-5.167-7-14-22-14-14.5 0-19.334 8.833-22.5 14z" fill="currentColor"/><path fill-rule="evenodd" clip-rule="evenodd" d="M186.999 139.499c-3.167-11.833-13-31.499-25-35.499 12-4 21.833-23.667 25-35.5H191c2 0 3.5-1.5 3.5-3.5V52c0-2.4-1.5-3.5-3.5-3.5h-26V6c0-4.4-4.334-5.833-6.501-6H6.999C3 0 0 1 0 6c0 4.4.5 102.5.5 102.5C.5 114 3 116 6.999 116H115.5c-1.5 2.5-3 5-4.035 7.5H6.999v6h101.564c-1.559 3.578-2.771 7.035-3.564 9.999h-4.5c-2.499.001-3 2.001-3 3.501v12.5c.001 2.5 1.501 3 3 3H191c2 0 3.5-1 3.5-3v-13c0-2.5-2-3.001-3.5-3.001h-4.001zm-8-.499h-66c2.166-11.167 11.5-32 33-32s31.5 21.167 33 32zm-66-70.5c2.166 11.167 11.5 32.5 33 32.5s31.5-21.667 33-32.5h-66zm-12.5 0h4.5c.793 2.965 2.005 6.422 3.564 10l-68.564.5c0-3.5-.938-8-4-11.5-3.063-3.5-9.5-6-13.5-6v-25c3.5 0 10-2.389 13.5-5.5s5.5-8 5.5-11h81.5c.5 3.5 1.5 7.875 7 12 5.346 4.01 9.747 4.004 12.285 4h.215v12.5h-39C103.499 34 91.5 26 81 26c-10.5 0-22.5 8.5-22.5 22.5C58.5 63 71 71 81 71c8 0 13.5-4 16.5-7 0 2.8 1.832 4.333 2.999 4.5zm48.5-39v19h9.5V6H6.999v88h110.575a57.922 57.922 0 01-5.575-8.5h-79.5c0-.606.02-1.223.04-1.85.111-3.513.233-7.331-3.04-11.15-3.857-4.5-8.5-5-13-5v-38c2.5 0 10.05 0 15-4.5 3.532-3.212 3.945-6.99 4.338-10.585.052-.475.103-.948.162-1.415h93.5s.757 10.136 5 13.5c4.232 3.355 14.5 3 14.5 3zm-19 74.5c-2.23-.743-4.423-2.099-6.5-3.822H6.999V106c-.167 1.167.2 3.5 3 3.5h111.548c2.639-2.557 5.479-4.509 8.452-5.5zM103.5 152.5V146H188v6.5h-84.5zm0-90.5v-7H188v7h-84.5zM66 48.5C66 39 74 33 81 33c10.5 0 16 8.298 16 15.5 0 9-7.5 15.5-16 15.5-6.5 0-15-5.5-15-15.5z" fill="currentColor"/></svg><svg fill="none" viewBox="0 0 198 172" id="icon2" xmlns="http://www.w3.org/2000/svg"><path fill-rule="evenodd" clip-rule="evenodd" d="M7 161H0v10.5h197.5V161h-7V62c0-3.5-.7-6.1-5.5-6.5h-16.5V30c0-5-1.5-6.5-6-6.5H137V9c0-3.5-2.5-6-5.5-6-7.5 0-8 12.5-13.5 12.5S110.5 0 102.5 0c-8.5 0-10 15-15 15s-8-15-15-15c-8 0-10.5 15-15 15-5 0-7-12-12.5-12-3 0-5.5 2.5-5.5 6v14.5h-26c-2.167-.167-6.5 1-6.5 7V161zm8-129.5h24.5V39h-11C25 39 23 41 23 45v13c0 4 3.333 6 5.5 6 38.167 0 116.4.5 120 .5 2.5 0 4-1.5 4-4.5V44c0-3-1-5-4-5H137v-7.5h23V161h-7.5v-12c0-2.5-1.5-3.5-4.5-3.5h-29.5c-2.5 0-4.5 1-4.5 3.5v12h-7v-12c0-2-2-3.5-4.5-3.5H73c-3.5 0-4.5 1.5-4.5 3.5v12h-7v-12c0-2.8-2-3.5-5-3.5h-27c-4 0-6 1-6 3.5v12H15V31.5zM29.5 45h10v13h-10V45zM146 45h-9v13h9V45zM45.5 58V9l2.5 4.5c1.333 3 5 7.5 9.5 7.5C66 21 67 7 72.5 7s6.5 14 15 14c9 0 9-14 15-14S109 21 118 21c4 0 7.5-3.5 9.5-7.5l3-4.5v49h-85zm136 6.5h-13V161h13V64.5zM29.5 161v-9h26v9h-26zm45.5 0v-9h26v9H75zm45 0v-9h26.5v9H120z" fill="currentColor"/><path fill-rule="evenodd" clip-rule="evenodd" d="M29.5 71c-2.5 0-6 1-6 5.5v27c0 4 2 6.5 6 6.5h117c3 0 6-1.5 6-6.5v-27c0-2.5-1-5.5-6-5.5h-117zm0 32.5v-26H146l.5 26h-117z" fill="currentColor"/><path d="M36 85.5V94h25.5v-8.5H36zM68.5 85.5V94H107v-8.5H68.5zM114 85.5V94h25.5v-8.5H114zM61.5 39v7H114v-7H61.5zM61.5 28.5v7H114v-7H61.5zM29.5 123v7h117v-7h-117z" fill="currentColor"/></svg><svg fill="none" viewBox="0 0 104 189" id="icon3" xmlns="http://www.w3.org/2000/svg"><path d="M59.54 91.092a8 8 0 11-16.001 0 8 8 0 0116 0z" fill="currentColor"/><path fill-rule="evenodd" clip-rule="evenodd" d="M76.04 91.092c0 13.255-10.746 24-24 24-13.256 0-24-10.745-24-24s10.744-24 24-24c13.254 0 24 10.745 24 24zm-24 18c9.94 0 18-8.059 18-18s-8.06-18-18-18c-9.942 0-18 8.059-18 18s8.058 18 18 18z" fill="currentColor"/><path fill-rule="evenodd" clip-rule="evenodd" d="M90.04 91.092c0 20.987-17.014 38-38 38-20.988 0-38-17.013-38-38s17.012-38 38-38c20.986 0 38 17.013 38 38zm-38 32c17.672 0 32-14.327 32-32 0-17.673-14.328-32-32-32-17.674 0-32 14.327-32 32 0 17.673 14.326 32 32 32z" fill="currentColor"/><path fill-rule="evenodd" clip-rule="evenodd" d="M.04 10.092v169c-.334 3.166 1.3 9.5 10.5 9.5h83c3.332 0 9.999-1.9 9.999-9.5v-169c0-3.334-2-10-10-10h-83c-3.5-.5-10.5.8-10.5 10zm7.5 171v-25h88.5v25H7.54zm88.5-32H7.54v-119.5h88.5v119.5zm0-127H7.54v-14.5h88.5v14.5z" fill="currentColor"/><path d="M48.54 10.092v6.5h6.5v-6.5h-6.5zM32.54 162.592c-2 0-4 1.5-4 5s2.5 4.5 4 4.5h38.5c2 0 4-2 4-4.5s-1.5-5-4-5h-38.5z" fill="currentColor"/></svg><svg fill="none" viewBox="0 0 199 198" id="icon4" xmlns="http://www.w3.org/2000/svg"><path fill-rule="evenodd" clip-rule="evenodd" d="M127.499 45.496c0 7.732-6.268 14-14 14s-14-6.268-14-14 6.268-14 14-14 14 6.268 14 14zm-14.001 8a8 8 0 100-16 8 8 0 000 16z" fill="currentColor"/><path fill-rule="evenodd" clip-rule="evenodd" d="M82.5 45.5c0-17.12 13.88-31 31.001-31 17.12 0 31 13.88 31 31 0 12.674-7.606 23.572-18.501 28.378V87.5h6.5v8H126v8h15.499v7H110c-6.8 0-8.5-3-8.5-7.5V73.878c-11.69-4.439-19-15.13-19-28.377zm30.997 23.997c13.254 0 24-10.745 24-24s-10.746-24-24-24c-13.255 0-24 10.745-24 24s10.745 24 24 24zm-3.997 6.68c1.542.29 2.578.324 4.001.324 1.528 0 3.03-.11 4.499-.324V103.5h-8.5V76.177z" fill="currentColor"/><path fill-rule="evenodd" clip-rule="evenodd" d="M113.499 59.496c7.732 0 14-6.268 14-14s-6.268-14-14-14-14 6.268-14 14 6.268 14 14 14zm-.001-6a8 8 0 100-16 8 8 0 000 16zM10 87.5c-5.5 0-10 2.5-10 10v68c0 4.5 1.5 9 9.5 9H29c6.5 0 9-1 9-9v-4c.667-.333 2.4-.8 4 0s30.833 21.833 45.5 32.5c1 1 4.5 3.5 8.5 3.5h17c1.167-.167 4.401-1.267 7-3 3-2 42.5-24 71.5-45 3.26-2.361 6.1-5.6 6.5-8 .75-4.5 0-12.5-4-15s-6.5-3.5-12-3.5-52.5 16-56.5 16H120s.485-3.649.5-6c.016-2.546-.5-6.5-.5-6.5-.5-2.833-3.2-8.2-10-9H73c-.667-.167-3.14-1.71-5-4.5-3-4.5-4.5-6.5-6.5-9.5-.745-1.118-1.5-3-3.5-3H38v-3c0-4.5-2.2-10-9-10H10zm-.5 81c-2.5 0-3.003-1.5-3.004-3l.004-68c0-2.5 1-3.5 3.5-3.5h19c2.5 0 3.5 1.5 3.5 3.5v68c0 2.5-1 3-3.5 3h-6.5v-16H16v16H9.5zm28.5-16v-43h19c2.5 3 4.7 6.266 6 8 1.5 2 3 3.5 4.5 5s4 2 5.5 2h34c4 0 5.5 3.2 5.5 8 0 4-1.5 7.5-5.5 7.5H68v9.5h51.5c4 0 15.333-3.667 20.5-5.5 15-5.333 40-14.5 46.5-13.5s5 8.5 3.5 10.5c-1.082 1.442-5 3.5-6.5 5-20.167 12.5-61.2 38-64 40-2.8 2-7.5 2.833-9.5 3H96c-.5.167-2.4-.1-6-2.5s-33.5-23.667-48-34h-4z" fill="currentColor"/><path d="M74.5 45.5c0-21.539 17.46-39 39-39 21.539 0 39 17.461 39 39 0 9.513-3.406 18.23-9.066 25a38.946 38.946 0 01-1.935 2.148l5.869 4.48C154.901 68.937 159.5 58.005 159.5 46c0-25.405-20.595-46-46-46s-46 20.595-46 46c0 12.004 4.598 22.934 12.13 31.125l5.87-4.477a39.188 39.188 0 01-1.935-2.148 38.842 38.842 0 01-9.066-25z" fill="currentColor"/></svg><svg fill="none" viewBox="0 0 46 46" id="important" xmlns="http://www.w3.org/2000/svg"><circle cx="23" cy="23" r="23" fill="#F60"/><path d="M24.185 16.639l-.163 8.86H22.86l-.154-8.86h1.48zm-.722 12.49a.942.942 0 01-.955-.946c0-.264.092-.488.275-.671a.927.927 0 01.68-.284c.258 0 .481.094.67.284a.9.9 0 01.285.67.9.9 0 01-.284.672.932.932 0 01-.671.275z" fill="#fff"/></svg><svg fill="none" viewBox="0 0 72 72" id="input-file" xmlns="http://www.w3.org/2000/svg"><circle cx="36" cy="36" r="35" stroke="#fff" stroke-width="2" stroke-dasharray="4 4"/><path d="M20 37h33M37 20v33" stroke="#fff" stroke-width="2"/></svg><svg fill="none" viewBox="0 0 48 40" id="job" xmlns="http://www.w3.org/2000/svg"><path d="M20.352 22.837v-2.22h7.296v4.44h-7.296v-2.22z" fill="#F60"/><path d="M0 37.33A2.683 2.683 0 002.688 40h42.624A2.683 2.683 0 0048 37.33V23.98H29.953v2.22c0 .633-.516 1.145-1.152 1.145h-9.602a1.148 1.148 0 01-1.152-1.144v-2.22H0V37.33z" fill="#F60"/><path fill-rule="evenodd" clip-rule="evenodd" d="M45.312 5.674H34.835v-4.53C34.835.513 34.319 0 33.683 0H14.317c-.636 0-1.152.512-1.152 1.145v4.529H2.688A2.683 2.683 0 000 8.344v9.984c0 2.845 1.967 3.364 3.934 3.364h14.113v-2.22c0-.632.516-1.145 1.152-1.145H28.8c.637 0 1.153.513 1.153 1.145v2.22h15.359c1.901 0 2.688-.52 2.688-3.364V8.344a2.683 2.683 0 00-2.688-2.67zM32.53 2.289H15.469v3.385h17.062V2.289z" fill="#F60"/></svg><svg fill="none" viewBox="0 0 48 48" id="key" xmlns="http://www.w3.org/2000/svg"><path fill-rule="evenodd" clip-rule="evenodd" d="M22.561 2.3A17.04 17.04 0 0131.062 0a16.857 16.857 0 0111.985 4.962 17.04 17.04 0 014.806 14.229 17.048 17.048 0 01-8.394 12.456 16.991 16.991 0 01-13.65 1.404l-1.914 1.911a3.186 3.186 0 01-2.301.981h-2.028v1.668a3.592 3.592 0 01-.99 2.403l-.024.024a3.529 3.529 0 01-2.529 1.065h-1.644v1.92a3.216 3.216 0 01-.933 2.352l-1.965 1.965a2.25 2.25 0 01-1.59.66H2.25A2.25 2.25 0 010 45.75v-7.674c0-.596.238-1.168.66-1.59l14.286-14.283a17.04 17.04 0 011.398-13.665 17.04 17.04 0 016.217-6.237zm7.11 7.207a6.709 6.709 0 00-2.191 1.464h.006a6.73 6.73 0 00-1.467 7.353l.003.006A6.744 6.744 0 1032.256 9a6.708 6.708 0 00-2.585.507z" fill="#F60"/></svg><svg fill="none" viewBox="0 0 36 35" id="list-sort" xmlns="http://www.w3.org/2000/svg"><rect x="1" y=".5" width="34" height="34" rx="4.5" fill="transparent"/><rect x="19.75" y="10" width="9" height="3" rx="1" fill="currentColor"/><rect x="7.25" y="7" width="9" height="9" rx="1" fill="currentColor"/><rect x="7.5" y="19" width="9" height="9" rx="1" fill="currentColor"/><rect x="19.5" y="22" width="9" height="3" rx="1" fill="currentColor"/></svg><svg fill="none" viewBox="0 0 189 54" id="logo_app" xmlns="http://www.w3.org/2000/svg"><g clip-path="url(#bdclip0_4_28)"><path d="M64.991 35.313l9.612-22.457h2.517s3.215 7.487 9.638 22.457h-2.456l-3.245-7.568H70.621l-3.275 7.568H64.99zm6.49-9.605h8.702L75.877 15.41 71.48 25.707zm17.511 9.605v-16.62h2.249v2.152c1.365-1.702 3.138-2.553 5.332-2.553 1.172 0 2.244.218 3.215.658a6.373 6.373 0 012.425 1.92c.536.715.91 1.495 1.127 2.346.218.851.324 1.976.324 3.369v8.728h-2.234v-8.728c0-1.115-.091-2.022-.273-2.706a4.783 4.783 0 00-.915-1.818c-.935-1.14-2.249-1.707-3.937-1.707-.905 0-1.738.187-2.491.562a4.392 4.392 0 00-1.784 1.575c-.288.456-.49.958-.612 1.505-.116.547-.177 1.277-.177 2.173v9.144h-2.248zm20.064 5.83s.905-2.127 2.709-6.377l-6.439-16.074h2.457s1.753 4.417 5.256 13.252c0 0 1.87-4.418 5.615-13.252h2.38s-3.194 7.482-9.577 22.452h-2.401zm14.555-5.83V12.856h6.176c1.451 0 2.638.091 3.558.269.925.177 1.733.481 2.421.906.849.502 1.506 1.242 1.971 2.22.465.972.697 2.107.697 3.403 0 1.13-.191 2.138-.581 3.03-.384.891-.935 1.6-1.658 2.137-.677.502-1.48.866-2.395 1.084-.92.218-2.133.325-3.644.325h-4.311v9.083h-2.234zm2.234-11.13h4.165c2.011 0 3.446-.253 4.305-.76.592-.313 1.052-.805 1.37-1.469.324-.663.48-1.438.48-2.33 0-1.094-.217-2.016-.647-2.75a3.23 3.23 0 00-1.87-1.495c-.965-.324-2.507-.486-4.619-.486h-3.184v9.29zm31.719-5.491v16.62h-2.254V32.39c-.875 1.185-1.81 2.036-2.79 2.553-.981.511-2.174.77-3.573.77-1.688 0-3.215-.375-4.569-1.12a8.197 8.197 0 01-3.189-3.1c-.773-1.322-1.157-2.807-1.157-4.448 0-1.641.379-3.13 1.142-4.468a8.295 8.295 0 013.138-3.146c1.33-.76 2.815-1.14 4.453-1.14 1.456 0 2.699.263 3.74.79 1.041.532 1.976 1.378 2.805 2.549V18.69h2.254zm-8.824 1.661c-1.779 0-3.295.644-4.549 1.93-1.253 1.287-1.88 2.842-1.88 4.676 0 1.87.642 3.45 1.926 4.742 1.284 1.292 2.846 1.935 4.68 1.935 1.804 0 3.32-.643 4.553-1.92 1.228-1.281 1.84-2.867 1.84-4.757 0-1.894-.627-3.464-1.88-4.72-1.254-1.257-2.815-1.885-4.69-1.885zm26.609 10.06h2.542c-.47.902-.904 1.607-1.299 2.118a7.417 7.417 0 01-1.425 1.388c-1.517 1.195-3.321 1.793-5.403 1.793-1.678 0-3.209-.385-4.589-1.15a8.48 8.48 0 01-3.26-3.161c-.788-1.343-1.182-2.822-1.182-4.443 0-1.596.394-3.054 1.178-4.382a8.543 8.543 0 013.219-3.135c1.365-.77 2.86-1.15 4.488-1.15 1.875 0 3.548.486 5.024 1.47 1.475.977 2.552 2.304 3.224 3.975h-2.517c-.642-1.089-1.46-1.925-2.446-2.507-.985-.588-2.092-.877-3.315-.877-1.845 0-3.402.644-4.67 1.93-1.269 1.287-1.905 2.863-1.905 4.732 0 1.855.647 3.42 1.931 4.701 1.288 1.277 2.865 1.92 4.735 1.92 1.183 0 2.208-.248 3.068-.744.864-.492 1.733-1.318 2.603-2.477h-.001zm7.667 4.9v-14.59h-3.568v-2.031h3.568v-5.836h2.254v5.836H189v2.031h-3.73v14.59h-2.254z" fill="#000"/><path fill-rule="evenodd" clip-rule="evenodd" d="M2.358 22.372h7.932c0-3.983 1.61-7.588 4.214-10.198L8.896 6.552a22.329 22.329 0 00-6.538 15.82z" fill="#333"/><path fill-rule="evenodd" clip-rule="evenodd" d="M8.895 6.552l5.608 5.622A14.325 14.325 0 0124.677 7.95V0A22.222 22.222 0 008.895 6.552z" fill="#000"/><path fill-rule="evenodd" clip-rule="evenodd" d="M14.49 32.555a14.391 14.391 0 01-4.2-10.183H2.358a22.33 22.33 0 006.524 15.806l5.608-5.622z" fill="#4D4D4D"/><path fill-rule="evenodd" clip-rule="evenodd" d="M14.49 32.555l-5.608 5.622.071.071.04.04L24.67 54l.008-.009V36.793c-3.98 0-7.582-1.62-10.187-4.238z" fill="#666"/><path fill-rule="evenodd" clip-rule="evenodd" d="M24.676 36.793V53.99L39.92 38.714l.54-.523-5.61-5.622a14.325 14.325 0 01-10.173 4.224z" fill="#666"/><path fill-rule="evenodd" clip-rule="evenodd" d="M40.459 6.552l-5.609 5.622A14.325 14.325 0 0024.677 7.95V0a22.222 22.222 0 0115.782 6.552z" fill="#000"/><path fill-rule="evenodd" clip-rule="evenodd" d="M24.484 21.831v-5.855l-12.19-12.22L0 3.736 18.054 21.83h6.43z" fill="#F60"/><path fill-rule="evenodd" clip-rule="evenodd" d="M46.996 22.372h-7.932c0-3.983-1.61-7.588-4.214-10.198l5.608-5.622a22.329 22.329 0 016.538 15.82z" fill="#1A1A1A"/><path fill-rule="evenodd" clip-rule="evenodd" d="M34.864 32.555a14.391 14.391 0 004.2-10.183h7.932a22.33 22.33 0 01-6.524 15.806l-5.608-5.622z" fill="#333"/><path fill-rule="evenodd" clip-rule="evenodd" d="M28.269 20.116v5.856l12.19 12.218 12.293.022-18.054-18.097h-6.43z" fill="#F60"/></g><defs><clipPath id="bdclip0_4_28"><path fill="#fff" d="M0 0h189v54H0z"/></clipPath></defs></svg><svg version="1.0" viewBox="0 0 25 25" id="magnifier" xmlns="http://www.w3.org/2000/svg"><path d="M6.1 2.4c-5.3 3-6.6 9.7-2.6 14.4 3 3.6 6.8 4.7 10.7 3.1 2.7-1.1 3.2-.9 6.2 2 4.2 4.1 5.6 2.7 1.5-1.5-2.9-3-3.1-3.5-2-6.2 1.6-3.9.5-7.7-3.1-10.7C13.5.7 9.8.4 6.1 2.4zM15.8 5c3.1 2.9 3.8 6.5 1.8 9.6-3.2 4.8-8.7 5.3-12.6 1.1C-1.3 9 9-1.3 15.8 5z" fill="currentColor"/></svg><svg fill="none" viewBox="0 0 21 21" id="magnifier-white" xmlns="http://www.w3.org/2000/svg"><path d="M21 19.709l-6.167-6.161a8.186 8.186 0 001.918-5.268C16.751 3.713 12.997 0 8.38 0 3.763 0 0 3.717 0 8.284c0 4.566 3.754 8.28 8.371 8.28a8.403 8.403 0 005.2-1.794L19.81 21 21 19.709zM1.78 8.284c0-3.587 2.959-6.503 6.591-6.503 3.633 0 6.592 2.916 6.592 6.503s-2.96 6.503-6.592 6.503c-3.632 0-6.592-2.92-6.592-6.503z" fill="currentColor"/></svg><svg fill="none" viewBox="0 0 42 46" id="map_icon" xmlns="http://www.w3.org/2000/svg"><path fill-rule="evenodd" clip-rule="evenodd" d="M1.871 19.02h6.296c0-3.386 1.278-6.451 3.344-8.67l-4.45-4.78c-3.206 3.443-5.19 8.197-5.19 13.45z" fill="#333"/><path fill-rule="evenodd" clip-rule="evenodd" d="M7.06 5.57l4.45 4.78c2.067-2.219 4.922-3.59 8.075-3.59V0c-4.892 0-9.32 2.129-12.525 5.57z" fill="#000"/><path fill-rule="evenodd" clip-rule="evenodd" d="M11.5 27.676C9.44 25.46 8.167 22.4 8.167 19.02H1.87c0 5.246 1.979 9.996 5.178 13.437l4.451-4.78z" fill="#4D4D4D"/><path fill-rule="evenodd" clip-rule="evenodd" d="M11.5 27.676l-4.45 4.78.056.06.032.035 12.44 13.355.007-.007V31.28c-3.159 0-6.018-1.377-8.085-3.603z" fill="#666"/><path fill-rule="evenodd" clip-rule="evenodd" d="M19.584 31.279V45.898l12.098-12.987.428-.445-4.451-4.779c-2.067 2.219-4.921 3.59-8.075 3.59z" fill="#666"/><path fill-rule="evenodd" clip-rule="evenodd" d="M32.11 5.57l-4.45 4.78c-2.067-2.219-4.922-3.59-8.075-3.59V0c4.891 0 9.32 2.128 12.525 5.57z" fill="#000"/><path fill-rule="evenodd" clip-rule="evenodd" d="M19.431 18.56v-4.978L9.756 3.194 0 3.175 14.328 18.56h5.104z" fill="#F60"/><path fill-rule="evenodd" clip-rule="evenodd" d="M37.298 19.02h-6.295c0-3.386-1.278-6.451-3.344-8.67l4.45-4.78c3.206 3.443 5.19 8.197 5.19 13.45z" fill="#1A1A1A"/><path fill-rule="evenodd" clip-rule="evenodd" d="M27.67 27.676c2.06-2.217 3.333-5.277 3.333-8.657H37.3c0 5.246-1.979 9.996-5.178 13.437l-4.451-4.78z" fill="#333"/><path fill-rule="evenodd" clip-rule="evenodd" d="M22.436 17.101v4.979l9.675 10.387 9.756.019L27.54 17.1h-5.104z" fill="#F60"/></svg><svg fill="none" viewBox="0 0 36 35" id="mediumIconsSort" xmlns="http://www.w3.org/2000/svg"><rect x="1" y=".5" width="34" height="34" rx="4.5" fill="transparent"/><rect x="19.5" y="7" width="9" height="9" rx="1" fill="currentColor"/><rect x="7.5" y="7" width="9" height="9" rx="1" fill="currentColor"/><rect x="7.5" y="19" width="9" height="9" rx="1" fill="currentColor"/><rect x="19.5" y="19" width="9" height="9" rx="1" fill="currentColor"/></svg><svg viewBox="10 8 45 45" fill="none" id="notification-bell" xmlns="http://www.w3.org/2000/svg"><path fill-rule="evenodd" clip-rule="evenodd" d="M15.027 40c.114-1.056.66-1.768 2.88-2.831 1.678-1.405 1.883-5.361 2.064-8.855.079-1.51.153-2.934.34-4.028C20.706 19.857 23.6 11 32 11s11.293 8.857 11.69 13.286c.186 1.094.26 2.518.339 4.028.18 3.494.386 7.45 2.064 8.855 2.22 1.063 2.766 1.775 2.88 2.831l.003.032c.035.345.025.727.013 1.17-.006.246-.013.51-.013.798H15.024c0-.287-.007-.552-.013-.798-.012-.443-.022-.825.013-1.17l.003-.032zm32.236-4.486c1.563.776 2.795 1.628 3.373 2.984.299.701.353 1.38.362 1.92.005.27-.002.549-.008.798l-.001.03c-.006.251-.013.493-.013.754v2H13.024v-2c0-.261-.006-.503-.013-.753v-.03c-.007-.25-.014-.529-.01-.799.01-.54.064-1.219.363-1.92.578-1.356 1.81-2.208 3.373-2.984.15-.19.355-.563.549-1.245.238-.838.392-1.899.5-3.114.085-.957.136-1.938.187-2.925l.042-.795c.064-1.179.143-2.388.31-3.406.232-2.455 1.133-6.07 3.159-9.147C23.574 11.708 26.96 9 32 9s8.426 2.708 10.516 5.882c2.026 3.076 2.927 6.692 3.158 9.147.168 1.018.247 2.227.31 3.406.015.266.03.53.043.795.051.987.102 1.968.187 2.924.108 1.216.262 2.277.5 3.115.194.682.4 1.056.549 1.245z" fill="currentColor"/><path fill-rule="evenodd" clip-rule="evenodd" d="M27.39 15.616c-1.56 1.347-2.515 3.182-2.91 4.525a.5.5 0 01-.96-.282c.439-1.49 1.484-3.505 3.216-5 1.75-1.51 4.195-2.483 7.362-1.85a.5.5 0 01-.196.981c-2.833-.566-4.97.295-6.513 1.626zM26.674 46.055a1 1 0 011.271.619c1.33 3.854 6.78 3.854 8.11 0a1 1 0 011.89.652c-1.949 5.652-9.942 5.652-11.89 0a1 1 0 01.619-1.271z" fill="currentColor"/></svg><svg fill="none" viewBox="0 0 46 48" id="other" xmlns="http://www.w3.org/2000/svg"><path d="M27.569 21.83c-1.349 0-2.473-1.119-2.473-2.46V3.824c0-1.342 1.124-2.46 2.473-2.46h15.959c1.348 0 2.472 1.118 2.472 2.46v15.544c0 1.342-1.124 2.46-2.472 2.46h-15.96zM34.053 25.466l-9.215 9.953c-.562.56-.562 1.454 0 2.125l9.215 9.953c.562.67 1.686.67 2.248 0l9.216-9.953c.562-.56.562-1.454 0-2.125L36.3 25.466c-.562-.67-1.573-.67-2.248 0zM10.452 46.854c5.772 0 10.452-4.657 10.452-10.4 0-5.744-4.68-10.4-10.452-10.4C4.679 26.053 0 30.71 0 36.453c0 5.743 4.68 10.4 10.452 10.4zM1.236 4.92L9.328.336c.787-.447 1.686-.447 2.36 0l7.98 4.586a2.396 2.396 0 011.236 2.124v9.17c0 .895-.45 1.678-1.236 2.125l-7.98 4.585c-.787.448-1.686.448-2.36 0L1.236 18.34A2.396 2.396 0 010 16.215v-9.17c0-.894.45-1.677 1.236-2.124z" fill="#F60"/></svg><svg fill="none" viewBox="0 0 396 229" id="promo-background-left-arrow" xmlns="http://www.w3.org/2000/svg"><path fill-rule="evenodd" clip-rule="evenodd" d="M395.753 108.267L286.87 0H0v228.191l276.509-.001 119.244-119.923z" fill="#F4F4F4"/></svg><svg fill="none" viewBox="0 0 396 229" id="promo-background-right-arrow" xmlns="http://www.w3.org/2000/svg"><path fill-rule="evenodd" clip-rule="evenodd" d="M0 119.924l108.884 108.267h286.869V.001H119.244L0 119.924z" fill="#F4F4F4"/></svg><svg fill="none" viewBox="0 0 191 190" id="reliable" xmlns="http://www.w3.org/2000/svg"><path d="M13.043 90.256H21.5v71h-8.457v-71z" fill="currentColor"/><path fill-rule="evenodd" clip-rule="evenodd" d="M.041 138.689v-.001-4.402 4.403zM10.041 73.756c-4.998 0-10 2-10 10v84c-.333 3.833 1.2 11.5 10 11.5h16c5.19 0 9.08-3.559 9.502-10.256 1.165 2.167 3.457 5 7.957 6l7.5.5c.167 3.333.865 6.831 3 9.5 2.135 2.669 5.5 4.5 9 4.5s7-1 9-5h4.5c1.5 2.5 5 5.5 9.5 5.5 5.5 0 9-2 11-5h5c1.5 2.5 5 5 9 5 5 0 7-2 9-4.5h5.5s2 4.5 7.5 4.5 7.5-2.787 8.5-4.5 1.5-3.5 2.043-6.053H163.5C174 178.5 178.043 171 178.043 166s-3.167-10.333-5.5-11c3-.5 9-5 9-13.244 0-6.5-3-8.756-6-11.256C180.5 128.744 183 125 183 120s-3-7.5-5-9.5c1.957-.756 10.5-2.944 10.5-13.744s-8.79-13.167-12.957-13v-11.5c0-2.5.5-5-1.5-7 4 1.691 7.414.691 9.457-4.309l6-15.691c1.5-4.192 0-7.809-2.457-9 0 0-86.17-35.191-89-36 0 0-6.5-1.809-9.043 4.191l-8.457 18.809c-2.308 7.691 4 10.5 4 10.5-3.6-.4-7.167 4.833-8.5 7.5l-11 26h-17.5c-7.2 0-12.49 6.333-14.236 9.5-1.863-2.059-4.844-3-8.766-3h-14.5zm18.5 94v-82.92c.007-1.137.025-4.58-4-4.58H11c-3.5 0-4.5 3.525-4.5 4.691 0 20.282.024 55.613.035 72.865l.006 9.944c0 2.8 1.959 4.191 3.5 4.191H24.5c2.755 0 4.041-2 4.041-4.191zM48.5 74.5c-6 0-11.624 10.5-12.957 15V155c0 2.5 3.457 7.744 7.457 10.5 2.834 1.952 8.5 1.5 8.5 1.5.348-1.996 1.636-6.578 4-9.244 2-2.256 5-3.256 7.5-3.256 3.5 0 7 1 9 4h4.5c1-2.5 4.5-7.5 10.5-7.5s9 3 11 7.5h4c1.5-2.5 4.998-4 8.5-4 6 0 10.5 4 11.5 9h3.5c.695-1 3.534-3 7.5-3 4.5 0 7 2.256 8.5 4.256 1.166 1.555 2.043 4.988 2.043 7.744H158.5c7 0 12-1.488 12-7.744s-7-7-16-7h-24.957V150H167.5c5.043 0 8.043-3 8.043-8.244s-5.5-7.256-10.5-7.256h-35.5v-7.244h35.5c7.5 0 11.957-2 11.957-7.256s-4.5-7.5-11.5-7.5h-35.957v-7h43c3.167 0 9-2 9-8s-6.167-7.244-9-7.244h-78.5c-4.333 10.833-14 31.5-18 37-4.162 5.723-12 6-18 4.5-5-1.25-9.786-6-10.5-11-.66-4.618.588-10 2-14 3-8.5 9.3-21.7 10.5-24.5 1.2-2.8 2.957-6.756 2.457-7.756h-14zm10.543 50.756c-4.457-2-5-7-3.5-12l27-68c1.167-3.167 7.3-9.3 14.5-6.5 7.2 2.8 46.333 18.166 65 25.5 2.167.833 6.5 3.2 6.5 6v13.5h-79l-18 37c-3 5.5-8.043 6.5-12.5 4.5zM89 20.447l4-8.5c1.5-3 3-4.5 7-3.5l79 32c3.5 1.5 3 4 2 6.5l-2.457 6.059-2 4.25c-1.543 3.191-4.043 3.191-8 1.691L93 28.447c-3.5-.954-5.5-4.5-4-8zM79.5 174.5v-7c0-4 1.5-9.744 7.5-9.744s8 4.744 8 9.744v7c-.5 5-2 9-8 9s-7.5-5-7.5-9zm-21.457 0V169c0-4 1.957-7.744 4.957-7.744S69.5 163 69 169v6c0 5-1 7.5-6 7.5-3 0-4.957-3.5-4.957-8zm46.957 1V169c0-4 2-7.5 6-7.5s6 2.553 6 7v7c0 5.5-2.5 8-6 8s-6-3.5-6-8zm22.5 3v-5c0-4 2-6 5.5-6s5 3 5 6v5c0 3.5-2 5.5-5 5.5s-5.5-2.447-5.5-5.5z" fill="currentColor"/><path fill-rule="evenodd" clip-rule="evenodd" d="M13.043 90.256H21.5v71h-8.457v-71z" fill="currentColor"/></svg><svg fill="none" viewBox="0 0 284 180" id="reward" xmlns="http://www.w3.org/2000/svg"><path fill-rule="evenodd" clip-rule="evenodd" d="M142.686.087L123.42.176l-.808.374c-.999.462-2.28 1.624-2.817 2.555-.33.574-4.563 13.218-6.855 20.48-.304.962-.597 1.749-.651 1.749-.055 0-6.669-4.783-14.7-10.629C89.56 8.86 82.403 3.768 81.684 3.39c-3.723-1.963-8.167-1.98-11.822-.042-1.077.57-11.443 8.067-54.07 39.105C3.054 51.725 2.838 51.907 1.467 54.518c-1.2 2.287-1.727 5.335-1.345 7.786.108.695 1.68 5.83 3.49 11.412L9.24 91.038a81457.9 81457.9 0 019.98 30.734l3.13 9.64c2.639 8.132 2.88 8.77 3.846 10.201l.817 1.211-1.52 4.668a9470.5 9470.5 0 01-4.84 14.784l-3.32 10.115.01 1.556c.007 1.215.092 1.738.385 2.385.557 1.224 1.926 2.583 3.195 3.17l1.076.497h124.921c120.608 0 124.968-.011 126.274-.318 1.723-.404 4.405-1.755 5.694-2.869a14.988 14.988 0 004.662-7.36l.386-1.384.052-76.77c.037-54.063-.003-77.32-.134-78.623-.179-1.776-.734-3.877-1.328-5.036-1.759-3.424-4.725-5.914-8.612-7.228l-1.209-.409L217.327 0c-30.457-.002-64.046.037-74.641.087zm129.772 4.24c1.675.433 3.048 1.238 4.412 2.587 1.297 1.283 2.043 2.527 2.601 4.337.305.991.317 3.84.317 78.75 0 74.813-.012 77.761-.316 78.76-1.071 3.513-3.944 6.177-7.459 6.916-1.058.222-16.78.254-125.068.257-114.283.003-123.904-.019-124.454-.28-.68-.323-1.098-1.009-1.098-1.8 0-.481 1.782-6.056 7.356-23.014.896-2.723 1.629-4.996 1.629-5.05 0-.054.51.131 1.132.411 2.64 1.185.939 1.102 23.705 1.161l20.604.054V143.257H55.813c-21.989 0-20.957.047-23.024-1.055l-.986-.526.743-2.279c.409-1.253 2.232-6.869 4.051-12.48 5.08-15.661 5.463-16.84 6.826-21.008.7-2.14 3.148-9.687 5.44-16.772 5.38-16.627 5.396-16.674 5.46-16.75.03-.034 1.535 1.036 3.345 2.378 1.81 1.343 3.361 2.441 3.45 2.441.122 0 19.338-14.294 23.151-17.222.469-.36.834-.528.95-.437 1.303 1.017 16.191 11.78 16.295 11.78.118 0 5.854-17.341 11.596-35.057.717-2.21 1.365-4.02 1.44-4.02.287 0 28.972 20.946 30.076 21.962 1.949 1.794 2.84 4.054 2.688 6.82-.06 1.084-.29 2.04-1.042 4.33-.53 1.617-1.948 5.974-3.15 9.683a9610.557 9610.557 0 01-2.693 8.3c-.28.856-.508 1.615-.508 1.686 0 .071.93.13 2.067.13 1.793 0 2.089-.041 2.228-.303.307-.583 6.796-20.717 7.034-21.83.502-2.34.178-5.463-.8-7.694-.57-1.302-1.756-3.006-2.785-4.001-.506-.49-7.8-5.886-16.21-11.993-8.41-6.108-15.364-11.173-15.453-11.256-.149-.14 6.975-22.314 7.389-22.998.258-.428.826-.73 1.584-.845.381-.058 33.47-.126 73.533-.152 67.323-.044 72.925-.026 73.95.239zm-62.684 13.736c-2.389.874-3.845 2.665-4.128 5.08l-.115.98h4.194v-.527c0-.839.466-1.54 1.264-1.903 1.333-.606 2.779-.278 3.421.774.478.784.435 2.236-.094 3.16-.228.4-2.287 2.903-4.576 5.562l-4.162 4.834v3.662h13.304V36.06l-4.127-.046-4.127-.046 3.286-3.804c3.502-4.054 4.51-5.426 4.816-6.556.274-1.007.091-3.297-.343-4.296-.525-1.207-1.739-2.417-3.006-2.994-.93-.424-1.327-.498-2.892-.538-1.44-.038-1.999.02-2.715.282zm16.797-.095c-2.29.727-3.774 2.232-4.323 4.385-.232.91-.268 2.01-.223 6.916l.054 5.834.502 1.088c.625 1.356 1.958 2.621 3.343 3.175.811.325 1.325.398 2.807.402 1.675.003 1.9-.037 2.937-.531 1.369-.652 2.422-1.678 3.062-2.982l.48-.979.054-6.102c.044-5.064.008-6.256-.21-7.006-.554-1.908-2.032-3.422-4.004-4.1-1.153-.398-3.384-.447-4.479-.1zm16.587-.01c-1.743.58-3.147 1.73-3.864 3.166-.354.708-.753 2.617-.6 2.87.043.071.958.13 2.033.13h1.955l.114-.715c.298-1.865 2.743-2.689 4.24-1.429.515.434.873 1.316.871 2.144-.003.808-.772 2.055-2.529 4.098l-4.281 4.98-2.527 2.939.048 1.729.048 1.729h13.304l.049-1.772.049-1.773h-4.152c-2.284 0-4.153-.04-4.153-.09 0-.05 1.23-1.51 2.733-3.243 4.788-5.52 5.119-5.992 5.396-7.7.461-2.832-.89-5.5-3.388-6.691-.886-.422-1.275-.497-2.841-.546-1.19-.037-2.051.023-2.505.174zm15.593 1.853l-2.202 1.912v2.151c0 1.184.042 2.152.093 2.152.052 0 1.043-.834 2.203-1.853l2.11-1.853.044 8.683.045 8.682h3.971V17.9h-4.061l-2.203 1.912zm-28.661 2.02c.25.188.611.605.801.928.325.553.345.897.345 6.033s-.02 5.48-.345 6.034c-.558.948-1.169 1.302-2.247 1.302-1.095 0-1.73-.373-2.206-1.296-.277-.538-.301-1.121-.259-6.244.044-5.403.062-5.671.404-6.138.802-1.093 2.475-1.388 3.507-.618zM155.032 91.8c-2.043.497-3.503 1.571-4.411 3.247-.581 1.073-.592 1.133-.592 3.169 0 1.917.035 2.141.464 2.955 1.004 1.904 2.419 2.653 6.2 3.283 1.458.242 2.866.568 3.13.725.991.585 1.295 2.332.593 3.405-.634.968-2.484 1.414-4.649 1.121-1.539-.208-2.552-.596-3.378-1.291l-.575-.484-1.411 1.422-1.411 1.422.757.68c1.802 1.621 4.221 2.316 7.623 2.189 2.763-.103 4.427-.685 5.897-2.065 2.246-2.106 2.482-6.395.478-8.673-1.233-1.402-2.245-1.82-5.703-2.358-3.248-.505-3.868-.908-3.868-2.51 0-.994.309-1.574 1.189-2.231.41-.306.728-.357 2.236-.355 1.56.002 1.865.055 2.708.471.523.258 1.087.568 1.253.689.265.192.465.056 1.634-1.114l1.332-1.333-.401-.427c-.619-.659-2.651-1.65-3.946-1.925-1.405-.298-3.949-.304-5.149-.012zM83.94 102.624v10.893h4.32V91.731h-4.32v10.893zm9.157-.006v10.899h4.488l.046-6.466.045-6.465 4.147 6.46 4.146 6.46 1.944.005 1.944.006V91.731H105.542l-.046 6.477-.045 6.478-4.165-6.434-4.166-6.435-2.011-.049-2.012-.048v10.898zm19.352-10.78c0 .06 1.598 4.964 3.551 10.9l3.552 10.791 1.664-.049 1.663-.049 2.467-7.433c1.356-4.088 2.965-8.97 3.574-10.85l1.108-3.417h-4.534l-2.054 6.7c-1.13 3.685-2.105 6.797-2.167 6.916-.095.183-.821-2.073-4.035-12.536l-.332-1.08h-2.229c-1.225 0-2.228.048-2.228.107zm20.042 10.786v10.893h14.514v-3.799l-5.054-.046-5.054-.045-.047-2.551-.048-2.55h8.648V100.549h-8.606l-.023-2.418-.023-2.418 5.06-.046 5.061-.046.049-1.945.049-1.945h-14.526v10.893zm34.902-8.905v1.989h5.529V113.516h4.493v-17.8l2.807-.048 2.808-.048.049-1.945.049-1.945h-15.735v1.988zm19.006 8.905v10.893h4.32l.008-6.181.008-6.182 2.022 3.977 2.022 3.977h2.938l2.021-3.977 2.022-3.977.009 6.182.008 6.181h4.319V91.731h-4.264l-2.736 5.706c-1.505 3.138-2.786 5.705-2.848 5.705-.062 0-1.344-2.567-2.848-5.706l-2.736-5.705H186.399v10.893zm24.708 0v10.893H225.448v-3.804h-10.021V104.526h8.444l.054-1.819c.03-1.001.028-1.896-.003-1.989-.036-.104-1.679-.169-4.277-.169h-4.218v-4.836l4.967-.046 4.968-.046.048-1.945.049-1.945h-14.352v10.893zm18.315-.006v10.899h4.488l.045-6.456.046-6.456 4.146 6.452 4.147 6.453 1.944.003 1.944.004V91.731h-4.316l-.045 6.497-.045 6.497-4.169-6.454-4.169-6.454-2.008-.049-2.008-.048v10.898zm20.08-8.942l.049 1.945 2.808.048 2.807.047V113.517h4.32V95.708h5.702V91.73h-15.735l.049 1.945zm-47.296 31.841c-2.332.442-4.167 1.783-5.065 3.701-.409.874-.46 1.189-.457 2.8.006 2.249.385 3.249 1.669 4.405 1.081.973 2.218 1.393 4.95 1.83 2.766.442 3.199.584 3.738 1.225.554.659.608 2.028.112 2.842-.566.929-1.385 1.197-3.648 1.194-2.139-.003-2.878-.214-4.374-1.247l-.659-.455-1.398 1.399-1.398 1.399.502.446c1.514 1.345 3.168 2.048 5.566 2.368 2.42.322 4.909-.021 6.672-.92 1.054-.537 2.436-1.95 2.889-2.953.349-.772.406-1.168.402-2.801-.006-2.345-.37-3.323-1.668-4.492-1.026-.923-2.229-1.397-4.439-1.75-3.286-.526-3.517-.593-4.12-1.196-.509-.509-.567-.669-.567-1.556 0-.912.05-1.039.648-1.637.839-.839 1.968-1.109 3.641-.872 1.324.188 2.139.488 2.853 1.051l.49.385 1.363-1.355c1.55-1.543 1.551-1.494-.036-2.514-1.874-1.203-5.197-1.765-7.666-1.297zM83.94 136.424v10.987l7.04-.045 7.041-.046.05-1.945.048-1.945h-9.857l-.044-8.948-.045-8.948-2.117-.049-2.116-.048v10.987zm17.566-10.861c-.063.063-.115 5.004-.115 10.98v10.864H115.732V143.43H105.701l.048-2.55.048-2.551 4.276-.046 4.276-.046v-3.798h-8.639V129.424h10.022v-3.976h-7.056c-3.88 0-7.107.051-7.17.115zm23.745.274c-.569 1.498-7.792 21.419-7.792 21.49 0 .049 1.024.068 2.276.042l2.275-.049.601-1.815c.331-.999.688-1.875.792-1.947.105-.072 1.823-.111 3.819-.086l3.628.044.666 1.946.667 1.945h2.228c1.251 0 2.227-.07 2.227-.16 0-.178-7.713-21.386-7.87-21.64-.054-.088-.834-.159-1.734-.159-1.537 0-1.644.023-1.783.389zm14.065-.191c-.049.128-.069 5.058-.044 10.954l.044 10.72 4.061.049c2.233.026 4.604-.034 5.27-.133 3.339-.501 5.82-2.987 6.298-6.313.225-1.564.225-7.428 0-8.986-.416-2.884-2.265-5.112-4.973-5.995-1.038-.339-1.622-.384-5.859-.453-3.854-.064-4.723-.035-4.797.157zm20.037.016c-.046.12-.063 5.042-.039 10.938l.045 10.72H173.7l.049-1.945.049-1.945H163.765V138.243h8.466v-3.804h-8.466V129.424H173.798l-.049-1.945-.049-1.945-7.132-.045c-5.613-.036-7.15.001-7.215.173zm18.407 10.748v10.997h4.32v-8.646h3.035l2.097 4.323 2.097 4.323h2.433c1.667 0 2.433-.06 2.433-.192 0-.202-4.247-8.554-4.543-8.933-.206-.264-.218-.251.672-.7 1.026-.517 2.398-2.094 2.77-3.184.448-1.316.399-3.378-.112-4.714-.58-1.515-2.273-3.171-3.798-3.716-1.056-.377-1.43-.406-6.264-.478l-5.14-.077v10.997zm-28.898-6.501c1.161.612 1.585 1.419 1.798 3.428.209 1.971.079 6.743-.212 7.759-.248.866-1.254 1.847-2.179 2.124-.385.116-1.565.21-2.623.21h-1.924v-14.04l2.203.066c1.866.056 2.315.125 2.937.453zm38.944-.006c1.692 1.052 1.573 3.86-.201 4.752-.488.245-1.064.302-3.063.302l-2.462.001V129.393l2.548.059c2.289.053 2.613.099 3.178.451zm-60.637 9.858c-1.375.026-2.524.025-2.551-.003-.043-.043 2.121-6.416 2.451-7.221.06-.146.653 1.368 1.354 3.458l1.247 3.717-2.501.049zm-41.185 20.484c-.05 3.099-.107 3.762-.363 4.231-.33.609-.772.913-1.324.913-.322 0-.357.104-.357 1.062v1.061l1.063-.096c1.163-.106 1.732-.426 2.336-1.314.566-.831.748-2.017.748-4.871v-2.585H90.5l.046 4.366.046 4.366 1.08.051 1.08.052v-10.91h-6.709l-.06 3.674zm14.061 1.643c-1.067 2.924-1.94 5.375-1.939 5.447.001.071.497.129 1.102.129h1.1l.344-.908.345-.907h3.733l.288.864.289.865 1.152.051c.634.028 1.152.008 1.152-.045 0-.114-3.387-9.439-3.724-10.251-.217-.524-.288-.562-1.067-.562h-.835l-1.94 5.317zm11.54-5.225c0 .059.739 1.708 1.641 3.666.903 1.957 1.642 3.692 1.642 3.854 0 .61-.663 1.184-1.431 1.24l-.729.053v1.902l.691.057c.945.077 1.825-.215 2.376-.791.383-.4 4.449-9.486 4.449-9.943 0-.072-.5-.13-1.11-.13h-1.11l-.993 2.542c-.776 1.985-1.024 2.467-1.136 2.204a622.86 622.86 0 00-1.08-2.498l-.938-2.162-1.136-.051c-.625-.028-1.136-.002-1.136.057zm13.995 5.339v5.462h2.074v-3.926l1.529-.099c1.824-.118 2.523-.38 3.261-1.22 1.392-1.587 1.073-3.926-.695-5.098-.673-.446-.804-.466-3.434-.522l-2.735-.058v5.461zm13.345-.028l.046 5.404h7.084l.052-.994.051-.995H141.131v-2.41l2.116-.048 2.117-.049v-1.902l-2.117-.048-2.116-.049v-2.228l2.462-.048 2.462-.048.052-.994.051-.994h-7.278l.045 5.403zm15.723-4.936c-.095.266-.959 2.634-1.92 5.261-.962 2.628-1.749 4.865-1.749 4.971 0 .123.406.194 1.114.194h1.115l.301-.956.301-.957 1.897.049 1.897.049.273.864.273.865 1.018.052c.56.029 1.074-.01 1.142-.086.067-.077-.747-2.512-1.811-5.413l-1.933-5.274-.873-.051c-.819-.048-.884-.022-1.045.432zm9.187-.227c-.051.131-.067.579-.038.994l.054.754 1.426.051 1.425.05v8.821l1.08-.052 1.08-.051.046-4.359.046-4.359 1.336-.05 1.336-.051.052-.994.052-.994h-3.901c-3.166 0-3.919.045-3.994.24zm21.009 5.207v5.446h2.246v-8.818h3.456v8.818h2.246v-10.893h-7.948v5.447zm14.341.008v5.455l1.08-.052 1.08-.051.048-1.92.049-1.92 1.48-.105c.989-.069 1.737-.228 2.252-.478 2.093-1.014 2.407-4.038.579-5.578-.78-.656-1.548-.804-4.192-.805l-2.376-.001v5.455zm13.477-.008v5.446h7.084v-2.075h-5.01v-2.42h4.336l-.051-.995-.052-.994-2.117-.048-2.116-.049v-2.237h5.01v-2.075h-7.084v5.447zm13.132.008v5.455l1.079-.052 1.08-.051v-2.88c0-1.584.039-2.856.087-2.826.047.03.472.84.943 1.799l.857 1.745h1.577l.946-1.858.947-1.859.047 2.991.047 2.99 1.076-.051 1.076-.051v-10.721l-1.09-.051-1.089-.052-1.321 2.775c-.726 1.526-1.365 2.775-1.42 2.775-.055 0-.694-1.245-1.42-2.766l-1.32-2.767h-2.102v5.455zm16.241-.008v5.446h1.875l1.931-3.2c1.063-1.76 1.982-3.231 2.044-3.269.061-.038.111 1.383.111 3.157v3.226l1.08.051 1.08.052v-10.927l-.979.052-.979.051-2.002 3.286-2.001 3.285-.047-3.329-.047-3.328h-2.066v5.447zm14.592-5.229c-.046.12-.063 2.551-.038 5.403l.046 5.186.962.051.961.051 1.976-3.275 1.976-3.276.086 3.225.086 3.224 1.08.051 1.08.052v-10.927l-.993.052-.992.051-1.988 3.272-1.988 3.272-.047-3.315-.047-3.315h-1.038c-.676 0-1.068.076-1.122.218zm-125.876 2.313c.36.457.45 1.005.251 1.525-.187.486-1.031.785-2.217.785h-1.131v-2.766h1.369c1.274 0 1.395.032 1.728.456zm73.563-.08c.495.465.529 1.329.073 1.891-.279.346-.517.414-1.641.471l-1.315.066v-2.804h1.242c1.037 0 1.307.062 1.641.376zm-100.712 3.039l.529 1.599h-1.197c-.659 0-1.198-.058-1.198-.129 0-.41 1.098-3.335 1.207-3.214.072.079.369.864.659 1.744zm52.737-.205c.303.909.513 1.691.467 1.737-.046.046-.59.061-1.208.032l-1.123-.051.605-1.686c.332-.927.628-1.686.656-1.686.029 0 .3.744.603 1.654z" fill="#2C353D"/><path d="M52.18 65.445l-23.585 72.102L4.363 63.035a8.649 8.649 0 013.137-9.67L70.598 7.496a8.634 8.634 0 0110.159.003l30.082 21.895-11.662 35.273-14.169-10.548-24.016 17.896-8.812-6.57z" fill="url(#bnpaint0_linear_108_204)"/><defs><linearGradient id="bnpaint0_linear_108_204" x1="29.027" y1="137.634" x2="124.836" y2="13.986" gradientUnits="userSpaceOnUse"><stop stop-color="#139C91"/><stop offset="1" stop-color="#36E97C"/></linearGradient></defs></svg><svg fill="none" viewBox="0 0 155 214" id="safely" xmlns="http://www.w3.org/2000/svg"><path fill-rule="evenodd" clip-rule="evenodd" d="M0 136.999C0 181 32 214 78 214s76.5-35.5 76.5-77.001c0-27.531-14.523-53.08-37-67.162V52c0-2.4-2-3-3-3H107V22.5C107.333 15.333 99.5 0 78 0 56 0 48.333 14.667 48.5 22.5V49H42c-2.8 0-3.167 2-3 3v16.753c-23.42 13.4-39 38.678-39 68.246zm7 0C7 98.999 40.499 66 77.999 66 115.499 66 147 95.499 147 136.999c0 41.501-35 69.501-69.001 69.501C43.997 206.5 7 181 7 136.999zM59.5 55v5.653a77.464 77.464 0 00-14 4.78V55h14zM95 55v5.5c4.89 1.288 11.571 3.503 16 5.7V55H95zm-29 4.393a80.573 80.573 0 0112-.893c3.228 0 6.397.204 9.5.598V52c0-2.4 2.333-3 3.5-3h8.5V22.5c-.333-4.5-5.101-15-21.501-15C61.599 7.5 56.5 18 56 22.5V49h7c2 0 2.833 2 3 3v7.393z" fill="currentColor"/><path fill-rule="evenodd" clip-rule="evenodd" d="M78 74c-31 0-63 25-63 62.999C15 180.499 51 198 78 198c34 0 61.5-24.501 61.5-61.001 0-39-32-62.999-61.5-62.999zm-56 62.999c0-38 32.504-55.5 56-55.5 23.496 0 55 20.5 55 55.5 0 30.5-25.504 54.001-55 54.001-17.504 0-56-12.501-56-54.001z" fill="currentColor"/><path fill-rule="evenodd" clip-rule="evenodd" d="M77.999 107.999c-13.499 0-21.999 9-21.999 20.5 0 8.15 4.771 15.296 12 18.767v14.733c0 6.5 5 9.5 9.999 9.5 5.501 0 9.501-3.5 9.501-9.5v-14.733C94 143.5 99 136.462 99 128.499c0-13.5-11-20.5-21.001-20.5zm-15.5 20.5c0-9 7.343-14.5 15.5-14.5 8.156 0 14.5 7 14.5 14.5s-5.344 15-14.5 15c-9.157 0-15.5-6-15.5-15zM73.5 149.076c1.445.277 2.949.423 4.499.423 1.307 0 3.153-.189 4.501-.5v10.5c0 3-1.5 5-4.501 5-3.499 0-4.499-2.5-4.499-5v-10.423z" fill="currentColor"/></svg><svg fill="none" viewBox="0 0 37 34" id="search" xmlns="http://www.w3.org/2000/svg"><circle cx="14.17" cy="14.5" r="9.5" transform="rotate(30 14.17 14.5)" stroke="#fff"/><path stroke="#fff" stroke-linecap="round" d="M22.513 19.317l12.124 7"/></svg><svg fill="none" stroke="currentColor" stroke-linecap="round" stroke-linejoin="round" viewBox="0 0 24 24" id="settings" xmlns="http://www.w3.org/2000/svg"><path d="M12 9a3 3 0 100 6 3 3 0 100-6z"/><path d="M19.4 15a1.65 1.65 0 00.33 1.82l.06.06a2 2 0 010 2.83 2 2 0 01-2.83 0l-.06-.06a1.65 1.65 0 00-1.82-.33 1.65 1.65 0 00-1 1.51V21a2 2 0 01-2 2 2 2 0 01-2-2v-.09A1.65 1.65 0 009 19.4a1.65 1.65 0 00-1.82.33l-.06.06a2 2 0 01-2.83 0 2 2 0 010-2.83l.06-.06a1.65 1.65 0 00.33-1.82 1.65 1.65 0 00-1.51-1H3a2 2 0 01-2-2 2 2 0 012-2h.09A1.65 1.65 0 004.6 9a1.65 1.65 0 00-.33-1.82l-.06-.06a2 2 0 010-2.83 2 2 0 012.83 0l.06.06a1.65 1.65 0 001.82.33H9a1.65 1.65 0 001-1.51V3a2 2 0 012-2 2 2 0 012 2v.09a1.65 1.65 0 001 1.51 1.65 1.65 0 001.82-.33l.06-.06a2 2 0 012.83 0 2 2 0 010 2.83l-.06.06a1.65 1.65 0 00-.33 1.82V9a1.65 1.65 0 001.51 1H21a2 2 0 012 2 2 2 0 01-2 2h-.09a1.65 1.65 0 00-1.51 1z"/></svg><svg fill="none" viewBox="0 0 175 176" id="simply" xmlns="http://www.w3.org/2000/svg"><path d="M58.516 104.026v-7h28.5v7h-28.5zM58.516 120.026v-7h28.5v7h-28.5zM22.516 133.526v-7h64.5v7h-64.5zM22.516 148.526v-7h64.5v7h-64.5zM22.516 97.026v23h28.5v-23h-28.5zM58.516 82.526v7h28.5v-7h-28.5zM22.516 82.526v7h28.5v-7h-28.5z" fill="currentColor"/><path fill-rule="evenodd" clip-rule="evenodd" d="M103.516 32.526h-97c-2.167 0-6.5 1.9-6.5 9.5v126.5c-.167 1.833.9 5.5 6.5 5.5s110.333.666 162 1c2-.167 6-1.8 6-7v-129c0-2.167-1.5-6.5-7.5-6.5h-15v-28.5c-.334-1.334-2.1-4-6.5-4h-35.5c-2.167-.167-6.5.4-6.5 4v28.5zm-97 8.5v12.5c0 1.5 1.5 1.5 2 1.5h95v-16h-95c-1 0-2 .5-2 2zm139-34.5h-35.5v107c2-1.334 8.3-4 17.5-4s15.833 2.666 18 4v-107zm-18 109.5c-7.5 0-14.334 2.5-17.5 4l10 12.5h16l9.5-12.5c-3.334-1.167-9.5-4-18-4zm5 29.5l19.5-22.5v-61.5h15c1.2 0 1.5 1.333 1.5 2v101.5c0 2.4-2 3-3 3-51.334.166-154.5.5-156.5.5s-2.5-1.667-2.5-2.5v-102.5c0-1.6 1.333-2 2-2l95 .5v61l19.5 22.5c.5 1.166 2.1 3.5 4.5 3.5s4.333-2.334 5-3.5zm19.5-90.5v-16h15c1.2 0 1.5 1 1.5 1.5v12.5c0 1.2-1 1.833-1.5 2h-15z" fill="currentColor"/></svg><svg fill="none" viewBox="0 0 13 24" id="social-link-fb" xmlns="http://www.w3.org/2000/svg"><path d="M10.807 3.985h2.191V.169C12.621.117 11.32 0 9.808 0c-3.16 0-5.323 1.987-5.323 5.639v3.36H.998v4.267h3.486V24h4.274V13.267h3.345L12.632 9H8.758V6.062c0-1.233.333-2.077 2.05-2.077z" fill="currentColor"/></svg><svg fill="none" viewBox="0 0 25 25" id="social-link-instagram" xmlns="http://www.w3.org/2000/svg"><path d="M23.815 7.816c-.055-1.234-.254-2.083-.54-2.818a5.667 5.667 0 00-1.343-2.06A5.715 5.715 0 0019.876 1.6c-.74-.286-1.583-.486-2.817-.54C15.816 1 15.42.987 12.267.987c-3.153 0-3.548.014-4.786.068-1.234.055-2.083.255-2.818.54-.78.295-1.479.749-2.06 1.343a5.718 5.718 0 00-1.338 2.056c-.286.74-.486 1.583-.54 2.817C.666 9.054.652 9.45.652 12.602c0 3.154.014 3.549.068 4.787.055 1.234.255 2.083.54 2.818.295.78.754 1.479 1.343 2.06a5.715 5.715 0 002.056 1.338c.74.286 1.583.486 2.817.54 1.239.055 1.634.068 4.787.068s3.548-.013 4.787-.068c1.234-.054 2.082-.254 2.817-.54a5.941 5.941 0 003.399-3.398c.286-.74.485-1.584.54-2.818.054-1.238.068-1.633.068-4.787 0-3.153-.005-3.548-.06-4.786zm-2.092 9.482c-.05 1.135-.24 1.747-.4 2.156a3.853 3.853 0 01-2.204 2.205c-.409.159-1.026.35-2.155.399-1.225.055-1.593.068-4.692.068s-3.47-.014-4.691-.068c-1.135-.05-1.747-.24-2.156-.4a3.574 3.574 0 01-1.333-.866 3.61 3.61 0 01-.867-1.334c-.159-.408-.35-1.025-.4-2.155-.054-1.225-.067-1.593-.067-4.692 0-3.098.013-3.47.068-4.69.05-1.135.24-1.748.399-2.156a3.53 3.53 0 01.871-1.334c.377-.386.83-.68 1.334-.867.408-.158 1.026-.349 2.155-.399 1.225-.054 1.593-.068 4.692-.068 3.103 0 3.47.014 4.691.068 1.134.05 1.747.24 2.155.4.504.185.962.48 1.334.866.386.377.68.83.867 1.334.159.408.35 1.025.4 2.155.053 1.225.067 1.593.067 4.691 0 3.1-.014 3.462-.068 4.688z" fill="currentColor"/><path fill-rule="evenodd" clip-rule="evenodd" d="M24.201 7.799c.055 1.248.06 1.65.06 4.803 0 3.156-.014 3.557-.069 4.804-.056 1.272-.263 2.158-.565 2.94a6.328 6.328 0 01-3.62 3.62c-.778.303-1.669.51-2.94.566-1.247.055-1.649.068-4.804.068-3.155 0-3.557-.013-4.804-.068-1.271-.056-2.156-.263-2.938-.565a6.102 6.102 0 01-2.192-1.427A6.114 6.114 0 01.9 20.345c-.303-.778-.51-1.668-.565-2.939-.055-1.247-.069-1.648-.069-4.804 0-3.154.014-3.557.073-4.809.056-1.27.263-2.156.565-2.937A6.105 6.105 0 012.33 2.665a6.054 6.054 0 012.196-1.431C5.303.93 6.193.724 7.464.669 8.71.614 9.112.6 12.267.6c3.155 0 3.558.014 4.81.073 1.27.056 2.156.263 2.937.565.823.31 1.572.798 2.19 1.426a6.054 6.054 0 011.432 2.195c.303.779.51 1.669.565 2.94zm-2.865 9.482c.054-1.216.068-1.573.068-4.67 0-3.096-.014-3.457-.068-4.674-.048-1.086-.23-1.662-.373-2.032L20.96 5.9a3.222 3.222 0 00-.773-1.191l-.009-.008a3.185 3.185 0 00-1.189-.773l-.006-.002c-.37-.144-.941-.325-2.032-.373-1.212-.054-1.573-.068-4.675-.068-3.096 0-3.457.014-4.674.068-1.086.048-1.662.23-2.032.373l-.006.003c-.45.165-.854.428-1.19.773l-.006.005-.005.005c-.346.33-.609.737-.775 1.188l-.002.006c-.144.37-.326.941-.374 2.032-.054 1.212-.067 1.578-.067 4.674 0 3.097.013 3.458.067 4.675.048 1.086.23 1.662.374 2.032l.002.006c.166.45.43.854.774 1.191l.008.008c.33.343.739.606 1.19.773l.006.002c.37.144.94.325 2.031.373 1.213.054 1.578.068 4.675.068 3.097 0 3.458-.014 4.674-.068 1.087-.048 1.662-.23 2.032-.373h.001a3.466 3.466 0 001.983-1.984c.145-.37.326-.942.374-2.033z" fill="currentColor"/><path d="M12.266 6.636A5.968 5.968 0 006.3 12.603a5.968 5.968 0 005.966 5.966 5.968 5.968 0 005.967-5.966 5.968 5.968 0 00-5.967-5.967zm0 9.837a3.87 3.87 0 11.002-7.742 3.87 3.87 0 01-.002 7.742z" fill="currentColor"/><path fill-rule="evenodd" clip-rule="evenodd" d="M5.913 12.602a6.355 6.355 0 016.354-6.353 6.355 6.355 0 016.353 6.353 6.355 6.355 0 01-6.353 6.354 6.355 6.355 0 01-6.354-6.354zm2.87 0a3.484 3.484 0 106.968 0 3.484 3.484 0 00-6.968 0z" fill="currentColor"/><path d="M19.862 6.4a1.393 1.393 0 11-2.786 0 1.393 1.393 0 012.786 0z" fill="currentColor"/></svg><svg fill="none" viewBox="0 0 15 24" id="social-link-ok" xmlns="http://www.w3.org/2000/svg"><path d="M.221 12.881c-.613 1.205.083 1.781 1.671 2.765 1.35.834 3.215 1.139 4.413 1.261l-4.721 4.541c-1.374 1.317.838 3.43 2.211 2.141l3.717-3.585c1.423 1.369 2.787 2.681 3.717 3.59 1.374 1.294 3.585-.801 2.226-2.141l-4.736-4.541c1.213-.122 3.05-.445 4.384-1.26l-.001-.002c1.588-.989 2.284-1.564 1.68-2.769-.365-.684-1.35-1.256-2.66-.267 0 0-1.768 1.355-4.621 1.355-2.854 0-4.622-1.355-4.622-1.355-1.309-.994-2.297-.417-2.658.267z" fill="currentColor"/><path d="M7.499 12.142c3.478 0 6.318-2.718 6.318-6.064 0-3.36-2.84-6.078-6.318-6.078-3.48 0-6.32 2.718-6.32 6.078 0 3.346 2.84 6.064 6.32 6.064zm0-9.063c1.709 0 3.103 1.341 3.103 2.999 0 1.644-1.394 2.985-3.103 2.985-1.71 0-3.103-1.341-3.103-2.985-.001-1.659 1.393-2.999 3.103-2.999z" fill="currentColor"/></svg><svg fill="none" viewBox="0 0 27 16" id="social-link-vk" xmlns="http://www.w3.org/2000/svg"><path d="M22.127 8.92c-.43-.544-.307-.786 0-1.273.006-.006 3.565-4.924 3.932-6.591l.002-.002C26.243.447 26.06 0 25.18 0h-2.916c-.742 0-1.084.383-1.268.812 0 0-1.484 3.554-3.584 5.857-.678.666-.991.879-1.361.879-.183 0-.466-.213-.466-.821V1.054c0-.728-.208-1.054-.822-1.054h-4.585c-.465 0-.742.34-.742.657 0 .69 1.05.85 1.159 2.794v4.22c0 .924-.168 1.094-.54 1.094-.991 0-3.397-3.568-4.822-7.652C4.944.321 4.662.001 3.915.001H.999c-.832 0-1 .383-1 .812 0 .758.991 4.526 4.609 9.504 2.411 3.398 5.807 5.239 8.896 5.239 1.857 0 2.083-.409 2.083-1.112 0-3.247-.168-3.554.762-3.554.432 0 1.174.214 2.907 1.853 1.981 1.943 2.307 2.813 3.416 2.813h2.915c.832 0 1.253-.409 1.01-1.216-.554-1.696-4.3-5.186-4.47-5.42z" fill="currentColor"/></svg><svg fill="none" viewBox="0 0 195 180" id="vc.ru" xmlns="http://www.w3.org/2000/svg"><path fill-rule="evenodd" clip-rule="evenodd" d="M145.056.985c-16.701 4.526-28.905 18.667-30.816 35.708-2.298 20.49 10.542 39.248 30.687 44.83 8.707 2.413 21.519 1.276 29.143-2.588 4.179-2.118 9.896-6.556 12.435-9.654l2.182-2.663-5.065-3.955c-2.785-2.175-5.161-3.954-5.279-3.954-.118 0-1.588 1.289-3.267 2.865-13.869 13.022-35.302 9.457-43.152-7.178-5.755-12.194-3.286-26.013 6.239-34.922 3.408-3.189 6.546-4.892 11.283-6.126 6.302-1.641 15.025-.747 20.636 2.115l2.385 1.217v13.793h13.817V10.735l-2.253-1.882c-2.849-2.382-10.769-6.233-15.469-7.524-2.118-.581-6.825-1.095-11.415-1.247-6.414-.211-8.574-.05-12.091.903zM22.276 8.233v6.62l1.652.043c.909.022 3.68.018 6.158-.011 2.478-.03 4.896.202 5.372.515.477.312 6.18 15.389 12.673 33.503l11.806 32.935h13.015l12.452-33.342 12.451-33.343 6.667-.17 6.667-.17V1.636l-11.865.01-11.865.01-9.896 28.874c-5.442 15.88-10.062 28.976-10.265 29.102-.204.126-4.84-12.805-10.302-28.733L47.065 1.937 34.67 1.774l-12.395-.162v6.62zm5.536 96.873l.171 6.169 6.459.171 6.458.171v53.427H27.642l.17 6.458.171 6.458 30.49.156 30.488.155v-13.227H54.717V149.25c0-17.486.37-20.098 3.73-26.403 1.981-3.718 5.93-7.653 9.487-9.456 1.876-.952 7.406-2.416 9.122-2.416.444 0 .559 1.913.362 6.008l-.29 6.007h13.635V98.96l-7.66.007c-8.644.008-12.068.713-17.477 3.596-3.423 1.823-8.793 6.812-10.997 10.214-.954 1.474-.98 1.417-1.352-3.004-.209-2.478-.443-5.857-.52-7.509l-.142-3.004-12.487-.162-12.487-.163.171 6.171zm77.97.763v6.908h12.015v21.201c0 22.77.207 24.744 3.3 31.518 1.794 3.928 6.588 9.068 10.361 11.11 5.044 2.73 9.263 3.613 16.005 3.35 5.043-.197 6.687-.519 9.642-1.884 4.691-2.168 8.017-4.961 10.902-9.156l2.357-3.427 1.019 6.235c.561 3.43 1.033 6.31 1.051 6.4.018.09 4.832.09 10.696 0l10.664-.164.17-6.458.171-6.458h-10.664l-.394-12.166c-.217-6.691-.395-21.559-.395-33.042l-.002-20.876H155.045v13.817h13.817v16.44c0 9.04-.274 17.894-.609 19.674-1.322 7.022-5.922 13.319-12.093 16.553-2.791 1.462-3.895 1.685-8.324 1.687-6.128.001-9.23-1.341-12.03-5.206-3.724-5.141-3.808-5.885-4.049-35.781l-.219-27.184h-25.756v6.909zM.461 164.874c-.156.258-.323 3.376-.372 6.928L0 178.26h14.506l-.17-6.758-.17-6.759-6.711-.169c-3.691-.093-6.839.042-6.994.3z" fill="#2C353D"/></svg><svg fill="none" viewBox="0 0 46 48" id="wrench" xmlns="http://www.w3.org/2000/svg"><path d="M8.97 13.183l7.842 7.899c1.346-1.298 2.514-2.423 3.389-3.27l-7.91-7.966-.969-4.311-7.058-4.31L.389 5.117l4.29 7.092 4.291.973zM32.8 26.051l11.597 11.614a5.515 5.515 0 010 7.775 5.455 5.455 0 01-7.74 0L25.062 33.827l7.739-7.776z" fill="#F60"/><path d="M43.678 6.707L39.357 12.7a.659.659 0 01-.556.273l-1.677.124a.663.663 0 01-.396-.148l-3.24-2.759a.666.666 0 01-.241-.43l-.201-1.527a.66.66 0 01.119-.477l4.327-5.906a.666.666 0 00-.085-.875l-1.05-.825c-.206-.192-.439-.165-.757-.103-2.988.592-8.091 3.5-9.386 7.519-1.14 3.537-.743 6.031-.743 6.031 0 1.994-.653 3.915-1.455 4.72L1.673 40.733c-.203.173-.16.13-.203.173-1.862 1.87-1.988 4.19-.189 5.998 1.8 1.808 4.035 1.231 5.898-.64.086-.087.422-.41.5-.502L30 23.005c.643-.939 2.406-1.931 4.357-2.292 0 0 2.513-.06 5.77-1.827 3.699-2.007 5.621-7.576 5.66-10.636.003-.326-.014-.56-.238-.73l-.998-.887a.658.658 0 00-.872.074z" fill="#F60"/></svg></svg>