<?xml version="1.0" standalone="no"?>
<!DOCTYPE svg PUBLIC "-//W3C//DTD SVG 20010904//EN"
 "http://www.w3.org/TR/2001/REC-SVG-20010904/DTD/svg10.dtd">
<svg version="1.0" xmlns="http://www.w3.org/2000/svg"
 width="371.000000pt" height="371.000000pt" viewBox="0 0 371.000000 371.000000"
 preserveAspectRatio="xMidYMid meet">
<metadata>
Created by potrace 1.11, written by Peter Selinger 2001-2013
</metadata>
<g transform="translate(0.000000,371.000000) scale(0.100000,-0.100000)"
fill="#000000" stroke="none">
<path d="M1527 3704 c-1 -1 -40 -4 -87 -7 -354 -23 -695 -176 -949 -427 -113
-112 -138 -141 -209 -246 -127 -189 -206 -393 -247 -634 -11 -62 -14 -313 -5
-385 26 -213 77 -378 171 -554 101 -189 133 -226 753 -848 325 -326 595 -593
600 -593 11 0 1076 1064 1076 1076 0 5 -84 93 -187 196 l-188 187 -72 -59
c-182 -148 -374 -219 -603 -225 -390 -11 -735 198 -912 550 -39 76 -73 178
-83 246 -4 24 -9 47 -11 51 -7 12 -7 209 0 268 36 276 199 536 434 691 167
110 322 159 517 164 255 7 481 -73 676 -240 l53 -45 193 192 192 192 -22 21
c-160 154 -367 278 -578 348 -110 37 -119 39 -264 62 -73 11 -242 24 -248 19z"/>
<path d="M1996 2369 l1 -201 418 -418 418 -419 424 -1 424 -1 -621 621 -620
620 -223 0 -222 0 1 -201z"/>
</g>
</svg>
